%TF.GenerationSoftware,KiCad,Pcbnew,10.0.2*%
%TF.CreationDate,2026-05-11T15:04:02-07:00*%
%TF.ProjectId,p4gpio,70346770-696f-42e6-9b69-6361645f7063,rev?*%
%TF.SameCoordinates,Original*%
%TF.FileFunction,Legend,Bot*%
%TF.FilePolarity,Positive*%
%FSLAX46Y46*%
G04 Gerber Fmt 4.6, Leading zero omitted, Abs format (unit mm)*
G04 Created by KiCad (PCBNEW 10.0.2) date 2026-05-11 15:04:02*
%MOMM*%
%LPD*%
G01*
G04 APERTURE LIST*
G04 Aperture macros list*
%AMRoundRect*
0 Rectangle with rounded corners*
0 $1 Rounding radius*
0 $2 $3 $4 $5 $6 $7 $8 $9 X,Y pos of 4 corners*
0 Add a 4 corners polygon primitive as box body*
4,1,4,$2,$3,$4,$5,$6,$7,$8,$9,$2,$3,0*
0 Add four circle primitives for the rounded corners*
1,1,$1+$1,$2,$3*
1,1,$1+$1,$4,$5*
1,1,$1+$1,$6,$7*
1,1,$1+$1,$8,$9*
0 Add four rect primitives between the rounded corners*
20,1,$1+$1,$2,$3,$4,$5,0*
20,1,$1+$1,$4,$5,$6,$7,0*
20,1,$1+$1,$6,$7,$8,$9,0*
20,1,$1+$1,$8,$9,$2,$3,0*%
G04 Aperture macros list end*
%ADD10C,0.120000*%
%ADD11C,0.600000*%
%ADD12O,2.000000X0.900000*%
%ADD13O,1.700000X0.900000*%
%ADD14C,1.700000*%
%ADD15RoundRect,0.135000X-0.135000X-0.185000X0.135000X-0.185000X0.135000X0.185000X-0.135000X0.185000X0*%
%ADD16RoundRect,0.140000X0.140000X0.170000X-0.140000X0.170000X-0.140000X-0.170000X0.140000X-0.170000X0*%
%ADD17RoundRect,0.225000X-0.250000X0.225000X-0.250000X-0.225000X0.250000X-0.225000X0.250000X0.225000X0*%
%ADD18RoundRect,0.140000X-0.140000X-0.170000X0.140000X-0.170000X0.140000X0.170000X-0.140000X0.170000X0*%
%ADD19RoundRect,0.140000X0.170000X-0.140000X0.170000X0.140000X-0.170000X0.140000X-0.170000X-0.140000X0*%
%ADD20RoundRect,0.135000X0.135000X0.185000X-0.135000X0.185000X-0.135000X-0.185000X0.135000X-0.185000X0*%
%ADD21RoundRect,0.087500X0.425000X0.087500X-0.425000X0.087500X-0.425000X-0.087500X0.425000X-0.087500X0*%
%ADD22RoundRect,0.140000X-0.170000X0.140000X-0.170000X-0.140000X0.170000X-0.140000X0.170000X0.140000X0*%
%ADD23RoundRect,0.135000X-0.185000X0.135000X-0.185000X-0.135000X0.185000X-0.135000X0.185000X0.135000X0*%
%ADD24RoundRect,0.150000X-0.587500X-0.150000X0.587500X-0.150000X0.587500X0.150000X-0.587500X0.150000X0*%
%ADD25RoundRect,0.150000X0.150000X0.200000X-0.150000X0.200000X-0.150000X-0.200000X0.150000X-0.200000X0*%
%ADD26RoundRect,0.135000X0.185000X-0.135000X0.185000X0.135000X-0.185000X0.135000X-0.185000X-0.135000X0*%
%ADD27RoundRect,0.150000X-0.200000X0.150000X-0.200000X-0.150000X0.200000X-0.150000X0.200000X0.150000X0*%
%ADD28RoundRect,0.225000X0.250000X-0.225000X0.250000X0.225000X-0.250000X0.225000X-0.250000X-0.225000X0*%
%ADD29RoundRect,0.225000X-0.225000X-0.250000X0.225000X-0.250000X0.225000X0.250000X-0.225000X0.250000X0*%
G04 APERTURE END LIST*
%TO.C,R6*%
D10*
X200480959Y-76226400D02*
X200788241Y-76226400D01*
X200480959Y-76986400D02*
X200788241Y-76986400D01*
%TO.C,C9*%
X169624836Y-81936000D02*
X169409164Y-81936000D01*
X169624836Y-82656000D02*
X169409164Y-82656000D01*
%TO.C,C20*%
X173099000Y-89813222D02*
X173099000Y-90094382D01*
X174119000Y-89813222D02*
X174119000Y-90094382D01*
%TO.C,C16*%
X173351364Y-81072400D02*
X173567036Y-81072400D01*
X173351364Y-81792400D02*
X173567036Y-81792400D01*
%TO.C,C23*%
X176805000Y-77854638D02*
X176805000Y-77638966D01*
X177525000Y-77854638D02*
X177525000Y-77638966D01*
%TO.C,C2*%
X165318436Y-80947500D02*
X165102764Y-80947500D01*
X165318436Y-81667500D02*
X165102764Y-81667500D01*
%TO.C,R16*%
X192627641Y-80000500D02*
X192320359Y-80000500D01*
X192627641Y-80760500D02*
X192320359Y-80760500D01*
%TO.C,Q3*%
X196655700Y-83372800D02*
X196655700Y-83397800D01*
X196655700Y-85567800D02*
X196655700Y-85592800D01*
X196655700Y-85592800D02*
X198125700Y-85592800D01*
X198125700Y-83372800D02*
X196655700Y-83372800D01*
X198125700Y-83397800D02*
X198125700Y-83372800D01*
X198125700Y-85592800D02*
X198125700Y-85567800D01*
X198570700Y-83392800D02*
X198710700Y-83202800D01*
X198430700Y-83202800D01*
X198570700Y-83392800D01*
G36*
X198570700Y-83392800D02*
G01*
X198430700Y-83202800D01*
X198710700Y-83202800D01*
X198570700Y-83392800D01*
G37*
%TO.C,C11*%
X169416000Y-90042420D02*
X169416000Y-90323580D01*
X170436000Y-90042420D02*
X170436000Y-90323580D01*
%TO.C,C41*%
X179726000Y-81730966D02*
X179726000Y-81946638D01*
X180446000Y-81730966D02*
X180446000Y-81946638D01*
%TO.C,R15*%
X192660000Y-81786759D02*
X192660000Y-82094041D01*
X193420000Y-81786759D02*
X193420000Y-82094041D01*
%TO.C,C32*%
X181969236Y-85466602D02*
X181753564Y-85466602D01*
X181969236Y-86186602D02*
X181753564Y-86186602D01*
%TO.C,R2*%
X163196000Y-81634359D02*
X163196000Y-81941641D01*
X163956000Y-81634359D02*
X163956000Y-81941641D01*
%TO.C,Q4*%
X196733900Y-86057200D02*
X196733900Y-86107200D01*
X196733900Y-87227200D02*
X196733900Y-88007200D01*
X196733900Y-89127200D02*
X196733900Y-89177200D01*
X196733900Y-89177200D02*
X198253900Y-89177200D01*
X198253900Y-86057200D02*
X196733900Y-86057200D01*
X198253900Y-87057200D02*
X198253900Y-86057200D01*
X198253900Y-89177200D02*
X198253900Y-88177200D01*
X196193900Y-87997200D02*
X196433900Y-87667200D01*
X195953900Y-87667200D01*
X196193900Y-87997200D01*
G36*
X196193900Y-87997200D02*
G01*
X195953900Y-87667200D01*
X196433900Y-87667200D01*
X196193900Y-87997200D01*
G37*
%TO.C,C18*%
X173249000Y-77755638D02*
X173249000Y-77539966D01*
X173969000Y-77755638D02*
X173969000Y-77539966D01*
%TO.C,C29*%
X179751400Y-89134838D02*
X179751400Y-88919166D01*
X180471400Y-89134838D02*
X180471400Y-88919166D01*
%TO.C,C8*%
X170734400Y-84524964D02*
X170734400Y-84740636D01*
X171454400Y-84524964D02*
X171454400Y-84740636D01*
%TO.C,C34*%
X199010300Y-82134264D02*
X199010300Y-82349936D01*
X199730300Y-82134264D02*
X199730300Y-82349936D01*
%TO.C,C26*%
X178837000Y-78644638D02*
X178837000Y-78428966D01*
X179557000Y-78644638D02*
X179557000Y-78428966D01*
%TO.C,C40*%
X178726000Y-81730966D02*
X178726000Y-81946638D01*
X179446000Y-81730966D02*
X179446000Y-81946638D01*
%TO.C,C30*%
X183659964Y-87939802D02*
X183875636Y-87939802D01*
X183659964Y-88659802D02*
X183875636Y-88659802D01*
%TO.C,D5*%
X199662000Y-87968000D02*
X199662000Y-86768000D01*
X201622000Y-86768000D02*
X199662000Y-86768000D01*
X201622000Y-87968000D02*
X199662000Y-87968000D01*
%TO.C,Q2*%
X197012400Y-79013300D02*
X197012400Y-79063300D01*
X197012400Y-80183300D02*
X197012400Y-80963300D01*
X197012400Y-82083300D02*
X197012400Y-82133300D01*
X197012400Y-82133300D02*
X198532400Y-82133300D01*
X198532400Y-79013300D02*
X197012400Y-79013300D01*
X198532400Y-80013300D02*
X198532400Y-79013300D01*
X198532400Y-82133300D02*
X198532400Y-81133300D01*
X196472400Y-80953300D02*
X196712400Y-80623300D01*
X196232400Y-80623300D01*
X196472400Y-80953300D01*
G36*
X196472400Y-80953300D02*
G01*
X196232400Y-80623300D01*
X196712400Y-80623300D01*
X196472400Y-80953300D01*
G37*
%TO.C,R28*%
X182953400Y-90739443D02*
X182953400Y-90432161D01*
X183713400Y-90739443D02*
X183713400Y-90432161D01*
%TO.C,C25*%
X179823800Y-78240836D02*
X179823800Y-78025164D01*
X180543800Y-78240836D02*
X180543800Y-78025164D01*
%TO.C,D4*%
X200576000Y-80637000D02*
X200576000Y-82597000D01*
X201776000Y-80637000D02*
X201776000Y-82597000D01*
X201776000Y-82597000D02*
X200576000Y-82597000D01*
%TO.C,Q1*%
X196934200Y-76328900D02*
X196934200Y-76353900D01*
X196934200Y-78523900D02*
X196934200Y-78548900D01*
X196934200Y-78548900D02*
X198404200Y-78548900D01*
X198404200Y-76328900D02*
X196934200Y-76328900D01*
X198404200Y-76353900D02*
X198404200Y-76328900D01*
X198404200Y-78548900D02*
X198404200Y-78523900D01*
X198849200Y-76348900D02*
X198989200Y-76158900D01*
X198709200Y-76158900D01*
X198849200Y-76348900D01*
G36*
X198849200Y-76348900D02*
G01*
X198709200Y-76158900D01*
X198989200Y-76158900D01*
X198849200Y-76348900D01*
G37*
%TO.C,R14*%
X192477959Y-83084400D02*
X192785241Y-83084400D01*
X192477959Y-83844400D02*
X192785241Y-83844400D01*
%TO.C,C42*%
X177726000Y-81710966D02*
X177726000Y-81926638D01*
X178446000Y-81710966D02*
X178446000Y-81926638D01*
%TO.C,C7*%
X173374164Y-86635000D02*
X173589836Y-86635000D01*
X173374164Y-87355000D02*
X173589836Y-87355000D01*
%TO.C,R200*%
X170943000Y-90395359D02*
X170943000Y-90702641D01*
X171703000Y-90395359D02*
X171703000Y-90702641D01*
%TO.C,C6*%
X170759800Y-86635764D02*
X170759800Y-86851436D01*
X171479800Y-86635764D02*
X171479800Y-86851436D01*
%TO.C,R7*%
X195180300Y-77084541D02*
X195180300Y-76777259D01*
X195940300Y-77084541D02*
X195940300Y-76777259D01*
%TO.C,C36*%
X191627300Y-81853364D02*
X191627300Y-82069036D01*
X192347300Y-81853364D02*
X192347300Y-82069036D01*
%TO.C,C28*%
X178306000Y-88964382D02*
X178306000Y-88683222D01*
X179326000Y-88964382D02*
X179326000Y-88683222D01*
%TO.C,C35*%
X198731800Y-89178164D02*
X198731800Y-89393836D01*
X199451800Y-89178164D02*
X199451800Y-89393836D01*
%TO.C,C33*%
X171577564Y-88643002D02*
X171793236Y-88643002D01*
X171577564Y-89363002D02*
X171793236Y-89363002D01*
%TO.C,C21*%
X174900000Y-89350966D02*
X174900000Y-89566638D01*
X175620000Y-89350966D02*
X175620000Y-89566638D01*
%TO.C,C31*%
X183654764Y-86923802D02*
X183870436Y-86923802D01*
X183654764Y-87643802D02*
X183870436Y-87643802D01*
%TO.C,C27*%
X177821000Y-78644638D02*
X177821000Y-78428966D01*
X178541000Y-78644638D02*
X178541000Y-78428966D01*
%TO.C,R209*%
X173836359Y-79376000D02*
X174143641Y-79376000D01*
X173836359Y-80136000D02*
X174143641Y-80136000D01*
%TO.C,C14*%
X173493820Y-83233800D02*
X173774980Y-83233800D01*
X173493820Y-84253800D02*
X173774980Y-84253800D01*
%TO.C,C13*%
X173351364Y-82088400D02*
X173567036Y-82088400D01*
X173351364Y-82808400D02*
X173567036Y-82808400D01*
%TO.C,R1*%
X165077759Y-81943500D02*
X165385041Y-81943500D01*
X165077759Y-82703500D02*
X165385041Y-82703500D01*
%TO.C,C24*%
X176551000Y-89134838D02*
X176551000Y-88919166D01*
X177271000Y-89134838D02*
X177271000Y-88919166D01*
%TO.C,R39*%
X180819800Y-79157043D02*
X180819800Y-78849761D01*
X181579800Y-79157043D02*
X181579800Y-78849761D01*
%TO.C,R10*%
X194647800Y-88801559D02*
X194647800Y-89108841D01*
X195407800Y-88801559D02*
X195407800Y-89108841D01*
%TO.C,R8*%
X194926300Y-81757659D02*
X194926300Y-82064941D01*
X195686300Y-81757659D02*
X195686300Y-82064941D01*
%TO.C,R9*%
X194901800Y-84128441D02*
X194901800Y-83821159D01*
X195661800Y-84128441D02*
X195661800Y-83821159D01*
%TO.C,C12*%
X173374164Y-87625600D02*
X173589836Y-87625600D01*
X173374164Y-88345600D02*
X173589836Y-88345600D01*
%TD*%
%LPC*%
D11*
%TO.C,J2*%
X204720000Y-81021076D03*
X204720000Y-75241076D03*
D12*
X204220000Y-82451076D03*
D13*
X208400000Y-82451076D03*
D12*
X204220000Y-73811076D03*
D13*
X208400000Y-73811076D03*
%TD*%
D14*
%TO.C,J10*%
X200160000Y-94480000D03*
X197620000Y-94480000D03*
X195080000Y-94480000D03*
X192540000Y-94480000D03*
%TD*%
%TO.C,J9*%
X200160000Y-74160000D03*
X197620000Y-74160000D03*
X195080000Y-74160000D03*
X192540000Y-74160000D03*
%TD*%
D11*
%TO.C,J1*%
X204720000Y-93390000D03*
X204720000Y-87610000D03*
D12*
X204220000Y-94820000D03*
D13*
X208400000Y-94820000D03*
D12*
X204220000Y-86180000D03*
D13*
X208400000Y-86180000D03*
%TD*%
D15*
%TO.C,R6*%
X200124600Y-76606400D03*
X201144600Y-76606400D03*
%TD*%
D16*
%TO.C,C9*%
X169997000Y-82296000D03*
X169037000Y-82296000D03*
%TD*%
D17*
%TO.C,C20*%
X173609000Y-89178802D03*
X173609000Y-90728802D03*
%TD*%
D18*
%TO.C,C16*%
X172979200Y-81432400D03*
X173939200Y-81432400D03*
%TD*%
D14*
%TO.C,J7*%
X164600000Y-94480000D03*
X162060000Y-94480000D03*
X159520000Y-94480000D03*
X156980000Y-94480000D03*
X154440000Y-94480000D03*
X151900000Y-94480000D03*
X149360000Y-94480000D03*
X146820000Y-94480000D03*
%TD*%
D19*
%TO.C,C23*%
X177165000Y-78226802D03*
X177165000Y-77266802D03*
%TD*%
D16*
%TO.C,C2*%
X165690600Y-81307500D03*
X164730600Y-81307500D03*
%TD*%
D14*
%TO.C,J5*%
X141740000Y-74160000D03*
X139200000Y-74160000D03*
X136660000Y-74160000D03*
X134120000Y-74160000D03*
X131580000Y-74160000D03*
X129040000Y-74160000D03*
X126500000Y-74160000D03*
X123960000Y-74160000D03*
%TD*%
%TO.C,J4*%
X164600000Y-74160000D03*
X162060000Y-74160000D03*
X159520000Y-74160000D03*
X156980000Y-74160000D03*
X154440000Y-74160000D03*
X151900000Y-74160000D03*
X149360000Y-74160000D03*
X146820000Y-74160000D03*
%TD*%
D20*
%TO.C,R16*%
X192984000Y-80380500D03*
X191964000Y-80380500D03*
%TD*%
D21*
%TO.C,Q3*%
X198228200Y-83832800D03*
X198228200Y-84482800D03*
X198228200Y-85132800D03*
X196553200Y-85132800D03*
X196553200Y-84482800D03*
X196553200Y-83832800D03*
%TD*%
D17*
%TO.C,C11*%
X169926000Y-89408000D03*
X169926000Y-90958000D03*
%TD*%
D22*
%TO.C,C41*%
X180086000Y-81358802D03*
X180086000Y-82318802D03*
%TD*%
D23*
%TO.C,R15*%
X193040000Y-81430400D03*
X193040000Y-82450400D03*
%TD*%
D16*
%TO.C,C32*%
X182341400Y-85826602D03*
X181381400Y-85826602D03*
%TD*%
D23*
%TO.C,R2*%
X163576000Y-81278000D03*
X163576000Y-82298000D03*
%TD*%
D24*
%TO.C,Q4*%
X196556400Y-88567200D03*
X196556400Y-86667200D03*
X198431400Y-87617200D03*
%TD*%
D19*
%TO.C,C18*%
X173609000Y-78127802D03*
X173609000Y-77167802D03*
%TD*%
%TO.C,C29*%
X180111400Y-89507002D03*
X180111400Y-88547002D03*
%TD*%
D22*
%TO.C,C8*%
X171094400Y-84152800D03*
X171094400Y-85112800D03*
%TD*%
%TO.C,C34*%
X199370300Y-81762100D03*
X199370300Y-82722100D03*
%TD*%
D19*
%TO.C,C26*%
X179197000Y-79016802D03*
X179197000Y-78056802D03*
%TD*%
D22*
%TO.C,C40*%
X179086000Y-81358802D03*
X179086000Y-82318802D03*
%TD*%
D18*
%TO.C,C30*%
X183287800Y-88299802D03*
X184247800Y-88299802D03*
%TD*%
D25*
%TO.C,D5*%
X200222000Y-87368000D03*
X201622000Y-87368000D03*
%TD*%
D24*
%TO.C,Q2*%
X196834900Y-81523300D03*
X196834900Y-79623300D03*
X198709900Y-80573300D03*
%TD*%
D26*
%TO.C,R28*%
X183333400Y-91095802D03*
X183333400Y-90075802D03*
%TD*%
D19*
%TO.C,C25*%
X180183800Y-78613000D03*
X180183800Y-77653000D03*
%TD*%
D27*
%TO.C,D4*%
X201176000Y-82037000D03*
X201176000Y-80637000D03*
%TD*%
D21*
%TO.C,Q1*%
X198506700Y-76788900D03*
X198506700Y-77438900D03*
X198506700Y-78088900D03*
X196831700Y-78088900D03*
X196831700Y-77438900D03*
X196831700Y-76788900D03*
%TD*%
D15*
%TO.C,R14*%
X192121600Y-83464400D03*
X193141600Y-83464400D03*
%TD*%
D22*
%TO.C,C42*%
X178086000Y-81338802D03*
X178086000Y-82298802D03*
%TD*%
D18*
%TO.C,C7*%
X173002000Y-86995000D03*
X173962000Y-86995000D03*
%TD*%
D23*
%TO.C,R200*%
X171323000Y-90039000D03*
X171323000Y-91059000D03*
%TD*%
D22*
%TO.C,C6*%
X171119800Y-86263600D03*
X171119800Y-87223600D03*
%TD*%
D26*
%TO.C,R7*%
X195560300Y-77440900D03*
X195560300Y-76420900D03*
%TD*%
D22*
%TO.C,C36*%
X191987300Y-81481200D03*
X191987300Y-82441200D03*
%TD*%
D28*
%TO.C,C28*%
X178816000Y-89598802D03*
X178816000Y-88048802D03*
%TD*%
D22*
%TO.C,C35*%
X199091800Y-88806000D03*
X199091800Y-89766000D03*
%TD*%
D18*
%TO.C,C33*%
X171205400Y-89003002D03*
X172165400Y-89003002D03*
%TD*%
D22*
%TO.C,C21*%
X175260000Y-88978802D03*
X175260000Y-89938802D03*
%TD*%
D18*
%TO.C,C31*%
X183282600Y-87283802D03*
X184242600Y-87283802D03*
%TD*%
D14*
%TO.C,J8*%
X141740000Y-94480000D03*
X139200000Y-94480000D03*
X136660000Y-94480000D03*
X134120000Y-94480000D03*
X131580000Y-94480000D03*
X129040000Y-94480000D03*
X126500000Y-94480000D03*
X123960000Y-94480000D03*
%TD*%
D19*
%TO.C,C27*%
X178181000Y-79016802D03*
X178181000Y-78056802D03*
%TD*%
D15*
%TO.C,R209*%
X173480000Y-79756000D03*
X174500000Y-79756000D03*
%TD*%
D29*
%TO.C,C14*%
X172859400Y-83743800D03*
X174409400Y-83743800D03*
%TD*%
D18*
%TO.C,C13*%
X172979200Y-82448400D03*
X173939200Y-82448400D03*
%TD*%
D14*
%TO.C,J6*%
X187460000Y-94480000D03*
X184920000Y-94480000D03*
X182380000Y-94480000D03*
X179840000Y-94480000D03*
X177300000Y-94480000D03*
X174760000Y-94480000D03*
X172220000Y-94480000D03*
X169680000Y-94480000D03*
%TD*%
D15*
%TO.C,R1*%
X164721400Y-82323500D03*
X165741400Y-82323500D03*
%TD*%
D19*
%TO.C,C24*%
X176911000Y-89507002D03*
X176911000Y-88547002D03*
%TD*%
D26*
%TO.C,R39*%
X181199800Y-79513402D03*
X181199800Y-78493402D03*
%TD*%
D23*
%TO.C,R10*%
X195027800Y-88445200D03*
X195027800Y-89465200D03*
%TD*%
%TO.C,R8*%
X195306300Y-81401300D03*
X195306300Y-82421300D03*
%TD*%
D14*
%TO.C,J3*%
X187460000Y-74160000D03*
X184920000Y-74160000D03*
X182380000Y-74160000D03*
X179840000Y-74160000D03*
X177300000Y-74160000D03*
X174760000Y-74160000D03*
X172220000Y-74160000D03*
X169680000Y-74160000D03*
%TD*%
D26*
%TO.C,R9*%
X195281800Y-84484800D03*
X195281800Y-83464800D03*
%TD*%
D18*
%TO.C,C12*%
X173002000Y-87985600D03*
X173962000Y-87985600D03*
%TD*%
%LPD*%
M02*
