M48
; DRILL file KiCad 10.0.1 date 2026-04-23T11:40:39
; FORMAT={-:-/ absolute / inch / decimal}
; #@! TF.CreationDate,2026-04-23T11:40:39-07:00
; #@! TF.GenerationSoftware,Kicad,Pcbnew,10.0.1
; #@! TF.FileFunction,Plated,1,4,PTH
FMAT,2
INCH
; #@! TA.AperFunction,Plated,PTH,ViaDrill
T1C0.0118
; #@! TA.AperFunction,Plated,PTH,ComponentDrill
T2C0.0236
; #@! TA.AperFunction,Plated,PTH,ComponentDrill
T3C0.0394
%
G90
G05
T1
X4.97Y-3.258
X5.038Y-3.213
X5.084Y-3.339
X5.085Y-3.379
X5.1Y-3.259
X5.152Y-3.407
X5.229Y-3.464
X5.297Y-3.18
X5.309Y-3.407
X5.584Y-3.178
X5.682Y-3.326
X5.716Y-3.384
X5.776Y-3.44
X5.777Y-3.335
X5.843Y-3.386
X6.052Y-3.231
X6.13Y-3.49
X6.131Y-3.19
X6.204Y-3.232
X6.31Y-3.21
X6.32Y-3.02
X6.36Y-3.21
X6.39Y-3.05
X6.41Y-3.16
X6.41Y-3.2
X6.4494Y-3.4
X6.4499Y-3.421
X6.45Y-3.05
X6.45Y-3.36
X6.45Y-3.38
X6.4514Y-3.3374
X6.455Y-3.442
X6.455Y-3.462
X6.455Y-3.482
X6.455Y-3.502
X6.455Y-3.522
X6.455Y-3.542
X6.4641Y-3.2374
X6.471Y-3.326
X6.475Y-3.547
X6.495Y-3.3247
X6.495Y-3.547
X6.515Y-3.547
X6.52Y-3.327
X6.535Y-3.547
X6.54Y-3.327
X6.55Y-3.2374
X6.55Y-3.347
X6.55Y-3.367
X6.55Y-3.492
X6.55Y-3.512
X6.55Y-3.532
X6.565Y-3.382
X6.565Y-3.402
X6.57Y-3.502
X6.5725Y-3.3596
X6.585Y-3.402
X6.595Y-3.502
X6.599Y-3.326
X6.605Y-3.402
X6.618Y-3.343
X6.62Y-2.98
X6.62Y-3.502
X6.6282Y-3.2019
X6.63Y-3.402
X6.636Y-3.035
X6.6386Y-3.0639
X6.6392Y-3.3365
X6.6427Y-3.4949
X6.652Y-3.4283
X6.6567Y-3.0534
X6.6578Y-3.3195
X6.658Y-3.4795
X6.678Y-3.4795
X6.6787Y-3.2856
X6.6801Y-3.4283
X6.6833Y-3.3074
X6.69Y-2.98
X6.7014Y-3.1461
X6.702Y-3.402
X6.7153Y-3.1247
X6.7244Y-3.5253
X6.74Y-3.05
X6.7687Y-3.1739
X6.77Y-3.06
X6.771Y-3.474
X6.772Y-3.431
X6.7726Y-3.3179
X6.773Y-3.196
X6.7731Y-3.218
X6.7733Y-3.3911
X6.777Y-3.2796
X6.795Y-3.115
X6.8012Y-3.168
X6.81Y-3.386
X6.827Y-3.615
X6.834Y-3.388
X6.8363Y-3.1056
X6.8555Y-3.1698
X6.858Y-3.388
X6.8749Y-3.5019
X6.878Y-3.6132
X6.8784Y-3.566
X6.881Y-3.172
X6.883Y-3.362
X6.884Y-3.22
X6.884Y-3.246
X6.884Y-3.276
X6.884Y-3.386
X6.884Y-3.412
X6.884Y-3.438
X6.884Y-3.464
X6.8845Y-3.1974
X6.8991Y-3.6025
X6.908Y-3.28
X6.91Y-3.386
X6.915Y-3.071
X6.9191Y-3.1697
X6.92Y-3.104
X6.9227Y-3.6061
X6.934Y-3.28
X6.935Y-3.4971
X6.936Y-3.386
X6.9429Y-3.1692
X6.948Y-3.027
X6.9518Y-3.6119
X6.962Y-3.386
X6.975Y-3.1702
X6.979Y-3.616
X6.9807Y-3.1069
X6.988Y-3.365
X6.988Y-3.386
X6.988Y-3.406
X6.988Y-3.426
X6.988Y-3.452
X6.988Y-3.478
X7.004Y-3.62
X7.008Y-3.386
X7.0275Y-3.1699
X7.06Y-3.009
X7.06Y-3.28
X7.0604Y-3.4979
X7.066Y-3.17
X7.086Y-3.28
X7.0964Y-3.1758
X7.098Y-3.262
X7.1Y-3.302
X7.1Y-3.328
X7.1Y-3.354
X7.1Y-3.38
X7.1Y-3.406
X7.1Y-3.432
X7.1Y-3.458
X7.1067Y-3.6358
X7.109Y-3.1129
X7.119Y-3.009
X7.125Y-3.53
X7.13Y-3.67
X7.1733Y-3.5819
X7.177Y-3.093
X7.191Y-3.473
X7.2167Y-3.6053
X7.46Y-3.1
X7.46Y-3.13
X7.46Y-3.16
X7.489Y-3.167
X7.493Y-3.241
X7.52Y-3.12
X7.52Y-3.18
X7.524Y-3.23
X7.532Y-3.15
X7.548Y-3.444
X7.56Y-3.63
X7.566Y-3.02
X7.568Y-3.462
X7.578Y-3.315
X7.58Y-3.38
X7.588Y-3.482
X7.59Y-3.1
X7.59Y-3.12
X7.6Y-3.63
X7.61Y-3.01
X7.64Y-3.63
X7.684Y-3.392
X7.696Y-3.162
X7.696Y-3.374
X7.703Y-3.139
X7.71Y-3.45
X7.7375Y-3.1046
X7.74Y-2.99
X7.76Y-3.27
X7.77Y-2.98
X7.78Y-3.27
X7.78Y-3.38
X7.79Y-3.559
X7.792Y-3.487
X7.84Y-3.57
X7.86Y-3.57
X7.88Y-3.37
X7.902Y-3.408
X7.919Y-3.367
X7.9208Y-2.9946
X7.927Y-3.048
X7.93Y-3.132
X7.932Y-3.408
X7.94Y-2.972
X7.945Y-3.367
X7.948Y-3.186
X7.948Y-3.714
X7.949Y-3.683
X7.95Y-3.61
X7.95Y-3.636
X7.951Y-2.912
X7.956Y-2.986
X7.956Y-3.271
X7.957Y-3.233
X7.9636Y-3.1676
X7.964Y-2.944
X8.04Y-3.11
X8.044Y-3.07
X8.049Y-3.53
X8.0548Y-3.5734
X8.13Y-2.9
X8.13Y-2.94
X8.13Y-3.0
X8.13Y-3.06
X8.13Y-3.1
X8.13Y-3.15
X8.13Y-3.22
X8.13Y-3.28
X8.13Y-3.33
X8.13Y-3.4
X8.13Y-3.46
X8.13Y-3.51
X8.13Y-3.57
X8.13Y-3.63
X8.13Y-3.68
T3
X4.8803Y-2.9197
X4.8803Y-3.7197
X4.9803Y-2.9197
X4.9803Y-3.7197
X5.0803Y-2.9197
X5.0803Y-3.7197
X5.1803Y-2.9197
X5.1803Y-3.7197
X5.2803Y-2.9197
X5.2803Y-3.7197
X5.3803Y-2.9197
X5.3803Y-3.7197
X5.4803Y-2.9197
X5.4803Y-3.7197
X5.5803Y-2.9197
X5.5803Y-3.7197
X5.7803Y-2.9197
X5.7803Y-3.7197
X5.8803Y-2.9197
X5.8803Y-3.7197
X5.9803Y-2.9197
X5.9803Y-3.7197
X6.0803Y-2.9197
X6.0803Y-3.7197
X6.1803Y-2.9197
X6.1803Y-3.7197
X6.2803Y-2.9197
X6.2803Y-3.7197
X6.3803Y-2.9197
X6.3803Y-3.7197
X6.4803Y-2.9197
X6.4803Y-3.7197
X6.6803Y-2.9197
X6.6803Y-3.7197
X6.7803Y-2.9197
X6.7803Y-3.7197
X6.8803Y-2.9197
X6.8803Y-3.7197
X6.9803Y-2.9197
X6.9803Y-3.7197
X7.0803Y-2.9197
X7.0803Y-3.7197
X7.1803Y-2.9197
X7.1803Y-3.7197
X7.2803Y-2.9197
X7.2803Y-3.7197
X7.3803Y-2.9197
X7.3803Y-3.7197
X7.5803Y-2.9197
X7.5803Y-3.7197
X7.6803Y-2.9197
X7.6803Y-3.7197
X7.7803Y-2.9197
X7.7803Y-3.7197
X7.8803Y-2.9197
X7.8803Y-3.7197
T2
G00X8.0185Y-2.9102
M15
G01X8.0618Y-2.9102
M16
G05
G00X8.0185Y-3.2504
M15
G01X8.0618Y-3.2504
M16
G05
G00X8.0185Y-3.3701
M15
G01X8.0618Y-3.3701
M16
G05
G00X8.0185Y-3.7102
M15
G01X8.0618Y-3.7102
M16
G05
G00X8.1929Y-2.9102
M15
G01X8.2165Y-2.9102
M16
G05
G00X8.1929Y-3.2504
M15
G01X8.2165Y-3.2504
M16
G05
G00X8.1929Y-3.3701
M15
G01X8.2165Y-3.3701
M16
G05
G00X8.1929Y-3.7102
M15
G01X8.2165Y-3.7102
M16
G05
M30
