%TF.GenerationSoftware,KiCad,Pcbnew,10.0.1*%
%TF.CreationDate,2026-05-07T16:17:07-07:00*%
%TF.ProjectId,p4gpio,70346770-696f-42e6-9b69-6361645f7063,rev?*%
%TF.SameCoordinates,Original*%
%TF.FileFunction,Copper,L2,Inr*%
%TF.FilePolarity,Positive*%
%FSLAX46Y46*%
G04 Gerber Fmt 4.6, Leading zero omitted, Abs format (unit mm)*
G04 Created by KiCad (PCBNEW 10.0.1) date 2026-05-07 16:17:07*
%MOMM*%
%LPD*%
G01*
G04 APERTURE LIST*
%TA.AperFunction,ComponentPad*%
%ADD10O,2.000000X0.900000*%
%TD*%
%TA.AperFunction,ComponentPad*%
%ADD11O,1.700000X0.900000*%
%TD*%
%TA.AperFunction,ComponentPad*%
%ADD12C,1.700000*%
%TD*%
%TA.AperFunction,ViaPad*%
%ADD13C,0.450000*%
%TD*%
%TA.AperFunction,ViaPad*%
%ADD14C,0.400000*%
%TD*%
G04 APERTURE END LIST*
D10*
%TO.N,GND*%
%TO.C,J2*%
X204220000Y-82451076D03*
D11*
X208400000Y-82451076D03*
D10*
X204220000Y-73811076D03*
D11*
X208400000Y-73811076D03*
%TD*%
D12*
%TO.N,+3.3V*%
%TO.C,J10*%
X200160000Y-94480000D03*
%TO.N,/BOOT*%
X197620000Y-94480000D03*
%TO.N,GND*%
X195080000Y-94480000D03*
%TO.N,/RESET*%
X192540000Y-94480000D03*
%TD*%
%TO.N,+3.3V*%
%TO.C,J9*%
X200160000Y-74160000D03*
%TO.N,/BOOT*%
X197620000Y-74160000D03*
%TO.N,GND*%
X195080000Y-74160000D03*
%TO.N,/RESET*%
X192540000Y-74160000D03*
%TD*%
D10*
%TO.N,GND*%
%TO.C,J1*%
X204220000Y-94820000D03*
D11*
X208400000Y-94820000D03*
D10*
X204220000Y-86180000D03*
D11*
X208400000Y-86180000D03*
%TD*%
D12*
%TO.N,/B2_7*%
%TO.C,J7*%
X164600000Y-94480000D03*
%TO.N,/B2_6*%
X162060000Y-94480000D03*
%TO.N,/B2_5*%
X159520000Y-94480000D03*
%TO.N,/B2_4*%
X156980000Y-94480000D03*
%TO.N,/B2_3*%
X154440000Y-94480000D03*
%TO.N,/B2_2*%
X151900000Y-94480000D03*
%TO.N,/B2_1*%
X149360000Y-94480000D03*
%TO.N,/B2_0*%
X146820000Y-94480000D03*
%TD*%
%TO.N,/T1_7*%
%TO.C,J5*%
X141740000Y-74160000D03*
%TO.N,/T1_6*%
X139200000Y-74160000D03*
%TO.N,/T1_5*%
X136660000Y-74160000D03*
%TO.N,/T1_4*%
X134120000Y-74160000D03*
%TO.N,/T1_3*%
X131580000Y-74160000D03*
%TO.N,/T1_2*%
X129040000Y-74160000D03*
%TO.N,/T1_1*%
X126500000Y-74160000D03*
%TO.N,/T1_0*%
X123960000Y-74160000D03*
%TD*%
%TO.N,/T2_7*%
%TO.C,J4*%
X164600000Y-74160000D03*
%TO.N,/T2_6*%
X162060000Y-74160000D03*
%TO.N,/T2_5*%
X159520000Y-74160000D03*
%TO.N,/T2_4*%
X156980000Y-74160000D03*
%TO.N,/T2_3*%
X154440000Y-74160000D03*
%TO.N,/T2_2*%
X151900000Y-74160000D03*
%TO.N,/T2_1*%
X149360000Y-74160000D03*
%TO.N,/T2_0*%
X146820000Y-74160000D03*
%TD*%
%TO.N,/B1_7*%
%TO.C,J8*%
X141740000Y-94480000D03*
%TO.N,/B1_6*%
X139200000Y-94480000D03*
%TO.N,/B1_5*%
X136660000Y-94480000D03*
%TO.N,/B1_4*%
X134120000Y-94480000D03*
%TO.N,/B1_3*%
X131580000Y-94480000D03*
%TO.N,/B1_2*%
X129040000Y-94480000D03*
%TO.N,/B1_1*%
X126500000Y-94480000D03*
%TO.N,/B1_0*%
X123960000Y-94480000D03*
%TD*%
%TO.N,/B3_7*%
%TO.C,J6*%
X187460000Y-94480000D03*
%TO.N,/B3_6*%
X184920000Y-94480000D03*
%TO.N,/B3_5*%
X182380000Y-94480000D03*
%TO.N,/B3_4*%
X179840000Y-94480000D03*
%TO.N,/B3_3*%
X177300000Y-94480000D03*
%TO.N,/B3_2*%
X174760000Y-94480000D03*
%TO.N,/B3_1*%
X172220000Y-94480000D03*
%TO.N,/B3_0*%
X169680000Y-94480000D03*
%TD*%
%TO.N,/T3_7*%
%TO.C,J3*%
X187460000Y-74160000D03*
%TO.N,/T3_6*%
X184920000Y-74160000D03*
%TO.N,/T3_5*%
X182380000Y-74160000D03*
%TO.N,/T3_4*%
X179840000Y-74160000D03*
%TO.N,/T3_3*%
X177300000Y-74160000D03*
%TO.N,/T3_2*%
X174760000Y-74160000D03*
%TO.N,/T3_1*%
X172220000Y-74160000D03*
%TO.N,/T3_0*%
X169680000Y-74160000D03*
%TD*%
D13*
%TO.N,/RESET*%
X180510000Y-92350000D03*
X190220600Y-80441800D03*
X155702000Y-88646000D03*
X192176400Y-76708000D03*
D14*
X170801000Y-89543774D03*
D13*
X190321027Y-82322573D03*
%TO.N,GND*%
X192786000Y-78740000D03*
X206502000Y-86940000D03*
X192786000Y-79248000D03*
X202082400Y-83083400D03*
X146710400Y-87376000D03*
X161544000Y-81534000D03*
X180340000Y-87833200D03*
X176834800Y-86004400D03*
X197104000Y-83058000D03*
X206502000Y-92782000D03*
X174193200Y-86055200D03*
X180340000Y-87172800D03*
X206502000Y-94052000D03*
X206502000Y-88464000D03*
X166751000Y-86410802D03*
X178003200Y-86004400D03*
X168960800Y-87079952D03*
X180289200Y-82854800D03*
X174853600Y-83210400D03*
X206491999Y-74567076D03*
X168357209Y-81329367D03*
X202107800Y-82118200D03*
X168148000Y-75692000D03*
X166370000Y-89712802D03*
X166370000Y-85521802D03*
X201955400Y-73964800D03*
X171196000Y-77470000D03*
X202285600Y-74777600D03*
X179984400Y-83312000D03*
X199136000Y-90678000D03*
X175514000Y-86004400D03*
X167513000Y-88950802D03*
X164973000Y-90093802D03*
X166116000Y-84505802D03*
X206491999Y-78631076D03*
X165608000Y-84505802D03*
X201879200Y-94335600D03*
X173583600Y-86055200D03*
X189484000Y-79502000D03*
X166751000Y-85902802D03*
X179476400Y-80518000D03*
X127965200Y-81610200D03*
X163830000Y-85344000D03*
X174853600Y-81788000D03*
X201142600Y-85521800D03*
X168148000Y-88950802D03*
X165989000Y-90093802D03*
X172974000Y-86004400D03*
X197612000Y-83058000D03*
X126238000Y-82753200D03*
X177495200Y-86004400D03*
X180340000Y-85191600D03*
X180340000Y-84531200D03*
X206491999Y-83203076D03*
X174853600Y-86004400D03*
X148412200Y-86004400D03*
X163828562Y-86893638D03*
X162814000Y-81280000D03*
X163865868Y-84770117D03*
X189484000Y-78740000D03*
X193294000Y-76454000D03*
X194056000Y-92202000D03*
X163957000Y-89966802D03*
X191008000Y-79248000D03*
X168723343Y-88769458D03*
X174853600Y-86664800D03*
X169675675Y-87079952D03*
X201803000Y-85521800D03*
X146735800Y-84709000D03*
X192024000Y-92202000D03*
X163957000Y-88950802D03*
X181102000Y-93218000D03*
X174853600Y-82448400D03*
X163957000Y-88442802D03*
X192532000Y-85852000D03*
X163957000Y-87934802D03*
X166370000Y-88696802D03*
X168402000Y-86410802D03*
X174853600Y-87325200D03*
X177495200Y-85471000D03*
X206491999Y-76091076D03*
X132816600Y-87985600D03*
X169113200Y-88379952D03*
X180340000Y-83870800D03*
X166878000Y-88950802D03*
X206491999Y-79901076D03*
X153720800Y-82067400D03*
X129540000Y-82778600D03*
X163957000Y-89458802D03*
X163830000Y-85852000D03*
X166370000Y-85013802D03*
X130860800Y-86537800D03*
X206502000Y-91258000D03*
X191008000Y-80772000D03*
X193040000Y-92202000D03*
X196596000Y-75946000D03*
X206502000Y-89734000D03*
X206491999Y-77615076D03*
X134848600Y-86537800D03*
X176174400Y-86004400D03*
X197358000Y-75692000D03*
X165481000Y-90093802D03*
X201345800Y-77419200D03*
X167259000Y-86410802D03*
X180340000Y-86512400D03*
X200152000Y-85598000D03*
X169621200Y-88379952D03*
X189484000Y-80264000D03*
X195834000Y-87630000D03*
X169926000Y-75692000D03*
X163814200Y-86360000D03*
X175463200Y-83312000D03*
X201904600Y-93548200D03*
X164465000Y-90093802D03*
X199644000Y-90678000D03*
X206491999Y-73551076D03*
X201422000Y-79552800D03*
X180340000Y-85852000D03*
X206491999Y-81679076D03*
X163830000Y-77470000D03*
X157581600Y-82092800D03*
X170214864Y-79911401D03*
X179324000Y-83312000D03*
X180822600Y-76428600D03*
X174865224Y-81212842D03*
X167767000Y-86410802D03*
X177495200Y-87020400D03*
X145186400Y-85953600D03*
X171958000Y-77724000D03*
X160528000Y-76708000D03*
X177495200Y-86512400D03*
X160274000Y-81534000D03*
X162306000Y-77470000D03*
X174828200Y-85394800D03*
X206502000Y-85162000D03*
X177495200Y-87680800D03*
X174853600Y-87985600D03*
X177495200Y-88341200D03*
X164363400Y-84480400D03*
X164973000Y-84447400D03*
X176123600Y-83312000D03*
X163957000Y-87426802D03*
X179324000Y-76428600D03*
X166370000Y-89204802D03*
X155727400Y-81026000D03*
%TO.N,+3.3V*%
X192227200Y-87934800D03*
X191109600Y-82042000D03*
X192735200Y-88442800D03*
X191719200Y-87477600D03*
X141833600Y-80721200D03*
X172042919Y-86134595D03*
X174622954Y-88948544D03*
X171982398Y-88239002D03*
X162814000Y-80264000D03*
X180249141Y-80666247D03*
X176149000Y-88826004D03*
X177308865Y-78916224D03*
D14*
X172749559Y-80468000D03*
D13*
X172135802Y-83302800D03*
%TO.N,/BOOT*%
X197866000Y-90398600D03*
X134543800Y-80772000D03*
X176479200Y-76885800D03*
X197916800Y-88569800D03*
X196531700Y-78857446D03*
X175768000Y-78841600D03*
%TO.N,Net-(U4-EN)*%
X192481200Y-84201000D03*
%TO.N,VBUS*%
X195173600Y-86156800D03*
X197612000Y-85852000D03*
X195478400Y-80314800D03*
X195478400Y-85699600D03*
X195657373Y-79731773D03*
%TO.N,Net-(U4-FB)*%
X191312800Y-80010000D03*
%TO.N,/Minimal P4 V3/VDD_HP*%
X169080562Y-77556209D03*
X166370000Y-82230200D03*
X180975000Y-89662000D03*
X172024032Y-84274400D03*
X168620106Y-77822966D03*
X179334028Y-88847315D03*
X172593000Y-79121000D03*
X182295800Y-78562200D03*
X168554400Y-77089000D03*
D14*
%TO.N,/FS_D-*%
X204642000Y-78878000D03*
X204642000Y-77888000D03*
D13*
%TO.N,/FS_VBUS*%
X202082400Y-75781076D03*
X201879200Y-80924400D03*
X201676000Y-75488800D03*
X202275583Y-80457182D03*
%TO.N,Net-(J2-CC2)*%
X201188528Y-76061990D03*
%TO.N,/B2_0*%
X173405800Y-91821000D03*
D14*
%TO.N,/B2_1*%
X174711400Y-90576400D03*
D13*
%TO.N,/B2_2*%
X174701200Y-91775000D03*
%TO.N,/B2_3*%
X175236726Y-91504417D03*
%TO.N,/B2_4*%
X175836400Y-91595887D03*
%TO.N,/B2_5*%
X176575734Y-91741606D03*
%TO.N,/B2_6*%
X177266600Y-91846400D03*
%TO.N,/B2_7*%
X177901600Y-91948000D03*
%TO.N,/Minimal P4 V3/FLASH_CS*%
X182200971Y-90980773D03*
X183303640Y-91575162D03*
%TO.N,/Minimal P4 V3/VDD_FLASH*%
X182651400Y-88214202D03*
D14*
X174172000Y-80508000D03*
D13*
%TO.N,/HS_D-*%
X204592962Y-91343600D03*
X204444600Y-90242000D03*
%TO.N,Net-(U2-VDD_HP_1)*%
X180569395Y-79068065D03*
%TO.N,/Minimal P4 V3/VDDO_PSRAM*%
X175745398Y-80511306D03*
X178498000Y-80516188D03*
X173642789Y-78883402D03*
D14*
%TO.N,/T3_1*%
X177165000Y-80522000D03*
D13*
%TO.N,/T3_0*%
X176349135Y-80497000D03*
%TO.N,/T2_7*%
X175641000Y-78003400D03*
%TO.N,/GPIO36*%
X174949736Y-80540187D03*
%TO.N,/Minimal P4 V3/FB_DCDC*%
X170569400Y-79366600D03*
X164188601Y-82229999D03*
D14*
%TO.N,/T2_4*%
X171924180Y-80618127D03*
%TO.N,/T2_3*%
X172034200Y-81178400D03*
%TO.N,/T2_1*%
X172036398Y-81737200D03*
%TO.N,/T1_5*%
X169638075Y-83453086D03*
%TO.N,/T1_4*%
X169757086Y-84008834D03*
%TO.N,/T1_3*%
X169106875Y-84314673D03*
%TO.N,/T1_2*%
X168634497Y-84747002D03*
%TO.N,/T1_1*%
X168097200Y-84912200D03*
%TO.N,/T1_0*%
X167614600Y-84480400D03*
D13*
%TO.N,/NEOPIXEL*%
X144322800Y-84480400D03*
X166940737Y-85333590D03*
%TO.N,/SDA*%
X129133600Y-84810600D03*
X170230800Y-86410800D03*
%TO.N,/SCL*%
X129159000Y-85826600D03*
X172008800Y-87147400D03*
%TO.N,/HS_VBUS*%
X200710800Y-86563200D03*
X201930000Y-92354400D03*
X201411856Y-86610868D03*
X201930000Y-91694000D03*
%TD*%
%TA.AperFunction,Conductor*%
%TO.N,GND*%
G36*
X125683052Y-73329407D02*
G01*
X125719016Y-73378907D01*
X125719016Y-73440093D01*
X125694866Y-73479501D01*
X125684023Y-73490345D01*
X125684020Y-73490348D01*
X125569058Y-73662402D01*
X125489869Y-73853581D01*
X125449500Y-74056532D01*
X125449500Y-74263467D01*
X125489869Y-74466418D01*
X125569058Y-74657597D01*
X125677953Y-74820571D01*
X125684023Y-74829655D01*
X125830345Y-74975977D01*
X126002402Y-75090941D01*
X126193580Y-75170130D01*
X126396535Y-75210500D01*
X126396536Y-75210500D01*
X126603464Y-75210500D01*
X126603465Y-75210500D01*
X126806420Y-75170130D01*
X126997598Y-75090941D01*
X127169655Y-74975977D01*
X127315977Y-74829655D01*
X127430941Y-74657598D01*
X127510130Y-74466420D01*
X127550500Y-74263465D01*
X127550500Y-74056535D01*
X127510130Y-73853580D01*
X127430941Y-73662402D01*
X127315977Y-73490345D01*
X127305133Y-73479501D01*
X127277358Y-73424987D01*
X127286929Y-73364555D01*
X127330194Y-73321290D01*
X127375139Y-73310500D01*
X128164861Y-73310500D01*
X128223052Y-73329407D01*
X128259016Y-73378907D01*
X128259016Y-73440093D01*
X128234866Y-73479501D01*
X128224023Y-73490345D01*
X128224020Y-73490348D01*
X128109058Y-73662402D01*
X128029869Y-73853581D01*
X127989500Y-74056532D01*
X127989500Y-74263467D01*
X128029869Y-74466418D01*
X128109058Y-74657597D01*
X128217953Y-74820571D01*
X128224023Y-74829655D01*
X128370345Y-74975977D01*
X128542402Y-75090941D01*
X128733580Y-75170130D01*
X128936535Y-75210500D01*
X128936536Y-75210500D01*
X129143464Y-75210500D01*
X129143465Y-75210500D01*
X129346420Y-75170130D01*
X129537598Y-75090941D01*
X129709655Y-74975977D01*
X129855977Y-74829655D01*
X129970941Y-74657598D01*
X130050130Y-74466420D01*
X130090500Y-74263465D01*
X130090500Y-74056535D01*
X130050130Y-73853580D01*
X129970941Y-73662402D01*
X129855977Y-73490345D01*
X129845133Y-73479501D01*
X129817358Y-73424987D01*
X129826929Y-73364555D01*
X129870194Y-73321290D01*
X129915139Y-73310500D01*
X130704861Y-73310500D01*
X130763052Y-73329407D01*
X130799016Y-73378907D01*
X130799016Y-73440093D01*
X130774866Y-73479501D01*
X130764023Y-73490345D01*
X130764020Y-73490348D01*
X130649058Y-73662402D01*
X130569869Y-73853581D01*
X130529500Y-74056532D01*
X130529500Y-74263467D01*
X130569869Y-74466418D01*
X130649058Y-74657597D01*
X130757953Y-74820571D01*
X130764023Y-74829655D01*
X130910345Y-74975977D01*
X131082402Y-75090941D01*
X131273580Y-75170130D01*
X131476535Y-75210500D01*
X131476536Y-75210500D01*
X131683464Y-75210500D01*
X131683465Y-75210500D01*
X131886420Y-75170130D01*
X132077598Y-75090941D01*
X132249655Y-74975977D01*
X132395977Y-74829655D01*
X132510941Y-74657598D01*
X132590130Y-74466420D01*
X132630500Y-74263465D01*
X132630500Y-74056535D01*
X132590130Y-73853580D01*
X132510941Y-73662402D01*
X132395977Y-73490345D01*
X132385133Y-73479501D01*
X132357358Y-73424987D01*
X132366929Y-73364555D01*
X132410194Y-73321290D01*
X132455139Y-73310500D01*
X133244861Y-73310500D01*
X133303052Y-73329407D01*
X133339016Y-73378907D01*
X133339016Y-73440093D01*
X133314866Y-73479501D01*
X133304023Y-73490345D01*
X133304020Y-73490348D01*
X133189058Y-73662402D01*
X133109869Y-73853581D01*
X133069500Y-74056532D01*
X133069500Y-74263467D01*
X133109869Y-74466418D01*
X133189058Y-74657597D01*
X133297953Y-74820571D01*
X133304023Y-74829655D01*
X133450345Y-74975977D01*
X133622402Y-75090941D01*
X133813580Y-75170130D01*
X134016535Y-75210500D01*
X134016536Y-75210500D01*
X134223464Y-75210500D01*
X134223465Y-75210500D01*
X134426420Y-75170130D01*
X134617598Y-75090941D01*
X134789655Y-74975977D01*
X134935977Y-74829655D01*
X135050941Y-74657598D01*
X135130130Y-74466420D01*
X135170500Y-74263465D01*
X135170500Y-74056535D01*
X135130130Y-73853580D01*
X135050941Y-73662402D01*
X134935977Y-73490345D01*
X134925133Y-73479501D01*
X134897358Y-73424987D01*
X134906929Y-73364555D01*
X134950194Y-73321290D01*
X134995139Y-73310500D01*
X135784861Y-73310500D01*
X135843052Y-73329407D01*
X135879016Y-73378907D01*
X135879016Y-73440093D01*
X135854866Y-73479501D01*
X135844023Y-73490345D01*
X135844020Y-73490348D01*
X135729058Y-73662402D01*
X135649869Y-73853581D01*
X135609500Y-74056532D01*
X135609500Y-74263467D01*
X135649869Y-74466418D01*
X135729058Y-74657597D01*
X135837953Y-74820571D01*
X135844023Y-74829655D01*
X135990345Y-74975977D01*
X136162402Y-75090941D01*
X136353580Y-75170130D01*
X136556535Y-75210500D01*
X136556536Y-75210500D01*
X136763464Y-75210500D01*
X136763465Y-75210500D01*
X136966420Y-75170130D01*
X137157598Y-75090941D01*
X137329655Y-74975977D01*
X137475977Y-74829655D01*
X137590941Y-74657598D01*
X137670130Y-74466420D01*
X137710500Y-74263465D01*
X137710500Y-74056535D01*
X137670130Y-73853580D01*
X137590941Y-73662402D01*
X137475977Y-73490345D01*
X137465133Y-73479501D01*
X137437358Y-73424987D01*
X137446929Y-73364555D01*
X137490194Y-73321290D01*
X137535139Y-73310500D01*
X138324861Y-73310500D01*
X138383052Y-73329407D01*
X138419016Y-73378907D01*
X138419016Y-73440093D01*
X138394866Y-73479501D01*
X138384023Y-73490345D01*
X138384020Y-73490348D01*
X138269058Y-73662402D01*
X138189869Y-73853581D01*
X138149500Y-74056532D01*
X138149500Y-74263467D01*
X138189869Y-74466418D01*
X138269058Y-74657597D01*
X138377953Y-74820571D01*
X138384023Y-74829655D01*
X138530345Y-74975977D01*
X138702402Y-75090941D01*
X138893580Y-75170130D01*
X139096535Y-75210500D01*
X139096536Y-75210500D01*
X139303464Y-75210500D01*
X139303465Y-75210500D01*
X139506420Y-75170130D01*
X139697598Y-75090941D01*
X139869655Y-74975977D01*
X140015977Y-74829655D01*
X140130941Y-74657598D01*
X140210130Y-74466420D01*
X140250500Y-74263465D01*
X140250500Y-74056535D01*
X140210130Y-73853580D01*
X140130941Y-73662402D01*
X140015977Y-73490345D01*
X140005133Y-73479501D01*
X139977358Y-73424987D01*
X139986929Y-73364555D01*
X140030194Y-73321290D01*
X140075139Y-73310500D01*
X140864861Y-73310500D01*
X140923052Y-73329407D01*
X140959016Y-73378907D01*
X140959016Y-73440093D01*
X140934866Y-73479501D01*
X140924023Y-73490345D01*
X140924020Y-73490348D01*
X140809058Y-73662402D01*
X140729869Y-73853581D01*
X140689500Y-74056532D01*
X140689500Y-74263467D01*
X140729869Y-74466418D01*
X140809058Y-74657597D01*
X140917953Y-74820571D01*
X140924023Y-74829655D01*
X141070345Y-74975977D01*
X141242402Y-75090941D01*
X141433580Y-75170130D01*
X141636535Y-75210500D01*
X141636536Y-75210500D01*
X141843464Y-75210500D01*
X141843465Y-75210500D01*
X142046420Y-75170130D01*
X142237598Y-75090941D01*
X142409655Y-74975977D01*
X142555977Y-74829655D01*
X142670941Y-74657598D01*
X142750130Y-74466420D01*
X142790500Y-74263465D01*
X142790500Y-74056535D01*
X142750130Y-73853580D01*
X142670941Y-73662402D01*
X142555977Y-73490345D01*
X142545133Y-73479501D01*
X142517358Y-73424987D01*
X142526929Y-73364555D01*
X142570194Y-73321290D01*
X142615139Y-73310500D01*
X145944861Y-73310500D01*
X146003052Y-73329407D01*
X146039016Y-73378907D01*
X146039016Y-73440093D01*
X146014866Y-73479501D01*
X146004023Y-73490345D01*
X146004020Y-73490348D01*
X145889058Y-73662402D01*
X145809869Y-73853581D01*
X145769500Y-74056532D01*
X145769500Y-74263467D01*
X145809869Y-74466418D01*
X145889058Y-74657597D01*
X145997953Y-74820571D01*
X146004023Y-74829655D01*
X146150345Y-74975977D01*
X146322402Y-75090941D01*
X146513580Y-75170130D01*
X146716535Y-75210500D01*
X146716536Y-75210500D01*
X146923464Y-75210500D01*
X146923465Y-75210500D01*
X147126420Y-75170130D01*
X147317598Y-75090941D01*
X147489655Y-74975977D01*
X147635977Y-74829655D01*
X147750941Y-74657598D01*
X147830130Y-74466420D01*
X147870500Y-74263465D01*
X147870500Y-74056535D01*
X147830130Y-73853580D01*
X147750941Y-73662402D01*
X147635977Y-73490345D01*
X147625133Y-73479501D01*
X147597358Y-73424987D01*
X147606929Y-73364555D01*
X147650194Y-73321290D01*
X147695139Y-73310500D01*
X148484861Y-73310500D01*
X148543052Y-73329407D01*
X148579016Y-73378907D01*
X148579016Y-73440093D01*
X148554866Y-73479501D01*
X148544023Y-73490345D01*
X148544020Y-73490348D01*
X148429058Y-73662402D01*
X148349869Y-73853581D01*
X148309500Y-74056532D01*
X148309500Y-74263467D01*
X148349869Y-74466418D01*
X148429058Y-74657597D01*
X148537953Y-74820571D01*
X148544023Y-74829655D01*
X148690345Y-74975977D01*
X148862402Y-75090941D01*
X149053580Y-75170130D01*
X149256535Y-75210500D01*
X149256536Y-75210500D01*
X149463464Y-75210500D01*
X149463465Y-75210500D01*
X149666420Y-75170130D01*
X149857598Y-75090941D01*
X150029655Y-74975977D01*
X150175977Y-74829655D01*
X150290941Y-74657598D01*
X150370130Y-74466420D01*
X150410500Y-74263465D01*
X150410500Y-74056535D01*
X150370130Y-73853580D01*
X150290941Y-73662402D01*
X150175977Y-73490345D01*
X150165133Y-73479501D01*
X150137358Y-73424987D01*
X150146929Y-73364555D01*
X150190194Y-73321290D01*
X150235139Y-73310500D01*
X151024861Y-73310500D01*
X151083052Y-73329407D01*
X151119016Y-73378907D01*
X151119016Y-73440093D01*
X151094866Y-73479501D01*
X151084023Y-73490345D01*
X151084020Y-73490348D01*
X150969058Y-73662402D01*
X150889869Y-73853581D01*
X150849500Y-74056532D01*
X150849500Y-74263467D01*
X150889869Y-74466418D01*
X150969058Y-74657597D01*
X151077953Y-74820571D01*
X151084023Y-74829655D01*
X151230345Y-74975977D01*
X151402402Y-75090941D01*
X151593580Y-75170130D01*
X151796535Y-75210500D01*
X151796536Y-75210500D01*
X152003464Y-75210500D01*
X152003465Y-75210500D01*
X152206420Y-75170130D01*
X152397598Y-75090941D01*
X152569655Y-74975977D01*
X152715977Y-74829655D01*
X152830941Y-74657598D01*
X152910130Y-74466420D01*
X152950500Y-74263465D01*
X152950500Y-74056535D01*
X152910130Y-73853580D01*
X152830941Y-73662402D01*
X152715977Y-73490345D01*
X152705133Y-73479501D01*
X152677358Y-73424987D01*
X152686929Y-73364555D01*
X152730194Y-73321290D01*
X152775139Y-73310500D01*
X153564861Y-73310500D01*
X153623052Y-73329407D01*
X153659016Y-73378907D01*
X153659016Y-73440093D01*
X153634866Y-73479501D01*
X153624023Y-73490345D01*
X153624020Y-73490348D01*
X153509058Y-73662402D01*
X153429869Y-73853581D01*
X153389500Y-74056532D01*
X153389500Y-74263467D01*
X153429869Y-74466418D01*
X153509058Y-74657597D01*
X153617953Y-74820571D01*
X153624023Y-74829655D01*
X153770345Y-74975977D01*
X153942402Y-75090941D01*
X154133580Y-75170130D01*
X154336535Y-75210500D01*
X154336536Y-75210500D01*
X154543464Y-75210500D01*
X154543465Y-75210500D01*
X154746420Y-75170130D01*
X154937598Y-75090941D01*
X155109655Y-74975977D01*
X155255977Y-74829655D01*
X155370941Y-74657598D01*
X155450130Y-74466420D01*
X155490500Y-74263465D01*
X155490500Y-74056535D01*
X155450130Y-73853580D01*
X155370941Y-73662402D01*
X155255977Y-73490345D01*
X155245133Y-73479501D01*
X155217358Y-73424987D01*
X155226929Y-73364555D01*
X155270194Y-73321290D01*
X155315139Y-73310500D01*
X156104861Y-73310500D01*
X156163052Y-73329407D01*
X156199016Y-73378907D01*
X156199016Y-73440093D01*
X156174866Y-73479501D01*
X156164023Y-73490345D01*
X156164020Y-73490348D01*
X156049058Y-73662402D01*
X155969869Y-73853581D01*
X155929500Y-74056532D01*
X155929500Y-74263467D01*
X155969869Y-74466418D01*
X156049058Y-74657597D01*
X156157953Y-74820571D01*
X156164023Y-74829655D01*
X156310345Y-74975977D01*
X156482402Y-75090941D01*
X156673580Y-75170130D01*
X156876535Y-75210500D01*
X156876536Y-75210500D01*
X157083464Y-75210500D01*
X157083465Y-75210500D01*
X157286420Y-75170130D01*
X157477598Y-75090941D01*
X157649655Y-74975977D01*
X157795977Y-74829655D01*
X157910941Y-74657598D01*
X157990130Y-74466420D01*
X158030500Y-74263465D01*
X158030500Y-74056535D01*
X157990130Y-73853580D01*
X157910941Y-73662402D01*
X157795977Y-73490345D01*
X157785133Y-73479501D01*
X157757358Y-73424987D01*
X157766929Y-73364555D01*
X157810194Y-73321290D01*
X157855139Y-73310500D01*
X158644861Y-73310500D01*
X158703052Y-73329407D01*
X158739016Y-73378907D01*
X158739016Y-73440093D01*
X158714866Y-73479501D01*
X158704023Y-73490345D01*
X158704020Y-73490348D01*
X158589058Y-73662402D01*
X158509869Y-73853581D01*
X158469500Y-74056532D01*
X158469500Y-74263467D01*
X158509869Y-74466418D01*
X158589058Y-74657597D01*
X158697953Y-74820571D01*
X158704023Y-74829655D01*
X158850345Y-74975977D01*
X159022402Y-75090941D01*
X159213580Y-75170130D01*
X159416535Y-75210500D01*
X159416536Y-75210500D01*
X159623464Y-75210500D01*
X159623465Y-75210500D01*
X159826420Y-75170130D01*
X160017598Y-75090941D01*
X160189655Y-74975977D01*
X160335977Y-74829655D01*
X160450941Y-74657598D01*
X160530130Y-74466420D01*
X160570500Y-74263465D01*
X160570500Y-74056535D01*
X160530130Y-73853580D01*
X160450941Y-73662402D01*
X160335977Y-73490345D01*
X160325133Y-73479501D01*
X160297358Y-73424987D01*
X160306929Y-73364555D01*
X160350194Y-73321290D01*
X160395139Y-73310500D01*
X161184861Y-73310500D01*
X161243052Y-73329407D01*
X161279016Y-73378907D01*
X161279016Y-73440093D01*
X161254866Y-73479501D01*
X161244023Y-73490345D01*
X161244020Y-73490348D01*
X161129058Y-73662402D01*
X161049869Y-73853581D01*
X161009500Y-74056532D01*
X161009500Y-74263467D01*
X161049869Y-74466418D01*
X161129058Y-74657597D01*
X161237953Y-74820571D01*
X161244023Y-74829655D01*
X161390345Y-74975977D01*
X161562402Y-75090941D01*
X161753580Y-75170130D01*
X161956535Y-75210500D01*
X161956536Y-75210500D01*
X162163464Y-75210500D01*
X162163465Y-75210500D01*
X162366420Y-75170130D01*
X162557598Y-75090941D01*
X162729655Y-74975977D01*
X162875977Y-74829655D01*
X162990941Y-74657598D01*
X163070130Y-74466420D01*
X163110500Y-74263465D01*
X163110500Y-74056535D01*
X163070130Y-73853580D01*
X162990941Y-73662402D01*
X162875977Y-73490345D01*
X162865133Y-73479501D01*
X162837358Y-73424987D01*
X162846929Y-73364555D01*
X162890194Y-73321290D01*
X162935139Y-73310500D01*
X163724861Y-73310500D01*
X163783052Y-73329407D01*
X163819016Y-73378907D01*
X163819016Y-73440093D01*
X163794866Y-73479501D01*
X163784023Y-73490345D01*
X163784020Y-73490348D01*
X163669058Y-73662402D01*
X163589869Y-73853581D01*
X163549500Y-74056532D01*
X163549500Y-74263467D01*
X163589869Y-74466418D01*
X163669058Y-74657597D01*
X163777953Y-74820571D01*
X163784023Y-74829655D01*
X163930345Y-74975977D01*
X164102402Y-75090941D01*
X164293580Y-75170130D01*
X164496535Y-75210500D01*
X164496536Y-75210500D01*
X164703464Y-75210500D01*
X164703465Y-75210500D01*
X164906420Y-75170130D01*
X165097598Y-75090941D01*
X165269655Y-74975977D01*
X165415977Y-74829655D01*
X165530941Y-74657598D01*
X165610130Y-74466420D01*
X165650500Y-74263465D01*
X165650500Y-74056535D01*
X165610130Y-73853580D01*
X165530941Y-73662402D01*
X165415977Y-73490345D01*
X165405133Y-73479501D01*
X165377358Y-73424987D01*
X165386929Y-73364555D01*
X165430194Y-73321290D01*
X165475139Y-73310500D01*
X168804861Y-73310500D01*
X168863052Y-73329407D01*
X168899016Y-73378907D01*
X168899016Y-73440093D01*
X168874866Y-73479501D01*
X168864023Y-73490345D01*
X168864020Y-73490348D01*
X168749058Y-73662402D01*
X168669869Y-73853581D01*
X168629500Y-74056532D01*
X168629500Y-74263467D01*
X168669869Y-74466418D01*
X168749058Y-74657597D01*
X168857953Y-74820571D01*
X168864023Y-74829655D01*
X169010345Y-74975977D01*
X169182402Y-75090941D01*
X169373580Y-75170130D01*
X169576535Y-75210500D01*
X169576536Y-75210500D01*
X169783464Y-75210500D01*
X169783465Y-75210500D01*
X169986420Y-75170130D01*
X170177598Y-75090941D01*
X170349655Y-74975977D01*
X170495977Y-74829655D01*
X170610941Y-74657598D01*
X170690130Y-74466420D01*
X170730500Y-74263465D01*
X170730500Y-74056535D01*
X170690130Y-73853580D01*
X170610941Y-73662402D01*
X170495977Y-73490345D01*
X170485133Y-73479501D01*
X170457358Y-73424987D01*
X170466929Y-73364555D01*
X170510194Y-73321290D01*
X170555139Y-73310500D01*
X171344861Y-73310500D01*
X171403052Y-73329407D01*
X171439016Y-73378907D01*
X171439016Y-73440093D01*
X171414866Y-73479501D01*
X171404023Y-73490345D01*
X171404020Y-73490348D01*
X171289058Y-73662402D01*
X171209869Y-73853581D01*
X171169500Y-74056532D01*
X171169500Y-74263467D01*
X171209869Y-74466418D01*
X171289058Y-74657597D01*
X171397953Y-74820571D01*
X171404023Y-74829655D01*
X171550345Y-74975977D01*
X171722402Y-75090941D01*
X171913580Y-75170130D01*
X172116535Y-75210500D01*
X172116536Y-75210500D01*
X172323464Y-75210500D01*
X172323465Y-75210500D01*
X172526420Y-75170130D01*
X172717598Y-75090941D01*
X172889655Y-74975977D01*
X173035977Y-74829655D01*
X173150941Y-74657598D01*
X173230130Y-74466420D01*
X173270500Y-74263465D01*
X173270500Y-74056535D01*
X173230130Y-73853580D01*
X173150941Y-73662402D01*
X173035977Y-73490345D01*
X173025133Y-73479501D01*
X172997358Y-73424987D01*
X173006929Y-73364555D01*
X173050194Y-73321290D01*
X173095139Y-73310500D01*
X173884861Y-73310500D01*
X173943052Y-73329407D01*
X173979016Y-73378907D01*
X173979016Y-73440093D01*
X173954866Y-73479501D01*
X173944023Y-73490345D01*
X173944020Y-73490348D01*
X173829058Y-73662402D01*
X173749869Y-73853581D01*
X173709500Y-74056532D01*
X173709500Y-74263467D01*
X173749869Y-74466418D01*
X173829058Y-74657597D01*
X173937953Y-74820571D01*
X173944023Y-74829655D01*
X174090345Y-74975977D01*
X174262402Y-75090941D01*
X174453580Y-75170130D01*
X174656535Y-75210500D01*
X174656536Y-75210500D01*
X174863464Y-75210500D01*
X174863465Y-75210500D01*
X175066420Y-75170130D01*
X175257598Y-75090941D01*
X175429655Y-74975977D01*
X175575977Y-74829655D01*
X175690941Y-74657598D01*
X175770130Y-74466420D01*
X175810500Y-74263465D01*
X175810500Y-74056535D01*
X175770130Y-73853580D01*
X175690941Y-73662402D01*
X175575977Y-73490345D01*
X175565133Y-73479501D01*
X175537358Y-73424987D01*
X175546929Y-73364555D01*
X175590194Y-73321290D01*
X175635139Y-73310500D01*
X176424861Y-73310500D01*
X176483052Y-73329407D01*
X176519016Y-73378907D01*
X176519016Y-73440093D01*
X176494866Y-73479501D01*
X176484023Y-73490345D01*
X176484020Y-73490348D01*
X176369058Y-73662402D01*
X176289869Y-73853581D01*
X176249500Y-74056532D01*
X176249500Y-74263467D01*
X176289869Y-74466418D01*
X176369058Y-74657597D01*
X176477953Y-74820571D01*
X176484023Y-74829655D01*
X176630345Y-74975977D01*
X176802402Y-75090941D01*
X176993580Y-75170130D01*
X177196535Y-75210500D01*
X177196536Y-75210500D01*
X177403464Y-75210500D01*
X177403465Y-75210500D01*
X177606420Y-75170130D01*
X177797598Y-75090941D01*
X177969655Y-74975977D01*
X178115977Y-74829655D01*
X178230941Y-74657598D01*
X178310130Y-74466420D01*
X178350500Y-74263465D01*
X178350500Y-74056535D01*
X178310130Y-73853580D01*
X178230941Y-73662402D01*
X178115977Y-73490345D01*
X178105133Y-73479501D01*
X178077358Y-73424987D01*
X178086929Y-73364555D01*
X178130194Y-73321290D01*
X178175139Y-73310500D01*
X178964861Y-73310500D01*
X179023052Y-73329407D01*
X179059016Y-73378907D01*
X179059016Y-73440093D01*
X179034866Y-73479501D01*
X179024023Y-73490345D01*
X179024020Y-73490348D01*
X178909058Y-73662402D01*
X178829869Y-73853581D01*
X178789500Y-74056532D01*
X178789500Y-74263467D01*
X178829869Y-74466418D01*
X178909058Y-74657597D01*
X179017953Y-74820571D01*
X179024023Y-74829655D01*
X179170345Y-74975977D01*
X179342402Y-75090941D01*
X179533580Y-75170130D01*
X179736535Y-75210500D01*
X179736536Y-75210500D01*
X179943464Y-75210500D01*
X179943465Y-75210500D01*
X180146420Y-75170130D01*
X180337598Y-75090941D01*
X180509655Y-74975977D01*
X180655977Y-74829655D01*
X180770941Y-74657598D01*
X180850130Y-74466420D01*
X180890500Y-74263465D01*
X180890500Y-74056535D01*
X180850130Y-73853580D01*
X180770941Y-73662402D01*
X180655977Y-73490345D01*
X180645133Y-73479501D01*
X180617358Y-73424987D01*
X180626929Y-73364555D01*
X180670194Y-73321290D01*
X180715139Y-73310500D01*
X181504861Y-73310500D01*
X181563052Y-73329407D01*
X181599016Y-73378907D01*
X181599016Y-73440093D01*
X181574866Y-73479501D01*
X181564023Y-73490345D01*
X181564020Y-73490348D01*
X181449058Y-73662402D01*
X181369869Y-73853581D01*
X181329500Y-74056532D01*
X181329500Y-74263467D01*
X181369869Y-74466418D01*
X181449058Y-74657597D01*
X181557953Y-74820571D01*
X181564023Y-74829655D01*
X181710345Y-74975977D01*
X181882402Y-75090941D01*
X182073580Y-75170130D01*
X182276535Y-75210500D01*
X182276536Y-75210500D01*
X182483464Y-75210500D01*
X182483465Y-75210500D01*
X182686420Y-75170130D01*
X182877598Y-75090941D01*
X183049655Y-74975977D01*
X183195977Y-74829655D01*
X183310941Y-74657598D01*
X183390130Y-74466420D01*
X183430500Y-74263465D01*
X183430500Y-74056535D01*
X183390130Y-73853580D01*
X183310941Y-73662402D01*
X183195977Y-73490345D01*
X183185133Y-73479501D01*
X183157358Y-73424987D01*
X183166929Y-73364555D01*
X183210194Y-73321290D01*
X183255139Y-73310500D01*
X184044861Y-73310500D01*
X184103052Y-73329407D01*
X184139016Y-73378907D01*
X184139016Y-73440093D01*
X184114866Y-73479501D01*
X184104023Y-73490345D01*
X184104020Y-73490348D01*
X183989058Y-73662402D01*
X183909869Y-73853581D01*
X183869500Y-74056532D01*
X183869500Y-74263467D01*
X183909869Y-74466418D01*
X183989058Y-74657597D01*
X184097953Y-74820571D01*
X184104023Y-74829655D01*
X184250345Y-74975977D01*
X184422402Y-75090941D01*
X184613580Y-75170130D01*
X184816535Y-75210500D01*
X184816536Y-75210500D01*
X185023464Y-75210500D01*
X185023465Y-75210500D01*
X185226420Y-75170130D01*
X185417598Y-75090941D01*
X185589655Y-74975977D01*
X185735977Y-74829655D01*
X185850941Y-74657598D01*
X185930130Y-74466420D01*
X185970500Y-74263465D01*
X185970500Y-74056535D01*
X185930130Y-73853580D01*
X185850941Y-73662402D01*
X185735977Y-73490345D01*
X185725133Y-73479501D01*
X185697358Y-73424987D01*
X185706929Y-73364555D01*
X185750194Y-73321290D01*
X185795139Y-73310500D01*
X186584861Y-73310500D01*
X186643052Y-73329407D01*
X186679016Y-73378907D01*
X186679016Y-73440093D01*
X186654866Y-73479501D01*
X186644023Y-73490345D01*
X186644020Y-73490348D01*
X186529058Y-73662402D01*
X186449869Y-73853581D01*
X186409500Y-74056532D01*
X186409500Y-74263467D01*
X186449869Y-74466418D01*
X186529058Y-74657597D01*
X186637953Y-74820571D01*
X186644023Y-74829655D01*
X186790345Y-74975977D01*
X186962402Y-75090941D01*
X187153580Y-75170130D01*
X187356535Y-75210500D01*
X187356536Y-75210500D01*
X187563464Y-75210500D01*
X187563465Y-75210500D01*
X187766420Y-75170130D01*
X187957598Y-75090941D01*
X188129655Y-74975977D01*
X188275977Y-74829655D01*
X188390941Y-74657598D01*
X188470130Y-74466420D01*
X188510500Y-74263465D01*
X188510500Y-74056535D01*
X188470130Y-73853580D01*
X188390941Y-73662402D01*
X188275977Y-73490345D01*
X188265133Y-73479501D01*
X188237358Y-73424987D01*
X188246929Y-73364555D01*
X188290194Y-73321290D01*
X188335139Y-73310500D01*
X191664861Y-73310500D01*
X191723052Y-73329407D01*
X191759016Y-73378907D01*
X191759016Y-73440093D01*
X191734866Y-73479501D01*
X191724023Y-73490345D01*
X191724020Y-73490348D01*
X191609058Y-73662402D01*
X191529869Y-73853581D01*
X191489500Y-74056532D01*
X191489500Y-74263467D01*
X191529869Y-74466418D01*
X191609058Y-74657597D01*
X191717953Y-74820571D01*
X191724023Y-74829655D01*
X191870345Y-74975977D01*
X192042402Y-75090941D01*
X192233580Y-75170130D01*
X192436535Y-75210500D01*
X192436536Y-75210500D01*
X192643464Y-75210500D01*
X192643465Y-75210500D01*
X192846420Y-75170130D01*
X193037598Y-75090941D01*
X193209655Y-74975977D01*
X193355977Y-74829655D01*
X193470941Y-74657598D01*
X193550130Y-74466420D01*
X193559762Y-74417996D01*
X193589656Y-74364613D01*
X193645221Y-74338996D01*
X193705231Y-74350932D01*
X193746764Y-74395861D01*
X193754640Y-74421822D01*
X193763241Y-74476122D01*
X193828904Y-74678215D01*
X193925376Y-74867553D01*
X193925380Y-74867559D01*
X193964728Y-74921716D01*
X193964729Y-74921716D01*
X194597037Y-74289407D01*
X194614075Y-74352993D01*
X194679901Y-74467007D01*
X194772993Y-74560099D01*
X194887007Y-74625925D01*
X194950589Y-74642962D01*
X194318282Y-75275269D01*
X194318282Y-75275270D01*
X194372440Y-75314619D01*
X194372446Y-75314623D01*
X194561784Y-75411095D01*
X194763878Y-75476759D01*
X194973750Y-75510000D01*
X195186250Y-75510000D01*
X195396121Y-75476759D01*
X195598215Y-75411095D01*
X195787556Y-75314620D01*
X195841716Y-75275270D01*
X195209408Y-74642962D01*
X195272993Y-74625925D01*
X195387007Y-74560099D01*
X195480099Y-74467007D01*
X195545925Y-74352993D01*
X195562962Y-74289408D01*
X196195270Y-74921716D01*
X196234620Y-74867556D01*
X196331095Y-74678215D01*
X196396759Y-74476121D01*
X196405359Y-74421823D01*
X196433136Y-74367307D01*
X196487653Y-74339529D01*
X196548085Y-74349100D01*
X196591349Y-74392365D01*
X196600238Y-74417996D01*
X196609869Y-74466418D01*
X196689058Y-74657597D01*
X196797953Y-74820571D01*
X196804023Y-74829655D01*
X196950345Y-74975977D01*
X197122402Y-75090941D01*
X197313580Y-75170130D01*
X197516535Y-75210500D01*
X197516536Y-75210500D01*
X197723464Y-75210500D01*
X197723465Y-75210500D01*
X197926420Y-75170130D01*
X198117598Y-75090941D01*
X198289655Y-74975977D01*
X198435977Y-74829655D01*
X198550941Y-74657598D01*
X198630130Y-74466420D01*
X198670500Y-74263465D01*
X198670500Y-74056535D01*
X198630130Y-73853580D01*
X198550941Y-73662402D01*
X198435977Y-73490345D01*
X198425133Y-73479501D01*
X198397358Y-73424987D01*
X198406929Y-73364555D01*
X198450194Y-73321290D01*
X198495139Y-73310500D01*
X199284861Y-73310500D01*
X199343052Y-73329407D01*
X199379016Y-73378907D01*
X199379016Y-73440093D01*
X199354866Y-73479501D01*
X199344023Y-73490345D01*
X199344020Y-73490348D01*
X199229058Y-73662402D01*
X199149869Y-73853581D01*
X199109500Y-74056532D01*
X199109500Y-74263467D01*
X199149869Y-74466418D01*
X199229058Y-74657597D01*
X199337953Y-74820571D01*
X199344023Y-74829655D01*
X199490345Y-74975977D01*
X199662402Y-75090941D01*
X199853580Y-75170130D01*
X200056535Y-75210500D01*
X200056536Y-75210500D01*
X200263464Y-75210500D01*
X200263465Y-75210500D01*
X200466420Y-75170130D01*
X200657598Y-75090941D01*
X200829655Y-74975977D01*
X200975977Y-74829655D01*
X201090941Y-74657598D01*
X201170130Y-74466420D01*
X201210500Y-74263465D01*
X201210500Y-74056535D01*
X201170130Y-73853580D01*
X201090941Y-73662402D01*
X200975977Y-73490345D01*
X200965133Y-73479501D01*
X200937358Y-73424987D01*
X200946929Y-73364555D01*
X200990194Y-73321290D01*
X201035139Y-73310500D01*
X202700909Y-73310500D01*
X202759100Y-73329407D01*
X202795064Y-73378907D01*
X202795064Y-73440093D01*
X202792373Y-73447386D01*
X202756508Y-73533970D01*
X202751116Y-73561076D01*
X203503012Y-73561076D01*
X203485795Y-73571016D01*
X203429940Y-73626871D01*
X203390444Y-73695280D01*
X203370000Y-73771580D01*
X203370000Y-73850572D01*
X203390444Y-73926872D01*
X203429940Y-73995281D01*
X203485795Y-74051136D01*
X203503012Y-74061076D01*
X202751116Y-74061076D01*
X202756508Y-74088181D01*
X202828120Y-74261068D01*
X202828124Y-74261077D01*
X202932087Y-74416665D01*
X202932090Y-74416669D01*
X203064406Y-74548985D01*
X203064410Y-74548988D01*
X203219998Y-74652951D01*
X203220010Y-74652957D01*
X203392894Y-74724567D01*
X203576430Y-74761075D01*
X203576434Y-74761076D01*
X203969999Y-74761076D01*
X203970000Y-74761075D01*
X203970000Y-74111076D01*
X204470000Y-74111076D01*
X204470000Y-74721460D01*
X204451093Y-74779651D01*
X204420501Y-74807196D01*
X204397336Y-74820570D01*
X204397335Y-74820571D01*
X204299495Y-74918411D01*
X204230312Y-75038240D01*
X204194500Y-75171893D01*
X204194500Y-75310259D01*
X204230312Y-75443912D01*
X204299495Y-75563741D01*
X204397335Y-75661581D01*
X204517164Y-75730764D01*
X204650817Y-75766576D01*
X204650819Y-75766576D01*
X204789181Y-75766576D01*
X204789183Y-75766576D01*
X204922836Y-75730764D01*
X205042665Y-75661581D01*
X205140505Y-75563741D01*
X205209688Y-75443912D01*
X205245500Y-75310259D01*
X205245500Y-75171893D01*
X205209688Y-75038240D01*
X205140505Y-74918411D01*
X205080846Y-74858752D01*
X205053071Y-74804238D01*
X205062642Y-74743806D01*
X205105907Y-74700541D01*
X205112967Y-74697287D01*
X205219989Y-74652957D01*
X205220001Y-74652951D01*
X205375589Y-74548988D01*
X205375593Y-74548985D01*
X205507909Y-74416669D01*
X205507912Y-74416665D01*
X205611875Y-74261077D01*
X205611879Y-74261068D01*
X205683491Y-74088181D01*
X205688884Y-74061076D01*
X204936988Y-74061076D01*
X204954205Y-74051136D01*
X205010060Y-73995281D01*
X205049556Y-73926872D01*
X205070000Y-73850572D01*
X205070000Y-73771580D01*
X205049556Y-73695280D01*
X205010060Y-73626871D01*
X204954205Y-73571016D01*
X204936988Y-73561076D01*
X205688884Y-73561076D01*
X205683491Y-73533970D01*
X205647627Y-73447386D01*
X205642826Y-73386389D01*
X205674795Y-73334220D01*
X205731323Y-73310805D01*
X205739091Y-73310500D01*
X207030909Y-73310500D01*
X207089100Y-73329407D01*
X207125064Y-73378907D01*
X207125064Y-73440093D01*
X207122373Y-73447386D01*
X207086508Y-73533970D01*
X207081116Y-73561076D01*
X207833012Y-73561076D01*
X207815795Y-73571016D01*
X207759940Y-73626871D01*
X207720444Y-73695280D01*
X207700000Y-73771580D01*
X207700000Y-73850572D01*
X207720444Y-73926872D01*
X207759940Y-73995281D01*
X207815795Y-74051136D01*
X207833012Y-74061076D01*
X207081116Y-74061076D01*
X207086508Y-74088181D01*
X207158120Y-74261068D01*
X207158124Y-74261077D01*
X207262087Y-74416665D01*
X207262090Y-74416669D01*
X207394406Y-74548985D01*
X207394410Y-74548988D01*
X207549998Y-74652951D01*
X207550010Y-74652957D01*
X207722894Y-74724567D01*
X207906430Y-74761075D01*
X207906434Y-74761076D01*
X208149999Y-74761076D01*
X208150000Y-74761075D01*
X208150000Y-74111076D01*
X208650000Y-74111076D01*
X208650000Y-74761075D01*
X208650001Y-74761076D01*
X208893566Y-74761076D01*
X208893569Y-74761075D01*
X209077104Y-74724567D01*
X209077106Y-74724567D01*
X209249989Y-74652957D01*
X209250001Y-74652951D01*
X209405589Y-74548988D01*
X209405593Y-74548985D01*
X209537909Y-74416669D01*
X209537912Y-74416665D01*
X209641875Y-74261077D01*
X209641879Y-74261068D01*
X209713491Y-74088181D01*
X209718884Y-74061076D01*
X208966988Y-74061076D01*
X208984205Y-74051136D01*
X209040060Y-73995281D01*
X209079556Y-73926872D01*
X209100000Y-73850572D01*
X209100000Y-73771580D01*
X209079556Y-73695280D01*
X209040060Y-73626871D01*
X208984205Y-73571016D01*
X208966988Y-73561076D01*
X209732526Y-73561076D01*
X209740757Y-73554321D01*
X209746768Y-73553966D01*
X209751841Y-73550719D01*
X209776842Y-73552192D01*
X209801836Y-73550719D01*
X209806907Y-73553965D01*
X209812921Y-73554320D01*
X209853368Y-73583706D01*
X209901031Y-73641784D01*
X209903631Y-73644951D01*
X209914412Y-73661086D01*
X209973472Y-73771580D01*
X209976329Y-73776924D01*
X209983756Y-73794855D01*
X210021883Y-73920548D01*
X210025669Y-73939581D01*
X210039023Y-74075156D01*
X210039500Y-74084860D01*
X210039500Y-94555139D01*
X210039023Y-94564843D01*
X210025669Y-94700418D01*
X210021883Y-94719451D01*
X209983756Y-94845144D01*
X209976329Y-94863075D01*
X209914413Y-94978911D01*
X209903631Y-94995048D01*
X209857030Y-95051831D01*
X209805498Y-95084818D01*
X209744419Y-95081216D01*
X209728981Y-95070000D01*
X208966988Y-95070000D01*
X208984205Y-95060060D01*
X209040060Y-95004205D01*
X209079556Y-94935796D01*
X209100000Y-94859496D01*
X209100000Y-94780504D01*
X209079556Y-94704204D01*
X209040060Y-94635795D01*
X208984205Y-94579940D01*
X208966988Y-94570000D01*
X209718884Y-94570000D01*
X209713491Y-94542894D01*
X209641879Y-94370007D01*
X209641875Y-94369998D01*
X209537912Y-94214410D01*
X209537909Y-94214406D01*
X209405593Y-94082090D01*
X209405589Y-94082087D01*
X209250001Y-93978124D01*
X209249989Y-93978118D01*
X209077105Y-93906508D01*
X208893569Y-93870000D01*
X208650001Y-93870000D01*
X208650000Y-93870001D01*
X208650000Y-94520000D01*
X208150000Y-94520000D01*
X208150000Y-93870001D01*
X208149999Y-93870000D01*
X207906430Y-93870000D01*
X207722895Y-93906508D01*
X207722893Y-93906508D01*
X207550010Y-93978118D01*
X207549998Y-93978124D01*
X207394410Y-94082087D01*
X207394406Y-94082090D01*
X207262090Y-94214406D01*
X207262087Y-94214410D01*
X207158124Y-94369998D01*
X207158120Y-94370007D01*
X207086508Y-94542894D01*
X207081116Y-94570000D01*
X207833012Y-94570000D01*
X207815795Y-94579940D01*
X207759940Y-94635795D01*
X207720444Y-94704204D01*
X207700000Y-94780504D01*
X207700000Y-94859496D01*
X207720444Y-94935796D01*
X207759940Y-95004205D01*
X207815795Y-95060060D01*
X207833012Y-95070000D01*
X207081116Y-95070000D01*
X207086508Y-95097105D01*
X207126069Y-95192614D01*
X207130870Y-95253611D01*
X207098900Y-95305780D01*
X207042372Y-95329195D01*
X207034605Y-95329500D01*
X205735395Y-95329500D01*
X205677204Y-95310593D01*
X205641240Y-95261093D01*
X205641240Y-95199907D01*
X205643931Y-95192614D01*
X205683491Y-95097105D01*
X205688884Y-95070000D01*
X204936988Y-95070000D01*
X204954205Y-95060060D01*
X205010060Y-95004205D01*
X205049556Y-94935796D01*
X205070000Y-94859496D01*
X205070000Y-94780504D01*
X205049556Y-94704204D01*
X205010060Y-94635795D01*
X204954205Y-94579940D01*
X204936988Y-94570000D01*
X205688884Y-94570000D01*
X205683491Y-94542894D01*
X205611879Y-94370007D01*
X205611875Y-94369998D01*
X205507912Y-94214410D01*
X205507909Y-94214406D01*
X205375593Y-94082090D01*
X205375589Y-94082087D01*
X205220001Y-93978124D01*
X205219992Y-93978120D01*
X205112966Y-93933788D01*
X205066440Y-93894051D01*
X205052157Y-93834556D01*
X205075572Y-93778028D01*
X205080836Y-93772333D01*
X205140505Y-93712665D01*
X205209688Y-93592836D01*
X205245500Y-93459183D01*
X205245500Y-93320817D01*
X205209688Y-93187164D01*
X205140505Y-93067335D01*
X205042665Y-92969495D01*
X204922836Y-92900312D01*
X204789183Y-92864500D01*
X204650817Y-92864500D01*
X204517164Y-92900312D01*
X204397335Y-92969495D01*
X204299495Y-93067335D01*
X204230312Y-93187164D01*
X204194500Y-93320817D01*
X204194500Y-93459183D01*
X204230312Y-93592836D01*
X204299495Y-93712665D01*
X204397335Y-93810505D01*
X204420500Y-93823879D01*
X204461441Y-93869347D01*
X204470000Y-93909615D01*
X204470000Y-94520000D01*
X203970000Y-94520000D01*
X203970000Y-93870001D01*
X203969999Y-93870000D01*
X203576430Y-93870000D01*
X203392895Y-93906508D01*
X203392893Y-93906508D01*
X203220010Y-93978118D01*
X203219998Y-93978124D01*
X203064410Y-94082087D01*
X203064406Y-94082090D01*
X202932090Y-94214406D01*
X202932087Y-94214410D01*
X202828124Y-94369998D01*
X202828120Y-94370007D01*
X202756508Y-94542894D01*
X202751116Y-94570000D01*
X203503012Y-94570000D01*
X203485795Y-94579940D01*
X203429940Y-94635795D01*
X203390444Y-94704204D01*
X203370000Y-94780504D01*
X203370000Y-94859496D01*
X203390444Y-94935796D01*
X203429940Y-95004205D01*
X203485795Y-95060060D01*
X203503012Y-95070000D01*
X202751116Y-95070000D01*
X202756508Y-95097105D01*
X202796069Y-95192614D01*
X202800870Y-95253611D01*
X202768900Y-95305780D01*
X202712372Y-95329195D01*
X202704605Y-95329500D01*
X201035139Y-95329500D01*
X200976948Y-95310593D01*
X200940984Y-95261093D01*
X200940984Y-95199907D01*
X200965133Y-95160498D01*
X200975977Y-95149655D01*
X201090941Y-94977598D01*
X201170130Y-94786420D01*
X201210500Y-94583465D01*
X201210500Y-94376535D01*
X201170130Y-94173580D01*
X201090941Y-93982402D01*
X200975977Y-93810345D01*
X200829655Y-93664023D01*
X200808378Y-93649806D01*
X200657597Y-93549058D01*
X200466418Y-93469869D01*
X200263467Y-93429500D01*
X200263465Y-93429500D01*
X200056535Y-93429500D01*
X200056532Y-93429500D01*
X199853581Y-93469869D01*
X199662402Y-93549058D01*
X199490348Y-93664020D01*
X199344020Y-93810348D01*
X199229058Y-93982402D01*
X199149869Y-94173581D01*
X199109500Y-94376532D01*
X199109500Y-94583467D01*
X199149869Y-94786418D01*
X199229058Y-94977597D01*
X199308910Y-95097105D01*
X199344023Y-95149655D01*
X199354866Y-95160498D01*
X199382642Y-95215013D01*
X199373071Y-95275445D01*
X199329806Y-95318710D01*
X199284861Y-95329500D01*
X198495139Y-95329500D01*
X198436948Y-95310593D01*
X198400984Y-95261093D01*
X198400984Y-95199907D01*
X198425133Y-95160498D01*
X198435977Y-95149655D01*
X198550941Y-94977598D01*
X198630130Y-94786420D01*
X198670500Y-94583465D01*
X198670500Y-94376535D01*
X198630130Y-94173580D01*
X198550941Y-93982402D01*
X198435977Y-93810345D01*
X198289655Y-93664023D01*
X198268378Y-93649806D01*
X198117597Y-93549058D01*
X197926418Y-93469869D01*
X197723467Y-93429500D01*
X197723465Y-93429500D01*
X197516535Y-93429500D01*
X197516532Y-93429500D01*
X197313581Y-93469869D01*
X197122402Y-93549058D01*
X196950348Y-93664020D01*
X196804020Y-93810348D01*
X196689058Y-93982402D01*
X196609869Y-94173581D01*
X196600238Y-94222003D01*
X196570341Y-94275387D01*
X196514776Y-94301003D01*
X196454766Y-94289066D01*
X196413234Y-94244136D01*
X196405359Y-94218176D01*
X196396759Y-94163878D01*
X196331095Y-93961784D01*
X196234623Y-93772446D01*
X196234619Y-93772440D01*
X196195270Y-93718282D01*
X196195269Y-93718282D01*
X195562962Y-94350590D01*
X195545925Y-94287007D01*
X195480099Y-94172993D01*
X195387007Y-94079901D01*
X195272993Y-94014075D01*
X195209407Y-93997037D01*
X195841716Y-93364729D01*
X195841716Y-93364728D01*
X195787559Y-93325380D01*
X195787553Y-93325376D01*
X195598215Y-93228904D01*
X195396121Y-93163240D01*
X195186250Y-93130000D01*
X194973750Y-93130000D01*
X194763878Y-93163240D01*
X194561784Y-93228904D01*
X194372446Y-93325376D01*
X194372442Y-93325378D01*
X194318282Y-93364728D01*
X194950591Y-93997037D01*
X194887007Y-94014075D01*
X194772993Y-94079901D01*
X194679901Y-94172993D01*
X194614075Y-94287007D01*
X194597037Y-94350591D01*
X193964728Y-93718282D01*
X193925378Y-93772442D01*
X193925376Y-93772446D01*
X193828904Y-93961784D01*
X193763241Y-94163877D01*
X193754640Y-94218177D01*
X193726862Y-94272694D01*
X193672345Y-94300470D01*
X193611913Y-94290898D01*
X193568649Y-94247633D01*
X193559762Y-94222006D01*
X193550130Y-94173580D01*
X193470941Y-93982402D01*
X193355977Y-93810345D01*
X193209655Y-93664023D01*
X193188378Y-93649806D01*
X193037597Y-93549058D01*
X192963937Y-93518547D01*
X192846420Y-93469870D01*
X192846418Y-93469869D01*
X192643467Y-93429500D01*
X192643465Y-93429500D01*
X192436535Y-93429500D01*
X192436532Y-93429500D01*
X192233581Y-93469869D01*
X192042402Y-93549058D01*
X191870348Y-93664020D01*
X191724020Y-93810348D01*
X191609058Y-93982402D01*
X191529869Y-94173581D01*
X191489500Y-94376532D01*
X191489500Y-94583467D01*
X191529869Y-94786418D01*
X191609058Y-94977597D01*
X191688910Y-95097105D01*
X191724023Y-95149655D01*
X191734866Y-95160498D01*
X191762642Y-95215013D01*
X191753071Y-95275445D01*
X191709806Y-95318710D01*
X191664861Y-95329500D01*
X188335139Y-95329500D01*
X188276948Y-95310593D01*
X188240984Y-95261093D01*
X188240984Y-95199907D01*
X188265133Y-95160498D01*
X188275977Y-95149655D01*
X188390941Y-94977598D01*
X188470130Y-94786420D01*
X188510500Y-94583465D01*
X188510500Y-94376535D01*
X188470130Y-94173580D01*
X188390941Y-93982402D01*
X188275977Y-93810345D01*
X188129655Y-93664023D01*
X188108378Y-93649806D01*
X187957597Y-93549058D01*
X187766418Y-93469869D01*
X187563467Y-93429500D01*
X187563465Y-93429500D01*
X187356535Y-93429500D01*
X187356532Y-93429500D01*
X187153581Y-93469869D01*
X186962402Y-93549058D01*
X186790348Y-93664020D01*
X186644020Y-93810348D01*
X186529058Y-93982402D01*
X186449869Y-94173581D01*
X186409500Y-94376532D01*
X186409500Y-94583467D01*
X186449869Y-94786418D01*
X186529058Y-94977597D01*
X186608910Y-95097105D01*
X186644023Y-95149655D01*
X186654866Y-95160498D01*
X186682642Y-95215013D01*
X186673071Y-95275445D01*
X186629806Y-95318710D01*
X186584861Y-95329500D01*
X185795139Y-95329500D01*
X185736948Y-95310593D01*
X185700984Y-95261093D01*
X185700984Y-95199907D01*
X185725133Y-95160498D01*
X185735977Y-95149655D01*
X185850941Y-94977598D01*
X185930130Y-94786420D01*
X185970500Y-94583465D01*
X185970500Y-94376535D01*
X185930130Y-94173580D01*
X185850941Y-93982402D01*
X185735977Y-93810345D01*
X185589655Y-93664023D01*
X185568378Y-93649806D01*
X185417597Y-93549058D01*
X185226418Y-93469869D01*
X185023467Y-93429500D01*
X185023465Y-93429500D01*
X184816535Y-93429500D01*
X184816532Y-93429500D01*
X184613581Y-93469869D01*
X184422402Y-93549058D01*
X184250348Y-93664020D01*
X184104020Y-93810348D01*
X183989058Y-93982402D01*
X183909869Y-94173581D01*
X183869500Y-94376532D01*
X183869500Y-94583467D01*
X183909869Y-94786418D01*
X183989058Y-94977597D01*
X184068910Y-95097105D01*
X184104023Y-95149655D01*
X184114866Y-95160498D01*
X184142642Y-95215013D01*
X184133071Y-95275445D01*
X184089806Y-95318710D01*
X184044861Y-95329500D01*
X183255139Y-95329500D01*
X183196948Y-95310593D01*
X183160984Y-95261093D01*
X183160984Y-95199907D01*
X183185133Y-95160498D01*
X183195977Y-95149655D01*
X183310941Y-94977598D01*
X183390130Y-94786420D01*
X183430500Y-94583465D01*
X183430500Y-94376535D01*
X183390130Y-94173580D01*
X183310941Y-93982402D01*
X183195977Y-93810345D01*
X183049655Y-93664023D01*
X183028378Y-93649806D01*
X182877597Y-93549058D01*
X182686418Y-93469869D01*
X182483467Y-93429500D01*
X182483465Y-93429500D01*
X182276535Y-93429500D01*
X182276532Y-93429500D01*
X182073581Y-93469869D01*
X181882402Y-93549058D01*
X181710348Y-93664020D01*
X181564020Y-93810348D01*
X181449058Y-93982402D01*
X181369869Y-94173581D01*
X181329500Y-94376532D01*
X181329500Y-94583467D01*
X181369869Y-94786418D01*
X181449058Y-94977597D01*
X181528910Y-95097105D01*
X181564023Y-95149655D01*
X181574866Y-95160498D01*
X181602642Y-95215013D01*
X181593071Y-95275445D01*
X181549806Y-95318710D01*
X181504861Y-95329500D01*
X180715139Y-95329500D01*
X180656948Y-95310593D01*
X180620984Y-95261093D01*
X180620984Y-95199907D01*
X180645133Y-95160498D01*
X180655977Y-95149655D01*
X180770941Y-94977598D01*
X180850130Y-94786420D01*
X180890500Y-94583465D01*
X180890500Y-94376535D01*
X180850130Y-94173580D01*
X180770941Y-93982402D01*
X180655977Y-93810345D01*
X180509655Y-93664023D01*
X180488378Y-93649806D01*
X180337597Y-93549058D01*
X180146418Y-93469869D01*
X179943467Y-93429500D01*
X179943465Y-93429500D01*
X179736535Y-93429500D01*
X179736532Y-93429500D01*
X179533581Y-93469869D01*
X179342402Y-93549058D01*
X179170348Y-93664020D01*
X179024020Y-93810348D01*
X178909058Y-93982402D01*
X178829869Y-94173581D01*
X178789500Y-94376532D01*
X178789500Y-94583467D01*
X178829869Y-94786418D01*
X178909058Y-94977597D01*
X178988910Y-95097105D01*
X179024023Y-95149655D01*
X179034866Y-95160498D01*
X179062642Y-95215013D01*
X179053071Y-95275445D01*
X179009806Y-95318710D01*
X178964861Y-95329500D01*
X178175139Y-95329500D01*
X178116948Y-95310593D01*
X178080984Y-95261093D01*
X178080984Y-95199907D01*
X178105133Y-95160498D01*
X178115977Y-95149655D01*
X178230941Y-94977598D01*
X178310130Y-94786420D01*
X178350500Y-94583465D01*
X178350500Y-94376535D01*
X178310130Y-94173580D01*
X178230941Y-93982402D01*
X178115977Y-93810345D01*
X177969655Y-93664023D01*
X177948378Y-93649806D01*
X177797597Y-93549058D01*
X177606418Y-93469869D01*
X177403467Y-93429500D01*
X177403465Y-93429500D01*
X177196535Y-93429500D01*
X177196532Y-93429500D01*
X176993581Y-93469869D01*
X176802402Y-93549058D01*
X176630348Y-93664020D01*
X176484020Y-93810348D01*
X176369058Y-93982402D01*
X176289869Y-94173581D01*
X176249500Y-94376532D01*
X176249500Y-94583467D01*
X176289869Y-94786418D01*
X176369058Y-94977597D01*
X176448910Y-95097105D01*
X176484023Y-95149655D01*
X176494866Y-95160498D01*
X176522642Y-95215013D01*
X176513071Y-95275445D01*
X176469806Y-95318710D01*
X176424861Y-95329500D01*
X175635139Y-95329500D01*
X175576948Y-95310593D01*
X175540984Y-95261093D01*
X175540984Y-95199907D01*
X175565133Y-95160498D01*
X175575977Y-95149655D01*
X175690941Y-94977598D01*
X175770130Y-94786420D01*
X175810500Y-94583465D01*
X175810500Y-94376535D01*
X175770130Y-94173580D01*
X175690941Y-93982402D01*
X175575977Y-93810345D01*
X175429655Y-93664023D01*
X175408378Y-93649806D01*
X175257597Y-93549058D01*
X175066418Y-93469869D01*
X174863467Y-93429500D01*
X174863465Y-93429500D01*
X174656535Y-93429500D01*
X174656532Y-93429500D01*
X174453581Y-93469869D01*
X174262402Y-93549058D01*
X174090348Y-93664020D01*
X173944020Y-93810348D01*
X173829058Y-93982402D01*
X173749869Y-94173581D01*
X173709500Y-94376532D01*
X173709500Y-94583467D01*
X173749869Y-94786418D01*
X173829058Y-94977597D01*
X173908910Y-95097105D01*
X173944023Y-95149655D01*
X173954866Y-95160498D01*
X173982642Y-95215013D01*
X173973071Y-95275445D01*
X173929806Y-95318710D01*
X173884861Y-95329500D01*
X173095139Y-95329500D01*
X173036948Y-95310593D01*
X173000984Y-95261093D01*
X173000984Y-95199907D01*
X173025133Y-95160498D01*
X173035977Y-95149655D01*
X173150941Y-94977598D01*
X173230130Y-94786420D01*
X173270500Y-94583465D01*
X173270500Y-94376535D01*
X173230130Y-94173580D01*
X173150941Y-93982402D01*
X173035977Y-93810345D01*
X172889655Y-93664023D01*
X172868378Y-93649806D01*
X172717597Y-93549058D01*
X172526418Y-93469869D01*
X172323467Y-93429500D01*
X172323465Y-93429500D01*
X172116535Y-93429500D01*
X172116532Y-93429500D01*
X171913581Y-93469869D01*
X171722402Y-93549058D01*
X171550348Y-93664020D01*
X171404020Y-93810348D01*
X171289058Y-93982402D01*
X171209869Y-94173581D01*
X171169500Y-94376532D01*
X171169500Y-94583467D01*
X171209869Y-94786418D01*
X171289058Y-94977597D01*
X171368910Y-95097105D01*
X171404023Y-95149655D01*
X171414866Y-95160498D01*
X171442642Y-95215013D01*
X171433071Y-95275445D01*
X171389806Y-95318710D01*
X171344861Y-95329500D01*
X170555139Y-95329500D01*
X170496948Y-95310593D01*
X170460984Y-95261093D01*
X170460984Y-95199907D01*
X170485133Y-95160498D01*
X170495977Y-95149655D01*
X170610941Y-94977598D01*
X170690130Y-94786420D01*
X170730500Y-94583465D01*
X170730500Y-94376535D01*
X170690130Y-94173580D01*
X170610941Y-93982402D01*
X170495977Y-93810345D01*
X170349655Y-93664023D01*
X170328378Y-93649806D01*
X170177597Y-93549058D01*
X169986418Y-93469869D01*
X169783467Y-93429500D01*
X169783465Y-93429500D01*
X169576535Y-93429500D01*
X169576532Y-93429500D01*
X169373581Y-93469869D01*
X169182402Y-93549058D01*
X169010348Y-93664020D01*
X168864020Y-93810348D01*
X168749058Y-93982402D01*
X168669869Y-94173581D01*
X168629500Y-94376532D01*
X168629500Y-94583467D01*
X168669869Y-94786418D01*
X168749058Y-94977597D01*
X168828910Y-95097105D01*
X168864023Y-95149655D01*
X168874866Y-95160498D01*
X168902642Y-95215013D01*
X168893071Y-95275445D01*
X168849806Y-95318710D01*
X168804861Y-95329500D01*
X165475139Y-95329500D01*
X165416948Y-95310593D01*
X165380984Y-95261093D01*
X165380984Y-95199907D01*
X165405133Y-95160498D01*
X165415977Y-95149655D01*
X165530941Y-94977598D01*
X165610130Y-94786420D01*
X165650500Y-94583465D01*
X165650500Y-94376535D01*
X165610130Y-94173580D01*
X165530941Y-93982402D01*
X165415977Y-93810345D01*
X165269655Y-93664023D01*
X165248378Y-93649806D01*
X165097597Y-93549058D01*
X164906418Y-93469869D01*
X164703467Y-93429500D01*
X164703465Y-93429500D01*
X164496535Y-93429500D01*
X164496532Y-93429500D01*
X164293581Y-93469869D01*
X164102402Y-93549058D01*
X163930348Y-93664020D01*
X163784020Y-93810348D01*
X163669058Y-93982402D01*
X163589869Y-94173581D01*
X163549500Y-94376532D01*
X163549500Y-94583467D01*
X163589869Y-94786418D01*
X163669058Y-94977597D01*
X163748910Y-95097105D01*
X163784023Y-95149655D01*
X163794866Y-95160498D01*
X163822642Y-95215013D01*
X163813071Y-95275445D01*
X163769806Y-95318710D01*
X163724861Y-95329500D01*
X162935139Y-95329500D01*
X162876948Y-95310593D01*
X162840984Y-95261093D01*
X162840984Y-95199907D01*
X162865133Y-95160498D01*
X162875977Y-95149655D01*
X162990941Y-94977598D01*
X163070130Y-94786420D01*
X163110500Y-94583465D01*
X163110500Y-94376535D01*
X163070130Y-94173580D01*
X162990941Y-93982402D01*
X162875977Y-93810345D01*
X162729655Y-93664023D01*
X162708378Y-93649806D01*
X162557597Y-93549058D01*
X162366418Y-93469869D01*
X162163467Y-93429500D01*
X162163465Y-93429500D01*
X161956535Y-93429500D01*
X161956532Y-93429500D01*
X161753581Y-93469869D01*
X161562402Y-93549058D01*
X161390348Y-93664020D01*
X161244020Y-93810348D01*
X161129058Y-93982402D01*
X161049869Y-94173581D01*
X161009500Y-94376532D01*
X161009500Y-94583467D01*
X161049869Y-94786418D01*
X161129058Y-94977597D01*
X161208910Y-95097105D01*
X161244023Y-95149655D01*
X161254866Y-95160498D01*
X161282642Y-95215013D01*
X161273071Y-95275445D01*
X161229806Y-95318710D01*
X161184861Y-95329500D01*
X160395139Y-95329500D01*
X160336948Y-95310593D01*
X160300984Y-95261093D01*
X160300984Y-95199907D01*
X160325133Y-95160498D01*
X160335977Y-95149655D01*
X160450941Y-94977598D01*
X160530130Y-94786420D01*
X160570500Y-94583465D01*
X160570500Y-94376535D01*
X160530130Y-94173580D01*
X160450941Y-93982402D01*
X160335977Y-93810345D01*
X160189655Y-93664023D01*
X160168378Y-93649806D01*
X160017597Y-93549058D01*
X159826418Y-93469869D01*
X159623467Y-93429500D01*
X159623465Y-93429500D01*
X159416535Y-93429500D01*
X159416532Y-93429500D01*
X159213581Y-93469869D01*
X159022402Y-93549058D01*
X158850348Y-93664020D01*
X158704020Y-93810348D01*
X158589058Y-93982402D01*
X158509869Y-94173581D01*
X158469500Y-94376532D01*
X158469500Y-94583467D01*
X158509869Y-94786418D01*
X158589058Y-94977597D01*
X158668910Y-95097105D01*
X158704023Y-95149655D01*
X158714866Y-95160498D01*
X158742642Y-95215013D01*
X158733071Y-95275445D01*
X158689806Y-95318710D01*
X158644861Y-95329500D01*
X157855139Y-95329500D01*
X157796948Y-95310593D01*
X157760984Y-95261093D01*
X157760984Y-95199907D01*
X157785133Y-95160498D01*
X157795977Y-95149655D01*
X157910941Y-94977598D01*
X157990130Y-94786420D01*
X158030500Y-94583465D01*
X158030500Y-94376535D01*
X157990130Y-94173580D01*
X157910941Y-93982402D01*
X157795977Y-93810345D01*
X157649655Y-93664023D01*
X157628378Y-93649806D01*
X157477597Y-93549058D01*
X157286418Y-93469869D01*
X157083467Y-93429500D01*
X157083465Y-93429500D01*
X156876535Y-93429500D01*
X156876532Y-93429500D01*
X156673581Y-93469869D01*
X156482402Y-93549058D01*
X156310348Y-93664020D01*
X156164020Y-93810348D01*
X156049058Y-93982402D01*
X155969869Y-94173581D01*
X155929500Y-94376532D01*
X155929500Y-94583467D01*
X155969869Y-94786418D01*
X156049058Y-94977597D01*
X156128910Y-95097105D01*
X156164023Y-95149655D01*
X156174866Y-95160498D01*
X156202642Y-95215013D01*
X156193071Y-95275445D01*
X156149806Y-95318710D01*
X156104861Y-95329500D01*
X155315139Y-95329500D01*
X155256948Y-95310593D01*
X155220984Y-95261093D01*
X155220984Y-95199907D01*
X155245133Y-95160498D01*
X155255977Y-95149655D01*
X155370941Y-94977598D01*
X155450130Y-94786420D01*
X155490500Y-94583465D01*
X155490500Y-94376535D01*
X155450130Y-94173580D01*
X155370941Y-93982402D01*
X155255977Y-93810345D01*
X155109655Y-93664023D01*
X155088378Y-93649806D01*
X154937597Y-93549058D01*
X154746418Y-93469869D01*
X154543467Y-93429500D01*
X154543465Y-93429500D01*
X154336535Y-93429500D01*
X154336532Y-93429500D01*
X154133581Y-93469869D01*
X153942402Y-93549058D01*
X153770348Y-93664020D01*
X153624020Y-93810348D01*
X153509058Y-93982402D01*
X153429869Y-94173581D01*
X153389500Y-94376532D01*
X153389500Y-94583467D01*
X153429869Y-94786418D01*
X153509058Y-94977597D01*
X153588910Y-95097105D01*
X153624023Y-95149655D01*
X153634866Y-95160498D01*
X153662642Y-95215013D01*
X153653071Y-95275445D01*
X153609806Y-95318710D01*
X153564861Y-95329500D01*
X152775139Y-95329500D01*
X152716948Y-95310593D01*
X152680984Y-95261093D01*
X152680984Y-95199907D01*
X152705133Y-95160498D01*
X152715977Y-95149655D01*
X152830941Y-94977598D01*
X152910130Y-94786420D01*
X152950500Y-94583465D01*
X152950500Y-94376535D01*
X152910130Y-94173580D01*
X152830941Y-93982402D01*
X152715977Y-93810345D01*
X152569655Y-93664023D01*
X152548378Y-93649806D01*
X152397597Y-93549058D01*
X152206418Y-93469869D01*
X152003467Y-93429500D01*
X152003465Y-93429500D01*
X151796535Y-93429500D01*
X151796532Y-93429500D01*
X151593581Y-93469869D01*
X151402402Y-93549058D01*
X151230348Y-93664020D01*
X151084020Y-93810348D01*
X150969058Y-93982402D01*
X150889869Y-94173581D01*
X150849500Y-94376532D01*
X150849500Y-94583467D01*
X150889869Y-94786418D01*
X150969058Y-94977597D01*
X151048910Y-95097105D01*
X151084023Y-95149655D01*
X151094866Y-95160498D01*
X151122642Y-95215013D01*
X151113071Y-95275445D01*
X151069806Y-95318710D01*
X151024861Y-95329500D01*
X150235139Y-95329500D01*
X150176948Y-95310593D01*
X150140984Y-95261093D01*
X150140984Y-95199907D01*
X150165133Y-95160498D01*
X150175977Y-95149655D01*
X150290941Y-94977598D01*
X150370130Y-94786420D01*
X150410500Y-94583465D01*
X150410500Y-94376535D01*
X150370130Y-94173580D01*
X150290941Y-93982402D01*
X150175977Y-93810345D01*
X150029655Y-93664023D01*
X150008378Y-93649806D01*
X149857597Y-93549058D01*
X149666418Y-93469869D01*
X149463467Y-93429500D01*
X149463465Y-93429500D01*
X149256535Y-93429500D01*
X149256532Y-93429500D01*
X149053581Y-93469869D01*
X148862402Y-93549058D01*
X148690348Y-93664020D01*
X148544020Y-93810348D01*
X148429058Y-93982402D01*
X148349869Y-94173581D01*
X148309500Y-94376532D01*
X148309500Y-94583467D01*
X148349869Y-94786418D01*
X148429058Y-94977597D01*
X148508910Y-95097105D01*
X148544023Y-95149655D01*
X148554866Y-95160498D01*
X148582642Y-95215013D01*
X148573071Y-95275445D01*
X148529806Y-95318710D01*
X148484861Y-95329500D01*
X147695139Y-95329500D01*
X147636948Y-95310593D01*
X147600984Y-95261093D01*
X147600984Y-95199907D01*
X147625133Y-95160498D01*
X147635977Y-95149655D01*
X147750941Y-94977598D01*
X147830130Y-94786420D01*
X147870500Y-94583465D01*
X147870500Y-94376535D01*
X147830130Y-94173580D01*
X147750941Y-93982402D01*
X147635977Y-93810345D01*
X147489655Y-93664023D01*
X147468378Y-93649806D01*
X147317597Y-93549058D01*
X147126418Y-93469869D01*
X146923467Y-93429500D01*
X146923465Y-93429500D01*
X146716535Y-93429500D01*
X146716532Y-93429500D01*
X146513581Y-93469869D01*
X146322402Y-93549058D01*
X146150348Y-93664020D01*
X146004020Y-93810348D01*
X145889058Y-93982402D01*
X145809869Y-94173581D01*
X145769500Y-94376532D01*
X145769500Y-94583467D01*
X145809869Y-94786418D01*
X145889058Y-94977597D01*
X145968910Y-95097105D01*
X146004023Y-95149655D01*
X146014866Y-95160498D01*
X146042642Y-95215013D01*
X146033071Y-95275445D01*
X145989806Y-95318710D01*
X145944861Y-95329500D01*
X142615139Y-95329500D01*
X142556948Y-95310593D01*
X142520984Y-95261093D01*
X142520984Y-95199907D01*
X142545133Y-95160498D01*
X142555977Y-95149655D01*
X142670941Y-94977598D01*
X142750130Y-94786420D01*
X142790500Y-94583465D01*
X142790500Y-94376535D01*
X142750130Y-94173580D01*
X142670941Y-93982402D01*
X142555977Y-93810345D01*
X142409655Y-93664023D01*
X142388378Y-93649806D01*
X142237597Y-93549058D01*
X142046418Y-93469869D01*
X141843467Y-93429500D01*
X141843465Y-93429500D01*
X141636535Y-93429500D01*
X141636532Y-93429500D01*
X141433581Y-93469869D01*
X141242402Y-93549058D01*
X141070348Y-93664020D01*
X140924020Y-93810348D01*
X140809058Y-93982402D01*
X140729869Y-94173581D01*
X140689500Y-94376532D01*
X140689500Y-94583467D01*
X140729869Y-94786418D01*
X140809058Y-94977597D01*
X140888910Y-95097105D01*
X140924023Y-95149655D01*
X140934866Y-95160498D01*
X140962642Y-95215013D01*
X140953071Y-95275445D01*
X140909806Y-95318710D01*
X140864861Y-95329500D01*
X140075139Y-95329500D01*
X140016948Y-95310593D01*
X139980984Y-95261093D01*
X139980984Y-95199907D01*
X140005133Y-95160498D01*
X140015977Y-95149655D01*
X140130941Y-94977598D01*
X140210130Y-94786420D01*
X140250500Y-94583465D01*
X140250500Y-94376535D01*
X140210130Y-94173580D01*
X140130941Y-93982402D01*
X140015977Y-93810345D01*
X139869655Y-93664023D01*
X139848378Y-93649806D01*
X139697597Y-93549058D01*
X139506418Y-93469869D01*
X139303467Y-93429500D01*
X139303465Y-93429500D01*
X139096535Y-93429500D01*
X139096532Y-93429500D01*
X138893581Y-93469869D01*
X138702402Y-93549058D01*
X138530348Y-93664020D01*
X138384020Y-93810348D01*
X138269058Y-93982402D01*
X138189869Y-94173581D01*
X138149500Y-94376532D01*
X138149500Y-94583467D01*
X138189869Y-94786418D01*
X138269058Y-94977597D01*
X138348910Y-95097105D01*
X138384023Y-95149655D01*
X138394866Y-95160498D01*
X138422642Y-95215013D01*
X138413071Y-95275445D01*
X138369806Y-95318710D01*
X138324861Y-95329500D01*
X137535139Y-95329500D01*
X137476948Y-95310593D01*
X137440984Y-95261093D01*
X137440984Y-95199907D01*
X137465133Y-95160498D01*
X137475977Y-95149655D01*
X137590941Y-94977598D01*
X137670130Y-94786420D01*
X137710500Y-94583465D01*
X137710500Y-94376535D01*
X137670130Y-94173580D01*
X137590941Y-93982402D01*
X137475977Y-93810345D01*
X137329655Y-93664023D01*
X137308378Y-93649806D01*
X137157597Y-93549058D01*
X136966418Y-93469869D01*
X136763467Y-93429500D01*
X136763465Y-93429500D01*
X136556535Y-93429500D01*
X136556532Y-93429500D01*
X136353581Y-93469869D01*
X136162402Y-93549058D01*
X135990348Y-93664020D01*
X135844020Y-93810348D01*
X135729058Y-93982402D01*
X135649869Y-94173581D01*
X135609500Y-94376532D01*
X135609500Y-94583467D01*
X135649869Y-94786418D01*
X135729058Y-94977597D01*
X135808910Y-95097105D01*
X135844023Y-95149655D01*
X135854866Y-95160498D01*
X135882642Y-95215013D01*
X135873071Y-95275445D01*
X135829806Y-95318710D01*
X135784861Y-95329500D01*
X134995139Y-95329500D01*
X134936948Y-95310593D01*
X134900984Y-95261093D01*
X134900984Y-95199907D01*
X134925133Y-95160498D01*
X134935977Y-95149655D01*
X135050941Y-94977598D01*
X135130130Y-94786420D01*
X135170500Y-94583465D01*
X135170500Y-94376535D01*
X135130130Y-94173580D01*
X135050941Y-93982402D01*
X134935977Y-93810345D01*
X134789655Y-93664023D01*
X134768378Y-93649806D01*
X134617597Y-93549058D01*
X134426418Y-93469869D01*
X134223467Y-93429500D01*
X134223465Y-93429500D01*
X134016535Y-93429500D01*
X134016532Y-93429500D01*
X133813581Y-93469869D01*
X133622402Y-93549058D01*
X133450348Y-93664020D01*
X133304020Y-93810348D01*
X133189058Y-93982402D01*
X133109869Y-94173581D01*
X133069500Y-94376532D01*
X133069500Y-94583467D01*
X133109869Y-94786418D01*
X133189058Y-94977597D01*
X133268910Y-95097105D01*
X133304023Y-95149655D01*
X133314866Y-95160498D01*
X133342642Y-95215013D01*
X133333071Y-95275445D01*
X133289806Y-95318710D01*
X133244861Y-95329500D01*
X132455139Y-95329500D01*
X132396948Y-95310593D01*
X132360984Y-95261093D01*
X132360984Y-95199907D01*
X132385133Y-95160498D01*
X132395977Y-95149655D01*
X132510941Y-94977598D01*
X132590130Y-94786420D01*
X132630500Y-94583465D01*
X132630500Y-94376535D01*
X132590130Y-94173580D01*
X132510941Y-93982402D01*
X132395977Y-93810345D01*
X132249655Y-93664023D01*
X132228378Y-93649806D01*
X132077597Y-93549058D01*
X131886418Y-93469869D01*
X131683467Y-93429500D01*
X131683465Y-93429500D01*
X131476535Y-93429500D01*
X131476532Y-93429500D01*
X131273581Y-93469869D01*
X131082402Y-93549058D01*
X130910348Y-93664020D01*
X130764020Y-93810348D01*
X130649058Y-93982402D01*
X130569869Y-94173581D01*
X130529500Y-94376532D01*
X130529500Y-94583467D01*
X130569869Y-94786418D01*
X130649058Y-94977597D01*
X130728910Y-95097105D01*
X130764023Y-95149655D01*
X130774866Y-95160498D01*
X130802642Y-95215013D01*
X130793071Y-95275445D01*
X130749806Y-95318710D01*
X130704861Y-95329500D01*
X129915139Y-95329500D01*
X129856948Y-95310593D01*
X129820984Y-95261093D01*
X129820984Y-95199907D01*
X129845133Y-95160498D01*
X129855977Y-95149655D01*
X129970941Y-94977598D01*
X130050130Y-94786420D01*
X130090500Y-94583465D01*
X130090500Y-94376535D01*
X130050130Y-94173580D01*
X129970941Y-93982402D01*
X129855977Y-93810345D01*
X129709655Y-93664023D01*
X129688378Y-93649806D01*
X129537597Y-93549058D01*
X129346418Y-93469869D01*
X129143467Y-93429500D01*
X129143465Y-93429500D01*
X128936535Y-93429500D01*
X128936532Y-93429500D01*
X128733581Y-93469869D01*
X128542402Y-93549058D01*
X128370348Y-93664020D01*
X128224020Y-93810348D01*
X128109058Y-93982402D01*
X128029869Y-94173581D01*
X127989500Y-94376532D01*
X127989500Y-94583467D01*
X128029869Y-94786418D01*
X128109058Y-94977597D01*
X128188910Y-95097105D01*
X128224023Y-95149655D01*
X128234866Y-95160498D01*
X128262642Y-95215013D01*
X128253071Y-95275445D01*
X128209806Y-95318710D01*
X128164861Y-95329500D01*
X127375139Y-95329500D01*
X127316948Y-95310593D01*
X127280984Y-95261093D01*
X127280984Y-95199907D01*
X127305133Y-95160498D01*
X127315977Y-95149655D01*
X127430941Y-94977598D01*
X127510130Y-94786420D01*
X127550500Y-94583465D01*
X127550500Y-94376535D01*
X127510130Y-94173580D01*
X127430941Y-93982402D01*
X127315977Y-93810345D01*
X127169655Y-93664023D01*
X127148378Y-93649806D01*
X126997597Y-93549058D01*
X126806418Y-93469869D01*
X126603467Y-93429500D01*
X126603465Y-93429500D01*
X126396535Y-93429500D01*
X126396532Y-93429500D01*
X126193581Y-93469869D01*
X126002402Y-93549058D01*
X125830348Y-93664020D01*
X125684020Y-93810348D01*
X125569058Y-93982402D01*
X125489869Y-94173581D01*
X125449500Y-94376532D01*
X125449500Y-94583467D01*
X125489869Y-94786418D01*
X125569058Y-94977597D01*
X125648910Y-95097105D01*
X125684023Y-95149655D01*
X125694866Y-95160498D01*
X125722642Y-95215013D01*
X125713071Y-95275445D01*
X125669806Y-95318710D01*
X125624861Y-95329500D01*
X124835139Y-95329500D01*
X124776948Y-95310593D01*
X124740984Y-95261093D01*
X124740984Y-95199907D01*
X124765133Y-95160498D01*
X124775977Y-95149655D01*
X124890941Y-94977598D01*
X124970130Y-94786420D01*
X125010500Y-94583465D01*
X125010500Y-94376535D01*
X124970130Y-94173580D01*
X124890941Y-93982402D01*
X124775977Y-93810345D01*
X124629655Y-93664023D01*
X124608378Y-93649806D01*
X124457597Y-93549058D01*
X124266418Y-93469869D01*
X124063467Y-93429500D01*
X124063465Y-93429500D01*
X123856535Y-93429500D01*
X123856532Y-93429500D01*
X123653581Y-93469869D01*
X123462402Y-93549058D01*
X123290348Y-93664020D01*
X123290345Y-93664022D01*
X123290345Y-93664023D01*
X123279501Y-93674866D01*
X123224987Y-93702642D01*
X123164555Y-93693071D01*
X123121290Y-93649806D01*
X123110500Y-93604861D01*
X123110500Y-91764982D01*
X172980300Y-91764982D01*
X172980300Y-91877018D01*
X173002711Y-91960659D01*
X173009298Y-91985241D01*
X173065216Y-92082092D01*
X173065315Y-92082263D01*
X173144537Y-92161485D01*
X173144539Y-92161486D01*
X173241559Y-92217501D01*
X173241557Y-92217501D01*
X173241561Y-92217502D01*
X173241563Y-92217503D01*
X173349782Y-92246500D01*
X173349784Y-92246500D01*
X173461816Y-92246500D01*
X173461818Y-92246500D01*
X173570037Y-92217503D01*
X173570039Y-92217501D01*
X173570041Y-92217501D01*
X173623067Y-92186886D01*
X173667063Y-92161485D01*
X173746285Y-92082263D01*
X173792125Y-92002866D01*
X173802301Y-91985241D01*
X173802301Y-91985239D01*
X173802303Y-91985237D01*
X173831300Y-91877018D01*
X173831300Y-91764982D01*
X173818974Y-91718982D01*
X174275700Y-91718982D01*
X174275700Y-91831018D01*
X174294261Y-91900290D01*
X174304698Y-91939241D01*
X174352126Y-92021387D01*
X174360715Y-92036263D01*
X174439937Y-92115485D01*
X174439939Y-92115486D01*
X174536959Y-92171501D01*
X174536957Y-92171501D01*
X174536961Y-92171502D01*
X174536963Y-92171503D01*
X174645182Y-92200500D01*
X174645184Y-92200500D01*
X174757216Y-92200500D01*
X174757218Y-92200500D01*
X174865437Y-92171503D01*
X174865439Y-92171501D01*
X174865441Y-92171501D01*
X174923277Y-92138109D01*
X174962463Y-92115485D01*
X175041685Y-92036263D01*
X175075502Y-91977690D01*
X175120969Y-91936750D01*
X175173998Y-91931175D01*
X175174276Y-91929070D01*
X175180707Y-91929916D01*
X175180708Y-91929917D01*
X175180709Y-91929917D01*
X175292742Y-91929917D01*
X175292744Y-91929917D01*
X175400963Y-91900920D01*
X175423119Y-91888127D01*
X175482967Y-91875405D01*
X175538863Y-91900290D01*
X175542605Y-91903840D01*
X175575137Y-91936372D01*
X175604798Y-91953497D01*
X175672159Y-91992388D01*
X175672157Y-91992388D01*
X175672161Y-91992389D01*
X175672163Y-91992390D01*
X175780382Y-92021387D01*
X175780384Y-92021387D01*
X175892416Y-92021387D01*
X175892418Y-92021387D01*
X176000637Y-91992390D01*
X176000639Y-91992388D01*
X176000641Y-91992388D01*
X176086322Y-91942920D01*
X176146170Y-91930198D01*
X176202066Y-91955084D01*
X176221558Y-91979156D01*
X176235249Y-92002869D01*
X176314471Y-92082091D01*
X176314473Y-92082092D01*
X176411493Y-92138107D01*
X176411491Y-92138107D01*
X176411495Y-92138108D01*
X176411497Y-92138109D01*
X176519716Y-92167106D01*
X176519718Y-92167106D01*
X176631750Y-92167106D01*
X176631752Y-92167106D01*
X176739971Y-92138109D01*
X176811497Y-92096813D01*
X176871342Y-92084092D01*
X176927238Y-92108978D01*
X176930979Y-92112527D01*
X177005337Y-92186885D01*
X177005339Y-92186886D01*
X177102359Y-92242901D01*
X177102357Y-92242901D01*
X177102361Y-92242902D01*
X177102363Y-92242903D01*
X177210582Y-92271900D01*
X177210584Y-92271900D01*
X177322616Y-92271900D01*
X177322618Y-92271900D01*
X177430837Y-92242903D01*
X177468968Y-92220887D01*
X177528817Y-92208166D01*
X177584712Y-92233052D01*
X177588453Y-92236601D01*
X177640337Y-92288485D01*
X177640339Y-92288486D01*
X177737359Y-92344501D01*
X177737357Y-92344501D01*
X177737361Y-92344502D01*
X177737363Y-92344503D01*
X177845582Y-92373500D01*
X177845584Y-92373500D01*
X177957616Y-92373500D01*
X177957618Y-92373500D01*
X178065837Y-92344503D01*
X178065839Y-92344501D01*
X178065841Y-92344501D01*
X178094664Y-92327859D01*
X178153342Y-92293982D01*
X180084500Y-92293982D01*
X180084500Y-92406018D01*
X180085679Y-92410418D01*
X180113498Y-92514241D01*
X180169513Y-92611260D01*
X180169515Y-92611263D01*
X180248737Y-92690485D01*
X180248739Y-92690486D01*
X180345759Y-92746501D01*
X180345757Y-92746501D01*
X180345761Y-92746502D01*
X180345763Y-92746503D01*
X180453982Y-92775500D01*
X180453984Y-92775500D01*
X180566016Y-92775500D01*
X180566018Y-92775500D01*
X180674237Y-92746503D01*
X180674239Y-92746501D01*
X180674241Y-92746501D01*
X180703064Y-92729859D01*
X180771263Y-92690485D01*
X180850485Y-92611263D01*
X180889859Y-92543064D01*
X180906501Y-92514241D01*
X180906501Y-92514239D01*
X180906503Y-92514237D01*
X180935500Y-92406018D01*
X180935500Y-92293982D01*
X180906503Y-92185763D01*
X180906501Y-92185760D01*
X180906501Y-92185758D01*
X180850486Y-92088739D01*
X180850485Y-92088737D01*
X180771263Y-92009515D01*
X180771260Y-92009513D01*
X180674240Y-91953498D01*
X180674242Y-91953498D01*
X180632251Y-91942247D01*
X180566018Y-91924500D01*
X180453982Y-91924500D01*
X180387748Y-91942247D01*
X180345758Y-91953498D01*
X180248739Y-92009513D01*
X180169513Y-92088739D01*
X180113498Y-92185758D01*
X180113497Y-92185763D01*
X180084500Y-92293982D01*
X178153342Y-92293982D01*
X178162863Y-92288485D01*
X178242085Y-92209263D01*
X178298103Y-92112237D01*
X178327100Y-92004018D01*
X178327100Y-91891982D01*
X178298103Y-91783763D01*
X178298101Y-91783760D01*
X178298101Y-91783758D01*
X178242086Y-91686739D01*
X178242085Y-91686737D01*
X178162863Y-91607515D01*
X178065837Y-91551497D01*
X177957618Y-91522500D01*
X177845582Y-91522500D01*
X177737363Y-91551497D01*
X177737362Y-91551497D01*
X177737360Y-91551498D01*
X177699228Y-91573513D01*
X177639380Y-91586232D01*
X177583485Y-91561345D01*
X177579745Y-91557797D01*
X177541092Y-91519144D01*
X182878140Y-91519144D01*
X182878140Y-91631180D01*
X182893027Y-91686739D01*
X182907138Y-91739403D01*
X182960032Y-91831016D01*
X182963155Y-91836425D01*
X183042377Y-91915647D01*
X183042379Y-91915648D01*
X183139399Y-91971663D01*
X183139397Y-91971663D01*
X183139401Y-91971664D01*
X183139403Y-91971665D01*
X183247622Y-92000662D01*
X183247624Y-92000662D01*
X183359656Y-92000662D01*
X183359658Y-92000662D01*
X183467877Y-91971665D01*
X183467879Y-91971663D01*
X183467881Y-91971663D01*
X183499345Y-91953497D01*
X183564903Y-91915647D01*
X183644125Y-91836425D01*
X183700143Y-91739399D01*
X183727317Y-91637982D01*
X201504500Y-91637982D01*
X201504500Y-91750018D01*
X201508510Y-91764982D01*
X201533498Y-91858241D01*
X201589515Y-91955264D01*
X201593466Y-91960413D01*
X201592138Y-91961431D01*
X201616227Y-92008727D01*
X201606647Y-92069158D01*
X201593145Y-92087741D01*
X201593466Y-92087987D01*
X201589515Y-92093135D01*
X201533498Y-92190158D01*
X201533497Y-92190163D01*
X201504500Y-92298382D01*
X201504500Y-92410418D01*
X201530072Y-92505855D01*
X201533498Y-92518641D01*
X201589513Y-92615660D01*
X201589515Y-92615663D01*
X201668737Y-92694885D01*
X201668739Y-92694886D01*
X201765759Y-92750901D01*
X201765757Y-92750901D01*
X201765761Y-92750902D01*
X201765763Y-92750903D01*
X201873982Y-92779900D01*
X201873984Y-92779900D01*
X201986016Y-92779900D01*
X201986018Y-92779900D01*
X202094237Y-92750903D01*
X202094239Y-92750901D01*
X202094241Y-92750901D01*
X202123064Y-92734259D01*
X202191263Y-92694885D01*
X202270485Y-92615663D01*
X202326503Y-92518637D01*
X202355500Y-92410418D01*
X202355500Y-92298382D01*
X202326503Y-92190163D01*
X202326501Y-92190160D01*
X202326501Y-92190158D01*
X202270484Y-92093135D01*
X202266534Y-92087987D01*
X202267863Y-92086966D01*
X202243774Y-92039687D01*
X202253345Y-91979255D01*
X202266855Y-91960659D01*
X202266534Y-91960413D01*
X202270484Y-91955264D01*
X202271505Y-91953497D01*
X202307020Y-91891982D01*
X202326501Y-91858241D01*
X202326501Y-91858239D01*
X202326503Y-91858237D01*
X202355500Y-91750018D01*
X202355500Y-91637982D01*
X202326503Y-91529763D01*
X202326501Y-91529760D01*
X202326501Y-91529758D01*
X202278806Y-91447150D01*
X202270485Y-91432737D01*
X202191263Y-91353515D01*
X202184309Y-91349500D01*
X202094240Y-91297498D01*
X202094242Y-91297498D01*
X202057233Y-91287582D01*
X204167462Y-91287582D01*
X204167462Y-91399618D01*
X204188739Y-91479026D01*
X204196460Y-91507841D01*
X204241088Y-91585137D01*
X204252477Y-91604863D01*
X204331699Y-91684085D01*
X204336296Y-91686739D01*
X204428721Y-91740101D01*
X204428719Y-91740101D01*
X204428723Y-91740102D01*
X204428725Y-91740103D01*
X204536944Y-91769100D01*
X204536946Y-91769100D01*
X204648978Y-91769100D01*
X204648980Y-91769100D01*
X204757199Y-91740103D01*
X204757201Y-91740101D01*
X204757203Y-91740101D01*
X204793780Y-91718983D01*
X204854225Y-91684085D01*
X204933447Y-91604863D01*
X204980999Y-91522500D01*
X204989463Y-91507841D01*
X204989463Y-91507839D01*
X204989465Y-91507837D01*
X205018462Y-91399618D01*
X205018462Y-91287582D01*
X204989465Y-91179363D01*
X204989463Y-91179360D01*
X204989463Y-91179358D01*
X204933448Y-91082339D01*
X204933447Y-91082337D01*
X204854225Y-91003115D01*
X204854222Y-91003113D01*
X204757202Y-90947098D01*
X204757204Y-90947098D01*
X204715213Y-90935847D01*
X204648980Y-90918100D01*
X204536944Y-90918100D01*
X204470710Y-90935847D01*
X204428720Y-90947098D01*
X204331701Y-91003113D01*
X204252475Y-91082339D01*
X204196460Y-91179358D01*
X204196459Y-91179363D01*
X204167462Y-91287582D01*
X202057233Y-91287582D01*
X202052251Y-91286247D01*
X201986018Y-91268500D01*
X201873982Y-91268500D01*
X201807748Y-91286247D01*
X201765758Y-91297498D01*
X201668739Y-91353513D01*
X201589513Y-91432739D01*
X201533498Y-91529758D01*
X201525465Y-91559739D01*
X201504500Y-91637982D01*
X183727317Y-91637982D01*
X183729140Y-91631180D01*
X183729140Y-91519144D01*
X183700143Y-91410925D01*
X183700141Y-91410922D01*
X183700141Y-91410920D01*
X183644126Y-91313901D01*
X183644125Y-91313899D01*
X183564903Y-91234677D01*
X183525934Y-91212178D01*
X183467880Y-91178660D01*
X183467882Y-91178660D01*
X183425891Y-91167409D01*
X183359658Y-91149662D01*
X183247622Y-91149662D01*
X183181388Y-91167409D01*
X183139398Y-91178660D01*
X183042379Y-91234675D01*
X182963153Y-91313901D01*
X182907138Y-91410920D01*
X182896694Y-91449898D01*
X182878140Y-91519144D01*
X177541092Y-91519144D01*
X177527863Y-91505915D01*
X177527860Y-91505913D01*
X177430840Y-91449898D01*
X177430842Y-91449898D01*
X177373430Y-91434515D01*
X177322618Y-91420900D01*
X177210582Y-91420900D01*
X177166398Y-91432739D01*
X177102361Y-91449897D01*
X177030838Y-91491192D01*
X176970990Y-91503913D01*
X176915094Y-91479026D01*
X176911353Y-91475477D01*
X176836997Y-91401121D01*
X176834394Y-91399618D01*
X176739974Y-91345104D01*
X176739976Y-91345104D01*
X176697985Y-91333853D01*
X176631752Y-91316106D01*
X176519716Y-91316106D01*
X176465606Y-91330604D01*
X176411495Y-91345103D01*
X176325811Y-91394574D01*
X176265963Y-91407295D01*
X176210067Y-91382408D01*
X176190578Y-91358341D01*
X176176885Y-91334624D01*
X176097663Y-91255402D01*
X176097660Y-91255400D01*
X176000640Y-91199385D01*
X176000642Y-91199385D01*
X175958651Y-91188134D01*
X175892418Y-91170387D01*
X175780382Y-91170387D01*
X175684944Y-91195959D01*
X175672159Y-91199385D01*
X175650001Y-91212178D01*
X175590152Y-91224897D01*
X175534258Y-91200009D01*
X175530519Y-91196462D01*
X175497989Y-91163932D01*
X175473273Y-91149662D01*
X175400966Y-91107915D01*
X175400968Y-91107915D01*
X175358977Y-91096664D01*
X175292744Y-91078917D01*
X175180708Y-91078917D01*
X175114474Y-91096664D01*
X175072484Y-91107915D01*
X174975465Y-91163930D01*
X174896240Y-91243155D01*
X174862424Y-91301725D01*
X174816953Y-91342666D01*
X174763927Y-91348237D01*
X174763650Y-91350347D01*
X174757218Y-91349500D01*
X174645182Y-91349500D01*
X174578948Y-91367247D01*
X174536958Y-91378498D01*
X174439939Y-91434513D01*
X174360713Y-91513739D01*
X174304698Y-91610758D01*
X174304697Y-91610763D01*
X174275700Y-91718982D01*
X173818974Y-91718982D01*
X173802303Y-91656763D01*
X173802301Y-91656760D01*
X173802301Y-91656758D01*
X173746286Y-91559739D01*
X173746285Y-91559737D01*
X173667063Y-91480515D01*
X173667060Y-91480513D01*
X173570040Y-91424498D01*
X173570042Y-91424498D01*
X173519385Y-91410925D01*
X173461818Y-91395500D01*
X173349782Y-91395500D01*
X173292215Y-91410925D01*
X173241558Y-91424498D01*
X173144539Y-91480513D01*
X173065313Y-91559739D01*
X173009298Y-91656758D01*
X173001265Y-91686739D01*
X172980300Y-91764982D01*
X123110500Y-91764982D01*
X123110500Y-90523673D01*
X174310900Y-90523673D01*
X174310900Y-90629127D01*
X174338193Y-90730987D01*
X174338194Y-90730989D01*
X174338194Y-90730990D01*
X174390918Y-90822310D01*
X174390920Y-90822313D01*
X174465487Y-90896880D01*
X174556813Y-90949607D01*
X174658673Y-90976900D01*
X174658675Y-90976900D01*
X174764125Y-90976900D01*
X174764127Y-90976900D01*
X174865987Y-90949607D01*
X174909032Y-90924755D01*
X181775471Y-90924755D01*
X181775471Y-91036791D01*
X181801043Y-91132228D01*
X181804469Y-91145014D01*
X181856236Y-91234675D01*
X181860486Y-91242036D01*
X181939708Y-91321258D01*
X181939710Y-91321259D01*
X182036730Y-91377274D01*
X182036728Y-91377274D01*
X182036732Y-91377275D01*
X182036734Y-91377276D01*
X182144953Y-91406273D01*
X182144955Y-91406273D01*
X182256987Y-91406273D01*
X182256989Y-91406273D01*
X182365208Y-91377276D01*
X182365210Y-91377274D01*
X182365212Y-91377274D01*
X182406363Y-91353515D01*
X182462234Y-91321258D01*
X182541456Y-91242036D01*
X182597474Y-91145010D01*
X182626471Y-91036791D01*
X182626471Y-90924755D01*
X182597474Y-90816536D01*
X182597472Y-90816533D01*
X182597472Y-90816531D01*
X182541457Y-90719512D01*
X182541456Y-90719510D01*
X182462234Y-90640288D01*
X182462231Y-90640286D01*
X182365211Y-90584271D01*
X182365213Y-90584271D01*
X182323222Y-90573020D01*
X182256989Y-90555273D01*
X182144953Y-90555273D01*
X182078719Y-90573020D01*
X182036729Y-90584271D01*
X181939710Y-90640286D01*
X181860484Y-90719512D01*
X181804469Y-90816531D01*
X181804468Y-90816536D01*
X181775471Y-90924755D01*
X174909032Y-90924755D01*
X174957313Y-90896880D01*
X175031880Y-90822313D01*
X175084607Y-90730987D01*
X175111900Y-90629127D01*
X175111900Y-90523673D01*
X175084607Y-90421813D01*
X175038863Y-90342582D01*
X197440500Y-90342582D01*
X197440500Y-90454618D01*
X197466072Y-90550055D01*
X197469498Y-90562841D01*
X197514212Y-90640286D01*
X197525515Y-90659863D01*
X197604737Y-90739085D01*
X197604739Y-90739086D01*
X197701759Y-90795101D01*
X197701757Y-90795101D01*
X197701761Y-90795102D01*
X197701763Y-90795103D01*
X197809982Y-90824100D01*
X197809984Y-90824100D01*
X197922016Y-90824100D01*
X197922018Y-90824100D01*
X198030237Y-90795103D01*
X198030239Y-90795101D01*
X198030241Y-90795101D01*
X198059064Y-90778459D01*
X198127263Y-90739085D01*
X198206485Y-90659863D01*
X198262503Y-90562837D01*
X198291500Y-90454618D01*
X198291500Y-90342582D01*
X198262503Y-90234363D01*
X198234570Y-90185982D01*
X204019100Y-90185982D01*
X204019100Y-90298018D01*
X204027800Y-90330487D01*
X204048098Y-90406241D01*
X204104113Y-90503260D01*
X204104115Y-90503263D01*
X204183337Y-90582485D01*
X204215679Y-90601157D01*
X204280359Y-90638501D01*
X204280357Y-90638501D01*
X204280361Y-90638502D01*
X204280363Y-90638503D01*
X204388582Y-90667500D01*
X204388584Y-90667500D01*
X204500616Y-90667500D01*
X204500618Y-90667500D01*
X204608837Y-90638503D01*
X204608839Y-90638501D01*
X204608841Y-90638501D01*
X204637664Y-90621859D01*
X204705863Y-90582485D01*
X204785085Y-90503263D01*
X204832112Y-90421810D01*
X204841101Y-90406241D01*
X204841101Y-90406239D01*
X204841103Y-90406237D01*
X204870100Y-90298018D01*
X204870100Y-90185982D01*
X204841103Y-90077763D01*
X204841101Y-90077760D01*
X204841101Y-90077758D01*
X204785086Y-89980739D01*
X204785085Y-89980737D01*
X204705863Y-89901515D01*
X204705860Y-89901513D01*
X204608840Y-89845498D01*
X204608842Y-89845498D01*
X204566851Y-89834247D01*
X204500618Y-89816500D01*
X204388582Y-89816500D01*
X204322348Y-89834247D01*
X204280358Y-89845498D01*
X204183339Y-89901513D01*
X204104113Y-89980739D01*
X204048098Y-90077758D01*
X204048097Y-90077763D01*
X204019100Y-90185982D01*
X198234570Y-90185982D01*
X198206485Y-90137337D01*
X198127263Y-90058115D01*
X198127260Y-90058113D01*
X198030240Y-90002098D01*
X198030242Y-90002098D01*
X197988251Y-89990847D01*
X197922018Y-89973100D01*
X197809982Y-89973100D01*
X197743748Y-89990847D01*
X197701758Y-90002098D01*
X197604739Y-90058113D01*
X197525513Y-90137339D01*
X197469498Y-90234358D01*
X197469497Y-90234363D01*
X197440500Y-90342582D01*
X175038863Y-90342582D01*
X175031880Y-90330487D01*
X174957313Y-90255920D01*
X174919975Y-90234363D01*
X174865989Y-90203194D01*
X174865988Y-90203193D01*
X174865987Y-90203193D01*
X174764127Y-90175900D01*
X174658673Y-90175900D01*
X174556813Y-90203193D01*
X174556812Y-90203193D01*
X174556810Y-90203194D01*
X174556809Y-90203194D01*
X174465489Y-90255918D01*
X174390918Y-90330489D01*
X174338194Y-90421809D01*
X174338194Y-90421810D01*
X174338194Y-90421811D01*
X174338193Y-90421813D01*
X174310900Y-90523673D01*
X123110500Y-90523673D01*
X123110500Y-89491047D01*
X170400500Y-89491047D01*
X170400500Y-89596501D01*
X170403041Y-89605983D01*
X170427794Y-89698363D01*
X170427794Y-89698364D01*
X170480518Y-89789684D01*
X170480520Y-89789687D01*
X170555087Y-89864254D01*
X170646413Y-89916981D01*
X170748273Y-89944274D01*
X170748275Y-89944274D01*
X170853725Y-89944274D01*
X170853727Y-89944274D01*
X170955587Y-89916981D01*
X171046913Y-89864254D01*
X171121480Y-89789687D01*
X171174207Y-89698361D01*
X171198960Y-89605982D01*
X180549500Y-89605982D01*
X180549500Y-89718018D01*
X180568703Y-89789684D01*
X180578498Y-89826241D01*
X180630887Y-89916979D01*
X180634515Y-89923263D01*
X180713737Y-90002485D01*
X180713739Y-90002486D01*
X180810759Y-90058501D01*
X180810757Y-90058501D01*
X180810761Y-90058502D01*
X180810763Y-90058503D01*
X180918982Y-90087500D01*
X180918984Y-90087500D01*
X181031016Y-90087500D01*
X181031018Y-90087500D01*
X181139237Y-90058503D01*
X181139239Y-90058501D01*
X181139241Y-90058501D01*
X181168064Y-90041859D01*
X181236263Y-90002485D01*
X181315485Y-89923263D01*
X181371503Y-89826237D01*
X181400500Y-89718018D01*
X181400500Y-89605982D01*
X181371503Y-89497763D01*
X181371501Y-89497760D01*
X181371501Y-89497758D01*
X181315486Y-89400739D01*
X181315485Y-89400737D01*
X181236263Y-89321515D01*
X181195297Y-89297863D01*
X181139240Y-89265498D01*
X181139242Y-89265498D01*
X181087014Y-89251504D01*
X181031018Y-89236500D01*
X180918982Y-89236500D01*
X180862986Y-89251504D01*
X180810758Y-89265498D01*
X180713739Y-89321513D01*
X180634513Y-89400739D01*
X180578498Y-89497758D01*
X180578497Y-89497763D01*
X180549500Y-89605982D01*
X171198960Y-89605982D01*
X171201500Y-89596501D01*
X171201500Y-89491047D01*
X171174207Y-89389187D01*
X171121480Y-89297861D01*
X171046913Y-89223294D01*
X171045546Y-89222505D01*
X170955589Y-89170568D01*
X170955588Y-89170567D01*
X170955587Y-89170567D01*
X170853727Y-89143274D01*
X170748273Y-89143274D01*
X170646413Y-89170567D01*
X170646412Y-89170567D01*
X170646410Y-89170568D01*
X170646409Y-89170568D01*
X170555089Y-89223292D01*
X170480518Y-89297863D01*
X170427794Y-89389183D01*
X170427794Y-89389184D01*
X170427793Y-89389186D01*
X170427793Y-89389187D01*
X170400500Y-89491047D01*
X123110500Y-89491047D01*
X123110500Y-88589982D01*
X155276500Y-88589982D01*
X155276500Y-88702018D01*
X155299839Y-88789120D01*
X155305498Y-88810241D01*
X155353007Y-88892527D01*
X155361515Y-88907263D01*
X155440737Y-88986485D01*
X155440739Y-88986486D01*
X155537759Y-89042501D01*
X155537757Y-89042501D01*
X155537761Y-89042502D01*
X155537763Y-89042503D01*
X155645982Y-89071500D01*
X155645984Y-89071500D01*
X155758016Y-89071500D01*
X155758018Y-89071500D01*
X155866237Y-89042503D01*
X155866239Y-89042501D01*
X155866241Y-89042501D01*
X155895064Y-89025859D01*
X155963263Y-88986485D01*
X156042485Y-88907263D01*
X156050993Y-88892526D01*
X174197454Y-88892526D01*
X174197454Y-89004562D01*
X174215390Y-89071500D01*
X174226452Y-89112785D01*
X174282467Y-89209804D01*
X174282469Y-89209807D01*
X174361691Y-89289029D01*
X174376992Y-89297863D01*
X174458713Y-89345045D01*
X174458711Y-89345045D01*
X174458715Y-89345046D01*
X174458717Y-89345047D01*
X174566936Y-89374044D01*
X174566938Y-89374044D01*
X174678970Y-89374044D01*
X174678972Y-89374044D01*
X174787191Y-89345047D01*
X174787193Y-89345045D01*
X174787195Y-89345045D01*
X174816018Y-89328403D01*
X174884217Y-89289029D01*
X174963439Y-89209807D01*
X175019457Y-89112781D01*
X175048454Y-89004562D01*
X175048454Y-88892526D01*
X175019457Y-88784307D01*
X175011189Y-88769987D01*
X175011188Y-88769986D01*
X175723500Y-88769986D01*
X175723500Y-88882022D01*
X175746082Y-88966301D01*
X175752498Y-88990245D01*
X175808513Y-89087264D01*
X175808515Y-89087267D01*
X175887737Y-89166489D01*
X175894802Y-89170568D01*
X175984759Y-89222505D01*
X175984757Y-89222505D01*
X175984761Y-89222506D01*
X175984763Y-89222507D01*
X176092982Y-89251504D01*
X176092984Y-89251504D01*
X176205016Y-89251504D01*
X176205018Y-89251504D01*
X176313237Y-89222507D01*
X176313239Y-89222505D01*
X176313241Y-89222505D01*
X176342064Y-89205863D01*
X176410263Y-89166489D01*
X176489485Y-89087267D01*
X176545503Y-88990241D01*
X176574500Y-88882022D01*
X176574500Y-88791297D01*
X178908528Y-88791297D01*
X178908528Y-88903333D01*
X178925400Y-88966301D01*
X178937526Y-89011556D01*
X178981237Y-89087264D01*
X178993543Y-89108578D01*
X179072765Y-89187800D01*
X179072767Y-89187801D01*
X179169787Y-89243816D01*
X179169785Y-89243816D01*
X179169789Y-89243817D01*
X179169791Y-89243818D01*
X179278010Y-89272815D01*
X179278012Y-89272815D01*
X179390044Y-89272815D01*
X179390046Y-89272815D01*
X179498265Y-89243818D01*
X179498267Y-89243816D01*
X179498269Y-89243816D01*
X179527092Y-89227174D01*
X179595291Y-89187800D01*
X179674513Y-89108578D01*
X179730531Y-89011552D01*
X179759528Y-88903333D01*
X179759528Y-88791297D01*
X179730531Y-88683078D01*
X179730529Y-88683075D01*
X179730529Y-88683073D01*
X179682834Y-88600465D01*
X179674513Y-88586052D01*
X179595291Y-88506830D01*
X179595288Y-88506828D01*
X179498268Y-88450813D01*
X179498270Y-88450813D01*
X179456279Y-88439562D01*
X179390046Y-88421815D01*
X179278010Y-88421815D01*
X179211776Y-88439562D01*
X179169786Y-88450813D01*
X179072767Y-88506828D01*
X178993541Y-88586054D01*
X178937526Y-88683073D01*
X178932450Y-88702018D01*
X178908528Y-88791297D01*
X176574500Y-88791297D01*
X176574500Y-88769986D01*
X176545503Y-88661767D01*
X176545501Y-88661764D01*
X176545501Y-88661762D01*
X176489486Y-88564743D01*
X176489485Y-88564741D01*
X176410263Y-88485519D01*
X176410260Y-88485517D01*
X176313240Y-88429502D01*
X176313242Y-88429502D01*
X176271251Y-88418251D01*
X176205018Y-88400504D01*
X176092982Y-88400504D01*
X176026748Y-88418251D01*
X175984758Y-88429502D01*
X175887739Y-88485517D01*
X175808513Y-88564743D01*
X175752498Y-88661762D01*
X175745660Y-88687283D01*
X175723500Y-88769986D01*
X175011188Y-88769986D01*
X174963440Y-88687283D01*
X174963439Y-88687281D01*
X174884217Y-88608059D01*
X174882447Y-88607037D01*
X174787194Y-88552042D01*
X174787196Y-88552042D01*
X174745205Y-88540791D01*
X174678972Y-88523044D01*
X174566936Y-88523044D01*
X174500702Y-88540791D01*
X174458712Y-88552042D01*
X174361693Y-88608057D01*
X174282467Y-88687283D01*
X174226452Y-88784302D01*
X174211715Y-88839303D01*
X174197454Y-88892526D01*
X156050993Y-88892526D01*
X156098503Y-88810237D01*
X156127500Y-88702018D01*
X156127500Y-88589982D01*
X156098503Y-88481763D01*
X156098501Y-88481760D01*
X156098501Y-88481758D01*
X156042486Y-88384739D01*
X156042485Y-88384737D01*
X155963263Y-88305515D01*
X155963260Y-88305513D01*
X155888294Y-88262231D01*
X155888293Y-88262231D01*
X155866239Y-88249498D01*
X155866238Y-88249497D01*
X155866237Y-88249497D01*
X155758018Y-88220500D01*
X155645982Y-88220500D01*
X155579748Y-88238247D01*
X155537758Y-88249498D01*
X155440739Y-88305513D01*
X155361513Y-88384739D01*
X155305498Y-88481758D01*
X155296917Y-88513783D01*
X155276500Y-88589982D01*
X123110500Y-88589982D01*
X123110500Y-88182984D01*
X171556898Y-88182984D01*
X171556898Y-88295020D01*
X171574390Y-88360300D01*
X171585896Y-88403243D01*
X171641911Y-88500262D01*
X171641913Y-88500265D01*
X171721135Y-88579487D01*
X171739313Y-88589982D01*
X171818157Y-88635503D01*
X171818155Y-88635503D01*
X171818159Y-88635504D01*
X171818161Y-88635505D01*
X171926380Y-88664502D01*
X171926382Y-88664502D01*
X172038414Y-88664502D01*
X172038416Y-88664502D01*
X172146635Y-88635505D01*
X172146637Y-88635503D01*
X172146639Y-88635503D01*
X172195943Y-88607037D01*
X172243661Y-88579487D01*
X172322883Y-88500265D01*
X172368176Y-88421815D01*
X172378899Y-88403243D01*
X172378899Y-88403241D01*
X172378901Y-88403239D01*
X172407898Y-88295020D01*
X172407898Y-88182984D01*
X172401253Y-88158184D01*
X182225900Y-88158184D01*
X182225900Y-88270220D01*
X182250037Y-88360300D01*
X182254898Y-88378443D01*
X182296682Y-88450813D01*
X182310915Y-88475465D01*
X182390137Y-88554687D01*
X182422479Y-88573359D01*
X182487159Y-88610703D01*
X182487157Y-88610703D01*
X182487161Y-88610704D01*
X182487163Y-88610705D01*
X182595382Y-88639702D01*
X182595384Y-88639702D01*
X182707416Y-88639702D01*
X182707418Y-88639702D01*
X182815637Y-88610705D01*
X182815639Y-88610703D01*
X182815641Y-88610703D01*
X182844464Y-88594061D01*
X182912663Y-88554687D01*
X182991885Y-88475465D01*
X183047903Y-88378439D01*
X183076900Y-88270220D01*
X183076900Y-88158184D01*
X183047903Y-88049965D01*
X183047901Y-88049962D01*
X183047901Y-88049960D01*
X182991886Y-87952941D01*
X182991885Y-87952939D01*
X182912663Y-87873717D01*
X182858594Y-87842500D01*
X182815640Y-87817700D01*
X182815642Y-87817700D01*
X182773651Y-87806449D01*
X182707418Y-87788702D01*
X182595382Y-87788702D01*
X182529148Y-87806449D01*
X182487158Y-87817700D01*
X182390139Y-87873715D01*
X182310913Y-87952941D01*
X182254898Y-88049960D01*
X182254897Y-88049965D01*
X182225900Y-88158184D01*
X172401253Y-88158184D01*
X172378901Y-88074765D01*
X172378899Y-88074762D01*
X172378899Y-88074760D01*
X172322884Y-87977741D01*
X172322883Y-87977739D01*
X172243661Y-87898517D01*
X172243658Y-87898515D01*
X172146638Y-87842500D01*
X172146640Y-87842500D01*
X172104649Y-87831249D01*
X172038416Y-87813502D01*
X171926380Y-87813502D01*
X171860146Y-87831249D01*
X171818156Y-87842500D01*
X171721137Y-87898515D01*
X171641911Y-87977741D01*
X171585896Y-88074760D01*
X171578513Y-88102315D01*
X171556898Y-88182984D01*
X123110500Y-88182984D01*
X123110500Y-87091382D01*
X171583300Y-87091382D01*
X171583300Y-87203418D01*
X171589801Y-87227679D01*
X171612298Y-87311641D01*
X171668313Y-87408660D01*
X171668315Y-87408663D01*
X171747537Y-87487885D01*
X171747539Y-87487886D01*
X171844559Y-87543901D01*
X171844557Y-87543901D01*
X171844561Y-87543902D01*
X171844563Y-87543903D01*
X171952782Y-87572900D01*
X171952784Y-87572900D01*
X172064816Y-87572900D01*
X172064818Y-87572900D01*
X172173037Y-87543903D01*
X172173039Y-87543901D01*
X172173041Y-87543901D01*
X172232971Y-87509300D01*
X172270063Y-87487885D01*
X172336366Y-87421582D01*
X191293700Y-87421582D01*
X191293700Y-87533618D01*
X191296456Y-87543903D01*
X191322698Y-87641841D01*
X191378713Y-87738860D01*
X191378715Y-87738863D01*
X191457937Y-87818085D01*
X191457939Y-87818086D01*
X191554959Y-87874101D01*
X191554957Y-87874101D01*
X191554961Y-87874102D01*
X191554963Y-87874103D01*
X191663182Y-87903100D01*
X191663184Y-87903100D01*
X191703331Y-87903100D01*
X191761522Y-87922007D01*
X191797486Y-87971507D01*
X191801484Y-87989176D01*
X191801699Y-87990815D01*
X191830698Y-88099041D01*
X191879164Y-88182985D01*
X191886715Y-88196063D01*
X191965937Y-88275285D01*
X191965939Y-88275286D01*
X192062959Y-88331301D01*
X192062957Y-88331301D01*
X192062961Y-88331302D01*
X192062963Y-88331303D01*
X192171182Y-88360300D01*
X192171184Y-88360300D01*
X192210700Y-88360300D01*
X192268891Y-88379207D01*
X192304855Y-88428707D01*
X192309700Y-88459300D01*
X192309700Y-88498818D01*
X192331315Y-88579487D01*
X192338698Y-88607041D01*
X192385027Y-88687283D01*
X192394715Y-88704063D01*
X192473937Y-88783285D01*
X192475700Y-88784303D01*
X192570959Y-88839301D01*
X192570957Y-88839301D01*
X192570961Y-88839302D01*
X192570963Y-88839303D01*
X192679182Y-88868300D01*
X192679184Y-88868300D01*
X192791216Y-88868300D01*
X192791218Y-88868300D01*
X192899437Y-88839303D01*
X192899439Y-88839301D01*
X192899441Y-88839301D01*
X192928264Y-88822659D01*
X192996463Y-88783285D01*
X193075685Y-88704063D01*
X193120861Y-88625816D01*
X193131701Y-88607041D01*
X193131701Y-88607039D01*
X193131703Y-88607037D01*
X193156690Y-88513782D01*
X197491300Y-88513782D01*
X197491300Y-88625818D01*
X197511717Y-88702016D01*
X197520298Y-88734041D01*
X197564291Y-88810237D01*
X197576315Y-88831063D01*
X197655537Y-88910285D01*
X197655539Y-88910286D01*
X197752559Y-88966301D01*
X197752557Y-88966301D01*
X197752561Y-88966302D01*
X197752563Y-88966303D01*
X197860782Y-88995300D01*
X197860784Y-88995300D01*
X197972816Y-88995300D01*
X197972818Y-88995300D01*
X198081037Y-88966303D01*
X198081039Y-88966301D01*
X198081041Y-88966301D01*
X198109864Y-88949659D01*
X198178063Y-88910285D01*
X198257285Y-88831063D01*
X198313303Y-88734037D01*
X198342300Y-88625818D01*
X198342300Y-88513782D01*
X198313303Y-88405563D01*
X198313301Y-88405560D01*
X198313301Y-88405558D01*
X198257286Y-88308539D01*
X198257285Y-88308537D01*
X198178063Y-88229315D01*
X198178060Y-88229313D01*
X198081040Y-88173298D01*
X198081042Y-88173298D01*
X198039051Y-88162047D01*
X197972818Y-88144300D01*
X197860782Y-88144300D01*
X197794548Y-88162047D01*
X197752558Y-88173298D01*
X197655539Y-88229313D01*
X197576313Y-88308539D01*
X197520298Y-88405558D01*
X197508173Y-88450812D01*
X197491300Y-88513782D01*
X193156690Y-88513782D01*
X193160700Y-88498818D01*
X193160700Y-88386782D01*
X193131703Y-88278563D01*
X193131701Y-88278560D01*
X193131701Y-88278558D01*
X193075686Y-88181539D01*
X193075685Y-88181537D01*
X192996463Y-88102315D01*
X192991913Y-88099688D01*
X192899440Y-88046298D01*
X192899442Y-88046298D01*
X192840496Y-88030504D01*
X192791218Y-88017300D01*
X192751700Y-88017300D01*
X192693509Y-87998393D01*
X192657545Y-87948893D01*
X192652700Y-87918300D01*
X192652700Y-87878783D01*
X192651446Y-87874103D01*
X192623703Y-87770563D01*
X192623701Y-87770560D01*
X192623701Y-87770558D01*
X192570945Y-87679183D01*
X192567685Y-87673537D01*
X192488463Y-87594315D01*
X192488460Y-87594313D01*
X192391440Y-87538298D01*
X192391442Y-87538298D01*
X192349451Y-87527047D01*
X192283218Y-87509300D01*
X192243069Y-87509300D01*
X192184878Y-87490393D01*
X192148914Y-87440893D01*
X192144916Y-87423224D01*
X192144700Y-87421584D01*
X192144700Y-87421583D01*
X192144700Y-87421582D01*
X192115703Y-87313363D01*
X192115701Y-87313360D01*
X192115701Y-87313358D01*
X192059686Y-87216339D01*
X192059685Y-87216337D01*
X191980463Y-87137115D01*
X191980460Y-87137113D01*
X191883440Y-87081098D01*
X191883442Y-87081098D01*
X191827881Y-87066211D01*
X191775218Y-87052100D01*
X191663182Y-87052100D01*
X191610519Y-87066211D01*
X191554958Y-87081098D01*
X191457939Y-87137113D01*
X191378713Y-87216339D01*
X191322698Y-87313358D01*
X191322697Y-87313363D01*
X191293700Y-87421582D01*
X172336366Y-87421582D01*
X172349285Y-87408663D01*
X172386881Y-87343543D01*
X172405301Y-87311641D01*
X172405301Y-87311639D01*
X172405303Y-87311637D01*
X172434300Y-87203418D01*
X172434300Y-87091382D01*
X172405303Y-86983163D01*
X172405301Y-86983160D01*
X172405301Y-86983158D01*
X172349286Y-86886139D01*
X172349285Y-86886137D01*
X172270063Y-86806915D01*
X172270060Y-86806913D01*
X172173040Y-86750898D01*
X172173036Y-86750896D01*
X172136827Y-86741194D01*
X172085513Y-86707870D01*
X172063587Y-86650749D01*
X172079423Y-86591648D01*
X172126973Y-86553143D01*
X172136812Y-86549946D01*
X172207156Y-86531098D01*
X172304182Y-86475080D01*
X172383404Y-86395858D01*
X172437628Y-86301939D01*
X172439420Y-86298836D01*
X172439420Y-86298834D01*
X172439422Y-86298832D01*
X172468419Y-86190613D01*
X172468419Y-86100782D01*
X194748100Y-86100782D01*
X194748100Y-86212818D01*
X194766380Y-86281040D01*
X194777098Y-86321041D01*
X194833113Y-86418060D01*
X194833115Y-86418063D01*
X194912337Y-86497285D01*
X194912339Y-86497286D01*
X195009359Y-86553301D01*
X195009357Y-86553301D01*
X195009361Y-86553302D01*
X195009363Y-86553303D01*
X195117582Y-86582300D01*
X195117584Y-86582300D01*
X195229616Y-86582300D01*
X195229618Y-86582300D01*
X195337837Y-86553303D01*
X195337839Y-86553301D01*
X195337841Y-86553301D01*
X195376297Y-86531098D01*
X195417721Y-86507182D01*
X200285300Y-86507182D01*
X200285300Y-86619218D01*
X200293749Y-86650749D01*
X200314298Y-86727441D01*
X200370313Y-86824460D01*
X200370315Y-86824463D01*
X200449537Y-86903685D01*
X200449539Y-86903686D01*
X200546559Y-86959701D01*
X200546557Y-86959701D01*
X200546561Y-86959702D01*
X200546563Y-86959703D01*
X200654782Y-86988700D01*
X200654784Y-86988700D01*
X200766816Y-86988700D01*
X200766818Y-86988700D01*
X200875037Y-86959703D01*
X200875039Y-86959701D01*
X200875041Y-86959701D01*
X200972066Y-86903683D01*
X200977214Y-86899734D01*
X200979499Y-86902712D01*
X201018862Y-86881030D01*
X201079572Y-86888648D01*
X201107494Y-86908254D01*
X201150593Y-86951353D01*
X201150595Y-86951354D01*
X201247615Y-87007369D01*
X201247613Y-87007369D01*
X201247617Y-87007370D01*
X201247619Y-87007371D01*
X201355838Y-87036368D01*
X201355840Y-87036368D01*
X201467872Y-87036368D01*
X201467874Y-87036368D01*
X201576093Y-87007371D01*
X201576095Y-87007369D01*
X201576097Y-87007369D01*
X201618031Y-86983158D01*
X201673119Y-86951353D01*
X201752341Y-86872131D01*
X201808359Y-86775105D01*
X201837356Y-86666886D01*
X201837356Y-86554850D01*
X201808359Y-86446631D01*
X201752341Y-86349605D01*
X201673119Y-86270383D01*
X201673116Y-86270381D01*
X201576096Y-86214366D01*
X201576098Y-86214366D01*
X201534107Y-86203115D01*
X201467874Y-86185368D01*
X201355838Y-86185368D01*
X201289604Y-86203115D01*
X201247614Y-86214366D01*
X201150591Y-86270383D01*
X201145443Y-86274334D01*
X201144272Y-86272808D01*
X201094518Y-86294363D01*
X201034801Y-86281040D01*
X201015161Y-86265813D01*
X200972063Y-86222715D01*
X200966488Y-86219496D01*
X200875040Y-86166698D01*
X200875042Y-86166698D01*
X200833051Y-86155447D01*
X200766818Y-86137700D01*
X200654782Y-86137700D01*
X200588548Y-86155447D01*
X200546558Y-86166698D01*
X200449539Y-86222713D01*
X200370313Y-86301939D01*
X200314298Y-86398958D01*
X200314297Y-86398963D01*
X200285300Y-86507182D01*
X195417721Y-86507182D01*
X195434863Y-86497285D01*
X195514085Y-86418063D01*
X195570103Y-86321037D01*
X195599100Y-86212818D01*
X195599100Y-86178396D01*
X195618007Y-86120205D01*
X195648596Y-86092662D01*
X195739663Y-86040085D01*
X195818885Y-85960863D01*
X195874903Y-85863837D01*
X195893085Y-85795982D01*
X197186500Y-85795982D01*
X197186500Y-85908018D01*
X197200659Y-85960860D01*
X197215498Y-86016241D01*
X197268342Y-86107768D01*
X197271515Y-86113263D01*
X197350737Y-86192485D01*
X197350739Y-86192486D01*
X197447759Y-86248501D01*
X197447757Y-86248501D01*
X197447761Y-86248502D01*
X197447763Y-86248503D01*
X197555982Y-86277500D01*
X197555984Y-86277500D01*
X197668016Y-86277500D01*
X197668018Y-86277500D01*
X197776237Y-86248503D01*
X197776239Y-86248501D01*
X197776241Y-86248501D01*
X197820231Y-86223103D01*
X197873263Y-86192485D01*
X197952485Y-86113263D01*
X198008503Y-86016237D01*
X198031610Y-85930000D01*
X202751116Y-85930000D01*
X203503012Y-85930000D01*
X203485795Y-85939940D01*
X203429940Y-85995795D01*
X203390444Y-86064204D01*
X203370000Y-86140504D01*
X203370000Y-86219496D01*
X203390444Y-86295796D01*
X203429940Y-86364205D01*
X203485795Y-86420060D01*
X203503012Y-86430000D01*
X202751116Y-86430000D01*
X202756508Y-86457105D01*
X202828120Y-86629992D01*
X202828124Y-86630001D01*
X202932087Y-86785589D01*
X202932090Y-86785593D01*
X203064406Y-86917909D01*
X203064410Y-86917912D01*
X203219998Y-87021875D01*
X203220010Y-87021881D01*
X203392894Y-87093491D01*
X203576430Y-87129999D01*
X203576434Y-87130000D01*
X203969999Y-87130000D01*
X203970000Y-87129999D01*
X203970000Y-86480000D01*
X204470000Y-86480000D01*
X204470000Y-87090384D01*
X204451093Y-87148575D01*
X204420501Y-87176120D01*
X204397336Y-87189494D01*
X204397335Y-87189495D01*
X204299495Y-87287335D01*
X204230312Y-87407164D01*
X204194500Y-87540817D01*
X204194500Y-87679183D01*
X204230312Y-87812836D01*
X204299495Y-87932665D01*
X204397335Y-88030505D01*
X204517164Y-88099688D01*
X204650817Y-88135500D01*
X204650819Y-88135500D01*
X204789181Y-88135500D01*
X204789183Y-88135500D01*
X204922836Y-88099688D01*
X205042665Y-88030505D01*
X205140505Y-87932665D01*
X205209688Y-87812836D01*
X205245500Y-87679183D01*
X205245500Y-87540817D01*
X205209688Y-87407164D01*
X205140505Y-87287335D01*
X205080846Y-87227676D01*
X205053071Y-87173162D01*
X205062642Y-87112730D01*
X205105907Y-87069465D01*
X205112967Y-87066211D01*
X205219989Y-87021881D01*
X205220001Y-87021875D01*
X205375589Y-86917912D01*
X205375593Y-86917909D01*
X205507909Y-86785593D01*
X205507912Y-86785589D01*
X205611875Y-86630001D01*
X205611879Y-86629992D01*
X205683491Y-86457105D01*
X205688884Y-86430000D01*
X204936988Y-86430000D01*
X204954205Y-86420060D01*
X205010060Y-86364205D01*
X205049556Y-86295796D01*
X205070000Y-86219496D01*
X205070000Y-86140504D01*
X205049556Y-86064204D01*
X205010060Y-85995795D01*
X204954205Y-85939940D01*
X204936988Y-85930000D01*
X205688884Y-85930000D01*
X207081116Y-85930000D01*
X207833012Y-85930000D01*
X207815795Y-85939940D01*
X207759940Y-85995795D01*
X207720444Y-86064204D01*
X207700000Y-86140504D01*
X207700000Y-86219496D01*
X207720444Y-86295796D01*
X207759940Y-86364205D01*
X207815795Y-86420060D01*
X207833012Y-86430000D01*
X207081116Y-86430000D01*
X207086508Y-86457105D01*
X207158120Y-86629992D01*
X207158124Y-86630001D01*
X207262087Y-86785589D01*
X207262090Y-86785593D01*
X207394406Y-86917909D01*
X207394410Y-86917912D01*
X207549998Y-87021875D01*
X207550010Y-87021881D01*
X207722894Y-87093491D01*
X207906430Y-87129999D01*
X207906434Y-87130000D01*
X208149999Y-87130000D01*
X208150000Y-87129999D01*
X208150000Y-86480000D01*
X208650000Y-86480000D01*
X208650000Y-87129999D01*
X208650001Y-87130000D01*
X208893566Y-87130000D01*
X208893569Y-87129999D01*
X209077104Y-87093491D01*
X209077106Y-87093491D01*
X209249989Y-87021881D01*
X209250001Y-87021875D01*
X209405589Y-86917912D01*
X209405593Y-86917909D01*
X209537909Y-86785593D01*
X209537912Y-86785589D01*
X209641875Y-86630001D01*
X209641879Y-86629992D01*
X209713491Y-86457105D01*
X209718884Y-86430000D01*
X208966988Y-86430000D01*
X208984205Y-86420060D01*
X209040060Y-86364205D01*
X209079556Y-86295796D01*
X209100000Y-86219496D01*
X209100000Y-86140504D01*
X209079556Y-86064204D01*
X209040060Y-85995795D01*
X208984205Y-85939940D01*
X208966988Y-85930000D01*
X209718884Y-85930000D01*
X209713491Y-85902894D01*
X209641879Y-85730007D01*
X209641875Y-85729998D01*
X209537912Y-85574410D01*
X209537909Y-85574406D01*
X209405593Y-85442090D01*
X209405589Y-85442087D01*
X209250001Y-85338124D01*
X209249989Y-85338118D01*
X209077105Y-85266508D01*
X208893569Y-85230000D01*
X208650001Y-85230000D01*
X208650000Y-85230001D01*
X208650000Y-85880000D01*
X208150000Y-85880000D01*
X208150000Y-85230001D01*
X208149999Y-85230000D01*
X207906430Y-85230000D01*
X207722895Y-85266508D01*
X207722893Y-85266508D01*
X207550010Y-85338118D01*
X207549998Y-85338124D01*
X207394410Y-85442087D01*
X207394406Y-85442090D01*
X207262090Y-85574406D01*
X207262087Y-85574410D01*
X207158124Y-85729998D01*
X207158120Y-85730007D01*
X207086508Y-85902894D01*
X207081116Y-85930000D01*
X205688884Y-85930000D01*
X205683491Y-85902894D01*
X205611879Y-85730007D01*
X205611875Y-85729998D01*
X205507912Y-85574410D01*
X205507909Y-85574406D01*
X205375593Y-85442090D01*
X205375589Y-85442087D01*
X205220001Y-85338124D01*
X205219989Y-85338118D01*
X205047105Y-85266508D01*
X204863569Y-85230000D01*
X204470001Y-85230000D01*
X204470000Y-85230001D01*
X204470000Y-85880000D01*
X203970000Y-85880000D01*
X203970000Y-85230001D01*
X203969999Y-85230000D01*
X203576430Y-85230000D01*
X203392895Y-85266508D01*
X203392893Y-85266508D01*
X203220010Y-85338118D01*
X203219998Y-85338124D01*
X203064410Y-85442087D01*
X203064406Y-85442090D01*
X202932090Y-85574406D01*
X202932087Y-85574410D01*
X202828124Y-85729998D01*
X202828120Y-85730007D01*
X202756508Y-85902894D01*
X202751116Y-85930000D01*
X198031610Y-85930000D01*
X198037500Y-85908018D01*
X198037500Y-85795982D01*
X198008503Y-85687763D01*
X198008501Y-85687760D01*
X198008501Y-85687758D01*
X197952486Y-85590739D01*
X197952485Y-85590737D01*
X197873263Y-85511515D01*
X197849555Y-85497827D01*
X197776240Y-85455498D01*
X197776242Y-85455498D01*
X197726190Y-85442087D01*
X197668018Y-85426500D01*
X197555982Y-85426500D01*
X197497810Y-85442087D01*
X197447758Y-85455498D01*
X197350739Y-85511513D01*
X197271513Y-85590739D01*
X197215498Y-85687758D01*
X197215497Y-85687763D01*
X197186500Y-85795982D01*
X195893085Y-85795982D01*
X195903900Y-85755618D01*
X195903900Y-85643582D01*
X195874903Y-85535363D01*
X195874901Y-85535360D01*
X195874901Y-85535358D01*
X195818886Y-85438339D01*
X195818885Y-85438337D01*
X195739663Y-85359115D01*
X195739660Y-85359113D01*
X195642640Y-85303098D01*
X195642642Y-85303098D01*
X195600487Y-85291803D01*
X195534418Y-85274100D01*
X195422382Y-85274100D01*
X195356313Y-85291803D01*
X195314158Y-85303098D01*
X195217139Y-85359113D01*
X195137913Y-85438339D01*
X195081898Y-85535358D01*
X195052900Y-85643583D01*
X195052900Y-85678002D01*
X195033993Y-85736193D01*
X195003401Y-85763738D01*
X194912338Y-85816314D01*
X194833113Y-85895539D01*
X194777098Y-85992558D01*
X194764364Y-86040084D01*
X194748100Y-86100782D01*
X172468419Y-86100782D01*
X172468419Y-86078577D01*
X172439422Y-85970358D01*
X172439420Y-85970355D01*
X172439420Y-85970353D01*
X172383405Y-85873334D01*
X172383404Y-85873332D01*
X172304182Y-85794110D01*
X172304179Y-85794108D01*
X172207159Y-85738093D01*
X172207161Y-85738093D01*
X172165170Y-85726842D01*
X172098937Y-85709095D01*
X171986901Y-85709095D01*
X171920667Y-85726842D01*
X171878677Y-85738093D01*
X171781658Y-85794108D01*
X171702432Y-85873334D01*
X171646417Y-85970353D01*
X171640466Y-85992563D01*
X171617419Y-86078577D01*
X171617419Y-86190613D01*
X171633894Y-86252100D01*
X171646417Y-86298836D01*
X171678719Y-86354783D01*
X171702434Y-86395858D01*
X171781656Y-86475080D01*
X171781658Y-86475081D01*
X171878678Y-86531096D01*
X171878679Y-86531096D01*
X171878682Y-86531098D01*
X171914890Y-86540799D01*
X171966204Y-86574123D01*
X171988131Y-86631244D01*
X171972296Y-86690345D01*
X171924746Y-86728850D01*
X171914894Y-86732051D01*
X171844563Y-86750897D01*
X171844561Y-86750897D01*
X171844557Y-86750899D01*
X171747539Y-86806913D01*
X171668313Y-86886139D01*
X171612298Y-86983158D01*
X171598041Y-87036368D01*
X171583300Y-87091382D01*
X123110500Y-87091382D01*
X123110500Y-86354782D01*
X169805300Y-86354782D01*
X169805300Y-86466818D01*
X169816116Y-86507183D01*
X169834298Y-86575041D01*
X169878009Y-86650749D01*
X169890315Y-86672063D01*
X169969537Y-86751285D01*
X169969539Y-86751286D01*
X170066559Y-86807301D01*
X170066557Y-86807301D01*
X170066561Y-86807302D01*
X170066563Y-86807303D01*
X170174782Y-86836300D01*
X170174784Y-86836300D01*
X170286816Y-86836300D01*
X170286818Y-86836300D01*
X170395037Y-86807303D01*
X170395039Y-86807301D01*
X170395041Y-86807301D01*
X170432647Y-86785589D01*
X170492063Y-86751285D01*
X170571285Y-86672063D01*
X170627303Y-86575037D01*
X170656300Y-86466818D01*
X170656300Y-86354782D01*
X170627303Y-86246563D01*
X170627301Y-86246560D01*
X170627301Y-86246558D01*
X170571286Y-86149539D01*
X170571285Y-86149537D01*
X170492063Y-86070315D01*
X170492060Y-86070313D01*
X170395040Y-86014298D01*
X170395042Y-86014298D01*
X170353051Y-86003047D01*
X170286818Y-85985300D01*
X170174782Y-85985300D01*
X170108548Y-86003047D01*
X170066558Y-86014298D01*
X169969539Y-86070313D01*
X169890313Y-86149539D01*
X169834298Y-86246558D01*
X169825059Y-86281040D01*
X169805300Y-86354782D01*
X123110500Y-86354782D01*
X123110500Y-84754582D01*
X128708100Y-84754582D01*
X128708100Y-84866618D01*
X128726982Y-84937087D01*
X128737098Y-84974841D01*
X128790586Y-85067483D01*
X128793115Y-85071863D01*
X128872337Y-85151085D01*
X128872339Y-85151086D01*
X128969359Y-85207101D01*
X128969363Y-85207103D01*
X129041293Y-85226376D01*
X129092606Y-85259699D01*
X129114533Y-85316820D01*
X129098698Y-85375920D01*
X129051148Y-85414426D01*
X129041294Y-85417628D01*
X128994762Y-85430097D01*
X128994759Y-85430098D01*
X128897739Y-85486113D01*
X128818513Y-85565339D01*
X128762498Y-85662358D01*
X128755692Y-85687758D01*
X128733500Y-85770582D01*
X128733500Y-85882618D01*
X128746196Y-85929999D01*
X128762498Y-85990841D01*
X128813154Y-86078578D01*
X128818515Y-86087863D01*
X128897737Y-86167085D01*
X128897739Y-86167086D01*
X128994759Y-86223101D01*
X128994757Y-86223101D01*
X128994761Y-86223102D01*
X128994763Y-86223103D01*
X129102982Y-86252100D01*
X129102984Y-86252100D01*
X129215016Y-86252100D01*
X129215018Y-86252100D01*
X129323237Y-86223103D01*
X129323239Y-86223101D01*
X129323241Y-86223101D01*
X129376267Y-86192486D01*
X129420263Y-86167085D01*
X129499485Y-86087863D01*
X129541958Y-86014297D01*
X129555501Y-85990841D01*
X129555501Y-85990839D01*
X129555503Y-85990837D01*
X129584500Y-85882618D01*
X129584500Y-85770582D01*
X129555503Y-85662363D01*
X129555501Y-85662360D01*
X129555501Y-85662358D01*
X129499486Y-85565339D01*
X129499485Y-85565337D01*
X129420263Y-85486115D01*
X129420260Y-85486113D01*
X129323240Y-85430098D01*
X129323242Y-85430098D01*
X129292556Y-85421876D01*
X129251305Y-85410823D01*
X129226464Y-85394691D01*
X129201316Y-85379099D01*
X129200905Y-85378092D01*
X129199993Y-85377500D01*
X129189387Y-85349871D01*
X129178196Y-85322450D01*
X129178455Y-85321392D01*
X129178066Y-85320378D01*
X129185722Y-85291803D01*
X129189217Y-85277572D01*
X166515237Y-85277572D01*
X166515237Y-85389608D01*
X166532892Y-85455497D01*
X166544235Y-85497831D01*
X166600250Y-85594850D01*
X166600252Y-85594853D01*
X166679474Y-85674075D01*
X166679476Y-85674076D01*
X166776496Y-85730091D01*
X166776494Y-85730091D01*
X166776498Y-85730092D01*
X166776500Y-85730093D01*
X166884719Y-85759090D01*
X166884721Y-85759090D01*
X166996753Y-85759090D01*
X166996755Y-85759090D01*
X167104974Y-85730093D01*
X167104976Y-85730091D01*
X167104978Y-85730091D01*
X167133801Y-85713449D01*
X167202000Y-85674075D01*
X167281222Y-85594853D01*
X167329337Y-85511515D01*
X167337238Y-85497831D01*
X167337238Y-85497829D01*
X167337240Y-85497827D01*
X167366237Y-85389608D01*
X167366237Y-85277572D01*
X167337240Y-85169353D01*
X167337238Y-85169350D01*
X167337238Y-85169348D01*
X167281223Y-85072329D01*
X167281222Y-85072327D01*
X167202000Y-84993105D01*
X167201666Y-84992912D01*
X167104977Y-84937088D01*
X167104979Y-84937088D01*
X167062988Y-84925837D01*
X166996755Y-84908090D01*
X166884719Y-84908090D01*
X166818485Y-84925837D01*
X166776495Y-84937088D01*
X166679476Y-84993103D01*
X166600250Y-85072329D01*
X166544235Y-85169348D01*
X166534119Y-85207103D01*
X166515237Y-85277572D01*
X129189217Y-85277572D01*
X129192789Y-85263031D01*
X129193592Y-85262434D01*
X129193902Y-85261278D01*
X129239521Y-85223537D01*
X129245287Y-85221183D01*
X129297837Y-85207103D01*
X129394863Y-85151085D01*
X129474085Y-85071863D01*
X129519666Y-84992915D01*
X129530101Y-84974841D01*
X129530101Y-84974839D01*
X129530103Y-84974837D01*
X129559100Y-84866618D01*
X129559100Y-84754582D01*
X129530103Y-84646363D01*
X129530101Y-84646360D01*
X129530101Y-84646358D01*
X129474086Y-84549339D01*
X129474085Y-84549337D01*
X129394863Y-84470115D01*
X129394860Y-84470113D01*
X129315652Y-84424382D01*
X143897300Y-84424382D01*
X143897300Y-84536418D01*
X143902671Y-84556463D01*
X143926298Y-84644641D01*
X143982313Y-84741660D01*
X143982315Y-84741663D01*
X144061537Y-84820885D01*
X144061539Y-84820886D01*
X144158559Y-84876901D01*
X144158557Y-84876901D01*
X144158561Y-84876902D01*
X144158563Y-84876903D01*
X144266782Y-84905900D01*
X144266784Y-84905900D01*
X144378816Y-84905900D01*
X144378818Y-84905900D01*
X144487037Y-84876903D01*
X144487039Y-84876901D01*
X144487041Y-84876901D01*
X144527390Y-84853605D01*
X144584063Y-84820885D01*
X144663285Y-84741663D01*
X144704139Y-84670901D01*
X144719301Y-84644641D01*
X144719301Y-84644639D01*
X144719303Y-84644637D01*
X144748300Y-84536418D01*
X144748300Y-84427673D01*
X167214100Y-84427673D01*
X167214100Y-84533127D01*
X167236007Y-84614885D01*
X167241394Y-84634989D01*
X167241394Y-84634990D01*
X167278870Y-84699900D01*
X167294120Y-84726313D01*
X167368687Y-84800880D01*
X167460013Y-84853607D01*
X167561873Y-84880900D01*
X167561875Y-84880900D01*
X167598817Y-84880900D01*
X167657008Y-84899807D01*
X167692972Y-84949307D01*
X167695452Y-84960268D01*
X167696700Y-84964925D01*
X167696700Y-84964927D01*
X167704250Y-84993105D01*
X167723994Y-85066789D01*
X167723994Y-85066790D01*
X167776718Y-85158110D01*
X167776720Y-85158113D01*
X167851287Y-85232680D01*
X167942613Y-85285407D01*
X168044473Y-85312700D01*
X168044475Y-85312700D01*
X168149925Y-85312700D01*
X168149927Y-85312700D01*
X168251787Y-85285407D01*
X168343113Y-85232680D01*
X168417680Y-85158113D01*
X168417681Y-85158110D01*
X168420307Y-85155485D01*
X168474823Y-85127707D01*
X168515931Y-85129860D01*
X168581770Y-85147502D01*
X168581772Y-85147502D01*
X168687222Y-85147502D01*
X168687224Y-85147502D01*
X168789084Y-85120209D01*
X168880410Y-85067482D01*
X168954977Y-84992915D01*
X169007704Y-84901589D01*
X169034997Y-84799729D01*
X169034997Y-84799726D01*
X169036676Y-84793461D01*
X169038302Y-84793896D01*
X169061144Y-84746019D01*
X169114918Y-84716829D01*
X169132950Y-84715173D01*
X169159600Y-84715173D01*
X169159602Y-84715173D01*
X169261462Y-84687880D01*
X169352788Y-84635153D01*
X169427355Y-84560586D01*
X169480082Y-84469260D01*
X169484464Y-84452904D01*
X169517785Y-84401593D01*
X169574905Y-84379664D01*
X169605705Y-84382900D01*
X169704359Y-84409334D01*
X169704361Y-84409334D01*
X169809811Y-84409334D01*
X169809813Y-84409334D01*
X169911673Y-84382041D01*
X170002999Y-84329314D01*
X170077566Y-84254747D01*
X170098561Y-84218382D01*
X171598532Y-84218382D01*
X171598532Y-84330418D01*
X171612364Y-84382039D01*
X171627530Y-84438641D01*
X171682083Y-84533127D01*
X171683547Y-84535663D01*
X171762769Y-84614885D01*
X171762771Y-84614886D01*
X171859791Y-84670901D01*
X171859789Y-84670901D01*
X171859793Y-84670902D01*
X171859795Y-84670903D01*
X171968014Y-84699900D01*
X171968016Y-84699900D01*
X172080048Y-84699900D01*
X172080050Y-84699900D01*
X172188269Y-84670903D01*
X172188271Y-84670901D01*
X172188273Y-84670901D01*
X172217096Y-84654259D01*
X172285295Y-84614885D01*
X172364517Y-84535663D01*
X172420535Y-84438637D01*
X172449532Y-84330418D01*
X172449532Y-84218382D01*
X172429865Y-84144982D01*
X192055700Y-84144982D01*
X192055700Y-84257018D01*
X192075072Y-84329314D01*
X192084698Y-84365241D01*
X192135314Y-84452908D01*
X192140715Y-84462263D01*
X192219937Y-84541485D01*
X192219939Y-84541486D01*
X192316959Y-84597501D01*
X192316957Y-84597501D01*
X192316961Y-84597502D01*
X192316963Y-84597503D01*
X192425182Y-84626500D01*
X192425184Y-84626500D01*
X192537216Y-84626500D01*
X192537218Y-84626500D01*
X192645437Y-84597503D01*
X192645439Y-84597501D01*
X192645441Y-84597501D01*
X192674264Y-84580859D01*
X192742463Y-84541485D01*
X192821685Y-84462263D01*
X192869374Y-84379664D01*
X192877701Y-84365241D01*
X192877701Y-84365239D01*
X192877703Y-84365237D01*
X192906700Y-84257018D01*
X192906700Y-84144982D01*
X192877703Y-84036763D01*
X192877701Y-84036760D01*
X192877701Y-84036758D01*
X192821686Y-83939739D01*
X192821685Y-83939737D01*
X192742463Y-83860515D01*
X192731607Y-83854247D01*
X192645440Y-83804498D01*
X192645442Y-83804498D01*
X192603451Y-83793247D01*
X192537218Y-83775500D01*
X192425182Y-83775500D01*
X192358948Y-83793247D01*
X192316958Y-83804498D01*
X192219939Y-83860513D01*
X192140713Y-83939739D01*
X192084698Y-84036758D01*
X192072067Y-84083898D01*
X192055700Y-84144982D01*
X172429865Y-84144982D01*
X172420535Y-84110163D01*
X172420533Y-84110160D01*
X172420533Y-84110158D01*
X172364518Y-84013139D01*
X172364517Y-84013137D01*
X172285295Y-83933915D01*
X172285292Y-83933913D01*
X172219405Y-83895873D01*
X172178464Y-83850404D01*
X172172068Y-83789553D01*
X172202661Y-83736565D01*
X172243280Y-83714511D01*
X172300039Y-83699303D01*
X172397065Y-83643285D01*
X172476287Y-83564063D01*
X172532305Y-83467037D01*
X172561302Y-83358818D01*
X172561302Y-83246782D01*
X172532305Y-83138563D01*
X172532303Y-83138560D01*
X172532303Y-83138558D01*
X172476288Y-83041539D01*
X172476287Y-83041537D01*
X172397065Y-82962315D01*
X172397062Y-82962313D01*
X172300042Y-82906298D01*
X172300044Y-82906298D01*
X172258053Y-82895047D01*
X172191820Y-82877300D01*
X172079784Y-82877300D01*
X172013550Y-82895047D01*
X171971560Y-82906298D01*
X171874541Y-82962313D01*
X171795315Y-83041539D01*
X171739300Y-83138558D01*
X171725788Y-83188988D01*
X171710302Y-83246782D01*
X171710302Y-83358818D01*
X171721433Y-83400359D01*
X171739300Y-83467041D01*
X171795315Y-83564060D01*
X171795317Y-83564063D01*
X171874539Y-83643285D01*
X171940429Y-83681327D01*
X171981369Y-83726795D01*
X171987765Y-83787645D01*
X171957172Y-83840633D01*
X171916552Y-83862688D01*
X171859795Y-83877896D01*
X171859791Y-83877898D01*
X171762771Y-83933913D01*
X171683545Y-84013139D01*
X171627530Y-84110158D01*
X171619557Y-84139915D01*
X171598532Y-84218382D01*
X170098561Y-84218382D01*
X170130293Y-84163421D01*
X170157586Y-84061561D01*
X170157586Y-83956107D01*
X170130293Y-83854247D01*
X170128074Y-83850404D01*
X170077567Y-83762923D01*
X170077566Y-83762921D01*
X170031997Y-83717352D01*
X170004222Y-83662838D01*
X170009997Y-83614047D01*
X170009602Y-83613941D01*
X170010333Y-83611209D01*
X170010541Y-83609460D01*
X170011275Y-83607684D01*
X170011282Y-83607673D01*
X170038575Y-83505813D01*
X170038575Y-83400359D01*
X170011282Y-83298499D01*
X170008082Y-83292957D01*
X169958556Y-83207175D01*
X169958555Y-83207173D01*
X169883988Y-83132606D01*
X169792662Y-83079879D01*
X169690802Y-83052586D01*
X169585348Y-83052586D01*
X169483488Y-83079879D01*
X169483487Y-83079879D01*
X169483485Y-83079880D01*
X169483484Y-83079880D01*
X169392164Y-83132604D01*
X169317593Y-83207175D01*
X169264869Y-83298495D01*
X169264869Y-83298496D01*
X169264868Y-83298498D01*
X169264868Y-83298499D01*
X169237575Y-83400359D01*
X169237575Y-83505813D01*
X169264868Y-83607673D01*
X169264869Y-83607675D01*
X169264869Y-83607676D01*
X169285429Y-83643286D01*
X169317595Y-83698999D01*
X169363162Y-83744566D01*
X169373304Y-83764472D01*
X169386753Y-83782308D01*
X169386508Y-83790386D01*
X169390938Y-83799081D01*
X169387840Y-83843484D01*
X169385310Y-83851768D01*
X169383879Y-83854247D01*
X169379055Y-83872247D01*
X169378553Y-83873894D01*
X169361940Y-83897635D01*
X169346170Y-83921917D01*
X169344500Y-83922557D01*
X169343474Y-83924025D01*
X169316076Y-83933467D01*
X169289048Y-83943842D01*
X169286693Y-83943594D01*
X169285628Y-83943962D01*
X169283234Y-83943231D01*
X169258249Y-83940605D01*
X169159602Y-83914173D01*
X169054148Y-83914173D01*
X168952288Y-83941466D01*
X168952287Y-83941466D01*
X168952285Y-83941467D01*
X168952284Y-83941467D01*
X168860964Y-83994191D01*
X168786393Y-84068762D01*
X168733669Y-84160082D01*
X168733669Y-84160083D01*
X168733668Y-84160085D01*
X168733668Y-84160086D01*
X168707696Y-84257018D01*
X168704696Y-84268214D01*
X168703069Y-84267778D01*
X168680228Y-84315656D01*
X168626454Y-84344846D01*
X168608422Y-84346502D01*
X168581770Y-84346502D01*
X168479910Y-84373795D01*
X168479909Y-84373795D01*
X168479907Y-84373796D01*
X168479906Y-84373796D01*
X168388584Y-84426521D01*
X168311388Y-84503717D01*
X168297197Y-84510947D01*
X168285877Y-84522152D01*
X168272518Y-84523521D01*
X168256871Y-84531494D01*
X168225396Y-84531413D01*
X168220519Y-84530614D01*
X168149927Y-84511700D01*
X168104938Y-84511700D01*
X168096994Y-84510400D01*
X168076611Y-84499882D01*
X168054792Y-84492793D01*
X168049945Y-84486122D01*
X168042621Y-84482343D01*
X168032313Y-84461854D01*
X168018828Y-84443293D01*
X168016347Y-84432331D01*
X168015100Y-84427677D01*
X168015100Y-84427673D01*
X167987807Y-84325813D01*
X167935080Y-84234487D01*
X167860513Y-84159920D01*
X167834641Y-84144983D01*
X167769189Y-84107194D01*
X167769188Y-84107193D01*
X167769187Y-84107193D01*
X167667327Y-84079900D01*
X167561873Y-84079900D01*
X167460013Y-84107193D01*
X167460012Y-84107193D01*
X167460010Y-84107194D01*
X167460009Y-84107194D01*
X167368689Y-84159918D01*
X167294118Y-84234489D01*
X167241394Y-84325809D01*
X167241394Y-84325810D01*
X167241393Y-84325812D01*
X167241393Y-84325813D01*
X167214100Y-84427673D01*
X144748300Y-84427673D01*
X144748300Y-84424382D01*
X144719303Y-84316163D01*
X144719301Y-84316160D01*
X144719301Y-84316158D01*
X144663286Y-84219139D01*
X144663285Y-84219137D01*
X144584063Y-84139915D01*
X144584060Y-84139913D01*
X144487040Y-84083898D01*
X144487042Y-84083898D01*
X144430552Y-84068762D01*
X144378818Y-84054900D01*
X144266782Y-84054900D01*
X144215048Y-84068762D01*
X144158558Y-84083898D01*
X144061539Y-84139913D01*
X143982313Y-84219139D01*
X143926298Y-84316158D01*
X143926297Y-84316163D01*
X143897300Y-84424382D01*
X129315652Y-84424382D01*
X129297840Y-84414098D01*
X129297842Y-84414098D01*
X129251171Y-84401593D01*
X129189618Y-84385100D01*
X129077582Y-84385100D01*
X129016029Y-84401593D01*
X128969358Y-84414098D01*
X128872339Y-84470113D01*
X128793113Y-84549339D01*
X128737098Y-84646358D01*
X128725973Y-84687878D01*
X128708100Y-84754582D01*
X123110500Y-84754582D01*
X123110500Y-82173981D01*
X163763101Y-82173981D01*
X163763101Y-82286017D01*
X163767722Y-82303263D01*
X163792099Y-82394240D01*
X163848114Y-82491259D01*
X163848116Y-82491262D01*
X163927338Y-82570484D01*
X163927340Y-82570485D01*
X164024360Y-82626500D01*
X164024358Y-82626500D01*
X164024362Y-82626501D01*
X164024364Y-82626502D01*
X164132583Y-82655499D01*
X164132585Y-82655499D01*
X164244617Y-82655499D01*
X164244619Y-82655499D01*
X164352838Y-82626502D01*
X164352840Y-82626500D01*
X164352842Y-82626500D01*
X164381665Y-82609858D01*
X164449864Y-82570484D01*
X164529086Y-82491262D01*
X164568460Y-82423063D01*
X164585102Y-82394240D01*
X164585102Y-82394238D01*
X164585104Y-82394236D01*
X164614101Y-82286017D01*
X164614101Y-82174182D01*
X165944500Y-82174182D01*
X165944500Y-82286218D01*
X165957646Y-82335280D01*
X165973498Y-82394441D01*
X166029397Y-82491259D01*
X166029515Y-82491463D01*
X166108737Y-82570685D01*
X166108739Y-82570686D01*
X166205759Y-82626701D01*
X166205757Y-82626701D01*
X166205761Y-82626702D01*
X166205763Y-82626703D01*
X166313982Y-82655700D01*
X166313984Y-82655700D01*
X166426016Y-82655700D01*
X166426018Y-82655700D01*
X166534237Y-82626703D01*
X166534239Y-82626701D01*
X166534241Y-82626701D01*
X166572758Y-82604463D01*
X166631263Y-82570685D01*
X166710485Y-82491463D01*
X166749859Y-82423264D01*
X166766501Y-82394441D01*
X166766501Y-82394439D01*
X166766503Y-82394437D01*
X166795500Y-82286218D01*
X166795500Y-82266555D01*
X189895527Y-82266555D01*
X189895527Y-82378591D01*
X189911580Y-82438501D01*
X189924525Y-82486814D01*
X189980540Y-82583833D01*
X189980542Y-82583836D01*
X190059764Y-82663058D01*
X190059766Y-82663059D01*
X190156786Y-82719074D01*
X190156784Y-82719074D01*
X190156788Y-82719075D01*
X190156790Y-82719076D01*
X190265009Y-82748073D01*
X190265011Y-82748073D01*
X190377043Y-82748073D01*
X190377045Y-82748073D01*
X190485264Y-82719076D01*
X190485266Y-82719074D01*
X190485268Y-82719074D01*
X190533657Y-82691136D01*
X190582290Y-82663058D01*
X190661512Y-82583836D01*
X190717530Y-82486810D01*
X190725871Y-82455680D01*
X190759193Y-82404367D01*
X190816315Y-82382440D01*
X190870996Y-82395567D01*
X190945363Y-82438503D01*
X191053582Y-82467500D01*
X191053584Y-82467500D01*
X191165616Y-82467500D01*
X191165618Y-82467500D01*
X191273837Y-82438503D01*
X191273839Y-82438501D01*
X191273841Y-82438501D01*
X191332962Y-82404367D01*
X191370863Y-82382485D01*
X191450085Y-82303263D01*
X191506103Y-82206237D01*
X191507486Y-82201076D01*
X202751116Y-82201076D01*
X203503012Y-82201076D01*
X203485795Y-82211016D01*
X203429940Y-82266871D01*
X203390444Y-82335280D01*
X203370000Y-82411580D01*
X203370000Y-82490572D01*
X203390444Y-82566872D01*
X203429940Y-82635281D01*
X203485795Y-82691136D01*
X203503012Y-82701076D01*
X202751116Y-82701076D01*
X202756508Y-82728181D01*
X202828120Y-82901068D01*
X202828124Y-82901077D01*
X202932087Y-83056665D01*
X202932090Y-83056669D01*
X203064406Y-83188985D01*
X203064410Y-83188988D01*
X203219998Y-83292951D01*
X203220010Y-83292957D01*
X203392894Y-83364567D01*
X203576430Y-83401075D01*
X203576434Y-83401076D01*
X203969999Y-83401076D01*
X203970000Y-83401075D01*
X203970000Y-82751076D01*
X204470000Y-82751076D01*
X204470000Y-83401075D01*
X204470001Y-83401076D01*
X204863566Y-83401076D01*
X204863569Y-83401075D01*
X205047104Y-83364567D01*
X205047106Y-83364567D01*
X205219989Y-83292957D01*
X205220001Y-83292951D01*
X205375589Y-83188988D01*
X205375593Y-83188985D01*
X205507909Y-83056669D01*
X205507912Y-83056665D01*
X205611875Y-82901077D01*
X205611879Y-82901068D01*
X205683491Y-82728181D01*
X205688884Y-82701076D01*
X204936988Y-82701076D01*
X204954205Y-82691136D01*
X205010060Y-82635281D01*
X205049556Y-82566872D01*
X205070000Y-82490572D01*
X205070000Y-82411580D01*
X205049556Y-82335280D01*
X205010060Y-82266871D01*
X204954205Y-82211016D01*
X204936988Y-82201076D01*
X205688884Y-82201076D01*
X207081116Y-82201076D01*
X207833012Y-82201076D01*
X207815795Y-82211016D01*
X207759940Y-82266871D01*
X207720444Y-82335280D01*
X207700000Y-82411580D01*
X207700000Y-82490572D01*
X207720444Y-82566872D01*
X207759940Y-82635281D01*
X207815795Y-82691136D01*
X207833012Y-82701076D01*
X207081116Y-82701076D01*
X207086508Y-82728181D01*
X207158120Y-82901068D01*
X207158124Y-82901077D01*
X207262087Y-83056665D01*
X207262090Y-83056669D01*
X207394406Y-83188985D01*
X207394410Y-83188988D01*
X207549998Y-83292951D01*
X207550010Y-83292957D01*
X207722894Y-83364567D01*
X207906430Y-83401075D01*
X207906434Y-83401076D01*
X208149999Y-83401076D01*
X208150000Y-83401075D01*
X208150000Y-82751076D01*
X208650000Y-82751076D01*
X208650000Y-83401075D01*
X208650001Y-83401076D01*
X208893566Y-83401076D01*
X208893569Y-83401075D01*
X209077104Y-83364567D01*
X209077106Y-83364567D01*
X209249989Y-83292957D01*
X209250001Y-83292951D01*
X209405589Y-83188988D01*
X209405593Y-83188985D01*
X209537909Y-83056669D01*
X209537912Y-83056665D01*
X209641875Y-82901077D01*
X209641879Y-82901068D01*
X209713491Y-82728181D01*
X209718884Y-82701076D01*
X208966988Y-82701076D01*
X208984205Y-82691136D01*
X209040060Y-82635281D01*
X209079556Y-82566872D01*
X209100000Y-82490572D01*
X209100000Y-82411580D01*
X209079556Y-82335280D01*
X209040060Y-82266871D01*
X208984205Y-82211016D01*
X208966988Y-82201076D01*
X209718884Y-82201076D01*
X209713491Y-82173970D01*
X209641879Y-82001083D01*
X209641875Y-82001074D01*
X209537912Y-81845486D01*
X209537909Y-81845482D01*
X209405593Y-81713166D01*
X209405589Y-81713163D01*
X209250001Y-81609200D01*
X209249989Y-81609194D01*
X209077105Y-81537584D01*
X208893569Y-81501076D01*
X208650001Y-81501076D01*
X208650000Y-81501077D01*
X208650000Y-82151076D01*
X208150000Y-82151076D01*
X208150000Y-81501077D01*
X208149999Y-81501076D01*
X207906430Y-81501076D01*
X207722895Y-81537584D01*
X207722893Y-81537584D01*
X207550010Y-81609194D01*
X207549998Y-81609200D01*
X207394410Y-81713163D01*
X207394406Y-81713166D01*
X207262090Y-81845482D01*
X207262087Y-81845486D01*
X207158124Y-82001074D01*
X207158120Y-82001083D01*
X207086508Y-82173970D01*
X207081116Y-82201076D01*
X205688884Y-82201076D01*
X205683491Y-82173970D01*
X205611879Y-82001083D01*
X205611875Y-82001074D01*
X205507912Y-81845486D01*
X205507909Y-81845482D01*
X205375593Y-81713166D01*
X205375589Y-81713163D01*
X205220001Y-81609200D01*
X205219992Y-81609196D01*
X205112966Y-81564864D01*
X205066440Y-81525127D01*
X205052157Y-81465632D01*
X205075572Y-81409104D01*
X205080836Y-81403409D01*
X205140505Y-81343741D01*
X205209688Y-81223912D01*
X205245500Y-81090259D01*
X205245500Y-80951893D01*
X205209688Y-80818240D01*
X205140505Y-80698411D01*
X205042665Y-80600571D01*
X204922836Y-80531388D01*
X204789183Y-80495576D01*
X204650817Y-80495576D01*
X204517164Y-80531388D01*
X204397335Y-80600571D01*
X204299495Y-80698411D01*
X204230312Y-80818240D01*
X204194500Y-80951893D01*
X204194500Y-81090259D01*
X204230312Y-81223912D01*
X204299495Y-81343741D01*
X204397335Y-81441581D01*
X204420500Y-81454955D01*
X204461441Y-81500423D01*
X204470000Y-81540691D01*
X204470000Y-82151076D01*
X203970000Y-82151076D01*
X203970000Y-81501077D01*
X203969999Y-81501076D01*
X203576430Y-81501076D01*
X203392895Y-81537584D01*
X203392893Y-81537584D01*
X203220010Y-81609194D01*
X203219998Y-81609200D01*
X203064410Y-81713163D01*
X203064406Y-81713166D01*
X202932090Y-81845482D01*
X202932087Y-81845486D01*
X202828124Y-82001074D01*
X202828120Y-82001083D01*
X202756508Y-82173970D01*
X202751116Y-82201076D01*
X191507486Y-82201076D01*
X191535100Y-82098018D01*
X191535100Y-81985982D01*
X191506103Y-81877763D01*
X191506101Y-81877759D01*
X191506101Y-81877758D01*
X191450086Y-81780739D01*
X191450085Y-81780737D01*
X191370863Y-81701515D01*
X191370860Y-81701513D01*
X191273840Y-81645498D01*
X191273842Y-81645498D01*
X191231851Y-81634247D01*
X191165618Y-81616500D01*
X191053582Y-81616500D01*
X190987348Y-81634247D01*
X190945358Y-81645498D01*
X190848339Y-81701513D01*
X190769113Y-81780739D01*
X190713098Y-81877759D01*
X190713097Y-81877762D01*
X190704755Y-81908893D01*
X190671430Y-81960207D01*
X190614308Y-81982132D01*
X190559629Y-81969004D01*
X190485267Y-81926071D01*
X190485269Y-81926071D01*
X190443278Y-81914820D01*
X190377045Y-81897073D01*
X190265009Y-81897073D01*
X190198775Y-81914820D01*
X190156785Y-81926071D01*
X190059766Y-81982086D01*
X189980540Y-82061312D01*
X189924525Y-82158331D01*
X189908313Y-82218836D01*
X189895527Y-82266555D01*
X166795500Y-82266555D01*
X166795500Y-82174182D01*
X166766503Y-82065963D01*
X166766501Y-82065960D01*
X166766501Y-82065958D01*
X166710486Y-81968939D01*
X166710485Y-81968937D01*
X166631263Y-81889715D01*
X166630915Y-81889514D01*
X166534240Y-81833698D01*
X166534242Y-81833698D01*
X166492251Y-81822447D01*
X166426018Y-81804700D01*
X166313982Y-81804700D01*
X166247748Y-81822447D01*
X166205758Y-81833698D01*
X166108739Y-81889713D01*
X166029513Y-81968939D01*
X165973498Y-82065958D01*
X165973497Y-82065963D01*
X165944500Y-82174182D01*
X164614101Y-82174182D01*
X164614101Y-82173981D01*
X164585104Y-82065762D01*
X164585102Y-82065759D01*
X164585102Y-82065757D01*
X164529087Y-81968738D01*
X164529086Y-81968736D01*
X164449864Y-81889514D01*
X164429511Y-81877763D01*
X164352841Y-81833497D01*
X164352843Y-81833497D01*
X164310852Y-81822246D01*
X164244619Y-81804499D01*
X164132583Y-81804499D01*
X164066349Y-81822246D01*
X164024359Y-81833497D01*
X163927340Y-81889512D01*
X163848114Y-81968738D01*
X163792099Y-82065757D01*
X163783455Y-82098018D01*
X163763101Y-82173981D01*
X123110500Y-82173981D01*
X123110500Y-80715982D01*
X134118300Y-80715982D01*
X134118300Y-80828018D01*
X134138961Y-80905127D01*
X134147298Y-80936241D01*
X134197857Y-81023810D01*
X134203315Y-81033263D01*
X134282537Y-81112485D01*
X134291575Y-81117703D01*
X134379559Y-81168501D01*
X134379557Y-81168501D01*
X134379561Y-81168502D01*
X134379563Y-81168503D01*
X134487782Y-81197500D01*
X134487784Y-81197500D01*
X134599816Y-81197500D01*
X134599818Y-81197500D01*
X134708037Y-81168503D01*
X134708039Y-81168501D01*
X134708041Y-81168501D01*
X134745801Y-81146700D01*
X134805063Y-81112485D01*
X134884285Y-81033263D01*
X134930955Y-80952428D01*
X134940301Y-80936241D01*
X134940301Y-80936239D01*
X134940303Y-80936237D01*
X134969300Y-80828018D01*
X134969300Y-80715982D01*
X134955688Y-80665182D01*
X141408100Y-80665182D01*
X141408100Y-80777218D01*
X141428589Y-80853685D01*
X141437098Y-80885441D01*
X141483429Y-80965687D01*
X141493115Y-80982463D01*
X141572337Y-81061685D01*
X141572339Y-81061686D01*
X141669359Y-81117701D01*
X141669357Y-81117701D01*
X141669361Y-81117702D01*
X141669363Y-81117703D01*
X141777582Y-81146700D01*
X141777584Y-81146700D01*
X141889616Y-81146700D01*
X141889618Y-81146700D01*
X141997837Y-81117703D01*
X141997839Y-81117701D01*
X141997841Y-81117701D01*
X142045375Y-81090257D01*
X142094863Y-81061685D01*
X142174085Y-80982463D01*
X142217270Y-80907664D01*
X142230101Y-80885441D01*
X142230101Y-80885439D01*
X142230103Y-80885437D01*
X142259100Y-80777218D01*
X142259100Y-80665182D01*
X142230103Y-80556963D01*
X142230101Y-80556960D01*
X142230101Y-80556958D01*
X142174220Y-80460171D01*
X142174085Y-80459937D01*
X142094863Y-80380715D01*
X142094860Y-80380713D01*
X141997840Y-80324698D01*
X141997842Y-80324698D01*
X141951489Y-80312278D01*
X141894915Y-80297119D01*
X141892042Y-80296349D01*
X141889618Y-80295700D01*
X141777582Y-80295700D01*
X141711491Y-80313409D01*
X141669358Y-80324698D01*
X141572339Y-80380713D01*
X141493113Y-80459939D01*
X141437098Y-80556958D01*
X141422824Y-80610230D01*
X141408100Y-80665182D01*
X134955688Y-80665182D01*
X134940303Y-80607763D01*
X134940301Y-80607760D01*
X134940301Y-80607758D01*
X134884286Y-80510739D01*
X134884285Y-80510737D01*
X134805063Y-80431515D01*
X134805060Y-80431513D01*
X134708040Y-80375498D01*
X134708042Y-80375498D01*
X134666051Y-80364247D01*
X134599818Y-80346500D01*
X134487782Y-80346500D01*
X134421548Y-80364247D01*
X134379558Y-80375498D01*
X134282539Y-80431513D01*
X134203313Y-80510739D01*
X134147298Y-80607758D01*
X134132606Y-80662590D01*
X134118300Y-80715982D01*
X123110500Y-80715982D01*
X123110500Y-80207982D01*
X162388500Y-80207982D01*
X162388500Y-80320018D01*
X162404763Y-80380713D01*
X162417498Y-80428241D01*
X162465483Y-80511352D01*
X162473515Y-80525263D01*
X162552737Y-80604485D01*
X162552739Y-80604486D01*
X162649759Y-80660501D01*
X162649757Y-80660501D01*
X162649761Y-80660502D01*
X162649763Y-80660503D01*
X162757982Y-80689500D01*
X162757984Y-80689500D01*
X162870016Y-80689500D01*
X162870018Y-80689500D01*
X162978237Y-80660503D01*
X162978239Y-80660501D01*
X162978241Y-80660501D01*
X163043904Y-80622590D01*
X163075263Y-80604485D01*
X163114348Y-80565400D01*
X171523680Y-80565400D01*
X171523680Y-80670854D01*
X171550973Y-80772714D01*
X171550974Y-80772716D01*
X171550974Y-80772717D01*
X171603698Y-80864037D01*
X171603700Y-80864040D01*
X171644789Y-80905129D01*
X171672565Y-80959644D01*
X171663359Y-81017767D01*
X171663477Y-81017816D01*
X171663274Y-81018304D01*
X171662994Y-81020076D01*
X171661084Y-81023593D01*
X171660994Y-81023808D01*
X171650560Y-81062750D01*
X171633700Y-81125673D01*
X171633700Y-81231127D01*
X171660993Y-81332987D01*
X171670758Y-81349900D01*
X171705574Y-81410203D01*
X171718295Y-81470052D01*
X171705574Y-81509202D01*
X171663191Y-81582611D01*
X171656068Y-81609196D01*
X171635898Y-81684473D01*
X171635898Y-81789927D01*
X171662636Y-81889715D01*
X171663192Y-81891789D01*
X171663192Y-81891790D01*
X171715916Y-81983110D01*
X171715918Y-81983113D01*
X171790485Y-82057680D01*
X171881811Y-82110407D01*
X171983671Y-82137700D01*
X171983673Y-82137700D01*
X172089123Y-82137700D01*
X172089125Y-82137700D01*
X172190985Y-82110407D01*
X172282311Y-82057680D01*
X172356878Y-81983113D01*
X172409605Y-81891787D01*
X172436898Y-81789927D01*
X172436898Y-81684473D01*
X172409605Y-81582613D01*
X172385401Y-81540691D01*
X172365024Y-81505396D01*
X172352302Y-81445548D01*
X172365024Y-81406396D01*
X172397642Y-81349900D01*
X172407407Y-81332987D01*
X172434700Y-81231127D01*
X172434700Y-81125673D01*
X172407407Y-81023813D01*
X172405249Y-81020076D01*
X172358213Y-80938607D01*
X172354680Y-80932487D01*
X172313590Y-80891397D01*
X172299715Y-80864164D01*
X172285870Y-80837226D01*
X172285901Y-80837053D01*
X172285815Y-80836883D01*
X172294920Y-80778733D01*
X172294898Y-80778724D01*
X172294936Y-80778632D01*
X172295229Y-80776761D01*
X172296477Y-80774289D01*
X172297387Y-80772714D01*
X172297515Y-80772234D01*
X172299578Y-80768151D01*
X172318639Y-80748954D01*
X172336204Y-80728383D01*
X172339964Y-80727479D01*
X172342690Y-80724735D01*
X172369391Y-80720409D01*
X172395696Y-80714090D01*
X172399269Y-80715569D01*
X172403089Y-80714951D01*
X172427234Y-80727147D01*
X172452228Y-80737495D01*
X172457662Y-80742516D01*
X172457702Y-80742537D01*
X172457718Y-80742568D01*
X172457935Y-80742769D01*
X172503646Y-80788480D01*
X172594972Y-80841207D01*
X172696832Y-80868500D01*
X172696834Y-80868500D01*
X172802284Y-80868500D01*
X172802286Y-80868500D01*
X172904146Y-80841207D01*
X172995472Y-80788480D01*
X173070039Y-80713913D01*
X173122766Y-80622587D01*
X173150059Y-80520727D01*
X173150059Y-80455273D01*
X173771500Y-80455273D01*
X173771500Y-80560727D01*
X173798793Y-80662587D01*
X173798794Y-80662589D01*
X173798794Y-80662590D01*
X173848657Y-80748954D01*
X173851520Y-80753913D01*
X173926087Y-80828480D01*
X174017413Y-80881207D01*
X174119273Y-80908500D01*
X174119275Y-80908500D01*
X174224725Y-80908500D01*
X174224727Y-80908500D01*
X174326587Y-80881207D01*
X174417913Y-80828480D01*
X174458090Y-80788302D01*
X174512604Y-80760526D01*
X174573036Y-80770097D01*
X174606633Y-80798038D01*
X174609248Y-80801446D01*
X174609249Y-80801447D01*
X174609251Y-80801450D01*
X174688473Y-80880672D01*
X174710697Y-80893503D01*
X174785495Y-80936688D01*
X174785493Y-80936688D01*
X174785497Y-80936689D01*
X174785499Y-80936690D01*
X174893718Y-80965687D01*
X174893720Y-80965687D01*
X175005752Y-80965687D01*
X175005754Y-80965687D01*
X175113973Y-80936690D01*
X175113975Y-80936688D01*
X175113977Y-80936688D01*
X175155544Y-80912689D01*
X175210999Y-80880672D01*
X175290221Y-80801450D01*
X175290222Y-80801447D01*
X175292003Y-80799667D01*
X175346519Y-80771889D01*
X175406952Y-80781460D01*
X175432007Y-80799663D01*
X175484135Y-80851791D01*
X175484137Y-80851792D01*
X175581157Y-80907807D01*
X175581155Y-80907807D01*
X175581159Y-80907808D01*
X175581161Y-80907809D01*
X175689380Y-80936806D01*
X175689382Y-80936806D01*
X175801414Y-80936806D01*
X175801416Y-80936806D01*
X175909635Y-80907809D01*
X176006661Y-80851791D01*
X176006662Y-80851789D01*
X176010155Y-80849773D01*
X176070004Y-80837051D01*
X176109153Y-80849771D01*
X176184898Y-80893503D01*
X176293117Y-80922500D01*
X176293119Y-80922500D01*
X176405151Y-80922500D01*
X176405153Y-80922500D01*
X176513372Y-80893503D01*
X176513374Y-80893501D01*
X176513376Y-80893501D01*
X176558757Y-80867300D01*
X176610398Y-80837485D01*
X176689620Y-80758263D01*
X176689621Y-80758260D01*
X176693252Y-80754630D01*
X176747768Y-80726852D01*
X176808201Y-80736423D01*
X176841798Y-80764365D01*
X176844518Y-80767910D01*
X176844520Y-80767913D01*
X176919087Y-80842480D01*
X177010413Y-80895207D01*
X177112273Y-80922500D01*
X177112275Y-80922500D01*
X177217725Y-80922500D01*
X177217727Y-80922500D01*
X177319587Y-80895207D01*
X177410913Y-80842480D01*
X177485480Y-80767913D01*
X177538207Y-80676587D01*
X177565500Y-80574727D01*
X177565500Y-80469273D01*
X177563061Y-80460170D01*
X178072500Y-80460170D01*
X178072500Y-80572206D01*
X178094761Y-80655285D01*
X178101498Y-80680429D01*
X178157379Y-80777216D01*
X178157515Y-80777451D01*
X178236737Y-80856673D01*
X178257018Y-80868382D01*
X178333759Y-80912689D01*
X178333757Y-80912689D01*
X178333761Y-80912690D01*
X178333763Y-80912691D01*
X178441982Y-80941688D01*
X178441984Y-80941688D01*
X178554016Y-80941688D01*
X178554018Y-80941688D01*
X178662237Y-80912691D01*
X178662239Y-80912689D01*
X178662241Y-80912689D01*
X178714214Y-80882682D01*
X178759263Y-80856673D01*
X178838485Y-80777451D01*
X178894503Y-80680425D01*
X178913312Y-80610229D01*
X179823641Y-80610229D01*
X179823641Y-80722265D01*
X179845550Y-80804032D01*
X179852639Y-80830488D01*
X179900099Y-80912689D01*
X179908656Y-80927510D01*
X179987878Y-81006732D01*
X180017456Y-81023809D01*
X180084900Y-81062748D01*
X180084898Y-81062748D01*
X180084902Y-81062749D01*
X180084904Y-81062750D01*
X180193123Y-81091747D01*
X180193125Y-81091747D01*
X180305157Y-81091747D01*
X180305159Y-81091747D01*
X180413378Y-81062750D01*
X180413380Y-81062748D01*
X180413382Y-81062748D01*
X180464456Y-81033260D01*
X180510404Y-81006732D01*
X180589626Y-80927510D01*
X180623763Y-80868382D01*
X201453700Y-80868382D01*
X201453700Y-80980418D01*
X201465327Y-81023809D01*
X201482698Y-81088641D01*
X201538713Y-81185660D01*
X201538715Y-81185663D01*
X201617937Y-81264885D01*
X201617939Y-81264886D01*
X201714959Y-81320901D01*
X201714957Y-81320901D01*
X201714961Y-81320902D01*
X201714963Y-81320903D01*
X201823182Y-81349900D01*
X201823184Y-81349900D01*
X201935216Y-81349900D01*
X201935218Y-81349900D01*
X202043437Y-81320903D01*
X202043439Y-81320901D01*
X202043441Y-81320901D01*
X202072264Y-81304259D01*
X202140463Y-81264885D01*
X202219685Y-81185663D01*
X202261934Y-81112485D01*
X202275701Y-81088641D01*
X202275701Y-81088639D01*
X202275703Y-81088637D01*
X202304700Y-80980418D01*
X202304700Y-80965855D01*
X202305377Y-80963770D01*
X202304789Y-80961659D01*
X202314770Y-80934860D01*
X202323607Y-80907664D01*
X202325380Y-80906375D01*
X202326145Y-80904322D01*
X202347531Y-80890281D01*
X202373107Y-80871700D01*
X202377125Y-80870489D01*
X202377594Y-80870358D01*
X202439820Y-80853685D01*
X202536846Y-80797667D01*
X202616068Y-80718445D01*
X202672086Y-80621419D01*
X202701083Y-80513200D01*
X202701083Y-80401164D01*
X202672086Y-80292945D01*
X202672084Y-80292942D01*
X202672084Y-80292940D01*
X202619301Y-80201519D01*
X202616068Y-80195919D01*
X202536846Y-80116697D01*
X202536843Y-80116695D01*
X202439823Y-80060680D01*
X202439825Y-80060680D01*
X202397834Y-80049429D01*
X202331601Y-80031682D01*
X202219565Y-80031682D01*
X202153331Y-80049429D01*
X202111341Y-80060680D01*
X202014322Y-80116695D01*
X201935096Y-80195921D01*
X201879081Y-80292940D01*
X201872350Y-80318062D01*
X201855846Y-80379658D01*
X201850083Y-80401165D01*
X201850083Y-80415726D01*
X201831176Y-80473917D01*
X201781676Y-80509881D01*
X201776707Y-80511352D01*
X201714963Y-80527896D01*
X201714959Y-80527898D01*
X201617939Y-80583913D01*
X201538713Y-80663139D01*
X201482698Y-80760158D01*
X201475109Y-80788481D01*
X201453700Y-80868382D01*
X180623763Y-80868382D01*
X180633342Y-80851791D01*
X180645642Y-80830488D01*
X180645642Y-80830486D01*
X180645644Y-80830484D01*
X180674641Y-80722265D01*
X180674641Y-80610229D01*
X180645644Y-80502010D01*
X180589626Y-80404984D01*
X180570424Y-80385782D01*
X189795100Y-80385782D01*
X189795100Y-80497818D01*
X189820672Y-80593255D01*
X189824098Y-80606041D01*
X189872284Y-80689500D01*
X189880115Y-80703063D01*
X189959337Y-80782285D01*
X189959339Y-80782286D01*
X190056359Y-80838301D01*
X190056357Y-80838301D01*
X190056361Y-80838302D01*
X190056363Y-80838303D01*
X190164582Y-80867300D01*
X190164584Y-80867300D01*
X190276616Y-80867300D01*
X190276618Y-80867300D01*
X190384837Y-80838303D01*
X190384839Y-80838301D01*
X190384841Y-80838301D01*
X190451758Y-80799666D01*
X190481863Y-80782285D01*
X190561085Y-80703063D01*
X190614683Y-80610229D01*
X190617101Y-80606041D01*
X190617101Y-80606039D01*
X190617103Y-80606037D01*
X190646100Y-80497818D01*
X190646100Y-80385782D01*
X190617103Y-80277563D01*
X190617101Y-80277560D01*
X190617101Y-80277558D01*
X190561086Y-80180539D01*
X190561085Y-80180537D01*
X190481863Y-80101315D01*
X190480448Y-80100498D01*
X190384840Y-80045298D01*
X190384837Y-80045297D01*
X190276618Y-80016300D01*
X190164582Y-80016300D01*
X190107175Y-80031682D01*
X190056358Y-80045298D01*
X189959339Y-80101313D01*
X189880113Y-80180539D01*
X189824098Y-80277558D01*
X189811467Y-80324698D01*
X189795100Y-80385782D01*
X180570424Y-80385782D01*
X180510404Y-80325762D01*
X180510401Y-80325760D01*
X180413381Y-80269745D01*
X180413383Y-80269745D01*
X180371392Y-80258494D01*
X180305159Y-80240747D01*
X180193123Y-80240747D01*
X180126889Y-80258494D01*
X180084899Y-80269745D01*
X179987880Y-80325760D01*
X179908654Y-80404986D01*
X179852639Y-80502005D01*
X179845701Y-80527898D01*
X179823641Y-80610229D01*
X178913312Y-80610229D01*
X178923500Y-80572206D01*
X178923500Y-80460170D01*
X178894503Y-80351951D01*
X178894501Y-80351948D01*
X178894501Y-80351946D01*
X178838486Y-80254927D01*
X178838485Y-80254925D01*
X178759263Y-80175703D01*
X178756724Y-80174237D01*
X178662240Y-80119686D01*
X178662242Y-80119686D01*
X178616762Y-80107500D01*
X178554018Y-80090688D01*
X178441982Y-80090688D01*
X178379238Y-80107500D01*
X178333758Y-80119686D01*
X178236739Y-80175701D01*
X178157513Y-80254927D01*
X178101498Y-80351946D01*
X178088310Y-80401165D01*
X178072500Y-80460170D01*
X177563061Y-80460170D01*
X177538207Y-80367413D01*
X177530122Y-80353410D01*
X177497015Y-80296067D01*
X177485480Y-80276087D01*
X177410913Y-80201520D01*
X177407764Y-80199702D01*
X177319589Y-80148794D01*
X177319588Y-80148793D01*
X177319587Y-80148793D01*
X177217727Y-80121500D01*
X177112273Y-80121500D01*
X177010413Y-80148793D01*
X177010412Y-80148793D01*
X177010410Y-80148794D01*
X177010409Y-80148794D01*
X176919087Y-80201519D01*
X176852316Y-80268290D01*
X176797799Y-80296067D01*
X176737367Y-80286495D01*
X176696577Y-80247787D01*
X176694922Y-80244920D01*
X176689620Y-80235737D01*
X176610398Y-80156515D01*
X176600089Y-80150563D01*
X176513375Y-80100498D01*
X176513377Y-80100498D01*
X176458544Y-80085806D01*
X176405153Y-80071500D01*
X176293117Y-80071500D01*
X176239726Y-80085806D01*
X176184896Y-80100497D01*
X176110096Y-80143684D01*
X176087876Y-80156513D01*
X176084377Y-80158533D01*
X176024529Y-80171254D01*
X175985377Y-80158532D01*
X175909638Y-80114804D01*
X175909640Y-80114804D01*
X175859289Y-80101313D01*
X175801416Y-80085806D01*
X175689380Y-80085806D01*
X175631507Y-80101313D01*
X175581156Y-80114804D01*
X175484135Y-80170820D01*
X175403129Y-80251826D01*
X175348612Y-80279603D01*
X175288180Y-80270031D01*
X175263125Y-80251828D01*
X175210999Y-80199702D01*
X175210996Y-80199700D01*
X175113976Y-80143685D01*
X175113978Y-80143685D01*
X175071987Y-80132434D01*
X175005754Y-80114687D01*
X174893718Y-80114687D01*
X174827484Y-80132434D01*
X174785494Y-80143685D01*
X174688475Y-80199700D01*
X174688473Y-80199701D01*
X174688473Y-80199702D01*
X174629285Y-80258889D01*
X174574771Y-80286665D01*
X174514339Y-80277094D01*
X174489283Y-80258890D01*
X174417913Y-80187520D01*
X174405818Y-80180537D01*
X174326589Y-80134794D01*
X174326588Y-80134793D01*
X174326587Y-80134793D01*
X174224727Y-80107500D01*
X174119273Y-80107500D01*
X174017413Y-80134793D01*
X174017412Y-80134793D01*
X174017410Y-80134794D01*
X174017409Y-80134794D01*
X173926089Y-80187518D01*
X173851518Y-80262089D01*
X173798794Y-80353409D01*
X173798794Y-80353410D01*
X173798793Y-80353412D01*
X173798793Y-80353413D01*
X173771500Y-80455273D01*
X173150059Y-80455273D01*
X173150059Y-80415273D01*
X173122766Y-80313413D01*
X173113662Y-80297645D01*
X173070040Y-80222089D01*
X173070039Y-80222087D01*
X172995472Y-80147520D01*
X172973428Y-80134793D01*
X172904148Y-80094794D01*
X172904147Y-80094793D01*
X172904146Y-80094793D01*
X172802286Y-80067500D01*
X172696832Y-80067500D01*
X172594972Y-80094793D01*
X172594971Y-80094793D01*
X172594969Y-80094794D01*
X172594968Y-80094794D01*
X172503648Y-80147518D01*
X172429077Y-80222089D01*
X172373107Y-80319033D01*
X172371425Y-80318062D01*
X172337500Y-80357764D01*
X172278001Y-80372033D01*
X172221479Y-80348604D01*
X172215802Y-80343356D01*
X172170093Y-80297647D01*
X172169180Y-80297120D01*
X172078769Y-80244921D01*
X172078768Y-80244920D01*
X172078767Y-80244920D01*
X171976907Y-80217627D01*
X171871453Y-80217627D01*
X171769593Y-80244920D01*
X171769592Y-80244920D01*
X171769590Y-80244921D01*
X171769589Y-80244921D01*
X171678269Y-80297645D01*
X171603698Y-80372216D01*
X171550974Y-80463536D01*
X171550974Y-80463537D01*
X171550973Y-80463539D01*
X171550973Y-80463540D01*
X171523680Y-80565400D01*
X163114348Y-80565400D01*
X163154485Y-80525263D01*
X163210503Y-80428237D01*
X163239500Y-80320018D01*
X163239500Y-80207982D01*
X163210503Y-80099763D01*
X163210501Y-80099760D01*
X163210501Y-80099758D01*
X163154486Y-80002739D01*
X163154485Y-80002737D01*
X163105730Y-79953982D01*
X190887300Y-79953982D01*
X190887300Y-80066018D01*
X190908111Y-80143685D01*
X190916298Y-80174241D01*
X190972313Y-80271260D01*
X190972315Y-80271263D01*
X191051537Y-80350485D01*
X191064145Y-80357764D01*
X191148559Y-80406501D01*
X191148557Y-80406501D01*
X191148561Y-80406502D01*
X191148563Y-80406503D01*
X191256782Y-80435500D01*
X191256784Y-80435500D01*
X191368816Y-80435500D01*
X191368818Y-80435500D01*
X191477037Y-80406503D01*
X191477039Y-80406501D01*
X191477041Y-80406501D01*
X191521703Y-80380715D01*
X191574063Y-80350485D01*
X191653285Y-80271263D01*
X191660491Y-80258782D01*
X195052900Y-80258782D01*
X195052900Y-80370818D01*
X195075530Y-80455274D01*
X195081898Y-80479041D01*
X195137913Y-80576060D01*
X195137915Y-80576063D01*
X195217137Y-80655285D01*
X195229788Y-80662589D01*
X195314159Y-80711301D01*
X195314157Y-80711301D01*
X195314161Y-80711302D01*
X195314163Y-80711303D01*
X195422382Y-80740300D01*
X195422384Y-80740300D01*
X195534416Y-80740300D01*
X195534418Y-80740300D01*
X195642637Y-80711303D01*
X195642639Y-80711301D01*
X195642641Y-80711301D01*
X195680401Y-80689500D01*
X195739663Y-80655285D01*
X195818885Y-80576063D01*
X195874903Y-80479037D01*
X195903900Y-80370818D01*
X195903900Y-80258782D01*
X195882078Y-80177341D01*
X195885279Y-80116241D01*
X195914421Y-80077220D01*
X195914047Y-80076846D01*
X195916628Y-80074264D01*
X195917446Y-80073170D01*
X195918626Y-80072263D01*
X195918636Y-80072258D01*
X195997858Y-79993036D01*
X196053876Y-79896010D01*
X196082873Y-79787791D01*
X196082873Y-79675755D01*
X196053876Y-79567536D01*
X196053874Y-79567533D01*
X196053874Y-79567531D01*
X195997859Y-79470512D01*
X195997858Y-79470510D01*
X195918636Y-79391288D01*
X195918633Y-79391286D01*
X195821613Y-79335271D01*
X195821615Y-79335271D01*
X195779624Y-79324020D01*
X195713391Y-79306273D01*
X195601355Y-79306273D01*
X195535121Y-79324020D01*
X195493131Y-79335271D01*
X195396112Y-79391286D01*
X195316886Y-79470512D01*
X195260871Y-79567531D01*
X195231873Y-79675756D01*
X195231873Y-79787790D01*
X195253694Y-79869231D01*
X195250491Y-79930332D01*
X195221353Y-79969354D01*
X195221725Y-79969726D01*
X195219164Y-79972286D01*
X195218339Y-79973392D01*
X195217135Y-79974315D01*
X195137914Y-80053537D01*
X195081898Y-80150558D01*
X195073865Y-80180539D01*
X195052900Y-80258782D01*
X191660491Y-80258782D01*
X191709303Y-80174237D01*
X191738300Y-80066018D01*
X191738300Y-79953982D01*
X191709303Y-79845763D01*
X191709301Y-79845760D01*
X191709301Y-79845758D01*
X191653286Y-79748739D01*
X191653285Y-79748737D01*
X191574063Y-79669515D01*
X191574060Y-79669513D01*
X191477040Y-79613498D01*
X191477042Y-79613498D01*
X191435051Y-79602247D01*
X191368818Y-79584500D01*
X191256782Y-79584500D01*
X191190548Y-79602247D01*
X191148558Y-79613498D01*
X191051539Y-79669513D01*
X190972313Y-79748739D01*
X190916298Y-79845758D01*
X190916297Y-79845763D01*
X190887300Y-79953982D01*
X163105730Y-79953982D01*
X163075263Y-79923515D01*
X163075260Y-79923513D01*
X162978240Y-79867498D01*
X162978242Y-79867498D01*
X162936251Y-79856247D01*
X162870018Y-79838500D01*
X162757982Y-79838500D01*
X162691748Y-79856247D01*
X162649758Y-79867498D01*
X162552739Y-79923513D01*
X162473513Y-80002739D01*
X162417498Y-80099758D01*
X162404359Y-80148794D01*
X162388500Y-80207982D01*
X123110500Y-80207982D01*
X123110500Y-79310582D01*
X170143900Y-79310582D01*
X170143900Y-79422618D01*
X170156733Y-79470510D01*
X170172898Y-79530841D01*
X170220621Y-79613498D01*
X170228915Y-79627863D01*
X170308137Y-79707085D01*
X170308139Y-79707086D01*
X170405159Y-79763101D01*
X170405157Y-79763101D01*
X170405161Y-79763102D01*
X170405163Y-79763103D01*
X170513382Y-79792100D01*
X170513384Y-79792100D01*
X170625416Y-79792100D01*
X170625418Y-79792100D01*
X170733637Y-79763103D01*
X170733639Y-79763101D01*
X170733641Y-79763101D01*
X170762464Y-79746459D01*
X170830663Y-79707085D01*
X170909885Y-79627863D01*
X170965903Y-79530837D01*
X170994900Y-79422618D01*
X170994900Y-79310582D01*
X170965903Y-79202363D01*
X170965901Y-79202360D01*
X170965901Y-79202358D01*
X170911422Y-79107998D01*
X170911420Y-79107996D01*
X170909886Y-79105339D01*
X170909885Y-79105337D01*
X170869530Y-79064982D01*
X172167500Y-79064982D01*
X172167500Y-79177018D01*
X172188853Y-79256709D01*
X172196498Y-79285241D01*
X172252513Y-79382260D01*
X172252515Y-79382263D01*
X172331737Y-79461485D01*
X172337077Y-79464568D01*
X172428759Y-79517501D01*
X172428757Y-79517501D01*
X172428761Y-79517502D01*
X172428763Y-79517503D01*
X172536982Y-79546500D01*
X172536984Y-79546500D01*
X172649016Y-79546500D01*
X172649018Y-79546500D01*
X172757237Y-79517503D01*
X172757239Y-79517501D01*
X172757241Y-79517501D01*
X172798699Y-79493565D01*
X172854263Y-79461485D01*
X172933485Y-79382263D01*
X172973633Y-79312725D01*
X172989501Y-79285241D01*
X172989501Y-79285239D01*
X172989503Y-79285237D01*
X173018500Y-79177018D01*
X173018500Y-79064982D01*
X172989503Y-78956763D01*
X172989501Y-78956760D01*
X172989501Y-78956758D01*
X172939639Y-78870395D01*
X172933486Y-78859739D01*
X172933485Y-78859737D01*
X172901132Y-78827384D01*
X173217289Y-78827384D01*
X173217289Y-78939420D01*
X173239331Y-79021683D01*
X173246287Y-79047643D01*
X173302302Y-79144662D01*
X173302304Y-79144665D01*
X173381526Y-79223887D01*
X173381528Y-79223888D01*
X173478548Y-79279903D01*
X173478546Y-79279903D01*
X173478550Y-79279904D01*
X173478552Y-79279905D01*
X173586771Y-79308902D01*
X173586773Y-79308902D01*
X173698805Y-79308902D01*
X173698807Y-79308902D01*
X173807026Y-79279905D01*
X173807028Y-79279903D01*
X173807030Y-79279903D01*
X173847201Y-79256710D01*
X173904052Y-79223887D01*
X173983274Y-79144665D01*
X174022648Y-79076466D01*
X174039290Y-79047643D01*
X174039290Y-79047641D01*
X174039292Y-79047639D01*
X174068289Y-78939420D01*
X174068289Y-78827384D01*
X174039292Y-78719165D01*
X174039290Y-78719162D01*
X174039290Y-78719160D01*
X173983275Y-78622141D01*
X173983274Y-78622139D01*
X173904052Y-78542917D01*
X173904049Y-78542915D01*
X173807029Y-78486900D01*
X173807031Y-78486900D01*
X173765040Y-78475649D01*
X173698807Y-78457902D01*
X173586771Y-78457902D01*
X173520537Y-78475649D01*
X173478547Y-78486900D01*
X173381528Y-78542915D01*
X173302302Y-78622141D01*
X173246287Y-78719160D01*
X173244031Y-78727580D01*
X173217289Y-78827384D01*
X172901132Y-78827384D01*
X172854263Y-78780515D01*
X172854260Y-78780513D01*
X172757240Y-78724498D01*
X172757242Y-78724498D01*
X172715251Y-78713247D01*
X172649018Y-78695500D01*
X172536982Y-78695500D01*
X172470748Y-78713247D01*
X172428758Y-78724498D01*
X172331739Y-78780513D01*
X172252513Y-78859739D01*
X172196498Y-78956758D01*
X172180286Y-79017263D01*
X172167500Y-79064982D01*
X170869530Y-79064982D01*
X170830663Y-79026115D01*
X170830660Y-79026113D01*
X170733640Y-78970098D01*
X170733642Y-78970098D01*
X170691106Y-78958701D01*
X170625418Y-78941100D01*
X170513382Y-78941100D01*
X170447694Y-78958701D01*
X170405158Y-78970098D01*
X170308139Y-79026113D01*
X170228913Y-79105339D01*
X170172898Y-79202358D01*
X170159810Y-79251205D01*
X170143900Y-79310582D01*
X123110500Y-79310582D01*
X123110500Y-77032982D01*
X168128900Y-77032982D01*
X168128900Y-77145018D01*
X168150675Y-77226285D01*
X168157898Y-77253241D01*
X168213913Y-77350260D01*
X168213915Y-77350263D01*
X168282485Y-77418833D01*
X168310261Y-77473348D01*
X168300690Y-77533780D01*
X168282493Y-77558829D01*
X168279621Y-77561701D01*
X168223604Y-77658724D01*
X168223603Y-77658729D01*
X168194606Y-77766948D01*
X168194606Y-77878984D01*
X168211150Y-77940727D01*
X168223604Y-77987207D01*
X168265295Y-78059416D01*
X168279621Y-78084229D01*
X168358843Y-78163451D01*
X168366100Y-78167641D01*
X168455865Y-78219467D01*
X168455863Y-78219467D01*
X168455867Y-78219468D01*
X168455869Y-78219469D01*
X168564088Y-78248466D01*
X168564090Y-78248466D01*
X168676122Y-78248466D01*
X168676124Y-78248466D01*
X168784343Y-78219469D01*
X168784345Y-78219467D01*
X168784347Y-78219467D01*
X168813170Y-78202825D01*
X168881369Y-78163451D01*
X168960591Y-78084229D01*
X168991203Y-78031206D01*
X169036671Y-77990268D01*
X169076938Y-77981709D01*
X169136578Y-77981709D01*
X169136580Y-77981709D01*
X169244799Y-77952712D01*
X169244801Y-77952710D01*
X169244803Y-77952710D01*
X169254031Y-77947382D01*
X175215500Y-77947382D01*
X175215500Y-78059418D01*
X175222148Y-78084228D01*
X175244498Y-78167641D01*
X175300513Y-78264660D01*
X175300515Y-78264663D01*
X175379737Y-78343885D01*
X175379739Y-78343886D01*
X175448197Y-78383411D01*
X175489138Y-78428881D01*
X175495534Y-78489731D01*
X175468701Y-78539150D01*
X175427514Y-78580337D01*
X175371498Y-78677358D01*
X175358867Y-78724498D01*
X175342500Y-78785582D01*
X175342500Y-78897618D01*
X175358348Y-78956763D01*
X175371498Y-79005841D01*
X175427513Y-79102860D01*
X175427515Y-79102863D01*
X175506737Y-79182085D01*
X175506739Y-79182086D01*
X175603759Y-79238101D01*
X175603757Y-79238101D01*
X175603761Y-79238102D01*
X175603763Y-79238103D01*
X175711982Y-79267100D01*
X175711984Y-79267100D01*
X175824016Y-79267100D01*
X175824018Y-79267100D01*
X175932237Y-79238103D01*
X175932239Y-79238101D01*
X175932241Y-79238101D01*
X176000864Y-79198481D01*
X176029263Y-79182085D01*
X176108485Y-79102863D01*
X176149059Y-79032587D01*
X176164501Y-79005841D01*
X176164501Y-79005839D01*
X176164503Y-79005837D01*
X176193500Y-78897618D01*
X176193500Y-78860206D01*
X176883365Y-78860206D01*
X176883365Y-78972242D01*
X176903569Y-79047643D01*
X176912363Y-79080465D01*
X176949428Y-79144662D01*
X176968380Y-79177487D01*
X177047602Y-79256709D01*
X177047604Y-79256710D01*
X177144624Y-79312725D01*
X177144622Y-79312725D01*
X177144626Y-79312726D01*
X177144628Y-79312727D01*
X177252847Y-79341724D01*
X177252849Y-79341724D01*
X177364881Y-79341724D01*
X177364883Y-79341724D01*
X177473102Y-79312727D01*
X177473104Y-79312725D01*
X177473106Y-79312725D01*
X177529951Y-79279905D01*
X177570128Y-79256709D01*
X177649350Y-79177487D01*
X177705368Y-79080461D01*
X177723699Y-79012047D01*
X180143895Y-79012047D01*
X180143895Y-79124083D01*
X180163830Y-79198481D01*
X180172893Y-79232306D01*
X180219324Y-79312725D01*
X180228910Y-79329328D01*
X180308132Y-79408550D01*
X180340474Y-79427222D01*
X180405154Y-79464566D01*
X180405152Y-79464566D01*
X180405156Y-79464567D01*
X180405158Y-79464568D01*
X180513377Y-79493565D01*
X180513379Y-79493565D01*
X180625411Y-79493565D01*
X180625413Y-79493565D01*
X180733632Y-79464568D01*
X180733634Y-79464566D01*
X180733636Y-79464566D01*
X180762459Y-79447924D01*
X180830658Y-79408550D01*
X180909880Y-79329328D01*
X180965898Y-79232302D01*
X180994895Y-79124083D01*
X180994895Y-79012047D01*
X180965898Y-78903828D01*
X180965896Y-78903825D01*
X180965896Y-78903823D01*
X180909881Y-78806804D01*
X180909880Y-78806802D01*
X180830658Y-78727580D01*
X180830655Y-78727578D01*
X180733635Y-78671563D01*
X180733637Y-78671563D01*
X180671683Y-78654963D01*
X180625413Y-78642565D01*
X180513377Y-78642565D01*
X180467107Y-78654963D01*
X180405153Y-78671563D01*
X180308134Y-78727578D01*
X180228908Y-78806804D01*
X180172893Y-78903823D01*
X180170310Y-78913464D01*
X180143895Y-79012047D01*
X177723699Y-79012047D01*
X177734365Y-78972242D01*
X177734365Y-78860206D01*
X177705368Y-78751987D01*
X177705366Y-78751984D01*
X177705366Y-78751982D01*
X177649351Y-78654963D01*
X177649350Y-78654961D01*
X177570128Y-78575739D01*
X177538572Y-78557520D01*
X177473105Y-78519722D01*
X177473107Y-78519722D01*
X177422573Y-78506182D01*
X181870300Y-78506182D01*
X181870300Y-78618218D01*
X181886148Y-78677363D01*
X181899298Y-78726441D01*
X181955313Y-78823460D01*
X181955315Y-78823463D01*
X182034537Y-78902685D01*
X182034539Y-78902686D01*
X182131559Y-78958701D01*
X182131557Y-78958701D01*
X182131561Y-78958702D01*
X182131563Y-78958703D01*
X182239782Y-78987700D01*
X182239784Y-78987700D01*
X182351816Y-78987700D01*
X182351818Y-78987700D01*
X182460037Y-78958703D01*
X182460039Y-78958701D01*
X182460041Y-78958701D01*
X182493440Y-78939418D01*
X182557063Y-78902685D01*
X182636285Y-78823463D01*
X182649007Y-78801428D01*
X196106200Y-78801428D01*
X196106200Y-78913464D01*
X196121950Y-78972244D01*
X196135198Y-79021687D01*
X196185031Y-79107998D01*
X196191215Y-79118709D01*
X196270437Y-79197931D01*
X196302779Y-79216603D01*
X196367459Y-79253947D01*
X196367457Y-79253947D01*
X196367461Y-79253948D01*
X196367463Y-79253949D01*
X196475682Y-79282946D01*
X196475684Y-79282946D01*
X196587716Y-79282946D01*
X196587718Y-79282946D01*
X196695937Y-79253949D01*
X196695939Y-79253947D01*
X196695941Y-79253947D01*
X196748004Y-79223888D01*
X196792963Y-79197931D01*
X196872185Y-79118709D01*
X196921906Y-79032590D01*
X196928201Y-79021687D01*
X196928201Y-79021685D01*
X196928203Y-79021683D01*
X196957200Y-78913464D01*
X196957200Y-78825273D01*
X204241500Y-78825273D01*
X204241500Y-78930727D01*
X204267059Y-79026115D01*
X204268794Y-79032589D01*
X204268794Y-79032590D01*
X204318515Y-79118709D01*
X204321520Y-79123913D01*
X204396087Y-79198480D01*
X204487413Y-79251207D01*
X204589273Y-79278500D01*
X204589275Y-79278500D01*
X204694725Y-79278500D01*
X204694727Y-79278500D01*
X204796587Y-79251207D01*
X204887913Y-79198480D01*
X204962480Y-79123913D01*
X205015207Y-79032587D01*
X205042500Y-78930727D01*
X205042500Y-78825273D01*
X205015207Y-78723413D01*
X205012754Y-78719165D01*
X204962481Y-78632089D01*
X204962480Y-78632087D01*
X204887913Y-78557520D01*
X204862616Y-78542915D01*
X204796589Y-78504794D01*
X204796588Y-78504793D01*
X204796587Y-78504793D01*
X204694727Y-78477500D01*
X204589273Y-78477500D01*
X204487413Y-78504793D01*
X204487411Y-78504794D01*
X204487409Y-78504794D01*
X204396089Y-78557518D01*
X204321518Y-78632089D01*
X204268794Y-78723409D01*
X204268794Y-78723410D01*
X204268793Y-78723412D01*
X204268793Y-78723413D01*
X204241500Y-78825273D01*
X196957200Y-78825273D01*
X196957200Y-78801428D01*
X196928203Y-78693209D01*
X196928201Y-78693206D01*
X196928201Y-78693204D01*
X196872186Y-78596185D01*
X196872185Y-78596183D01*
X196792963Y-78516961D01*
X196792960Y-78516959D01*
X196695940Y-78460944D01*
X196695942Y-78460944D01*
X196653951Y-78449693D01*
X196587718Y-78431946D01*
X196475682Y-78431946D01*
X196409448Y-78449693D01*
X196367458Y-78460944D01*
X196270439Y-78516959D01*
X196191213Y-78596185D01*
X196135198Y-78693204D01*
X196125988Y-78727578D01*
X196106200Y-78801428D01*
X182649007Y-78801428D01*
X182691643Y-78727580D01*
X182692301Y-78726441D01*
X182692301Y-78726439D01*
X182692303Y-78726437D01*
X182721300Y-78618218D01*
X182721300Y-78506182D01*
X182692303Y-78397963D01*
X182692301Y-78397960D01*
X182692301Y-78397958D01*
X182636286Y-78300939D01*
X182636285Y-78300937D01*
X182557063Y-78221715D01*
X182553173Y-78219469D01*
X182460040Y-78165698D01*
X182460042Y-78165698D01*
X182418051Y-78154447D01*
X182351818Y-78136700D01*
X182239782Y-78136700D01*
X182173548Y-78154447D01*
X182131558Y-78165698D01*
X182034539Y-78221713D01*
X181955313Y-78300939D01*
X181899298Y-78397958D01*
X181883086Y-78458463D01*
X181870300Y-78506182D01*
X177422573Y-78506182D01*
X177417393Y-78504794D01*
X177364883Y-78490724D01*
X177252847Y-78490724D01*
X177200337Y-78504794D01*
X177144623Y-78519722D01*
X177047604Y-78575737D01*
X176968378Y-78654963D01*
X176912363Y-78751982D01*
X176904718Y-78780515D01*
X176883365Y-78860206D01*
X176193500Y-78860206D01*
X176193500Y-78785582D01*
X176164503Y-78677363D01*
X176164501Y-78677360D01*
X176164501Y-78677358D01*
X176108486Y-78580339D01*
X176108485Y-78580337D01*
X176029263Y-78501115D01*
X175988361Y-78477500D01*
X175960801Y-78461588D01*
X175919861Y-78416118D01*
X175913466Y-78355268D01*
X175940297Y-78305850D01*
X175981485Y-78264663D01*
X176037503Y-78167637D01*
X176066500Y-78059418D01*
X176066500Y-77947382D01*
X176037503Y-77839163D01*
X176037501Y-77839160D01*
X176037501Y-77839158D01*
X176035258Y-77835273D01*
X204241500Y-77835273D01*
X204241500Y-77940727D01*
X204268793Y-78042587D01*
X204268794Y-78042589D01*
X204268794Y-78042590D01*
X204321518Y-78133910D01*
X204321520Y-78133913D01*
X204396087Y-78208480D01*
X204487413Y-78261207D01*
X204589273Y-78288500D01*
X204694727Y-78288500D01*
X204796587Y-78261207D01*
X204887913Y-78208480D01*
X204962480Y-78133913D01*
X205015207Y-78042587D01*
X205042500Y-77940727D01*
X205042500Y-77835273D01*
X205015207Y-77733413D01*
X204962480Y-77642087D01*
X204887913Y-77567520D01*
X204877834Y-77561701D01*
X204796589Y-77514794D01*
X204796588Y-77514793D01*
X204796587Y-77514793D01*
X204694727Y-77487500D01*
X204589273Y-77487500D01*
X204487413Y-77514793D01*
X204487412Y-77514793D01*
X204487410Y-77514794D01*
X204487409Y-77514794D01*
X204396089Y-77567518D01*
X204321518Y-77642089D01*
X204268794Y-77733409D01*
X204268794Y-77733410D01*
X204268793Y-77733412D01*
X204268793Y-77733413D01*
X204241500Y-77835273D01*
X176035258Y-77835273D01*
X175981486Y-77742139D01*
X175981485Y-77742137D01*
X175902263Y-77662915D01*
X175895013Y-77658729D01*
X175805240Y-77606898D01*
X175805242Y-77606898D01*
X175763251Y-77595647D01*
X175697018Y-77577900D01*
X175584982Y-77577900D01*
X175518748Y-77595647D01*
X175476758Y-77606898D01*
X175379739Y-77662913D01*
X175300513Y-77742139D01*
X175244498Y-77839158D01*
X175233827Y-77878984D01*
X175215500Y-77947382D01*
X169254031Y-77947382D01*
X169273626Y-77936068D01*
X169341825Y-77896694D01*
X169421047Y-77817472D01*
X169464542Y-77742137D01*
X169477063Y-77720450D01*
X169477063Y-77720448D01*
X169477065Y-77720446D01*
X169506062Y-77612227D01*
X169506062Y-77500191D01*
X169477065Y-77391972D01*
X169477063Y-77391969D01*
X169477063Y-77391967D01*
X169421048Y-77294948D01*
X169421047Y-77294946D01*
X169341825Y-77215724D01*
X169341822Y-77215722D01*
X169244802Y-77159707D01*
X169244804Y-77159707D01*
X169189982Y-77145018D01*
X169136580Y-77130709D01*
X169078900Y-77130709D01*
X169020709Y-77111802D01*
X168984745Y-77062302D01*
X168981112Y-77039367D01*
X168980747Y-77039416D01*
X168979900Y-77032984D01*
X168979900Y-77032983D01*
X168979900Y-77032982D01*
X168950903Y-76924763D01*
X168896066Y-76829782D01*
X176053700Y-76829782D01*
X176053700Y-76941818D01*
X176061053Y-76969260D01*
X176082698Y-77050041D01*
X176129273Y-77130709D01*
X176138715Y-77147063D01*
X176217937Y-77226285D01*
X176217939Y-77226286D01*
X176314959Y-77282301D01*
X176314957Y-77282301D01*
X176314961Y-77282302D01*
X176314963Y-77282303D01*
X176423182Y-77311300D01*
X176423184Y-77311300D01*
X176535216Y-77311300D01*
X176535218Y-77311300D01*
X176643437Y-77282303D01*
X176643439Y-77282301D01*
X176643441Y-77282301D01*
X176672264Y-77265659D01*
X176740463Y-77226285D01*
X176819685Y-77147063D01*
X176875703Y-77050037D01*
X176904700Y-76941818D01*
X176904700Y-76829782D01*
X176875703Y-76721563D01*
X176835530Y-76651982D01*
X191750900Y-76651982D01*
X191750900Y-76764018D01*
X191767974Y-76827738D01*
X191779898Y-76872241D01*
X191835913Y-76969260D01*
X191835915Y-76969263D01*
X191915137Y-77048485D01*
X191915139Y-77048486D01*
X192012159Y-77104501D01*
X192012157Y-77104501D01*
X192012161Y-77104502D01*
X192012163Y-77104503D01*
X192120382Y-77133500D01*
X192120384Y-77133500D01*
X192232416Y-77133500D01*
X192232418Y-77133500D01*
X192340637Y-77104503D01*
X192340639Y-77104501D01*
X192340641Y-77104501D01*
X192369464Y-77087859D01*
X192437663Y-77048485D01*
X192516885Y-76969263D01*
X192572903Y-76872237D01*
X192601900Y-76764018D01*
X192601900Y-76651982D01*
X192572903Y-76543763D01*
X192572901Y-76543760D01*
X192572901Y-76543758D01*
X192516886Y-76446739D01*
X192516885Y-76446737D01*
X192437663Y-76367515D01*
X192437660Y-76367513D01*
X192340640Y-76311498D01*
X192340642Y-76311498D01*
X192298651Y-76300247D01*
X192232418Y-76282500D01*
X192120382Y-76282500D01*
X192054148Y-76300247D01*
X192012158Y-76311498D01*
X191915139Y-76367513D01*
X191835913Y-76446739D01*
X191779898Y-76543758D01*
X191779481Y-76545315D01*
X191750900Y-76651982D01*
X176835530Y-76651982D01*
X176819685Y-76624537D01*
X176740463Y-76545315D01*
X176737775Y-76543763D01*
X176643440Y-76489298D01*
X176643442Y-76489298D01*
X176601451Y-76478047D01*
X176535218Y-76460300D01*
X176423182Y-76460300D01*
X176356948Y-76478047D01*
X176314958Y-76489298D01*
X176217939Y-76545313D01*
X176138713Y-76624539D01*
X176082698Y-76721558D01*
X176082697Y-76721563D01*
X176053700Y-76829782D01*
X168896066Y-76829782D01*
X168894885Y-76827737D01*
X168815663Y-76748515D01*
X168815660Y-76748513D01*
X168718640Y-76692498D01*
X168718642Y-76692498D01*
X168676651Y-76681247D01*
X168610418Y-76663500D01*
X168498382Y-76663500D01*
X168432148Y-76681247D01*
X168390158Y-76692498D01*
X168293139Y-76748513D01*
X168213913Y-76827739D01*
X168157898Y-76924758D01*
X168153327Y-76941818D01*
X168128900Y-77032982D01*
X123110500Y-77032982D01*
X123110500Y-76005972D01*
X200763028Y-76005972D01*
X200763028Y-76118008D01*
X200778990Y-76177579D01*
X200792026Y-76226231D01*
X200841256Y-76311498D01*
X200848043Y-76323253D01*
X200927265Y-76402475D01*
X200927267Y-76402476D01*
X201024287Y-76458491D01*
X201024285Y-76458491D01*
X201024289Y-76458492D01*
X201024291Y-76458493D01*
X201132510Y-76487490D01*
X201132512Y-76487490D01*
X201244544Y-76487490D01*
X201244546Y-76487490D01*
X201352765Y-76458493D01*
X201352767Y-76458491D01*
X201352769Y-76458491D01*
X201381592Y-76441849D01*
X201449791Y-76402475D01*
X201529013Y-76323253D01*
X201585031Y-76226227D01*
X201612664Y-76123096D01*
X201645987Y-76071784D01*
X201703108Y-76049857D01*
X201762209Y-76065692D01*
X201778288Y-76078712D01*
X201821137Y-76121561D01*
X201821139Y-76121562D01*
X201918159Y-76177577D01*
X201918157Y-76177577D01*
X201918161Y-76177578D01*
X201918163Y-76177579D01*
X202026382Y-76206576D01*
X202026384Y-76206576D01*
X202138416Y-76206576D01*
X202138418Y-76206576D01*
X202246637Y-76177579D01*
X202246639Y-76177577D01*
X202246641Y-76177577D01*
X202275464Y-76160935D01*
X202343663Y-76121561D01*
X202422885Y-76042339D01*
X202478903Y-75945313D01*
X202507900Y-75837094D01*
X202507900Y-75725058D01*
X202478903Y-75616839D01*
X202478901Y-75616836D01*
X202478901Y-75616834D01*
X202422886Y-75519815D01*
X202422885Y-75519813D01*
X202343663Y-75440591D01*
X202343660Y-75440589D01*
X202246640Y-75384574D01*
X202246642Y-75384574D01*
X202138412Y-75355574D01*
X202134853Y-75355106D01*
X202132535Y-75354000D01*
X202132150Y-75353897D01*
X202132169Y-75353825D01*
X202122323Y-75349127D01*
X202108502Y-75347827D01*
X202095701Y-75336426D01*
X202079630Y-75328759D01*
X202062591Y-75307382D01*
X202062288Y-75306870D01*
X202016485Y-75227537D01*
X201937263Y-75148315D01*
X201937260Y-75148313D01*
X201840240Y-75092298D01*
X201840242Y-75092298D01*
X201798251Y-75081047D01*
X201732018Y-75063300D01*
X201619982Y-75063300D01*
X201553748Y-75081047D01*
X201511758Y-75092298D01*
X201414739Y-75148313D01*
X201335513Y-75227539D01*
X201279498Y-75324558D01*
X201250500Y-75432783D01*
X201250500Y-75537490D01*
X201231593Y-75595681D01*
X201182093Y-75631645D01*
X201151500Y-75636490D01*
X201132510Y-75636490D01*
X201066276Y-75654237D01*
X201024286Y-75665488D01*
X200927267Y-75721503D01*
X200848041Y-75800729D01*
X200792026Y-75897748D01*
X200792025Y-75897753D01*
X200763028Y-76005972D01*
X123110500Y-76005972D01*
X123110500Y-75035139D01*
X123129407Y-74976948D01*
X123178907Y-74940984D01*
X123240093Y-74940984D01*
X123279501Y-74965133D01*
X123290345Y-74975977D01*
X123462402Y-75090941D01*
X123653580Y-75170130D01*
X123856535Y-75210500D01*
X123856536Y-75210500D01*
X124063464Y-75210500D01*
X124063465Y-75210500D01*
X124266420Y-75170130D01*
X124457598Y-75090941D01*
X124629655Y-74975977D01*
X124775977Y-74829655D01*
X124890941Y-74657598D01*
X124970130Y-74466420D01*
X125010500Y-74263465D01*
X125010500Y-74056535D01*
X124970130Y-73853580D01*
X124890941Y-73662402D01*
X124775977Y-73490345D01*
X124765133Y-73479501D01*
X124737358Y-73424987D01*
X124746929Y-73364555D01*
X124790194Y-73321290D01*
X124835139Y-73310500D01*
X125624861Y-73310500D01*
X125683052Y-73329407D01*
G37*
%TD.AperFunction*%
%TD*%
M02*
