%TF.GenerationSoftware,KiCad,Pcbnew,10.0.2*%
%TF.CreationDate,2026-05-11T15:04:02-07:00*%
%TF.ProjectId,p4gpio,70346770-696f-42e6-9b69-6361645f7063,rev?*%
%TF.SameCoordinates,Original*%
%TF.FileFunction,Copper,L4,Bot*%
%TF.FilePolarity,Positive*%
%FSLAX46Y46*%
G04 Gerber Fmt 4.6, Leading zero omitted, Abs format (unit mm)*
G04 Created by KiCad (PCBNEW 10.0.2) date 2026-05-11 15:04:02*
%MOMM*%
%LPD*%
G01*
G04 APERTURE LIST*
G04 Aperture macros list*
%AMRoundRect*
0 Rectangle with rounded corners*
0 $1 Rounding radius*
0 $2 $3 $4 $5 $6 $7 $8 $9 X,Y pos of 4 corners*
0 Add a 4 corners polygon primitive as box body*
4,1,4,$2,$3,$4,$5,$6,$7,$8,$9,$2,$3,0*
0 Add four circle primitives for the rounded corners*
1,1,$1+$1,$2,$3*
1,1,$1+$1,$4,$5*
1,1,$1+$1,$6,$7*
1,1,$1+$1,$8,$9*
0 Add four rect primitives between the rounded corners*
20,1,$1+$1,$2,$3,$4,$5,0*
20,1,$1+$1,$4,$5,$6,$7,0*
20,1,$1+$1,$6,$7,$8,$9,0*
20,1,$1+$1,$8,$9,$2,$3,0*%
G04 Aperture macros list end*
%TA.AperFunction,ComponentPad*%
%ADD10O,2.000000X0.900000*%
%TD*%
%TA.AperFunction,ComponentPad*%
%ADD11O,1.700000X0.900000*%
%TD*%
%TA.AperFunction,ComponentPad*%
%ADD12C,1.700000*%
%TD*%
%TA.AperFunction,SMDPad,CuDef*%
%ADD13RoundRect,0.135000X-0.135000X-0.185000X0.135000X-0.185000X0.135000X0.185000X-0.135000X0.185000X0*%
%TD*%
%TA.AperFunction,SMDPad,CuDef*%
%ADD14RoundRect,0.140000X0.140000X0.170000X-0.140000X0.170000X-0.140000X-0.170000X0.140000X-0.170000X0*%
%TD*%
%TA.AperFunction,SMDPad,CuDef*%
%ADD15RoundRect,0.225000X-0.250000X0.225000X-0.250000X-0.225000X0.250000X-0.225000X0.250000X0.225000X0*%
%TD*%
%TA.AperFunction,SMDPad,CuDef*%
%ADD16RoundRect,0.140000X-0.140000X-0.170000X0.140000X-0.170000X0.140000X0.170000X-0.140000X0.170000X0*%
%TD*%
%TA.AperFunction,SMDPad,CuDef*%
%ADD17RoundRect,0.140000X0.170000X-0.140000X0.170000X0.140000X-0.170000X0.140000X-0.170000X-0.140000X0*%
%TD*%
%TA.AperFunction,SMDPad,CuDef*%
%ADD18RoundRect,0.135000X0.135000X0.185000X-0.135000X0.185000X-0.135000X-0.185000X0.135000X-0.185000X0*%
%TD*%
%TA.AperFunction,SMDPad,CuDef*%
%ADD19RoundRect,0.087500X0.425000X0.087500X-0.425000X0.087500X-0.425000X-0.087500X0.425000X-0.087500X0*%
%TD*%
%TA.AperFunction,SMDPad,CuDef*%
%ADD20RoundRect,0.140000X-0.170000X0.140000X-0.170000X-0.140000X0.170000X-0.140000X0.170000X0.140000X0*%
%TD*%
%TA.AperFunction,SMDPad,CuDef*%
%ADD21RoundRect,0.135000X-0.185000X0.135000X-0.185000X-0.135000X0.185000X-0.135000X0.185000X0.135000X0*%
%TD*%
%TA.AperFunction,SMDPad,CuDef*%
%ADD22RoundRect,0.150000X-0.587500X-0.150000X0.587500X-0.150000X0.587500X0.150000X-0.587500X0.150000X0*%
%TD*%
%TA.AperFunction,SMDPad,CuDef*%
%ADD23RoundRect,0.150000X0.150000X0.200000X-0.150000X0.200000X-0.150000X-0.200000X0.150000X-0.200000X0*%
%TD*%
%TA.AperFunction,SMDPad,CuDef*%
%ADD24RoundRect,0.135000X0.185000X-0.135000X0.185000X0.135000X-0.185000X0.135000X-0.185000X-0.135000X0*%
%TD*%
%TA.AperFunction,SMDPad,CuDef*%
%ADD25RoundRect,0.150000X-0.200000X0.150000X-0.200000X-0.150000X0.200000X-0.150000X0.200000X0.150000X0*%
%TD*%
%TA.AperFunction,SMDPad,CuDef*%
%ADD26RoundRect,0.225000X0.250000X-0.225000X0.250000X0.225000X-0.250000X0.225000X-0.250000X-0.225000X0*%
%TD*%
%TA.AperFunction,SMDPad,CuDef*%
%ADD27RoundRect,0.225000X-0.225000X-0.250000X0.225000X-0.250000X0.225000X0.250000X-0.225000X0.250000X0*%
%TD*%
%TA.AperFunction,ViaPad*%
%ADD28C,0.450000*%
%TD*%
%TA.AperFunction,ViaPad*%
%ADD29C,0.400000*%
%TD*%
%TA.AperFunction,Conductor*%
%ADD30C,0.200000*%
%TD*%
%TA.AperFunction,Conductor*%
%ADD31C,0.600000*%
%TD*%
%TA.AperFunction,Conductor*%
%ADD32C,0.381000*%
%TD*%
%TA.AperFunction,Conductor*%
%ADD33C,0.508000*%
%TD*%
%TA.AperFunction,Conductor*%
%ADD34C,0.762000*%
%TD*%
%TA.AperFunction,Conductor*%
%ADD35C,0.635000*%
%TD*%
%TA.AperFunction,Conductor*%
%ADD36C,0.254000*%
%TD*%
G04 APERTURE END LIST*
D10*
%TO.P,J2,SH,SHIELD_SH*%
%TO.N,GND*%
X204220000Y-82451076D03*
D11*
X208400000Y-82451076D03*
D10*
X204220000Y-73811076D03*
D11*
X208400000Y-73811076D03*
%TD*%
D12*
%TO.P,J10,1,Pin_1_1*%
%TO.N,+3.3V*%
X200160000Y-94480000D03*
%TO.P,J10,2,Pin_2_2*%
%TO.N,/BOOT*%
X197620000Y-94480000D03*
%TO.P,J10,3,Pin_3_3*%
%TO.N,GND*%
X195080000Y-94480000D03*
%TO.P,J10,4,Pin_4_4*%
%TO.N,/RESET*%
X192540000Y-94480000D03*
%TD*%
%TO.P,J9,1,Pin_1_1*%
%TO.N,+3.3V*%
X200160000Y-74160000D03*
%TO.P,J9,2,Pin_2_2*%
%TO.N,/BOOT*%
X197620000Y-74160000D03*
%TO.P,J9,3,Pin_3_3*%
%TO.N,GND*%
X195080000Y-74160000D03*
%TO.P,J9,4,Pin_4_4*%
%TO.N,/RESET*%
X192540000Y-74160000D03*
%TD*%
D10*
%TO.P,J1,SH,SHIELD_SH*%
%TO.N,GND*%
X204220000Y-94820000D03*
D11*
X208400000Y-94820000D03*
D10*
X204220000Y-86180000D03*
D11*
X208400000Y-86180000D03*
%TD*%
D13*
%TO.P,R6,1*%
%TO.N,GND*%
X200124600Y-76606400D03*
%TO.P,R6,2*%
%TO.N,Net-(J2-CC2)*%
X201144600Y-76606400D03*
%TD*%
D14*
%TO.P,C9,1*%
%TO.N,+3.3V*%
X169997000Y-82296000D03*
%TO.P,C9,2*%
%TO.N,GND*%
X169037000Y-82296000D03*
%TD*%
D15*
%TO.P,C20,1*%
%TO.N,+3.3V*%
X173609000Y-89178802D03*
%TO.P,C20,2*%
%TO.N,GND*%
X173609000Y-90728802D03*
%TD*%
D16*
%TO.P,C16,1*%
%TO.N,+3.3V*%
X172979200Y-81432400D03*
%TO.P,C16,2*%
%TO.N,GND*%
X173939200Y-81432400D03*
%TD*%
D12*
%TO.P,J7,1,Pin_1_1*%
%TO.N,/B2_7*%
X164600000Y-94480000D03*
%TO.P,J7,2,Pin_2_2*%
%TO.N,/B2_6*%
X162060000Y-94480000D03*
%TO.P,J7,3,Pin_3_3*%
%TO.N,/B2_5*%
X159520000Y-94480000D03*
%TO.P,J7,4,Pin_4_4*%
%TO.N,/B2_4*%
X156980000Y-94480000D03*
%TO.P,J7,5,Pin_5_5*%
%TO.N,/B2_3*%
X154440000Y-94480000D03*
%TO.P,J7,6,Pin_6_6*%
%TO.N,/B2_2*%
X151900000Y-94480000D03*
%TO.P,J7,7,Pin_7_7*%
%TO.N,/B2_1*%
X149360000Y-94480000D03*
%TO.P,J7,8,Pin_8_8*%
%TO.N,/B2_0*%
X146820000Y-94480000D03*
%TD*%
D17*
%TO.P,C23,1*%
%TO.N,+3.3V*%
X177165000Y-78226802D03*
%TO.P,C23,2*%
%TO.N,GND*%
X177165000Y-77266802D03*
%TD*%
D14*
%TO.P,C2,1*%
%TO.N,/Minimal P4 V3/VDD_HP*%
X165690600Y-81307500D03*
%TO.P,C2,2*%
%TO.N,/Minimal P4 V3/FB_DCDC*%
X164730600Y-81307500D03*
%TD*%
D12*
%TO.P,J5,1,Pin_1_1*%
%TO.N,/T1_7*%
X141740000Y-74160000D03*
%TO.P,J5,2,Pin_2_2*%
%TO.N,/T1_6*%
X139200000Y-74160000D03*
%TO.P,J5,3,Pin_3_3*%
%TO.N,/T1_5*%
X136660000Y-74160000D03*
%TO.P,J5,4,Pin_4_4*%
%TO.N,/T1_4*%
X134120000Y-74160000D03*
%TO.P,J5,5,Pin_5_5*%
%TO.N,/T1_3*%
X131580000Y-74160000D03*
%TO.P,J5,6,Pin_6_6*%
%TO.N,/T1_2*%
X129040000Y-74160000D03*
%TO.P,J5,7,Pin_7_7*%
%TO.N,/T1_1*%
X126500000Y-74160000D03*
%TO.P,J5,8,Pin_8_8*%
%TO.N,/T1_0*%
X123960000Y-74160000D03*
%TD*%
%TO.P,J4,1,Pin_1_1*%
%TO.N,/T2_7*%
X164600000Y-74160000D03*
%TO.P,J4,2,Pin_2_2*%
%TO.N,/T2_6*%
X162060000Y-74160000D03*
%TO.P,J4,3,Pin_3_3*%
%TO.N,/T2_5*%
X159520000Y-74160000D03*
%TO.P,J4,4,Pin_4_4*%
%TO.N,/T2_4*%
X156980000Y-74160000D03*
%TO.P,J4,5,Pin_5_5*%
%TO.N,/T2_3*%
X154440000Y-74160000D03*
%TO.P,J4,6,Pin_6_6*%
%TO.N,/T2_2*%
X151900000Y-74160000D03*
%TO.P,J4,7,Pin_7_7*%
%TO.N,/T2_1*%
X149360000Y-74160000D03*
%TO.P,J4,8,Pin_8_8*%
%TO.N,/T2_0*%
X146820000Y-74160000D03*
%TD*%
D18*
%TO.P,R16,1*%
%TO.N,Net-(U4-FB)*%
X192984000Y-80380500D03*
%TO.P,R16,2*%
%TO.N,GND*%
X191964000Y-80380500D03*
%TD*%
D19*
%TO.P,Q3,1,E1_1*%
%TO.N,/HS_VBUS*%
X198228200Y-83832800D03*
%TO.P,Q3,2,B1_2*%
%TO.N,Net-(Q3A-B1)*%
X198228200Y-84482800D03*
%TO.P,Q3,3,C2_3*%
%TO.N,Net-(Q3B-C2)*%
X198228200Y-85132800D03*
%TO.P,Q3,4,E2_4*%
%TO.N,VBUS*%
X196553200Y-85132800D03*
%TO.P,Q3,5,B2_5*%
%TO.N,Net-(Q3A-B1)*%
X196553200Y-84482800D03*
%TO.P,Q3,6,C1_6*%
X196553200Y-83832800D03*
%TD*%
D15*
%TO.P,C11,1*%
%TO.N,+3.3V*%
X169926000Y-89408000D03*
%TO.P,C11,2*%
%TO.N,GND*%
X169926000Y-90958000D03*
%TD*%
D20*
%TO.P,C41,1*%
%TO.N,+3.3V*%
X180086000Y-81358802D03*
%TO.P,C41,2*%
%TO.N,GND*%
X180086000Y-82318802D03*
%TD*%
D21*
%TO.P,R15,1*%
%TO.N,+3.3V*%
X193040000Y-81430400D03*
%TO.P,R15,2*%
%TO.N,Net-(U4-FB)*%
X193040000Y-82450400D03*
%TD*%
D14*
%TO.P,C32,1*%
%TO.N,/Minimal P4 V3/VDD_FLASH*%
X182341400Y-85826602D03*
%TO.P,C32,2*%
%TO.N,GND*%
X181381400Y-85826602D03*
%TD*%
D21*
%TO.P,R2,1*%
%TO.N,GND*%
X163576000Y-81278000D03*
%TO.P,R2,2*%
%TO.N,/Minimal P4 V3/FB_DCDC*%
X163576000Y-82298000D03*
%TD*%
D22*
%TO.P,Q4,1,G_1*%
%TO.N,Net-(Q3B-C2)*%
X196556400Y-88567200D03*
%TO.P,Q4,2,S_2*%
%TO.N,VBUS*%
X196556400Y-86667200D03*
%TO.P,Q4,3,D_3*%
%TO.N,/HS_VBUS*%
X198431400Y-87617200D03*
%TD*%
D17*
%TO.P,C18,1*%
%TO.N,/Minimal P4 V3/VDDO_PSRAM*%
X173609000Y-78127802D03*
%TO.P,C18,2*%
%TO.N,GND*%
X173609000Y-77167802D03*
%TD*%
%TO.P,C29,1*%
%TO.N,/Minimal P4 V3/VDD_HP*%
X180111400Y-89507002D03*
%TO.P,C29,2*%
%TO.N,GND*%
X180111400Y-88547002D03*
%TD*%
D20*
%TO.P,C8,1*%
%TO.N,/Minimal P4 V3/VDD_HP*%
X171094400Y-84152800D03*
%TO.P,C8,2*%
%TO.N,GND*%
X171094400Y-85112800D03*
%TD*%
%TO.P,C34,1*%
%TO.N,/FS_VBUS*%
X199370300Y-81762100D03*
%TO.P,C34,2*%
%TO.N,GND*%
X199370300Y-82722100D03*
%TD*%
D17*
%TO.P,C26,1*%
%TO.N,/Minimal P4 V3/VDDO_PSRAM*%
X179197000Y-79016802D03*
%TO.P,C26,2*%
%TO.N,GND*%
X179197000Y-78056802D03*
%TD*%
D20*
%TO.P,C40,1*%
%TO.N,+3.3V*%
X179086000Y-81358802D03*
%TO.P,C40,2*%
%TO.N,GND*%
X179086000Y-82318802D03*
%TD*%
D16*
%TO.P,C30,1*%
%TO.N,/Minimal P4 V3/VDD_FLASH*%
X183287800Y-88299802D03*
%TO.P,C30,2*%
%TO.N,GND*%
X184247800Y-88299802D03*
%TD*%
D23*
%TO.P,D5,1,A1_1*%
%TO.N,GND*%
X200222000Y-87368000D03*
%TO.P,D5,2,A2_2*%
%TO.N,/HS_VBUS*%
X201622000Y-87368000D03*
%TD*%
D22*
%TO.P,Q2,1,G_1*%
%TO.N,Net-(Q1B-C2)*%
X196834900Y-81523300D03*
%TO.P,Q2,2,S_2*%
%TO.N,VBUS*%
X196834900Y-79623300D03*
%TO.P,Q2,3,D_3*%
%TO.N,/FS_VBUS*%
X198709900Y-80573300D03*
%TD*%
D24*
%TO.P,R28,1*%
%TO.N,/Minimal P4 V3/FLASH_CS*%
X183333400Y-91095802D03*
%TO.P,R28,2*%
%TO.N,/Minimal P4 V3/VDD_FLASH*%
X183333400Y-90075802D03*
%TD*%
D17*
%TO.P,C25,1*%
%TO.N,Net-(U2-VDD_HP_1)*%
X180183800Y-78613000D03*
%TO.P,C25,2*%
%TO.N,GND*%
X180183800Y-77653000D03*
%TD*%
D25*
%TO.P,D4,1,A1_1*%
%TO.N,GND*%
X201176000Y-82037000D03*
%TO.P,D4,2,A2_2*%
%TO.N,/FS_VBUS*%
X201176000Y-80637000D03*
%TD*%
D19*
%TO.P,Q1,1,E1_1*%
%TO.N,/FS_VBUS*%
X198506700Y-76788900D03*
%TO.P,Q1,2,B1_2*%
%TO.N,Net-(Q1A-B1)*%
X198506700Y-77438900D03*
%TO.P,Q1,3,C2_3*%
%TO.N,Net-(Q1B-C2)*%
X198506700Y-78088900D03*
%TO.P,Q1,4,E2_4*%
%TO.N,VBUS*%
X196831700Y-78088900D03*
%TO.P,Q1,5,B2_5*%
%TO.N,Net-(Q1A-B1)*%
X196831700Y-77438900D03*
%TO.P,Q1,6,C1_6*%
X196831700Y-76788900D03*
%TD*%
D13*
%TO.P,R14,1*%
%TO.N,Net-(U4-EN)*%
X192121600Y-83464400D03*
%TO.P,R14,2*%
%TO.N,VBUS*%
X193141600Y-83464400D03*
%TD*%
D20*
%TO.P,C42,1*%
%TO.N,+3.3V*%
X178086000Y-81338802D03*
%TO.P,C42,2*%
%TO.N,GND*%
X178086000Y-82298802D03*
%TD*%
D16*
%TO.P,C7,1*%
%TO.N,+3.3V*%
X173002000Y-86995000D03*
%TO.P,C7,2*%
%TO.N,GND*%
X173962000Y-86995000D03*
%TD*%
D21*
%TO.P,R200,1*%
%TO.N,/RESET*%
X171323000Y-90039000D03*
%TO.P,R200,2*%
%TO.N,+3.3V*%
X171323000Y-91059000D03*
%TD*%
D20*
%TO.P,C6,1*%
%TO.N,+3.3V*%
X171119800Y-86263600D03*
%TO.P,C6,2*%
%TO.N,GND*%
X171119800Y-87223600D03*
%TD*%
D24*
%TO.P,R7,1*%
%TO.N,Net-(Q1A-B1)*%
X195560300Y-77440900D03*
%TO.P,R7,2*%
%TO.N,GND*%
X195560300Y-76420900D03*
%TD*%
D20*
%TO.P,C36,1*%
%TO.N,+3.3V*%
X191987300Y-81481200D03*
%TO.P,C36,2*%
%TO.N,Net-(U4-FB)*%
X191987300Y-82441200D03*
%TD*%
D26*
%TO.P,C28,1*%
%TO.N,/Minimal P4 V3/VDD_HP*%
X178816000Y-89598802D03*
%TO.P,C28,2*%
%TO.N,GND*%
X178816000Y-88048802D03*
%TD*%
D20*
%TO.P,C35,1*%
%TO.N,/HS_VBUS*%
X199091800Y-88806000D03*
%TO.P,C35,2*%
%TO.N,GND*%
X199091800Y-89766000D03*
%TD*%
D16*
%TO.P,C33,1*%
%TO.N,/RESET*%
X171205400Y-89003002D03*
%TO.P,C33,2*%
%TO.N,GND*%
X172165400Y-89003002D03*
%TD*%
D20*
%TO.P,C21,1*%
%TO.N,+3.3V*%
X175260000Y-88978802D03*
%TO.P,C21,2*%
%TO.N,GND*%
X175260000Y-89938802D03*
%TD*%
D16*
%TO.P,C31,1*%
%TO.N,/Minimal P4 V3/VDD_FLASH*%
X183282600Y-87283802D03*
%TO.P,C31,2*%
%TO.N,GND*%
X184242600Y-87283802D03*
%TD*%
D12*
%TO.P,J8,1,Pin_1_1*%
%TO.N,/B1_7*%
X141740000Y-94480000D03*
%TO.P,J8,2,Pin_2_2*%
%TO.N,/B1_6*%
X139200000Y-94480000D03*
%TO.P,J8,3,Pin_3_3*%
%TO.N,/B1_5*%
X136660000Y-94480000D03*
%TO.P,J8,4,Pin_4_4*%
%TO.N,/B1_4*%
X134120000Y-94480000D03*
%TO.P,J8,5,Pin_5_5*%
%TO.N,/B1_3*%
X131580000Y-94480000D03*
%TO.P,J8,6,Pin_6_6*%
%TO.N,/B1_2*%
X129040000Y-94480000D03*
%TO.P,J8,7,Pin_7_7*%
%TO.N,/B1_1*%
X126500000Y-94480000D03*
%TO.P,J8,8,Pin_8_8*%
%TO.N,/B1_0*%
X123960000Y-94480000D03*
%TD*%
D17*
%TO.P,C27,1*%
%TO.N,/Minimal P4 V3/VDDO_PSRAM*%
X178181000Y-79016802D03*
%TO.P,C27,2*%
%TO.N,GND*%
X178181000Y-78056802D03*
%TD*%
D13*
%TO.P,R209,1*%
%TO.N,+3.3V*%
X173480000Y-79756000D03*
%TO.P,R209,2*%
%TO.N,/GPIO36*%
X174500000Y-79756000D03*
%TD*%
D27*
%TO.P,C14,1*%
%TO.N,+3.3V*%
X172859400Y-83743800D03*
%TO.P,C14,2*%
%TO.N,GND*%
X174409400Y-83743800D03*
%TD*%
D16*
%TO.P,C13,1*%
%TO.N,+3.3V*%
X172979200Y-82448400D03*
%TO.P,C13,2*%
%TO.N,GND*%
X173939200Y-82448400D03*
%TD*%
D12*
%TO.P,J6,1,Pin_1_1*%
%TO.N,/B3_7*%
X187460000Y-94480000D03*
%TO.P,J6,2,Pin_2_2*%
%TO.N,/B3_6*%
X184920000Y-94480000D03*
%TO.P,J6,3,Pin_3_3*%
%TO.N,/B3_5*%
X182380000Y-94480000D03*
%TO.P,J6,4,Pin_4_4*%
%TO.N,/B3_4*%
X179840000Y-94480000D03*
%TO.P,J6,5,Pin_5_5*%
%TO.N,/B3_3*%
X177300000Y-94480000D03*
%TO.P,J6,6,Pin_6_6*%
%TO.N,/B3_2*%
X174760000Y-94480000D03*
%TO.P,J6,7,Pin_7_7*%
%TO.N,/B3_1*%
X172220000Y-94480000D03*
%TO.P,J6,8,Pin_8_8*%
%TO.N,/B3_0*%
X169680000Y-94480000D03*
%TD*%
D13*
%TO.P,R1,1*%
%TO.N,/Minimal P4 V3/FB_DCDC*%
X164721400Y-82323500D03*
%TO.P,R1,2*%
%TO.N,/Minimal P4 V3/VDD_HP*%
X165741400Y-82323500D03*
%TD*%
D17*
%TO.P,C24,1*%
%TO.N,+3.3V*%
X176911000Y-89507002D03*
%TO.P,C24,2*%
%TO.N,GND*%
X176911000Y-88547002D03*
%TD*%
D24*
%TO.P,R39,1*%
%TO.N,/Minimal P4 V3/VDD_HP*%
X181199800Y-79513402D03*
%TO.P,R39,2*%
%TO.N,Net-(U2-VDD_HP_1)*%
X181199800Y-78493402D03*
%TD*%
D21*
%TO.P,R10,1*%
%TO.N,Net-(Q3B-C2)*%
X195027800Y-88445200D03*
%TO.P,R10,2*%
%TO.N,GND*%
X195027800Y-89465200D03*
%TD*%
%TO.P,R8,1*%
%TO.N,Net-(Q1B-C2)*%
X195306300Y-81401300D03*
%TO.P,R8,2*%
%TO.N,GND*%
X195306300Y-82421300D03*
%TD*%
D12*
%TO.P,J3,1,Pin_1_1*%
%TO.N,/T3_7*%
X187460000Y-74160000D03*
%TO.P,J3,2,Pin_2_2*%
%TO.N,/T3_6*%
X184920000Y-74160000D03*
%TO.P,J3,3,Pin_3_3*%
%TO.N,/T3_5*%
X182380000Y-74160000D03*
%TO.P,J3,4,Pin_4_4*%
%TO.N,/T3_4*%
X179840000Y-74160000D03*
%TO.P,J3,5,Pin_5_5*%
%TO.N,/T3_3*%
X177300000Y-74160000D03*
%TO.P,J3,6,Pin_6_6*%
%TO.N,/T3_2*%
X174760000Y-74160000D03*
%TO.P,J3,7,Pin_7_7*%
%TO.N,/T3_1*%
X172220000Y-74160000D03*
%TO.P,J3,8,Pin_8_8*%
%TO.N,/T3_0*%
X169680000Y-74160000D03*
%TD*%
D24*
%TO.P,R9,1*%
%TO.N,Net-(Q3A-B1)*%
X195281800Y-84484800D03*
%TO.P,R9,2*%
%TO.N,GND*%
X195281800Y-83464800D03*
%TD*%
D16*
%TO.P,C12,1*%
%TO.N,+3.3V*%
X173002000Y-87985600D03*
%TO.P,C12,2*%
%TO.N,GND*%
X173962000Y-87985600D03*
%TD*%
D28*
%TO.N,/RESET*%
X180510000Y-92350000D03*
X190220600Y-80441800D03*
X155702000Y-88646000D03*
X192176400Y-76708000D03*
D29*
X170801000Y-89543774D03*
D28*
X190321027Y-82322573D03*
%TO.N,GND*%
X192786000Y-78740000D03*
X206502000Y-86940000D03*
X192786000Y-79248000D03*
X202082400Y-83083400D03*
X146710400Y-87376000D03*
X161544000Y-81534000D03*
X180340000Y-87833200D03*
X176834800Y-86004400D03*
X197104000Y-83058000D03*
X206502000Y-92782000D03*
X174193200Y-86055200D03*
X180340000Y-87172800D03*
X206502000Y-94052000D03*
X206502000Y-88464000D03*
X166751000Y-86410802D03*
X178003200Y-86004400D03*
X168960800Y-87079952D03*
X180289200Y-82854800D03*
X174853600Y-83210400D03*
X206491999Y-74567076D03*
X168357209Y-81329367D03*
X202107800Y-82118200D03*
X168148000Y-75692000D03*
X166370000Y-89712802D03*
X166370000Y-85521802D03*
X201955400Y-73964800D03*
X171196000Y-77470000D03*
X202285600Y-74777600D03*
X179984400Y-83312000D03*
X199136000Y-90678000D03*
X175514000Y-86004400D03*
X167513000Y-88950802D03*
X164973000Y-90093802D03*
X166116000Y-84505802D03*
X206491999Y-78631076D03*
X165608000Y-84505802D03*
X201879200Y-94335600D03*
X173583600Y-86055200D03*
X189484000Y-79502000D03*
X166751000Y-85902802D03*
X179476400Y-80518000D03*
X127965200Y-81610200D03*
X163830000Y-85344000D03*
X174853600Y-81788000D03*
X201142600Y-85521800D03*
X168148000Y-88950802D03*
X165989000Y-90093802D03*
X172974000Y-86004400D03*
X197612000Y-83058000D03*
X126238000Y-82753200D03*
X177495200Y-86004400D03*
X180340000Y-85191600D03*
X180340000Y-84531200D03*
X206491999Y-83203076D03*
X174853600Y-86004400D03*
X148412200Y-86004400D03*
X163828562Y-86893638D03*
X162814000Y-81280000D03*
X163865868Y-84770117D03*
X189484000Y-78740000D03*
X193294000Y-76454000D03*
X194056000Y-92202000D03*
X163957000Y-89966802D03*
X191008000Y-79248000D03*
X168723343Y-88769458D03*
X174853600Y-86664800D03*
X169675675Y-87079952D03*
X201803000Y-85521800D03*
X146735800Y-84709000D03*
X192024000Y-92202000D03*
X163957000Y-88950802D03*
X181102000Y-93218000D03*
X174853600Y-82448400D03*
X163957000Y-88442802D03*
X192532000Y-85852000D03*
X163957000Y-87934802D03*
X166370000Y-88696802D03*
X168402000Y-86410802D03*
X174853600Y-87325200D03*
X177495200Y-85471000D03*
X206491999Y-76091076D03*
X132816600Y-87985600D03*
X169113200Y-88379952D03*
X180340000Y-83870800D03*
X166878000Y-88950802D03*
X206491999Y-79901076D03*
X153720800Y-82067400D03*
X129540000Y-82778600D03*
X163957000Y-89458802D03*
X163830000Y-85852000D03*
X166370000Y-85013802D03*
X130860800Y-86537800D03*
X206502000Y-91258000D03*
X191008000Y-80772000D03*
X193040000Y-92202000D03*
X196596000Y-75946000D03*
X206502000Y-89734000D03*
X206491999Y-77615076D03*
X134848600Y-86537800D03*
X176174400Y-86004400D03*
X197358000Y-75692000D03*
X165481000Y-90093802D03*
X201345800Y-77419200D03*
X167259000Y-86410802D03*
X180340000Y-86512400D03*
X200152000Y-85598000D03*
X169621200Y-88379952D03*
X189484000Y-80264000D03*
X195834000Y-87630000D03*
X169926000Y-75692000D03*
X163814200Y-86360000D03*
X175463200Y-83312000D03*
X201904600Y-93548200D03*
X164465000Y-90093802D03*
X199644000Y-90678000D03*
X206491999Y-73551076D03*
X201422000Y-79552800D03*
X180340000Y-85852000D03*
X206491999Y-81679076D03*
X163830000Y-77470000D03*
X157581600Y-82092800D03*
X170214864Y-79911401D03*
X179324000Y-83312000D03*
X180822600Y-76428600D03*
X174865224Y-81212842D03*
X167767000Y-86410802D03*
X177495200Y-87020400D03*
X145186400Y-85953600D03*
X171958000Y-77724000D03*
X160528000Y-76708000D03*
X177495200Y-86512400D03*
X160274000Y-81534000D03*
X162306000Y-77470000D03*
X174828200Y-85394800D03*
X206502000Y-85162000D03*
X177495200Y-87680800D03*
X174853600Y-87985600D03*
X177495200Y-88341200D03*
X164363400Y-84480400D03*
X164973000Y-84447400D03*
X176123600Y-83312000D03*
X163957000Y-87426802D03*
X179324000Y-76428600D03*
X166370000Y-89204802D03*
X155727400Y-81026000D03*
%TO.N,+3.3V*%
X192227200Y-87934800D03*
X191109600Y-82042000D03*
X192735200Y-88442800D03*
X191719200Y-87477600D03*
X141833600Y-80721200D03*
X172042919Y-86134595D03*
X174622954Y-88948544D03*
X171982398Y-88239002D03*
X162814000Y-80264000D03*
X180249141Y-80666247D03*
X176149000Y-88826004D03*
X177308865Y-78916224D03*
D29*
X172749559Y-80468000D03*
D28*
X172135802Y-83302800D03*
%TO.N,/BOOT*%
X197866000Y-90398600D03*
X134543800Y-80772000D03*
X176479200Y-76885800D03*
X197916800Y-88569800D03*
X196531700Y-78857446D03*
X175768000Y-78841600D03*
%TO.N,Net-(U4-EN)*%
X192481200Y-84201000D03*
%TO.N,VBUS*%
X195173600Y-86156800D03*
X197612000Y-85852000D03*
X195478400Y-80314800D03*
X195478400Y-85699600D03*
X195657373Y-79731773D03*
%TO.N,Net-(U4-FB)*%
X191312800Y-80010000D03*
%TO.N,/Minimal P4 V3/VDD_HP*%
X169080562Y-77556209D03*
X166370000Y-82230200D03*
X180975000Y-89662000D03*
X172024032Y-84274400D03*
X168620106Y-77822966D03*
X179334028Y-88847315D03*
X172593000Y-79121000D03*
X182295800Y-78562200D03*
X168554400Y-77089000D03*
D29*
%TO.N,/FS_D-*%
X204642000Y-78878000D03*
X204642000Y-77888000D03*
D28*
%TO.N,/FS_VBUS*%
X202082400Y-75781076D03*
X201879200Y-80924400D03*
X201676000Y-75488800D03*
X202275583Y-80457182D03*
%TO.N,Net-(J2-CC2)*%
X201188528Y-76061990D03*
%TO.N,/B2_0*%
X173405800Y-91821000D03*
D29*
%TO.N,/B2_1*%
X174711400Y-90576400D03*
D28*
%TO.N,/B2_2*%
X174701200Y-91775000D03*
%TO.N,/B2_3*%
X175236726Y-91504417D03*
%TO.N,/B2_4*%
X175836400Y-91595887D03*
%TO.N,/B2_5*%
X176575734Y-91741606D03*
%TO.N,/B2_6*%
X177266600Y-91846400D03*
%TO.N,/B2_7*%
X177901600Y-91948000D03*
%TO.N,/Minimal P4 V3/FLASH_CS*%
X182200971Y-90980773D03*
X183303640Y-91575162D03*
%TO.N,/Minimal P4 V3/VDD_FLASH*%
X182651400Y-88214202D03*
D29*
X174172000Y-80508000D03*
D28*
%TO.N,/HS_D-*%
X204592962Y-91343600D03*
X204444600Y-90242000D03*
%TO.N,Net-(U2-VDD_HP_1)*%
X180569395Y-79068065D03*
%TO.N,/Minimal P4 V3/VDDO_PSRAM*%
X175745398Y-80511306D03*
X178498000Y-80516188D03*
X173642789Y-78883402D03*
D29*
%TO.N,/T3_1*%
X177165000Y-80522000D03*
D28*
%TO.N,/T3_0*%
X176349135Y-80497000D03*
%TO.N,/T2_7*%
X175641000Y-78003400D03*
%TO.N,/GPIO36*%
X174949736Y-80540187D03*
%TO.N,/Minimal P4 V3/FB_DCDC*%
X170569400Y-79366600D03*
X164188601Y-82229999D03*
D29*
%TO.N,/T2_4*%
X171924180Y-80618127D03*
%TO.N,/T2_3*%
X172034200Y-81178400D03*
%TO.N,/T2_1*%
X172036398Y-81737200D03*
%TO.N,/T1_5*%
X169638075Y-83453086D03*
%TO.N,/T1_4*%
X169757086Y-84008834D03*
%TO.N,/T1_3*%
X169106875Y-84314673D03*
%TO.N,/T1_2*%
X168634497Y-84747002D03*
%TO.N,/T1_1*%
X168097200Y-84912200D03*
%TO.N,/T1_0*%
X167614600Y-84480400D03*
D28*
%TO.N,/NEOPIXEL*%
X144322800Y-84480400D03*
X166940737Y-85333590D03*
%TO.N,/SDA*%
X129133600Y-84810600D03*
X170230800Y-86410800D03*
%TO.N,/SCL*%
X129159000Y-85826600D03*
X172008800Y-87147400D03*
%TO.N,/HS_VBUS*%
X200710800Y-86563200D03*
X201930000Y-92354400D03*
X201411856Y-86610868D03*
X201930000Y-91694000D03*
%TD*%
%TO.N,/RESET*%
D30*
X190321027Y-82322573D02*
X190348773Y-82322573D01*
X171205400Y-89003002D02*
X171205400Y-89921400D01*
X190220600Y-78663800D02*
X190220600Y-80441800D01*
X192540000Y-94480000D02*
X190457200Y-92397200D01*
X190348773Y-82322573D02*
X190457200Y-82431000D01*
X190457200Y-82431000D02*
X190457200Y-92397200D01*
X192176400Y-76708000D02*
X190220600Y-78663800D01*
X190410000Y-92350000D02*
X180510000Y-92350000D01*
X171205400Y-89921400D02*
X171323000Y-90039000D01*
X171205400Y-89003002D02*
X171205400Y-89139374D01*
X190457200Y-92397200D02*
X190410000Y-92350000D01*
X171205400Y-89139374D02*
X170801000Y-89543774D01*
%TO.N,GND*%
D31*
X202285600Y-74295000D02*
X201955400Y-73964800D01*
X201904600Y-94310200D02*
X201879200Y-94335600D01*
X202107800Y-82118200D02*
X202107800Y-83058000D01*
X201904600Y-93548200D02*
X201904600Y-94310200D01*
D30*
X169037000Y-82009158D02*
X168357209Y-81329367D01*
D31*
X201803000Y-85521800D02*
X201142600Y-85521800D01*
X202285600Y-74777600D02*
X202285600Y-74295000D01*
X202107800Y-83058000D02*
X202082400Y-83083400D01*
D30*
X169037000Y-82296000D02*
X169037000Y-82009158D01*
D32*
X162816000Y-81278000D02*
X162814000Y-81280000D01*
X163576000Y-81278000D02*
X162816000Y-81278000D01*
%TO.N,+3.3V*%
D33*
X172063891Y-82826990D02*
X172054772Y-82826990D01*
X171982398Y-82667484D02*
X171982398Y-82646486D01*
D34*
X171982398Y-82833805D02*
X171982398Y-82800063D01*
D33*
X172074244Y-82799757D02*
X172061923Y-82812078D01*
X172069684Y-82812078D02*
X172054772Y-82826990D01*
D30*
X172749559Y-81202759D02*
X172749559Y-80468000D01*
D31*
X192176400Y-87934800D02*
X191719200Y-87477600D01*
D33*
X172047997Y-82865662D02*
X172024218Y-82889441D01*
X172077792Y-82789666D02*
X172067701Y-82799757D01*
X172084314Y-82769400D02*
X172060194Y-82769400D01*
X173002000Y-87985600D02*
X173002000Y-86995000D01*
X172859400Y-83743800D02*
X171818000Y-82702400D01*
X180086000Y-80829388D02*
X180249141Y-80666247D01*
X172047997Y-82865662D02*
X172035818Y-82865662D01*
X170886186Y-88239002D02*
X169926000Y-89199188D01*
X171982398Y-82800063D02*
X171982398Y-82770516D01*
D34*
X172135802Y-83098300D02*
X172135802Y-83302800D01*
D30*
X172979200Y-81432400D02*
X172749559Y-81202759D01*
D33*
X172016754Y-82942844D02*
X171989857Y-82969741D01*
X172235800Y-87985600D02*
X171982398Y-88239002D01*
X172082666Y-82774789D02*
X172076004Y-82781451D01*
X172060194Y-82769400D02*
X171861066Y-82570272D01*
X172038034Y-82889441D02*
X172011928Y-82915547D01*
X173002000Y-88571802D02*
X173609000Y-89178802D01*
X172080540Y-82781451D02*
X172076004Y-82781451D01*
D32*
X191987300Y-81481200D02*
X191670400Y-81481200D01*
D33*
X172135802Y-83098300D02*
X172135802Y-83302800D01*
X177308865Y-78370667D02*
X177308865Y-78916224D01*
X171982398Y-82707911D02*
X171982398Y-82694272D01*
X172077792Y-82789666D02*
X172072325Y-82789666D01*
D34*
X171982398Y-82724792D02*
X171982398Y-82707911D01*
D33*
X177165000Y-78226802D02*
X177308865Y-78370667D01*
X171818000Y-82591000D02*
X171926912Y-82591000D01*
D30*
X175260000Y-88978802D02*
X174653212Y-88978802D01*
D33*
X172027333Y-82915547D02*
X172011928Y-82915547D01*
D34*
X171772191Y-82436279D02*
X171982398Y-82646486D01*
D33*
X170561345Y-82570272D02*
X170380400Y-82751217D01*
X177819000Y-81071802D02*
X177819000Y-80251104D01*
D30*
X169926000Y-89408000D02*
X169926000Y-89662000D01*
D33*
X176108200Y-84622800D02*
X173738400Y-84622800D01*
X171982398Y-82694272D02*
X171982398Y-82683309D01*
X171818000Y-82591000D02*
X171960600Y-82448400D01*
X177292000Y-83439000D02*
X176108200Y-84622800D01*
X171982398Y-82833805D02*
X171982398Y-82800063D01*
D34*
X171982398Y-82667484D02*
X171982398Y-82646486D01*
D33*
X170380400Y-82751217D02*
X170380400Y-85524200D01*
D34*
X171982398Y-82707911D02*
X171982398Y-82694272D01*
D33*
X172047997Y-82865662D02*
X172035818Y-82865662D01*
X172063891Y-82826990D02*
X172046082Y-82844799D01*
X171982398Y-82908488D02*
X171982398Y-82870612D01*
D34*
X171982398Y-82694272D02*
X171982398Y-82683309D01*
D33*
X172063891Y-82826990D02*
X172046082Y-82844799D01*
X179086000Y-81358802D02*
X178106000Y-81358802D01*
X172027333Y-82915547D02*
X172000036Y-82942844D01*
X172074244Y-82799757D02*
X172061923Y-82812078D01*
X172007243Y-82969741D02*
X172135802Y-83098300D01*
D34*
X180086000Y-81358802D02*
X190426402Y-81358802D01*
D33*
X172056681Y-82844799D02*
X172046082Y-82844799D01*
D34*
X171982398Y-82683309D02*
X171982398Y-82674521D01*
D33*
X171982398Y-82724792D02*
X171982398Y-82707911D01*
X172141595Y-86134595D02*
X172042919Y-86134595D01*
X174392696Y-89178802D02*
X174622954Y-88948544D01*
X173738400Y-84622800D02*
X172859400Y-83743800D01*
X172080540Y-82781451D02*
X172072325Y-82789666D01*
X172979200Y-81432400D02*
X172979200Y-82448400D01*
X171960600Y-82448400D02*
X172979200Y-82448400D01*
D34*
X171982398Y-82770516D02*
X171982398Y-82745497D01*
X171982398Y-82745497D02*
X171982398Y-82724792D01*
X168402000Y-80264000D02*
X170574279Y-82436279D01*
D33*
X172074244Y-82799757D02*
X172067701Y-82799757D01*
X172135802Y-83098300D02*
X172135802Y-83302800D01*
X170287073Y-82296000D02*
X170561345Y-82570272D01*
X171989857Y-82969741D02*
X172007243Y-82969741D01*
X172082666Y-82774789D02*
X172078925Y-82774789D01*
X172080540Y-82781451D02*
X172076004Y-82781451D01*
X180086000Y-81358802D02*
X179086000Y-81358802D01*
D34*
X171982398Y-82674521D02*
X171982398Y-82667484D01*
D33*
X177776001Y-81338802D02*
X178086000Y-81338802D01*
X177308865Y-79740969D02*
X177308865Y-78916224D01*
X172069684Y-82812078D02*
X172054772Y-82826990D01*
X172084314Y-82769400D02*
X172078925Y-82774789D01*
X172063891Y-82826990D02*
X172054772Y-82826990D01*
X172007243Y-82969741D02*
X172135802Y-83098300D01*
X172027333Y-82915547D02*
X172011928Y-82915547D01*
X172084314Y-82769400D02*
X172078925Y-82774789D01*
X172074244Y-82799757D02*
X172067701Y-82799757D01*
X172047997Y-82865662D02*
X172024218Y-82889441D01*
X180086000Y-81358802D02*
X180086000Y-80829388D01*
D30*
X174653212Y-88978802D02*
X174622954Y-88948544D01*
D33*
X171913914Y-86263600D02*
X172042919Y-86134595D01*
D34*
X162814000Y-80264000D02*
X168402000Y-80264000D01*
D32*
X173480000Y-79756000D02*
X173461559Y-79756000D01*
D33*
X177819000Y-80251104D02*
X177308865Y-79740969D01*
X171982398Y-82908488D02*
X171982398Y-82944896D01*
D32*
X173461559Y-79756000D02*
X172749559Y-80468000D01*
D33*
X169926000Y-89199188D02*
X169926000Y-89408000D01*
X172056681Y-82844799D02*
X172035818Y-82865662D01*
D31*
X192735200Y-88442800D02*
X192227200Y-87934800D01*
D34*
X171982398Y-82908488D02*
X171982398Y-82870612D01*
X171982398Y-82944896D02*
X172135802Y-83098300D01*
D33*
X172082666Y-82774789D02*
X172078925Y-82774789D01*
X177292000Y-83439000D02*
X177292000Y-81822803D01*
D34*
X171982398Y-82800063D02*
X171982398Y-82770516D01*
D33*
X172056681Y-82844799D02*
X172035818Y-82865662D01*
X171818000Y-82702400D02*
X171818000Y-82591000D01*
D32*
X169926000Y-89408000D02*
X170187280Y-89146720D01*
D34*
X190426402Y-81358802D02*
X191109600Y-82042000D01*
D33*
X172016754Y-82942844D02*
X172000036Y-82942844D01*
X172038034Y-82889441D02*
X172024218Y-82889441D01*
X178086000Y-81338802D02*
X177819000Y-81071802D01*
X171982398Y-82870612D02*
X171982398Y-82833805D01*
D30*
X176149000Y-88826004D02*
X176230002Y-88826004D01*
D33*
X172859400Y-83743800D02*
X172681600Y-83566000D01*
X172038034Y-82889441D02*
X172011928Y-82915547D01*
X171926912Y-82591000D02*
X171982398Y-82646486D01*
X173002000Y-86995000D02*
X172141595Y-86134595D01*
X171982398Y-82683309D02*
X171982398Y-82674521D01*
X171982398Y-82674521D02*
X171982398Y-82667484D01*
X172016754Y-82942844D02*
X171989857Y-82969741D01*
X172084314Y-82769400D02*
X172060194Y-82769400D01*
D32*
X192038100Y-81430400D02*
X191987300Y-81481200D01*
D33*
X172135802Y-83098300D02*
X172135802Y-83302800D01*
X172077792Y-82789666D02*
X172067701Y-82799757D01*
X173609000Y-89178802D02*
X174392696Y-89178802D01*
X172082666Y-82774789D02*
X172076004Y-82781451D01*
X172027333Y-82915547D02*
X172000036Y-82942844D01*
X170380400Y-85524200D02*
X171119800Y-86263600D01*
X171982398Y-82770516D02*
X171982398Y-82745497D01*
X171982398Y-82944896D02*
X172135802Y-83098300D01*
D32*
X193040000Y-81430400D02*
X192038100Y-81430400D01*
D31*
X192227200Y-87934800D02*
X192176400Y-87934800D01*
D33*
X172077792Y-82789666D02*
X172072325Y-82789666D01*
D34*
X171982398Y-82870612D02*
X171982398Y-82833805D01*
D33*
X170561345Y-82570272D02*
X171861066Y-82570272D01*
D30*
X169926000Y-89662000D02*
X171323000Y-91059000D01*
D33*
X177292000Y-81822803D02*
X177776001Y-81338802D01*
X169997000Y-82296000D02*
X170287073Y-82296000D01*
X171989857Y-82969741D02*
X172007243Y-82969741D01*
D32*
X191670400Y-81481200D02*
X191109600Y-82042000D01*
D30*
X176230002Y-88826004D02*
X176911000Y-89507002D01*
D33*
X171982398Y-82745497D02*
X171982398Y-82724792D01*
X171119800Y-86263600D02*
X171913914Y-86263600D01*
X172060194Y-82769400D02*
X171861066Y-82570272D01*
X170561345Y-82570272D02*
X171861066Y-82570272D01*
X171982398Y-88239002D02*
X170886186Y-88239002D01*
X172038034Y-82889441D02*
X172024218Y-82889441D01*
X172016754Y-82942844D02*
X172000036Y-82942844D01*
X172056681Y-82844799D02*
X172046082Y-82844799D01*
X173002000Y-87985600D02*
X173002000Y-88571802D01*
D34*
X170574279Y-82436279D02*
X171772191Y-82436279D01*
D33*
X172069684Y-82812078D02*
X172061923Y-82812078D01*
X178106000Y-81358802D02*
X178086000Y-81338802D01*
X172069684Y-82812078D02*
X172061923Y-82812078D01*
X173002000Y-87985600D02*
X172235800Y-87985600D01*
D34*
X171982398Y-82908488D02*
X171982398Y-82944896D01*
D33*
X172080540Y-82781451D02*
X172072325Y-82789666D01*
%TO.N,/BOOT*%
D30*
X196520000Y-75260000D02*
X197620000Y-74160000D01*
X197866000Y-90398600D02*
X197866000Y-88620600D01*
X178306378Y-75260000D02*
X176680578Y-76885800D01*
X194233800Y-75412400D02*
X194081400Y-75260000D01*
X194233800Y-77749400D02*
X194233800Y-75412400D01*
X176680578Y-76885800D02*
X176479200Y-76885800D01*
X197866000Y-88620600D02*
X197916800Y-88569800D01*
X196531700Y-78857446D02*
X196408345Y-78980801D01*
X194081400Y-75260000D02*
X196520000Y-75260000D01*
X195465201Y-78980801D02*
X194233800Y-77749400D01*
X196408345Y-78980801D02*
X195465201Y-78980801D01*
X194081400Y-75260000D02*
X178306378Y-75260000D01*
%TO.N,Net-(U4-EN)*%
X192121600Y-83841400D02*
X192481200Y-84201000D01*
X192121600Y-83464400D02*
X192121600Y-83841400D01*
%TO.N,VBUS*%
X196553200Y-86664000D02*
X196556400Y-86667200D01*
X197272400Y-85852000D02*
X196553200Y-85132800D01*
D35*
X195478400Y-79959200D02*
X195681600Y-79959200D01*
D30*
X196553200Y-85132800D02*
X196553200Y-86664000D01*
D35*
X196556400Y-86667200D02*
X195684000Y-86667200D01*
D34*
X195173600Y-86156800D02*
X194430800Y-85414000D01*
D30*
X196831700Y-78088900D02*
X197006699Y-78263899D01*
D35*
X195173600Y-86156800D02*
X195173600Y-86004400D01*
X195657373Y-79731773D02*
X195657373Y-79660824D01*
D30*
X197612000Y-85852000D02*
X197272400Y-85852000D01*
D35*
X195478400Y-80314800D02*
X195478400Y-79959200D01*
X196674478Y-79623300D02*
X196834900Y-79623300D01*
D34*
X194430800Y-80887397D02*
X194430800Y-83464400D01*
D30*
X197006699Y-79451501D02*
X196834900Y-79623300D01*
D35*
X195173600Y-86004400D02*
X195478400Y-85699600D01*
X196000790Y-79623300D02*
X196050791Y-79673301D01*
X196624477Y-79673301D02*
X196674478Y-79623300D01*
D34*
X195657373Y-79731773D02*
X195586424Y-79731773D01*
D35*
X195657373Y-79660824D02*
X195694897Y-79623300D01*
X196017500Y-79623300D02*
X196834900Y-79623300D01*
X195694897Y-79623300D02*
X196000790Y-79623300D01*
D34*
X194430800Y-85414000D02*
X194430800Y-83464400D01*
D35*
X195681600Y-79959200D02*
X196017500Y-79623300D01*
D30*
X197006699Y-78263899D02*
X197006699Y-79451501D01*
D35*
X196050791Y-79673301D02*
X196624477Y-79673301D01*
D30*
X193141600Y-83464400D02*
X194430800Y-83464400D01*
D35*
X195684000Y-86667200D02*
X195173600Y-86156800D01*
D34*
X195586424Y-79731773D02*
X194430800Y-80887397D01*
%TO.N,Net-(U4-FB)*%
D30*
X193040000Y-82450400D02*
X191996500Y-82450400D01*
X193610000Y-81880400D02*
X193040000Y-82450400D01*
X192105500Y-79502000D02*
X191820800Y-79502000D01*
X193610000Y-81006500D02*
X193610000Y-81880400D01*
X191820800Y-79502000D02*
X191312800Y-80010000D01*
X192984000Y-80380500D02*
X193610000Y-81006500D01*
X191996500Y-82450400D02*
X191987300Y-82441200D01*
X192984000Y-80380500D02*
X192105500Y-79502000D01*
%TO.N,/Minimal P4 V3/VDD_HP*%
D32*
X182295800Y-78562200D02*
X182114426Y-78562200D01*
D31*
X169021609Y-77556209D02*
X169080562Y-77556209D01*
D32*
X181572724Y-79103902D02*
X181211202Y-79465424D01*
D30*
X166276700Y-82323500D02*
X166370000Y-82230200D01*
D32*
X181860300Y-78829102D02*
X181585500Y-79103902D01*
D31*
X168620106Y-77822966D02*
X168620106Y-77154706D01*
D33*
X180111400Y-89507002D02*
X178907800Y-89507002D01*
D32*
X179334028Y-89080774D02*
X178816000Y-89598802D01*
D33*
X180975000Y-89662000D02*
X180266398Y-89662000D01*
D32*
X179334028Y-88847315D02*
X179334028Y-89080774D01*
X182114426Y-78562200D02*
X181860300Y-78816326D01*
X181860300Y-78816326D02*
X181860300Y-78829102D01*
X181211202Y-79502000D02*
X181199800Y-79513402D01*
D30*
X165741400Y-82323500D02*
X166276700Y-82323500D01*
D32*
X181585500Y-79103902D02*
X181572724Y-79103902D01*
D31*
X168620106Y-77154706D02*
X169021609Y-77556209D01*
D33*
X178907800Y-89507002D02*
X178816000Y-89598802D01*
D32*
X172024032Y-84274400D02*
X171216000Y-84274400D01*
D30*
X165741400Y-81358300D02*
X165690600Y-81307500D01*
D31*
X168554400Y-77089000D02*
X168620106Y-77154706D01*
D33*
X180266398Y-89662000D02*
X180111400Y-89507002D01*
D32*
X171216000Y-84274400D02*
X171094400Y-84152800D01*
X181211202Y-79465424D02*
X181211202Y-79502000D01*
D30*
X165741400Y-82323500D02*
X165741400Y-81358300D01*
%TO.N,/FS_D-*%
X204642000Y-77888000D02*
X204642000Y-78878000D01*
%TO.N,/FS_VBUS*%
D31*
X201676000Y-75488800D02*
X201726800Y-75488800D01*
D30*
X198919632Y-76788900D02*
X199319200Y-77188468D01*
X199319200Y-79964000D02*
X198709900Y-80573300D01*
D35*
X202275583Y-80457182D02*
X201355818Y-80457182D01*
X201176000Y-80637000D02*
X198773600Y-80637000D01*
D32*
X202082400Y-80263999D02*
X202082400Y-75781076D01*
D31*
X201726800Y-75488800D02*
X202019076Y-75781076D01*
D35*
X201879200Y-80924400D02*
X201463400Y-80924400D01*
D32*
X202275583Y-80457182D02*
X202082400Y-80263999D01*
D30*
X199370300Y-81762100D02*
X199370300Y-81233700D01*
X198506700Y-76788900D02*
X198919632Y-76788900D01*
D35*
X201355818Y-80457182D02*
X201176000Y-80637000D01*
X198773600Y-80637000D02*
X198709900Y-80573300D01*
D31*
X202019076Y-75781076D02*
X202082400Y-75781076D01*
D35*
X201463400Y-80924400D02*
X201176000Y-80637000D01*
D30*
X199319200Y-77188468D02*
X199319200Y-79964000D01*
X199370300Y-81233700D02*
X198709900Y-80573300D01*
%TO.N,Net-(J2-CC2)*%
X201188528Y-76562472D02*
X201144600Y-76606400D01*
X201188528Y-76061990D02*
X201188528Y-76562472D01*
%TO.N,/B2_0*%
X173242800Y-91658000D02*
X173405800Y-91821000D01*
X146820000Y-94480000D02*
X149642000Y-91658000D01*
X149642000Y-91658000D02*
X173242800Y-91658000D01*
%TO.N,/B2_1*%
X174085000Y-91884263D02*
X173623263Y-92346000D01*
X151820000Y-92020000D02*
X149360000Y-94480000D01*
X174736400Y-90754388D02*
X174085000Y-91405788D01*
X174711400Y-90576400D02*
X174736400Y-90601400D01*
X173623263Y-92346000D02*
X173188337Y-92346000D01*
X174736400Y-90601400D02*
X174736400Y-90754388D01*
X173188337Y-92346000D02*
X172862337Y-92020000D01*
X172862337Y-92020000D02*
X151820000Y-92020000D01*
X174085000Y-91405788D02*
X174085000Y-91884263D01*
%TO.N,/B2_2*%
X154000000Y-92380000D02*
X151900000Y-94480000D01*
X173768238Y-92696000D02*
X173043362Y-92696000D01*
X174701200Y-91775000D02*
X174689238Y-91775000D01*
X172727362Y-92380000D02*
X154000000Y-92380000D01*
X173043362Y-92696000D02*
X172727362Y-92380000D01*
X174689238Y-91775000D02*
X173768238Y-92696000D01*
%TO.N,/B2_3*%
X175213406Y-91527737D02*
X175213406Y-91974439D01*
X174457845Y-92730000D02*
X174229212Y-92730000D01*
X172582388Y-92730000D02*
X156190000Y-92730000D01*
X174229212Y-92730000D02*
X173913212Y-93046000D01*
X172898388Y-93046000D02*
X172582388Y-92730000D01*
X156190000Y-92730000D02*
X154440000Y-94480000D01*
X173913212Y-93046000D02*
X172898388Y-93046000D01*
X175236726Y-91504417D02*
X175213406Y-91527737D01*
X175213406Y-91974439D02*
X174457845Y-92730000D01*
%TO.N,/B2_4*%
X172437414Y-93080000D02*
X172753414Y-93396000D01*
X158380000Y-93080000D02*
X172437414Y-93080000D01*
X172753414Y-93396000D02*
X174058187Y-93396000D01*
X174810000Y-93080000D02*
X175836400Y-92053600D01*
X174058187Y-93396000D02*
X174374186Y-93080000D01*
X156980000Y-94480000D02*
X158380000Y-93080000D01*
X175836400Y-92053600D02*
X175836400Y-91595887D01*
X174374186Y-93080000D02*
X174810000Y-93080000D01*
%TO.N,/Minimal P4 V3/FLASH_CS*%
X182993000Y-91095802D02*
X183333400Y-91095802D01*
X183333400Y-91545402D02*
X183303640Y-91575162D01*
X182200971Y-90980773D02*
X182877971Y-90980773D01*
X182877971Y-90980773D02*
X182993000Y-91095802D01*
X183333400Y-91095802D02*
X183333400Y-91545402D01*
%TO.N,/Minimal P4 V3/VDD_FLASH*%
X183282600Y-86767802D02*
X182341400Y-85826602D01*
X183202200Y-88214202D02*
X183287800Y-88299802D01*
X182651400Y-88214202D02*
X183202200Y-88214202D01*
X183333400Y-90075802D02*
X183333400Y-87334602D01*
X183333400Y-87334602D02*
X183282600Y-87283802D01*
X183282600Y-87283802D02*
X183282600Y-86767802D01*
%TO.N,/HS_D-*%
X204592962Y-90390362D02*
X204444600Y-90242000D01*
X204592962Y-91343600D02*
X204592962Y-90390362D01*
%TO.N,Net-(U2-VDD_HP_1)*%
D32*
X181199800Y-78493402D02*
X180303398Y-78493402D01*
X180208640Y-79116640D02*
X180183800Y-79091800D01*
X180183800Y-79091800D02*
X180183800Y-78613000D01*
X180520820Y-79116640D02*
X180208640Y-79116640D01*
X180303398Y-78493402D02*
X180183800Y-78613000D01*
X180569395Y-79068065D02*
X180520820Y-79116640D01*
%TO.N,/Minimal P4 V3/VDDO_PSRAM*%
D30*
X173609000Y-78849613D02*
X173642789Y-78883402D01*
D36*
X178498000Y-79023803D02*
X178498000Y-80516188D01*
X175641000Y-79607394D02*
X175641000Y-80406908D01*
X174917008Y-78883402D02*
X175641000Y-79607394D01*
X178490999Y-79016802D02*
X178498000Y-79023803D01*
X173642789Y-78883402D02*
X174917008Y-78883402D01*
X179197000Y-79016802D02*
X178181000Y-79016802D01*
X175641000Y-80406908D02*
X175745398Y-80511306D01*
X178181000Y-79016802D02*
X178490999Y-79016802D01*
D30*
X173609000Y-78127802D02*
X173609000Y-78849613D01*
%TO.N,/T3_1*%
X176803800Y-80160800D02*
X177165000Y-80522000D01*
X172220000Y-74160000D02*
X173997802Y-75937802D01*
X174970576Y-75937802D02*
X175954200Y-76921426D01*
X173997802Y-75937802D02*
X174970576Y-75937802D01*
X176605000Y-78532226D02*
X176803800Y-78731026D01*
X175954200Y-77103263D02*
X176605000Y-77754063D01*
X176803800Y-78731026D02*
X176803800Y-80160800D01*
X175954200Y-76921426D02*
X175954200Y-77103263D01*
X176605000Y-77754063D02*
X176605000Y-78532226D01*
%TO.N,/T3_0*%
X176255000Y-77899038D02*
X176255000Y-80402865D01*
X175604200Y-77128400D02*
X175604200Y-77248238D01*
X169680000Y-74160000D02*
X171807802Y-76287802D01*
X175604200Y-77248238D02*
X176255000Y-77899038D01*
X176255000Y-80402865D02*
X176349135Y-80497000D01*
X174763602Y-76287802D02*
X175604200Y-77128400D01*
X171807802Y-76287802D02*
X174763602Y-76287802D01*
%TO.N,/T2_7*%
X164600000Y-74160000D02*
X166979000Y-76539000D01*
X166979000Y-76539000D02*
X168782217Y-76539000D01*
X168881019Y-76637802D02*
X174275402Y-76637802D01*
X168782217Y-76539000D02*
X168881019Y-76637802D01*
X174275402Y-76637802D02*
X175641000Y-78003400D01*
%TO.N,/GPIO36*%
X174500000Y-79756000D02*
X174500000Y-80090451D01*
X174500000Y-80090451D02*
X174949736Y-80540187D01*
%TO.N,/Minimal P4 V3/FB_DCDC*%
X163576000Y-82298000D02*
X163048525Y-82298000D01*
X164730600Y-81307500D02*
X164730600Y-82314300D01*
X169428513Y-79471000D02*
X169532913Y-79366600D01*
X169532913Y-79366600D02*
X170569400Y-79366600D01*
X162714631Y-79471000D02*
X169428513Y-79471000D01*
X163048525Y-82298000D02*
X162183000Y-81432475D01*
X164282102Y-82323500D02*
X164188601Y-82229999D01*
X163576000Y-82298000D02*
X164120600Y-82298000D01*
X164730600Y-82314300D02*
X164721400Y-82323500D01*
X162183000Y-80002631D02*
X162714631Y-79471000D01*
X162183000Y-81432475D02*
X162183000Y-80002631D01*
X164120600Y-82298000D02*
X164188601Y-82229999D01*
X164721400Y-82323500D02*
X164282102Y-82323500D01*
%TO.N,/T2_4*%
X169272989Y-78141600D02*
X169041622Y-78372966D01*
X171257349Y-78141600D02*
X169272989Y-78141600D01*
X161192966Y-78372966D02*
X156980000Y-74160000D01*
X169041622Y-78372966D02*
X161192966Y-78372966D01*
X171911155Y-80605102D02*
X171911155Y-78795406D01*
X171911155Y-78795406D02*
X171257349Y-78141600D01*
X171924180Y-80618127D02*
X171911155Y-80605102D01*
%TO.N,/T2_3*%
X159002966Y-78722966D02*
X169186596Y-78722967D01*
X172008800Y-81203800D02*
X172034200Y-81178400D01*
X171780200Y-81203800D02*
X172008800Y-81203800D01*
X171112374Y-78491600D02*
X171469800Y-78849026D01*
X154440000Y-74160000D02*
X159002966Y-78722966D01*
X171469800Y-80326960D02*
X171461155Y-80335605D01*
X171461155Y-80335605D02*
X171461155Y-80884755D01*
X169186596Y-78722967D02*
X169417964Y-78491600D01*
X171461155Y-80884755D02*
X171780200Y-81203800D01*
X169417964Y-78491600D02*
X171112374Y-78491600D01*
X171469800Y-78849026D02*
X171469800Y-80326960D01*
%TO.N,/T2_1*%
X169283539Y-79121000D02*
X169562939Y-78841600D01*
X154321000Y-79121000D02*
X169283539Y-79121000D01*
X171818626Y-81737200D02*
X172036398Y-81737200D01*
X170942000Y-78841600D02*
X171094400Y-78994000D01*
X171094400Y-78994000D02*
X171094400Y-81012974D01*
X171094400Y-81012974D02*
X171818626Y-81737200D01*
X169562939Y-78841600D02*
X170942000Y-78841600D01*
X149360000Y-74160000D02*
X154321000Y-79121000D01*
%TO.N,/T1_5*%
X169041407Y-82916800D02*
X145416800Y-82916800D01*
X169638075Y-83453086D02*
X169577693Y-83453086D01*
X145416800Y-82916800D02*
X136660000Y-74160000D01*
X169577693Y-83453086D02*
X169041407Y-82916800D01*
%TO.N,/T1_4*%
X134120000Y-74160000D02*
X143226800Y-83266800D01*
X143226800Y-83266800D02*
X168755010Y-83266800D01*
X168755010Y-83266800D02*
X169497044Y-84008834D01*
X169497044Y-84008834D02*
X169757086Y-84008834D01*
%TO.N,/T1_3*%
X169106875Y-84155003D02*
X168568672Y-83616800D01*
X141036800Y-83616800D02*
X131580000Y-74160000D01*
X168568672Y-83616800D02*
X141036800Y-83616800D01*
X169106875Y-84314673D02*
X169106875Y-84155003D01*
%TO.N,/T1_2*%
X168634497Y-84272708D02*
X168334189Y-83972400D01*
X168334189Y-83972400D02*
X138852400Y-83972400D01*
X138852400Y-83972400D02*
X129040000Y-74160000D01*
X168634497Y-84747002D02*
X168634497Y-84272708D01*
%TO.N,/HS_VBUS*%
D35*
X200609200Y-86461600D02*
X199587000Y-86461600D01*
D30*
X198228200Y-83832800D02*
X198641132Y-83832800D01*
X199040700Y-84232368D02*
X199040700Y-87007900D01*
D32*
X201622000Y-87368000D02*
X201622000Y-86821012D01*
D35*
X201930000Y-91694000D02*
X202438000Y-91186000D01*
D32*
X201622000Y-86821012D02*
X201411856Y-86610868D01*
D30*
X199091800Y-88806000D02*
X199091800Y-88277600D01*
D31*
X200710800Y-86563200D02*
X201364188Y-86563200D01*
D30*
X199040700Y-87007900D02*
X198431400Y-87617200D01*
X198641132Y-83832800D02*
X199040700Y-84232368D01*
D35*
X202438000Y-87637012D02*
X201411856Y-86610868D01*
D31*
X201364188Y-86563200D02*
X201411856Y-86610868D01*
D35*
X202438000Y-91186000D02*
X202438000Y-87637012D01*
X200710800Y-86563200D02*
X200609200Y-86461600D01*
X199587000Y-86461600D02*
X198431400Y-87617200D01*
D30*
X199091800Y-88277600D02*
X198431400Y-87617200D01*
D31*
X201930000Y-91694000D02*
X201930000Y-92354400D01*
%TO.N,Net-(Q3A-B1)*%
D30*
X196553200Y-83832800D02*
X196553200Y-84482800D01*
X198228200Y-84482800D02*
X196553200Y-84482800D01*
X196551200Y-84484800D02*
X196553200Y-84482800D01*
X195281800Y-84484800D02*
X196551200Y-84484800D01*
%TO.N,Net-(Q3B-C2)*%
X196556400Y-88085000D02*
X196556400Y-88567200D01*
X195027800Y-88445200D02*
X196434400Y-88445200D01*
X198228200Y-85132800D02*
X198228200Y-86413200D01*
X196434400Y-88445200D02*
X196556400Y-88567200D01*
X198228200Y-86413200D02*
X196556400Y-88085000D01*
%TO.N,Net-(Q1B-C2)*%
X195306300Y-81401300D02*
X196712900Y-81401300D01*
X196834900Y-81041100D02*
X196834900Y-81523300D01*
X198506700Y-79369300D02*
X196834900Y-81041100D01*
X198506700Y-78088900D02*
X198506700Y-79369300D01*
X196712900Y-81401300D02*
X196834900Y-81523300D01*
%TO.N,Net-(Q1A-B1)*%
X198506700Y-77438900D02*
X196831700Y-77438900D01*
X195560300Y-77440900D02*
X196829700Y-77440900D01*
X196831700Y-76788900D02*
X196831700Y-77438900D01*
X196829700Y-77440900D02*
X196831700Y-77438900D01*
%TD*%
%TA.AperFunction,Conductor*%
%TO.N,GND*%
G36*
X125683052Y-73329407D02*
G01*
X125719016Y-73378907D01*
X125719016Y-73440093D01*
X125694866Y-73479501D01*
X125684023Y-73490345D01*
X125684020Y-73490348D01*
X125569058Y-73662402D01*
X125489869Y-73853581D01*
X125449500Y-74056532D01*
X125449500Y-74263467D01*
X125489869Y-74466418D01*
X125569058Y-74657597D01*
X125677953Y-74820571D01*
X125684023Y-74829655D01*
X125830345Y-74975977D01*
X126002402Y-75090941D01*
X126193580Y-75170130D01*
X126396535Y-75210500D01*
X126396536Y-75210500D01*
X126603464Y-75210500D01*
X126603465Y-75210500D01*
X126806420Y-75170130D01*
X126997598Y-75090941D01*
X127169655Y-74975977D01*
X127315977Y-74829655D01*
X127430941Y-74657598D01*
X127510130Y-74466420D01*
X127550500Y-74263465D01*
X127550500Y-74056535D01*
X127510130Y-73853580D01*
X127430941Y-73662402D01*
X127315977Y-73490345D01*
X127305133Y-73479501D01*
X127277358Y-73424987D01*
X127286929Y-73364555D01*
X127330194Y-73321290D01*
X127375139Y-73310500D01*
X128164861Y-73310500D01*
X128223052Y-73329407D01*
X128259016Y-73378907D01*
X128259016Y-73440093D01*
X128234866Y-73479501D01*
X128224023Y-73490345D01*
X128224020Y-73490348D01*
X128109058Y-73662402D01*
X128029869Y-73853581D01*
X127989500Y-74056532D01*
X127989500Y-74263467D01*
X128029869Y-74466418D01*
X128109058Y-74657597D01*
X128217953Y-74820571D01*
X128224023Y-74829655D01*
X128370345Y-74975977D01*
X128542402Y-75090941D01*
X128733580Y-75170130D01*
X128936535Y-75210500D01*
X128936536Y-75210500D01*
X129143464Y-75210500D01*
X129143465Y-75210500D01*
X129346420Y-75170130D01*
X129482405Y-75113802D01*
X129543399Y-75109002D01*
X129590292Y-75135263D01*
X134632525Y-80177496D01*
X134660302Y-80232013D01*
X134650731Y-80292445D01*
X134607466Y-80335710D01*
X134562521Y-80346500D01*
X134487782Y-80346500D01*
X134435563Y-80360492D01*
X134379558Y-80375498D01*
X134282539Y-80431513D01*
X134203313Y-80510739D01*
X134147298Y-80607758D01*
X134132606Y-80662590D01*
X134118300Y-80715982D01*
X134118300Y-80828018D01*
X134138740Y-80904302D01*
X134147298Y-80936241D01*
X134203313Y-81033260D01*
X134203315Y-81033263D01*
X134282537Y-81112485D01*
X134291575Y-81117703D01*
X134379559Y-81168501D01*
X134379557Y-81168501D01*
X134379561Y-81168502D01*
X134379563Y-81168503D01*
X134487782Y-81197500D01*
X134487784Y-81197500D01*
X134599816Y-81197500D01*
X134599818Y-81197500D01*
X134708037Y-81168503D01*
X134708039Y-81168501D01*
X134708041Y-81168501D01*
X134745801Y-81146700D01*
X134805063Y-81112485D01*
X134884285Y-81033263D01*
X134931056Y-80952254D01*
X134940301Y-80936241D01*
X134940301Y-80936239D01*
X134940303Y-80936237D01*
X134969300Y-80828018D01*
X134969300Y-80753279D01*
X134988207Y-80695088D01*
X135037707Y-80659124D01*
X135098893Y-80659124D01*
X135138304Y-80683275D01*
X138611940Y-84156911D01*
X138611939Y-84156911D01*
X138667889Y-84212860D01*
X138736407Y-84252419D01*
X138736411Y-84252421D01*
X138812835Y-84272899D01*
X138812837Y-84272900D01*
X138812838Y-84272900D01*
X138891962Y-84272900D01*
X143808870Y-84272900D01*
X143867061Y-84291807D01*
X143903025Y-84341307D01*
X143904497Y-84397522D01*
X143897300Y-84424382D01*
X143897300Y-84536418D01*
X143902671Y-84556463D01*
X143926298Y-84644641D01*
X143982313Y-84741660D01*
X143982315Y-84741663D01*
X144061537Y-84820885D01*
X144061539Y-84820886D01*
X144158559Y-84876901D01*
X144158557Y-84876901D01*
X144158561Y-84876902D01*
X144158563Y-84876903D01*
X144266782Y-84905900D01*
X144266784Y-84905900D01*
X144378816Y-84905900D01*
X144378818Y-84905900D01*
X144487037Y-84876903D01*
X144487039Y-84876901D01*
X144487041Y-84876901D01*
X144527390Y-84853605D01*
X144584063Y-84820885D01*
X144663285Y-84741663D01*
X144705108Y-84669223D01*
X144719301Y-84644641D01*
X144719301Y-84644639D01*
X144719303Y-84644637D01*
X144748300Y-84536418D01*
X144748300Y-84424382D01*
X144741103Y-84397522D01*
X144744306Y-84336421D01*
X144782812Y-84288871D01*
X144836730Y-84272900D01*
X167126552Y-84272900D01*
X167184743Y-84291807D01*
X167220707Y-84341307D01*
X167222178Y-84397521D01*
X167214100Y-84427673D01*
X167214100Y-84533127D01*
X167236007Y-84614885D01*
X167241394Y-84634989D01*
X167241394Y-84634990D01*
X167278870Y-84699900D01*
X167294120Y-84726313D01*
X167368687Y-84800880D01*
X167460013Y-84853607D01*
X167561873Y-84880900D01*
X167561875Y-84880900D01*
X167598817Y-84880900D01*
X167657008Y-84899807D01*
X167692972Y-84949307D01*
X167695452Y-84960268D01*
X167696700Y-84964925D01*
X167696700Y-84964927D01*
X167720647Y-85054300D01*
X167723994Y-85066789D01*
X167723994Y-85066790D01*
X167776718Y-85158110D01*
X167776720Y-85158113D01*
X167851287Y-85232680D01*
X167942613Y-85285407D01*
X168044473Y-85312700D01*
X168044475Y-85312700D01*
X168149925Y-85312700D01*
X168149927Y-85312700D01*
X168251787Y-85285407D01*
X168343113Y-85232680D01*
X168417680Y-85158113D01*
X168417681Y-85158110D01*
X168420307Y-85155485D01*
X168474823Y-85127707D01*
X168515931Y-85129860D01*
X168581770Y-85147502D01*
X168581772Y-85147502D01*
X168687222Y-85147502D01*
X168687224Y-85147502D01*
X168789084Y-85120209D01*
X168880410Y-85067482D01*
X168954977Y-84992915D01*
X169007704Y-84901589D01*
X169034997Y-84799729D01*
X169034997Y-84799726D01*
X169036676Y-84793461D01*
X169038302Y-84793896D01*
X169061144Y-84746019D01*
X169114918Y-84716829D01*
X169132950Y-84715173D01*
X169159600Y-84715173D01*
X169159602Y-84715173D01*
X169261462Y-84687880D01*
X169352788Y-84635153D01*
X169427355Y-84560586D01*
X169480082Y-84469260D01*
X169484464Y-84452904D01*
X169517785Y-84401593D01*
X169574905Y-84379664D01*
X169605705Y-84382900D01*
X169704359Y-84409334D01*
X169704361Y-84409334D01*
X169809811Y-84409334D01*
X169809813Y-84409334D01*
X169809814Y-84409333D01*
X169813971Y-84408786D01*
X169874133Y-84419932D01*
X169916253Y-84464311D01*
X169925900Y-84506938D01*
X169925900Y-85458284D01*
X169925899Y-85458302D01*
X169925899Y-85584038D01*
X169946308Y-85660201D01*
X169946308Y-85660203D01*
X169946309Y-85660203D01*
X169946309Y-85660204D01*
X169951639Y-85680094D01*
X169956873Y-85699630D01*
X169956874Y-85699633D01*
X169997836Y-85770582D01*
X170016709Y-85803270D01*
X170077513Y-85864074D01*
X170105289Y-85918589D01*
X170095718Y-85979021D01*
X170057009Y-86019812D01*
X169969538Y-86070314D01*
X169890313Y-86149539D01*
X169834298Y-86246558D01*
X169825384Y-86279826D01*
X169805300Y-86354782D01*
X169805300Y-86466818D01*
X169824156Y-86537190D01*
X169834298Y-86575041D01*
X169890313Y-86672060D01*
X169890315Y-86672063D01*
X169969537Y-86751285D01*
X169969539Y-86751286D01*
X170066559Y-86807301D01*
X170066557Y-86807301D01*
X170066561Y-86807302D01*
X170066563Y-86807303D01*
X170174782Y-86836300D01*
X170174784Y-86836300D01*
X170286816Y-86836300D01*
X170286818Y-86836300D01*
X170395037Y-86807303D01*
X170395039Y-86807301D01*
X170395041Y-86807301D01*
X170432647Y-86785589D01*
X170492063Y-86751285D01*
X170571285Y-86672063D01*
X170571291Y-86672052D01*
X170574383Y-86668023D01*
X170624803Y-86633360D01*
X170685968Y-86634954D01*
X170722934Y-86658274D01*
X170751484Y-86686824D01*
X170860313Y-86737572D01*
X170909899Y-86744100D01*
X171329700Y-86744099D01*
X171379287Y-86737572D01*
X171379288Y-86737572D01*
X171401154Y-86727376D01*
X171442993Y-86718100D01*
X171597345Y-86718100D01*
X171655536Y-86737007D01*
X171691500Y-86786507D01*
X171691500Y-86847693D01*
X171671471Y-86880377D01*
X171672266Y-86880987D01*
X171668315Y-86886135D01*
X171612298Y-86983158D01*
X171601271Y-87024312D01*
X171583300Y-87091382D01*
X171583300Y-87203418D01*
X171608454Y-87297293D01*
X171612298Y-87311641D01*
X171668313Y-87408660D01*
X171668315Y-87408663D01*
X171747537Y-87487885D01*
X171780885Y-87507139D01*
X171848153Y-87545976D01*
X171849167Y-87546137D01*
X171850174Y-87547143D01*
X171850182Y-87547148D01*
X171850180Y-87547149D01*
X171868203Y-87565155D01*
X171888671Y-87582634D01*
X171889609Y-87586540D01*
X171892452Y-87589381D01*
X171896674Y-87615959D01*
X171902958Y-87642127D01*
X171901420Y-87645839D01*
X171902051Y-87649809D01*
X171889859Y-87673756D01*
X171882956Y-87690426D01*
X171884478Y-87691441D01*
X171884476Y-87691444D01*
X171880553Y-87696228D01*
X171879548Y-87698657D01*
X171874299Y-87704338D01*
X171872139Y-87706500D01*
X171872136Y-87706501D01*
X171872125Y-87706513D01*
X171872123Y-87706511D01*
X171872109Y-87706530D01*
X171872107Y-87706532D01*
X171837218Y-87741422D01*
X171823135Y-87755505D01*
X171768619Y-87783283D01*
X171753131Y-87784502D01*
X170952101Y-87784502D01*
X170952085Y-87784501D01*
X170946022Y-87784501D01*
X170826350Y-87784501D01*
X170752782Y-87804214D01*
X170752781Y-87804213D01*
X170710758Y-87815473D01*
X170710751Y-87815476D01*
X170607116Y-87875310D01*
X170522494Y-87959931D01*
X170522495Y-87959932D01*
X170522493Y-87959934D01*
X170124407Y-88358021D01*
X169753924Y-88728504D01*
X169699407Y-88756281D01*
X169683920Y-88757500D01*
X169642510Y-88757500D01*
X169542874Y-88773281D01*
X169542867Y-88773283D01*
X169422782Y-88834470D01*
X169327470Y-88929782D01*
X169266283Y-89049867D01*
X169266281Y-89049874D01*
X169250500Y-89149510D01*
X169250500Y-89666489D01*
X169266281Y-89766125D01*
X169266283Y-89766132D01*
X169316499Y-89864685D01*
X169327472Y-89886220D01*
X169422780Y-89981528D01*
X169422782Y-89981529D01*
X169542867Y-90042716D01*
X169542869Y-90042716D01*
X169542874Y-90042719D01*
X169618541Y-90054703D01*
X169642510Y-90058500D01*
X169642512Y-90058500D01*
X169856521Y-90058500D01*
X169914712Y-90077407D01*
X169926525Y-90087496D01*
X170773504Y-90934475D01*
X170801281Y-90988992D01*
X170802500Y-91004479D01*
X170802500Y-91233321D01*
X170804114Y-91245580D01*
X170792963Y-91305740D01*
X170748580Y-91347857D01*
X170705961Y-91357500D01*
X149681562Y-91357500D01*
X149602438Y-91357500D01*
X149569883Y-91366223D01*
X149526007Y-91377979D01*
X149457493Y-91417536D01*
X149457492Y-91417537D01*
X147370292Y-93504736D01*
X147315775Y-93532513D01*
X147262402Y-93526196D01*
X147126418Y-93469869D01*
X146923467Y-93429500D01*
X146923465Y-93429500D01*
X146716535Y-93429500D01*
X146716532Y-93429500D01*
X146513581Y-93469869D01*
X146322402Y-93549058D01*
X146150348Y-93664020D01*
X146004020Y-93810348D01*
X145889058Y-93982402D01*
X145809869Y-94173581D01*
X145769500Y-94376532D01*
X145769500Y-94583467D01*
X145809869Y-94786418D01*
X145889058Y-94977597D01*
X145968910Y-95097105D01*
X146004023Y-95149655D01*
X146014866Y-95160498D01*
X146042642Y-95215013D01*
X146033071Y-95275445D01*
X145989806Y-95318710D01*
X145944861Y-95329500D01*
X142615139Y-95329500D01*
X142556948Y-95310593D01*
X142520984Y-95261093D01*
X142520984Y-95199907D01*
X142545133Y-95160498D01*
X142555977Y-95149655D01*
X142670941Y-94977598D01*
X142750130Y-94786420D01*
X142790500Y-94583465D01*
X142790500Y-94376535D01*
X142750130Y-94173580D01*
X142670941Y-93982402D01*
X142555977Y-93810345D01*
X142409655Y-93664023D01*
X142388378Y-93649806D01*
X142237597Y-93549058D01*
X142046418Y-93469869D01*
X141843467Y-93429500D01*
X141843465Y-93429500D01*
X141636535Y-93429500D01*
X141636532Y-93429500D01*
X141433581Y-93469869D01*
X141242402Y-93549058D01*
X141070348Y-93664020D01*
X140924020Y-93810348D01*
X140809058Y-93982402D01*
X140729869Y-94173581D01*
X140689500Y-94376532D01*
X140689500Y-94583467D01*
X140729869Y-94786418D01*
X140809058Y-94977597D01*
X140888910Y-95097105D01*
X140924023Y-95149655D01*
X140934866Y-95160498D01*
X140962642Y-95215013D01*
X140953071Y-95275445D01*
X140909806Y-95318710D01*
X140864861Y-95329500D01*
X140075139Y-95329500D01*
X140016948Y-95310593D01*
X139980984Y-95261093D01*
X139980984Y-95199907D01*
X140005133Y-95160498D01*
X140015977Y-95149655D01*
X140130941Y-94977598D01*
X140210130Y-94786420D01*
X140250500Y-94583465D01*
X140250500Y-94376535D01*
X140210130Y-94173580D01*
X140130941Y-93982402D01*
X140015977Y-93810345D01*
X139869655Y-93664023D01*
X139848378Y-93649806D01*
X139697597Y-93549058D01*
X139506418Y-93469869D01*
X139303467Y-93429500D01*
X139303465Y-93429500D01*
X139096535Y-93429500D01*
X139096532Y-93429500D01*
X138893581Y-93469869D01*
X138702402Y-93549058D01*
X138530348Y-93664020D01*
X138384020Y-93810348D01*
X138269058Y-93982402D01*
X138189869Y-94173581D01*
X138149500Y-94376532D01*
X138149500Y-94583467D01*
X138189869Y-94786418D01*
X138269058Y-94977597D01*
X138348910Y-95097105D01*
X138384023Y-95149655D01*
X138394866Y-95160498D01*
X138422642Y-95215013D01*
X138413071Y-95275445D01*
X138369806Y-95318710D01*
X138324861Y-95329500D01*
X137535139Y-95329500D01*
X137476948Y-95310593D01*
X137440984Y-95261093D01*
X137440984Y-95199907D01*
X137465133Y-95160498D01*
X137475977Y-95149655D01*
X137590941Y-94977598D01*
X137670130Y-94786420D01*
X137710500Y-94583465D01*
X137710500Y-94376535D01*
X137670130Y-94173580D01*
X137590941Y-93982402D01*
X137475977Y-93810345D01*
X137329655Y-93664023D01*
X137308378Y-93649806D01*
X137157597Y-93549058D01*
X136966418Y-93469869D01*
X136763467Y-93429500D01*
X136763465Y-93429500D01*
X136556535Y-93429500D01*
X136556532Y-93429500D01*
X136353581Y-93469869D01*
X136162402Y-93549058D01*
X135990348Y-93664020D01*
X135844020Y-93810348D01*
X135729058Y-93982402D01*
X135649869Y-94173581D01*
X135609500Y-94376532D01*
X135609500Y-94583467D01*
X135649869Y-94786418D01*
X135729058Y-94977597D01*
X135808910Y-95097105D01*
X135844023Y-95149655D01*
X135854866Y-95160498D01*
X135882642Y-95215013D01*
X135873071Y-95275445D01*
X135829806Y-95318710D01*
X135784861Y-95329500D01*
X134995139Y-95329500D01*
X134936948Y-95310593D01*
X134900984Y-95261093D01*
X134900984Y-95199907D01*
X134925133Y-95160498D01*
X134935977Y-95149655D01*
X135050941Y-94977598D01*
X135130130Y-94786420D01*
X135170500Y-94583465D01*
X135170500Y-94376535D01*
X135130130Y-94173580D01*
X135050941Y-93982402D01*
X134935977Y-93810345D01*
X134789655Y-93664023D01*
X134768378Y-93649806D01*
X134617597Y-93549058D01*
X134426418Y-93469869D01*
X134223467Y-93429500D01*
X134223465Y-93429500D01*
X134016535Y-93429500D01*
X134016532Y-93429500D01*
X133813581Y-93469869D01*
X133622402Y-93549058D01*
X133450348Y-93664020D01*
X133304020Y-93810348D01*
X133189058Y-93982402D01*
X133109869Y-94173581D01*
X133069500Y-94376532D01*
X133069500Y-94583467D01*
X133109869Y-94786418D01*
X133189058Y-94977597D01*
X133268910Y-95097105D01*
X133304023Y-95149655D01*
X133314866Y-95160498D01*
X133342642Y-95215013D01*
X133333071Y-95275445D01*
X133289806Y-95318710D01*
X133244861Y-95329500D01*
X132455139Y-95329500D01*
X132396948Y-95310593D01*
X132360984Y-95261093D01*
X132360984Y-95199907D01*
X132385133Y-95160498D01*
X132395977Y-95149655D01*
X132510941Y-94977598D01*
X132590130Y-94786420D01*
X132630500Y-94583465D01*
X132630500Y-94376535D01*
X132590130Y-94173580D01*
X132510941Y-93982402D01*
X132395977Y-93810345D01*
X132249655Y-93664023D01*
X132228378Y-93649806D01*
X132077597Y-93549058D01*
X131886418Y-93469869D01*
X131683467Y-93429500D01*
X131683465Y-93429500D01*
X131476535Y-93429500D01*
X131476532Y-93429500D01*
X131273581Y-93469869D01*
X131082402Y-93549058D01*
X130910348Y-93664020D01*
X130764020Y-93810348D01*
X130649058Y-93982402D01*
X130569869Y-94173581D01*
X130529500Y-94376532D01*
X130529500Y-94583467D01*
X130569869Y-94786418D01*
X130649058Y-94977597D01*
X130728910Y-95097105D01*
X130764023Y-95149655D01*
X130774866Y-95160498D01*
X130802642Y-95215013D01*
X130793071Y-95275445D01*
X130749806Y-95318710D01*
X130704861Y-95329500D01*
X129915139Y-95329500D01*
X129856948Y-95310593D01*
X129820984Y-95261093D01*
X129820984Y-95199907D01*
X129845133Y-95160498D01*
X129855977Y-95149655D01*
X129970941Y-94977598D01*
X130050130Y-94786420D01*
X130090500Y-94583465D01*
X130090500Y-94376535D01*
X130050130Y-94173580D01*
X129970941Y-93982402D01*
X129855977Y-93810345D01*
X129709655Y-93664023D01*
X129688378Y-93649806D01*
X129537597Y-93549058D01*
X129346418Y-93469869D01*
X129143467Y-93429500D01*
X129143465Y-93429500D01*
X128936535Y-93429500D01*
X128936532Y-93429500D01*
X128733581Y-93469869D01*
X128542402Y-93549058D01*
X128370348Y-93664020D01*
X128224020Y-93810348D01*
X128109058Y-93982402D01*
X128029869Y-94173581D01*
X127989500Y-94376532D01*
X127989500Y-94583467D01*
X128029869Y-94786418D01*
X128109058Y-94977597D01*
X128188910Y-95097105D01*
X128224023Y-95149655D01*
X128234866Y-95160498D01*
X128262642Y-95215013D01*
X128253071Y-95275445D01*
X128209806Y-95318710D01*
X128164861Y-95329500D01*
X127375139Y-95329500D01*
X127316948Y-95310593D01*
X127280984Y-95261093D01*
X127280984Y-95199907D01*
X127305133Y-95160498D01*
X127315977Y-95149655D01*
X127430941Y-94977598D01*
X127510130Y-94786420D01*
X127550500Y-94583465D01*
X127550500Y-94376535D01*
X127510130Y-94173580D01*
X127430941Y-93982402D01*
X127315977Y-93810345D01*
X127169655Y-93664023D01*
X127148378Y-93649806D01*
X126997597Y-93549058D01*
X126806418Y-93469869D01*
X126603467Y-93429500D01*
X126603465Y-93429500D01*
X126396535Y-93429500D01*
X126396532Y-93429500D01*
X126193581Y-93469869D01*
X126002402Y-93549058D01*
X125830348Y-93664020D01*
X125684020Y-93810348D01*
X125569058Y-93982402D01*
X125489869Y-94173581D01*
X125449500Y-94376532D01*
X125449500Y-94583467D01*
X125489869Y-94786418D01*
X125569058Y-94977597D01*
X125648910Y-95097105D01*
X125684023Y-95149655D01*
X125694866Y-95160498D01*
X125722642Y-95215013D01*
X125713071Y-95275445D01*
X125669806Y-95318710D01*
X125624861Y-95329500D01*
X124835139Y-95329500D01*
X124776948Y-95310593D01*
X124740984Y-95261093D01*
X124740984Y-95199907D01*
X124765133Y-95160498D01*
X124775977Y-95149655D01*
X124890941Y-94977598D01*
X124970130Y-94786420D01*
X125010500Y-94583465D01*
X125010500Y-94376535D01*
X124970130Y-94173580D01*
X124890941Y-93982402D01*
X124775977Y-93810345D01*
X124629655Y-93664023D01*
X124608378Y-93649806D01*
X124457597Y-93549058D01*
X124266418Y-93469869D01*
X124063467Y-93429500D01*
X124063465Y-93429500D01*
X123856535Y-93429500D01*
X123856532Y-93429500D01*
X123653581Y-93469869D01*
X123462402Y-93549058D01*
X123290348Y-93664020D01*
X123290345Y-93664022D01*
X123290345Y-93664023D01*
X123279501Y-93674866D01*
X123224987Y-93702642D01*
X123164555Y-93693071D01*
X123121290Y-93649806D01*
X123110500Y-93604861D01*
X123110500Y-88589982D01*
X155276500Y-88589982D01*
X155276500Y-88702018D01*
X155300422Y-88791297D01*
X155305498Y-88810241D01*
X155361513Y-88907260D01*
X155361515Y-88907263D01*
X155440737Y-88986485D01*
X155440739Y-88986486D01*
X155537759Y-89042501D01*
X155537757Y-89042501D01*
X155537761Y-89042502D01*
X155537763Y-89042503D01*
X155645982Y-89071500D01*
X155645984Y-89071500D01*
X155758016Y-89071500D01*
X155758018Y-89071500D01*
X155866237Y-89042503D01*
X155866239Y-89042501D01*
X155866241Y-89042501D01*
X155902750Y-89021422D01*
X155963263Y-88986485D01*
X156042485Y-88907263D01*
X156098503Y-88810237D01*
X156127500Y-88702018D01*
X156127500Y-88589982D01*
X156098503Y-88481763D01*
X156098501Y-88481760D01*
X156098501Y-88481758D01*
X156042486Y-88384739D01*
X156042485Y-88384737D01*
X155963263Y-88305515D01*
X155963260Y-88305513D01*
X155866240Y-88249498D01*
X155866242Y-88249498D01*
X155823467Y-88238037D01*
X155758018Y-88220500D01*
X155645982Y-88220500D01*
X155580533Y-88238037D01*
X155537758Y-88249498D01*
X155440739Y-88305513D01*
X155361513Y-88384739D01*
X155305498Y-88481758D01*
X155293354Y-88527083D01*
X155276500Y-88589982D01*
X123110500Y-88589982D01*
X123110500Y-84754582D01*
X128708100Y-84754582D01*
X128708100Y-84866618D01*
X128723017Y-84922288D01*
X128737098Y-84974841D01*
X128790586Y-85067483D01*
X128793115Y-85071863D01*
X128872337Y-85151085D01*
X128872339Y-85151086D01*
X128969359Y-85207101D01*
X128969363Y-85207103D01*
X129041293Y-85226376D01*
X129092606Y-85259699D01*
X129114533Y-85316820D01*
X129098698Y-85375920D01*
X129051148Y-85414426D01*
X129041294Y-85417628D01*
X128994762Y-85430097D01*
X128994759Y-85430098D01*
X128897739Y-85486113D01*
X128818513Y-85565339D01*
X128762498Y-85662358D01*
X128749447Y-85711066D01*
X128733500Y-85770582D01*
X128733500Y-85882618D01*
X128746196Y-85929999D01*
X128762498Y-85990841D01*
X128817491Y-86086090D01*
X128818515Y-86087863D01*
X128897737Y-86167085D01*
X128897739Y-86167086D01*
X128994759Y-86223101D01*
X128994757Y-86223101D01*
X128994761Y-86223102D01*
X128994763Y-86223103D01*
X129102982Y-86252100D01*
X129102984Y-86252100D01*
X129215016Y-86252100D01*
X129215018Y-86252100D01*
X129323237Y-86223103D01*
X129323239Y-86223101D01*
X129323241Y-86223101D01*
X129352064Y-86206459D01*
X129420263Y-86167085D01*
X129499485Y-86087863D01*
X129549809Y-86000700D01*
X129555501Y-85990841D01*
X129555501Y-85990839D01*
X129555503Y-85990837D01*
X129584500Y-85882618D01*
X129584500Y-85770582D01*
X129555503Y-85662363D01*
X129555501Y-85662360D01*
X129555501Y-85662358D01*
X129503228Y-85571820D01*
X129499485Y-85565337D01*
X129420263Y-85486115D01*
X129420260Y-85486113D01*
X129323240Y-85430098D01*
X129323242Y-85430098D01*
X129292556Y-85421876D01*
X129251305Y-85410823D01*
X129226464Y-85394691D01*
X129201316Y-85379099D01*
X129200905Y-85378092D01*
X129199993Y-85377500D01*
X129189387Y-85349871D01*
X129178196Y-85322450D01*
X129178455Y-85321392D01*
X129178066Y-85320378D01*
X129185722Y-85291803D01*
X129189217Y-85277572D01*
X166515237Y-85277572D01*
X166515237Y-85389608D01*
X166533861Y-85459113D01*
X166544235Y-85497831D01*
X166594008Y-85584038D01*
X166600252Y-85594853D01*
X166679474Y-85674075D01*
X166679476Y-85674076D01*
X166776496Y-85730091D01*
X166776494Y-85730091D01*
X166776498Y-85730092D01*
X166776500Y-85730093D01*
X166884719Y-85759090D01*
X166884721Y-85759090D01*
X166996753Y-85759090D01*
X166996755Y-85759090D01*
X167104974Y-85730093D01*
X167104976Y-85730091D01*
X167104978Y-85730091D01*
X167133801Y-85713449D01*
X167202000Y-85674075D01*
X167281222Y-85594853D01*
X167330637Y-85509264D01*
X167337238Y-85497831D01*
X167337238Y-85497829D01*
X167337240Y-85497827D01*
X167366237Y-85389608D01*
X167366237Y-85277572D01*
X167337240Y-85169353D01*
X167337238Y-85169350D01*
X167337238Y-85169348D01*
X167281223Y-85072329D01*
X167281222Y-85072327D01*
X167202000Y-84993105D01*
X167201666Y-84992912D01*
X167104977Y-84937088D01*
X167104979Y-84937088D01*
X167062988Y-84925837D01*
X166996755Y-84908090D01*
X166884719Y-84908090D01*
X166818485Y-84925837D01*
X166776495Y-84937088D01*
X166679476Y-84993103D01*
X166600250Y-85072329D01*
X166544235Y-85169348D01*
X166531494Y-85216901D01*
X166515237Y-85277572D01*
X129189217Y-85277572D01*
X129192789Y-85263031D01*
X129193592Y-85262434D01*
X129193902Y-85261278D01*
X129239521Y-85223537D01*
X129245287Y-85221183D01*
X129297837Y-85207103D01*
X129394863Y-85151085D01*
X129474085Y-85071863D01*
X129519666Y-84992915D01*
X129530101Y-84974841D01*
X129530101Y-84974839D01*
X129530103Y-84974837D01*
X129559100Y-84866618D01*
X129559100Y-84754582D01*
X129530103Y-84646363D01*
X129530101Y-84646360D01*
X129530101Y-84646358D01*
X129474086Y-84549339D01*
X129474085Y-84549337D01*
X129394863Y-84470115D01*
X129394860Y-84470113D01*
X129297840Y-84414098D01*
X129297842Y-84414098D01*
X129251171Y-84401593D01*
X129189618Y-84385100D01*
X129077582Y-84385100D01*
X129016029Y-84401593D01*
X128969358Y-84414098D01*
X128872339Y-84470113D01*
X128793113Y-84549339D01*
X128737098Y-84646358D01*
X128729663Y-84674108D01*
X128708100Y-84754582D01*
X123110500Y-84754582D01*
X123110500Y-75035139D01*
X123129407Y-74976948D01*
X123178907Y-74940984D01*
X123240093Y-74940984D01*
X123279501Y-74965133D01*
X123290345Y-74975977D01*
X123462402Y-75090941D01*
X123653580Y-75170130D01*
X123856535Y-75210500D01*
X123856536Y-75210500D01*
X124063464Y-75210500D01*
X124063465Y-75210500D01*
X124266420Y-75170130D01*
X124457598Y-75090941D01*
X124629655Y-74975977D01*
X124775977Y-74829655D01*
X124890941Y-74657598D01*
X124970130Y-74466420D01*
X125010500Y-74263465D01*
X125010500Y-74056535D01*
X124970130Y-73853580D01*
X124890941Y-73662402D01*
X124775977Y-73490345D01*
X124765133Y-73479501D01*
X124737358Y-73424987D01*
X124746929Y-73364555D01*
X124790194Y-73321290D01*
X124835139Y-73310500D01*
X125624861Y-73310500D01*
X125683052Y-73329407D01*
G37*
%TD.AperFunction*%
%TA.AperFunction,Conductor*%
G36*
X178804645Y-81822578D02*
G01*
X178826506Y-81832772D01*
X178826509Y-81832773D01*
X178826511Y-81832773D01*
X178826513Y-81832774D01*
X178876099Y-81839302D01*
X179295900Y-81839301D01*
X179345487Y-81832774D01*
X179345488Y-81832774D01*
X179367354Y-81822578D01*
X179409193Y-81813302D01*
X179683690Y-81813302D01*
X179733190Y-81826566D01*
X179861549Y-81900674D01*
X180009444Y-81940302D01*
X189878933Y-81940302D01*
X189937124Y-81959209D01*
X189973088Y-82008709D01*
X189973088Y-82069895D01*
X189964669Y-82088802D01*
X189924525Y-82158331D01*
X189908840Y-82216869D01*
X189895527Y-82266555D01*
X189895527Y-82378591D01*
X189913936Y-82447296D01*
X189924525Y-82486814D01*
X189980540Y-82583833D01*
X189980542Y-82583836D01*
X190059764Y-82663058D01*
X190107202Y-82690446D01*
X190148141Y-82735914D01*
X190156700Y-82776181D01*
X190156700Y-91950500D01*
X190137793Y-92008691D01*
X190088293Y-92044655D01*
X190057700Y-92049500D01*
X183670057Y-92049500D01*
X183611866Y-92030593D01*
X183575902Y-91981093D01*
X183575902Y-91919907D01*
X183600051Y-91880498D01*
X183644125Y-91836425D01*
X183700143Y-91739399D01*
X183729140Y-91631180D01*
X183729140Y-91535537D01*
X183748047Y-91477346D01*
X183758137Y-91465533D01*
X183758816Y-91464854D01*
X183797465Y-91426206D01*
X183847468Y-91318975D01*
X183853900Y-91270118D01*
X183853900Y-90921486D01*
X183847468Y-90872629D01*
X183846417Y-90870376D01*
X183797466Y-90765400D01*
X183797465Y-90765399D01*
X183797465Y-90765398D01*
X183713804Y-90681737D01*
X183700485Y-90675526D01*
X183655737Y-90633799D01*
X183644062Y-90573738D01*
X183669919Y-90518285D01*
X183700484Y-90496077D01*
X183713804Y-90489867D01*
X183797465Y-90406206D01*
X183847468Y-90298975D01*
X183853900Y-90250118D01*
X183853900Y-89901486D01*
X183847468Y-89852629D01*
X183844142Y-89845497D01*
X183797466Y-89745400D01*
X183797465Y-89745399D01*
X183797465Y-89745398D01*
X183713804Y-89661737D01*
X183713802Y-89661736D01*
X183713801Y-89661735D01*
X183691059Y-89651130D01*
X183646312Y-89609400D01*
X183633900Y-89561406D01*
X183633900Y-88786249D01*
X183652807Y-88728058D01*
X183662890Y-88716251D01*
X183711024Y-88668118D01*
X183761772Y-88559289D01*
X183768300Y-88509703D01*
X183768299Y-88089902D01*
X183761772Y-88040315D01*
X183761772Y-88040313D01*
X183711025Y-87931488D01*
X183711023Y-87931485D01*
X183662896Y-87883357D01*
X183659270Y-87876240D01*
X183652807Y-87871545D01*
X183645642Y-87849493D01*
X183635119Y-87828840D01*
X183633900Y-87813354D01*
X183633900Y-87765049D01*
X183652807Y-87706858D01*
X183662890Y-87695051D01*
X183705824Y-87652118D01*
X183756572Y-87543289D01*
X183763100Y-87493703D01*
X183763099Y-87073902D01*
X183756572Y-87024315D01*
X183756572Y-87024313D01*
X183705825Y-86915488D01*
X183705824Y-86915487D01*
X183705824Y-86915486D01*
X183620916Y-86830578D01*
X183620914Y-86830577D01*
X183614791Y-86824454D01*
X183616835Y-86822409D01*
X183588486Y-86784771D01*
X183583100Y-86752562D01*
X183583100Y-86728239D01*
X183583099Y-86728237D01*
X183575176Y-86698670D01*
X183562621Y-86651813D01*
X183552887Y-86634954D01*
X183523060Y-86583291D01*
X183467111Y-86527341D01*
X183467111Y-86527342D01*
X182850895Y-85911126D01*
X182823118Y-85856609D01*
X182821899Y-85841122D01*
X182821899Y-85616705D01*
X182821898Y-85616694D01*
X182815372Y-85567115D01*
X182815372Y-85567113D01*
X182764625Y-85458288D01*
X182764624Y-85458287D01*
X182764624Y-85458286D01*
X182679716Y-85373378D01*
X182679714Y-85373377D01*
X182679713Y-85373376D01*
X182570889Y-85322631D01*
X182570888Y-85322630D01*
X182553781Y-85320378D01*
X182521301Y-85316102D01*
X182521299Y-85316102D01*
X182161504Y-85316102D01*
X182161492Y-85316103D01*
X182111913Y-85322629D01*
X182111911Y-85322629D01*
X182003086Y-85373376D01*
X181918174Y-85458288D01*
X181867429Y-85567112D01*
X181867428Y-85567113D01*
X181866165Y-85576706D01*
X181861580Y-85611540D01*
X181860900Y-85616702D01*
X181860900Y-86036498D01*
X181860901Y-86036509D01*
X181867427Y-86086088D01*
X181867427Y-86086090D01*
X181918174Y-86194915D01*
X181918175Y-86194916D01*
X181918176Y-86194918D01*
X182003084Y-86279826D01*
X182111913Y-86330574D01*
X182161499Y-86337102D01*
X182385920Y-86337101D01*
X182444110Y-86356008D01*
X182455924Y-86366097D01*
X182862340Y-86772513D01*
X182890117Y-86827030D01*
X182880546Y-86887462D01*
X182862347Y-86912513D01*
X182859379Y-86915481D01*
X182859374Y-86915488D01*
X182808629Y-87024312D01*
X182808628Y-87024313D01*
X182802100Y-87073902D01*
X182802100Y-87493698D01*
X182802101Y-87493709D01*
X182808627Y-87543288D01*
X182808627Y-87543290D01*
X182863036Y-87659968D01*
X182860359Y-87661216D01*
X182874071Y-87706077D01*
X182854146Y-87763928D01*
X182804023Y-87799018D01*
X182749464Y-87799968D01*
X182707418Y-87788702D01*
X182595382Y-87788702D01*
X182537494Y-87804213D01*
X182487158Y-87817700D01*
X182390139Y-87873715D01*
X182310913Y-87952941D01*
X182254898Y-88049960D01*
X182252167Y-88060154D01*
X182225900Y-88158184D01*
X182225900Y-88270220D01*
X182236235Y-88308791D01*
X182254898Y-88378443D01*
X182310913Y-88475462D01*
X182310915Y-88475465D01*
X182390137Y-88554687D01*
X182413941Y-88568430D01*
X182487159Y-88610703D01*
X182487157Y-88610703D01*
X182487161Y-88610704D01*
X182487163Y-88610705D01*
X182595382Y-88639702D01*
X182595384Y-88639702D01*
X182707417Y-88639702D01*
X182707418Y-88639702D01*
X182756035Y-88626675D01*
X182817135Y-88629876D01*
X182858361Y-88662083D01*
X182858452Y-88661993D01*
X182859190Y-88662731D01*
X182862751Y-88665513D01*
X182864571Y-88668112D01*
X182864575Y-88668116D01*
X182864576Y-88668118D01*
X182949484Y-88753026D01*
X182975738Y-88765268D01*
X183020487Y-88806996D01*
X183032900Y-88854993D01*
X183032900Y-89561406D01*
X183013993Y-89619597D01*
X182975741Y-89651130D01*
X182952998Y-89661735D01*
X182869333Y-89745400D01*
X182819332Y-89852626D01*
X182819332Y-89852627D01*
X182817745Y-89864684D01*
X182812900Y-89901486D01*
X182812900Y-90250118D01*
X182813664Y-90255918D01*
X182819332Y-90298976D01*
X182819332Y-90298977D01*
X182869333Y-90406203D01*
X182869334Y-90406204D01*
X182869335Y-90406206D01*
X182952996Y-90489867D01*
X182956603Y-90491549D01*
X183001350Y-90533277D01*
X183013025Y-90593338D01*
X182987167Y-90648791D01*
X182933653Y-90678454D01*
X182914763Y-90680273D01*
X182543226Y-90680273D01*
X182485035Y-90661366D01*
X182473228Y-90651282D01*
X182462234Y-90640288D01*
X182459527Y-90638725D01*
X182365211Y-90584271D01*
X182365213Y-90584271D01*
X182323222Y-90573020D01*
X182256989Y-90555273D01*
X182144953Y-90555273D01*
X182078719Y-90573020D01*
X182036729Y-90584271D01*
X181939710Y-90640286D01*
X181860484Y-90719512D01*
X181804469Y-90816531D01*
X181799299Y-90835827D01*
X181775471Y-90924755D01*
X181775471Y-91036791D01*
X181801043Y-91132228D01*
X181804469Y-91145014D01*
X181855454Y-91233321D01*
X181860486Y-91242036D01*
X181939708Y-91321258D01*
X181939710Y-91321259D01*
X182036730Y-91377274D01*
X182036728Y-91377274D01*
X182036732Y-91377275D01*
X182036734Y-91377276D01*
X182144953Y-91406273D01*
X182144955Y-91406273D01*
X182256987Y-91406273D01*
X182256989Y-91406273D01*
X182365208Y-91377276D01*
X182365210Y-91377274D01*
X182365212Y-91377274D01*
X182416163Y-91347857D01*
X182462234Y-91321258D01*
X182473224Y-91310267D01*
X182480339Y-91306642D01*
X182485035Y-91300180D01*
X182507083Y-91293016D01*
X182527739Y-91282492D01*
X182543226Y-91281273D01*
X182712492Y-91281273D01*
X182770683Y-91300180D01*
X182782494Y-91310268D01*
X182806851Y-91334624D01*
X182808489Y-91336262D01*
X182808491Y-91336263D01*
X182813638Y-91340213D01*
X182812691Y-91341447D01*
X182847548Y-91379486D01*
X182872995Y-91434056D01*
X182870856Y-91435053D01*
X182885123Y-91481724D01*
X182881766Y-91505610D01*
X182878140Y-91519144D01*
X182878140Y-91631180D01*
X182893027Y-91686739D01*
X182907138Y-91739403D01*
X182958005Y-91827505D01*
X182963155Y-91836425D01*
X183007228Y-91880498D01*
X183035004Y-91935013D01*
X183025433Y-91995445D01*
X182982168Y-92038710D01*
X182937223Y-92049500D01*
X180852255Y-92049500D01*
X180794064Y-92030593D01*
X180782257Y-92020509D01*
X180771263Y-92009515D01*
X180761742Y-92004018D01*
X180674240Y-91953498D01*
X180674242Y-91953498D01*
X180632251Y-91942247D01*
X180566018Y-91924500D01*
X180453982Y-91924500D01*
X180387748Y-91942247D01*
X180345758Y-91953498D01*
X180248739Y-92009513D01*
X180169513Y-92088739D01*
X180113498Y-92185758D01*
X180113497Y-92185763D01*
X180084500Y-92293982D01*
X180084500Y-92406018D01*
X180088325Y-92420292D01*
X180113498Y-92514241D01*
X180169513Y-92611260D01*
X180169515Y-92611263D01*
X180248737Y-92690485D01*
X180248739Y-92690486D01*
X180345759Y-92746501D01*
X180345757Y-92746501D01*
X180345761Y-92746502D01*
X180345763Y-92746503D01*
X180453982Y-92775500D01*
X180453984Y-92775500D01*
X180566016Y-92775500D01*
X180566018Y-92775500D01*
X180674237Y-92746503D01*
X180674239Y-92746501D01*
X180674241Y-92746501D01*
X180703064Y-92729859D01*
X180771263Y-92690485D01*
X180782253Y-92679494D01*
X180836768Y-92651719D01*
X180852255Y-92650500D01*
X190244521Y-92650500D01*
X190302712Y-92669407D01*
X190314525Y-92679496D01*
X191564736Y-93929707D01*
X191592513Y-93984224D01*
X191586196Y-94037596D01*
X191529870Y-94173578D01*
X191529870Y-94173580D01*
X191489500Y-94376532D01*
X191489500Y-94583467D01*
X191529869Y-94786418D01*
X191609058Y-94977597D01*
X191688910Y-95097105D01*
X191724023Y-95149655D01*
X191734866Y-95160498D01*
X191762642Y-95215013D01*
X191753071Y-95275445D01*
X191709806Y-95318710D01*
X191664861Y-95329500D01*
X188335139Y-95329500D01*
X188276948Y-95310593D01*
X188240984Y-95261093D01*
X188240984Y-95199907D01*
X188265133Y-95160498D01*
X188275977Y-95149655D01*
X188390941Y-94977598D01*
X188470130Y-94786420D01*
X188510500Y-94583465D01*
X188510500Y-94376535D01*
X188470130Y-94173580D01*
X188390941Y-93982402D01*
X188275977Y-93810345D01*
X188129655Y-93664023D01*
X188108378Y-93649806D01*
X187957597Y-93549058D01*
X187766418Y-93469869D01*
X187563467Y-93429500D01*
X187563465Y-93429500D01*
X187356535Y-93429500D01*
X187356532Y-93429500D01*
X187153581Y-93469869D01*
X186962402Y-93549058D01*
X186790348Y-93664020D01*
X186644020Y-93810348D01*
X186529058Y-93982402D01*
X186449869Y-94173581D01*
X186409500Y-94376532D01*
X186409500Y-94583467D01*
X186449869Y-94786418D01*
X186529058Y-94977597D01*
X186608910Y-95097105D01*
X186644023Y-95149655D01*
X186654866Y-95160498D01*
X186682642Y-95215013D01*
X186673071Y-95275445D01*
X186629806Y-95318710D01*
X186584861Y-95329500D01*
X185795139Y-95329500D01*
X185736948Y-95310593D01*
X185700984Y-95261093D01*
X185700984Y-95199907D01*
X185725133Y-95160498D01*
X185735977Y-95149655D01*
X185850941Y-94977598D01*
X185930130Y-94786420D01*
X185970500Y-94583465D01*
X185970500Y-94376535D01*
X185930130Y-94173580D01*
X185850941Y-93982402D01*
X185735977Y-93810345D01*
X185589655Y-93664023D01*
X185568378Y-93649806D01*
X185417597Y-93549058D01*
X185226418Y-93469869D01*
X185023467Y-93429500D01*
X185023465Y-93429500D01*
X184816535Y-93429500D01*
X184816532Y-93429500D01*
X184613581Y-93469869D01*
X184422402Y-93549058D01*
X184250348Y-93664020D01*
X184104020Y-93810348D01*
X183989058Y-93982402D01*
X183909869Y-94173581D01*
X183869500Y-94376532D01*
X183869500Y-94583467D01*
X183909869Y-94786418D01*
X183989058Y-94977597D01*
X184068910Y-95097105D01*
X184104023Y-95149655D01*
X184114866Y-95160498D01*
X184142642Y-95215013D01*
X184133071Y-95275445D01*
X184089806Y-95318710D01*
X184044861Y-95329500D01*
X183255139Y-95329500D01*
X183196948Y-95310593D01*
X183160984Y-95261093D01*
X183160984Y-95199907D01*
X183185133Y-95160498D01*
X183195977Y-95149655D01*
X183310941Y-94977598D01*
X183390130Y-94786420D01*
X183430500Y-94583465D01*
X183430500Y-94376535D01*
X183390130Y-94173580D01*
X183310941Y-93982402D01*
X183195977Y-93810345D01*
X183049655Y-93664023D01*
X183028378Y-93649806D01*
X182877597Y-93549058D01*
X182686418Y-93469869D01*
X182483467Y-93429500D01*
X182483465Y-93429500D01*
X182276535Y-93429500D01*
X182276532Y-93429500D01*
X182073581Y-93469869D01*
X181882402Y-93549058D01*
X181710348Y-93664020D01*
X181564020Y-93810348D01*
X181449058Y-93982402D01*
X181369869Y-94173581D01*
X181329500Y-94376532D01*
X181329500Y-94583467D01*
X181369869Y-94786418D01*
X181449058Y-94977597D01*
X181528910Y-95097105D01*
X181564023Y-95149655D01*
X181574866Y-95160498D01*
X181602642Y-95215013D01*
X181593071Y-95275445D01*
X181549806Y-95318710D01*
X181504861Y-95329500D01*
X180715139Y-95329500D01*
X180656948Y-95310593D01*
X180620984Y-95261093D01*
X180620984Y-95199907D01*
X180645133Y-95160498D01*
X180655977Y-95149655D01*
X180770941Y-94977598D01*
X180850130Y-94786420D01*
X180890500Y-94583465D01*
X180890500Y-94376535D01*
X180850130Y-94173580D01*
X180770941Y-93982402D01*
X180655977Y-93810345D01*
X180509655Y-93664023D01*
X180488378Y-93649806D01*
X180337597Y-93549058D01*
X180146418Y-93469869D01*
X179943467Y-93429500D01*
X179943465Y-93429500D01*
X179736535Y-93429500D01*
X179736532Y-93429500D01*
X179533581Y-93469869D01*
X179342402Y-93549058D01*
X179170348Y-93664020D01*
X179024020Y-93810348D01*
X178909058Y-93982402D01*
X178829869Y-94173581D01*
X178789500Y-94376532D01*
X178789500Y-94583467D01*
X178829869Y-94786418D01*
X178909058Y-94977597D01*
X178988910Y-95097105D01*
X179024023Y-95149655D01*
X179034866Y-95160498D01*
X179062642Y-95215013D01*
X179053071Y-95275445D01*
X179009806Y-95318710D01*
X178964861Y-95329500D01*
X178175139Y-95329500D01*
X178116948Y-95310593D01*
X178080984Y-95261093D01*
X178080984Y-95199907D01*
X178105133Y-95160498D01*
X178115977Y-95149655D01*
X178230941Y-94977598D01*
X178310130Y-94786420D01*
X178350500Y-94583465D01*
X178350500Y-94376535D01*
X178310130Y-94173580D01*
X178230941Y-93982402D01*
X178115977Y-93810345D01*
X177969655Y-93664023D01*
X177948378Y-93649806D01*
X177797597Y-93549058D01*
X177606418Y-93469869D01*
X177403467Y-93429500D01*
X177403465Y-93429500D01*
X177196535Y-93429500D01*
X177196532Y-93429500D01*
X176993581Y-93469869D01*
X176802402Y-93549058D01*
X176630348Y-93664020D01*
X176484020Y-93810348D01*
X176369058Y-93982402D01*
X176289869Y-94173581D01*
X176249500Y-94376532D01*
X176249500Y-94583467D01*
X176289869Y-94786418D01*
X176369058Y-94977597D01*
X176448910Y-95097105D01*
X176484023Y-95149655D01*
X176494866Y-95160498D01*
X176522642Y-95215013D01*
X176513071Y-95275445D01*
X176469806Y-95318710D01*
X176424861Y-95329500D01*
X175635139Y-95329500D01*
X175576948Y-95310593D01*
X175540984Y-95261093D01*
X175540984Y-95199907D01*
X175565133Y-95160498D01*
X175575977Y-95149655D01*
X175690941Y-94977598D01*
X175770130Y-94786420D01*
X175810500Y-94583465D01*
X175810500Y-94376535D01*
X175770130Y-94173580D01*
X175690941Y-93982402D01*
X175575977Y-93810345D01*
X175429655Y-93664023D01*
X175408378Y-93649806D01*
X175257597Y-93549058D01*
X175094106Y-93481338D01*
X175066420Y-93469870D01*
X175066418Y-93469869D01*
X175066417Y-93469869D01*
X175066413Y-93469868D01*
X175063468Y-93469282D01*
X175062270Y-93468611D01*
X175061762Y-93468457D01*
X175061795Y-93468345D01*
X175010086Y-93439380D01*
X174984476Y-93383813D01*
X174996419Y-93323804D01*
X175012785Y-93302185D01*
X175050460Y-93264511D01*
X175050461Y-93264510D01*
X176076860Y-92238111D01*
X176081536Y-92230012D01*
X176116421Y-92169589D01*
X176134153Y-92103413D01*
X176136804Y-92097134D01*
X176152580Y-92078913D01*
X176165707Y-92058700D01*
X176172260Y-92056184D01*
X176176855Y-92050878D01*
X176200327Y-92045410D01*
X176222828Y-92036773D01*
X176229608Y-92038589D01*
X176236445Y-92036997D01*
X176258649Y-92046370D01*
X176281929Y-92052608D01*
X176291191Y-92060108D01*
X176292813Y-92060793D01*
X176293554Y-92062022D01*
X176298008Y-92065628D01*
X176314471Y-92082091D01*
X176314473Y-92082092D01*
X176411493Y-92138107D01*
X176411491Y-92138107D01*
X176411495Y-92138108D01*
X176411497Y-92138109D01*
X176519716Y-92167106D01*
X176519718Y-92167106D01*
X176631750Y-92167106D01*
X176631752Y-92167106D01*
X176739971Y-92138109D01*
X176811497Y-92096813D01*
X176871342Y-92084092D01*
X176927238Y-92108978D01*
X176930979Y-92112527D01*
X177005337Y-92186885D01*
X177005339Y-92186886D01*
X177102359Y-92242901D01*
X177102357Y-92242901D01*
X177102361Y-92242902D01*
X177102363Y-92242903D01*
X177210582Y-92271900D01*
X177210584Y-92271900D01*
X177322616Y-92271900D01*
X177322618Y-92271900D01*
X177430837Y-92242903D01*
X177468968Y-92220887D01*
X177528817Y-92208166D01*
X177584712Y-92233052D01*
X177588453Y-92236601D01*
X177640337Y-92288485D01*
X177640339Y-92288486D01*
X177737359Y-92344501D01*
X177737357Y-92344501D01*
X177737361Y-92344502D01*
X177737363Y-92344503D01*
X177845582Y-92373500D01*
X177845584Y-92373500D01*
X177957616Y-92373500D01*
X177957618Y-92373500D01*
X178065837Y-92344503D01*
X178065839Y-92344501D01*
X178065841Y-92344501D01*
X178107411Y-92320500D01*
X178162863Y-92288485D01*
X178242085Y-92209263D01*
X178298103Y-92112237D01*
X178327100Y-92004018D01*
X178327100Y-91891982D01*
X178298103Y-91783763D01*
X178298101Y-91783760D01*
X178298101Y-91783758D01*
X178242086Y-91686739D01*
X178242085Y-91686737D01*
X178162863Y-91607515D01*
X178158270Y-91604863D01*
X178065840Y-91551498D01*
X178065842Y-91551498D01*
X178006273Y-91535537D01*
X177957618Y-91522500D01*
X177845582Y-91522500D01*
X177737363Y-91551497D01*
X177737362Y-91551497D01*
X177737360Y-91551498D01*
X177699228Y-91573513D01*
X177639380Y-91586232D01*
X177583485Y-91561345D01*
X177579745Y-91557797D01*
X177527863Y-91505915D01*
X177527335Y-91505610D01*
X177430840Y-91449898D01*
X177430842Y-91449898D01*
X177375438Y-91435053D01*
X177322618Y-91420900D01*
X177210582Y-91420900D01*
X177161483Y-91434056D01*
X177102361Y-91449897D01*
X177030838Y-91491192D01*
X176970990Y-91503913D01*
X176915094Y-91479026D01*
X176911353Y-91475477D01*
X176836997Y-91401121D01*
X176834394Y-91399618D01*
X176739974Y-91345104D01*
X176739976Y-91345104D01*
X176697985Y-91333853D01*
X176631752Y-91316106D01*
X176519716Y-91316106D01*
X176465606Y-91330604D01*
X176411495Y-91345103D01*
X176325811Y-91394574D01*
X176265963Y-91407295D01*
X176210067Y-91382408D01*
X176190578Y-91358341D01*
X176176885Y-91334624D01*
X176097663Y-91255402D01*
X176097660Y-91255400D01*
X176000640Y-91199385D01*
X176000642Y-91199385D01*
X175958651Y-91188134D01*
X175892418Y-91170387D01*
X175780382Y-91170387D01*
X175684944Y-91195959D01*
X175672159Y-91199385D01*
X175650001Y-91212178D01*
X175590152Y-91224897D01*
X175534258Y-91200009D01*
X175530519Y-91196462D01*
X175497989Y-91163932D01*
X175497986Y-91163930D01*
X175400966Y-91107915D01*
X175400968Y-91107915D01*
X175358977Y-91096664D01*
X175292744Y-91078917D01*
X175180708Y-91078917D01*
X175079815Y-91105951D01*
X175067861Y-91109154D01*
X175006759Y-91105951D01*
X174959209Y-91067446D01*
X174943374Y-91008345D01*
X174954867Y-90966973D01*
X174961802Y-90953956D01*
X174976860Y-90938899D01*
X175016422Y-90870376D01*
X175026624Y-90832299D01*
X175031948Y-90822308D01*
X175032637Y-90821643D01*
X175033579Y-90819369D01*
X175084607Y-90730987D01*
X175111900Y-90629127D01*
X175111900Y-90523673D01*
X175084607Y-90421813D01*
X175075596Y-90406206D01*
X175031881Y-90330489D01*
X175031880Y-90330487D01*
X174957313Y-90255920D01*
X174947260Y-90250116D01*
X174865989Y-90203194D01*
X174865988Y-90203193D01*
X174865987Y-90203193D01*
X174764127Y-90175900D01*
X174658673Y-90175900D01*
X174556813Y-90203193D01*
X174556812Y-90203193D01*
X174556810Y-90203194D01*
X174556809Y-90203194D01*
X174465489Y-90255918D01*
X174390918Y-90330489D01*
X174338194Y-90421809D01*
X174338194Y-90421810D01*
X174338193Y-90421812D01*
X174338193Y-90421813D01*
X174310900Y-90523673D01*
X174310900Y-90629127D01*
X174315136Y-90644935D01*
X174322689Y-90673125D01*
X174319486Y-90734226D01*
X174297067Y-90768748D01*
X173900489Y-91165328D01*
X173900488Y-91165327D01*
X173844539Y-91221277D01*
X173804980Y-91289795D01*
X173804978Y-91289799D01*
X173784500Y-91366223D01*
X173784500Y-91376844D01*
X173765593Y-91435035D01*
X173716093Y-91470999D01*
X173654907Y-91470999D01*
X173636000Y-91462580D01*
X173570040Y-91424498D01*
X173570042Y-91424498D01*
X173528051Y-91413247D01*
X173461818Y-91395500D01*
X173461816Y-91395500D01*
X173415663Y-91395500D01*
X173366161Y-91382235D01*
X173358790Y-91377979D01*
X173358788Y-91377978D01*
X173282364Y-91357500D01*
X173282362Y-91357500D01*
X171940039Y-91357500D01*
X171881848Y-91338593D01*
X171845884Y-91289093D01*
X171841886Y-91245580D01*
X171843499Y-91233321D01*
X171843500Y-91233315D01*
X171843500Y-90884685D01*
X171841913Y-90872629D01*
X171837068Y-90835827D01*
X171830766Y-90822313D01*
X171787066Y-90728598D01*
X171787065Y-90728597D01*
X171787065Y-90728596D01*
X171703404Y-90644935D01*
X171690085Y-90638724D01*
X171645337Y-90596997D01*
X171633662Y-90536936D01*
X171659519Y-90481483D01*
X171690084Y-90459275D01*
X171703404Y-90453065D01*
X171787065Y-90369404D01*
X171837068Y-90262173D01*
X171843500Y-90213316D01*
X171843500Y-89864684D01*
X171837068Y-89815827D01*
X171835992Y-89813520D01*
X171787066Y-89708598D01*
X171787065Y-89708597D01*
X171787065Y-89708596D01*
X171703404Y-89624935D01*
X171703402Y-89624934D01*
X171703401Y-89624933D01*
X171607581Y-89580251D01*
X171562833Y-89538522D01*
X171551159Y-89478461D01*
X171577017Y-89423009D01*
X171579389Y-89420552D01*
X171628624Y-89371318D01*
X171679372Y-89262489D01*
X171685900Y-89212903D01*
X171685899Y-88793102D01*
X171685899Y-88792502D01*
X171690744Y-88777590D01*
X171690744Y-88761909D01*
X171699960Y-88749223D01*
X171704806Y-88734311D01*
X171717491Y-88725094D01*
X171726708Y-88712409D01*
X171741620Y-88707563D01*
X171754306Y-88698347D01*
X171784899Y-88693502D01*
X171916483Y-88693502D01*
X171916499Y-88693503D01*
X171922562Y-88693503D01*
X172042233Y-88693503D01*
X172042234Y-88693503D01*
X172137131Y-88668075D01*
X172157829Y-88662529D01*
X172261468Y-88602693D01*
X172346089Y-88518072D01*
X172346090Y-88518069D01*
X172378497Y-88485661D01*
X172433012Y-88457886D01*
X172493444Y-88467457D01*
X172536709Y-88510722D01*
X172547499Y-88555667D01*
X172547499Y-88631640D01*
X172566905Y-88704060D01*
X172566905Y-88704062D01*
X172566906Y-88704062D01*
X172566906Y-88704063D01*
X172577477Y-88743515D01*
X172578474Y-88747236D01*
X172638307Y-88850869D01*
X172638309Y-88850872D01*
X172722930Y-88935493D01*
X172722932Y-88935494D01*
X172904504Y-89117066D01*
X172932281Y-89171583D01*
X172933500Y-89187070D01*
X172933500Y-89437291D01*
X172949281Y-89536927D01*
X172949283Y-89536934D01*
X173010470Y-89657019D01*
X173010472Y-89657022D01*
X173105780Y-89752330D01*
X173105782Y-89752331D01*
X173225867Y-89813518D01*
X173225869Y-89813518D01*
X173225874Y-89813521D01*
X173301541Y-89825505D01*
X173325510Y-89829302D01*
X173325512Y-89829302D01*
X173892490Y-89829302D01*
X173913885Y-89825913D01*
X173992126Y-89813521D01*
X174112220Y-89752330D01*
X174202253Y-89662296D01*
X174209368Y-89658671D01*
X174214064Y-89652209D01*
X174236112Y-89645045D01*
X174256768Y-89634521D01*
X174272255Y-89633302D01*
X174326781Y-89633302D01*
X174326797Y-89633303D01*
X174332860Y-89633303D01*
X174452532Y-89633303D01*
X174543698Y-89608874D01*
X174568127Y-89602329D01*
X174671766Y-89542493D01*
X174756387Y-89457872D01*
X174756388Y-89457869D01*
X174788484Y-89425772D01*
X174842997Y-89397998D01*
X174900321Y-89406053D01*
X175000513Y-89452774D01*
X175050099Y-89459302D01*
X175469900Y-89459301D01*
X175519487Y-89452774D01*
X175519488Y-89452774D01*
X175588649Y-89420523D01*
X175628316Y-89402026D01*
X175713224Y-89317118D01*
X175759924Y-89216969D01*
X175801649Y-89172225D01*
X175861710Y-89160550D01*
X175899144Y-89173075D01*
X175984763Y-89222507D01*
X176092982Y-89251504D01*
X176092984Y-89251504D01*
X176189523Y-89251504D01*
X176197120Y-89253972D01*
X176205010Y-89252723D01*
X176225665Y-89263247D01*
X176247714Y-89270411D01*
X176259527Y-89280500D01*
X176371504Y-89392477D01*
X176399281Y-89446994D01*
X176400500Y-89462481D01*
X176400500Y-89686897D01*
X176400501Y-89686909D01*
X176407027Y-89736488D01*
X176407027Y-89736490D01*
X176457774Y-89845315D01*
X176457775Y-89845316D01*
X176457776Y-89845318D01*
X176542684Y-89930226D01*
X176651513Y-89980974D01*
X176701099Y-89987502D01*
X177120900Y-89987501D01*
X177170487Y-89980974D01*
X177170488Y-89980974D01*
X177256067Y-89941067D01*
X177279316Y-89930226D01*
X177364224Y-89845318D01*
X177414972Y-89736489D01*
X177421500Y-89686903D01*
X177421499Y-89340312D01*
X178140500Y-89340312D01*
X178140500Y-89857291D01*
X178156281Y-89956927D01*
X178156283Y-89956934D01*
X178217470Y-90077019D01*
X178217472Y-90077022D01*
X178312780Y-90172330D01*
X178312782Y-90172331D01*
X178432867Y-90233518D01*
X178432869Y-90233518D01*
X178432874Y-90233521D01*
X178508541Y-90245505D01*
X178532510Y-90249302D01*
X178532512Y-90249302D01*
X179099490Y-90249302D01*
X179120885Y-90245913D01*
X179199126Y-90233521D01*
X179319220Y-90172330D01*
X179414528Y-90077022D01*
X179445846Y-90015555D01*
X179489110Y-89972292D01*
X179534055Y-89961502D01*
X179788206Y-89961502D01*
X179809181Y-89963750D01*
X179820010Y-89966097D01*
X179851913Y-89980974D01*
X179901499Y-89987502D01*
X179918739Y-89987501D01*
X179929106Y-89989749D01*
X179946813Y-90000068D01*
X179966314Y-90006402D01*
X179978128Y-90016491D01*
X179987328Y-90025691D01*
X179987330Y-90025692D01*
X179987332Y-90025694D01*
X180078900Y-90078561D01*
X180090964Y-90085525D01*
X180090967Y-90085527D01*
X180206562Y-90116500D01*
X180206564Y-90116500D01*
X181034834Y-90116500D01*
X181034836Y-90116500D01*
X181150431Y-90085527D01*
X181254070Y-90025691D01*
X181338691Y-89941070D01*
X181398527Y-89837431D01*
X181429500Y-89721836D01*
X181429500Y-89602164D01*
X181398527Y-89486569D01*
X181382784Y-89459302D01*
X181349716Y-89402026D01*
X181338691Y-89382930D01*
X181254070Y-89298309D01*
X181233616Y-89286500D01*
X181150433Y-89238474D01*
X181150435Y-89238474D01*
X181115916Y-89229225D01*
X181034836Y-89207500D01*
X181034834Y-89207500D01*
X180643338Y-89207500D01*
X180585147Y-89188593D01*
X180571179Y-89174379D01*
X180570748Y-89174811D01*
X180564624Y-89168687D01*
X180564624Y-89168686D01*
X180479716Y-89083778D01*
X180479714Y-89083777D01*
X180479713Y-89083776D01*
X180370889Y-89033031D01*
X180370888Y-89033030D01*
X180350059Y-89030288D01*
X180321301Y-89026502D01*
X180321299Y-89026502D01*
X179901505Y-89026502D01*
X179884733Y-89028709D01*
X179867017Y-89031041D01*
X179806858Y-89019889D01*
X179764743Y-88975505D01*
X179756758Y-88914843D01*
X179758466Y-88907294D01*
X179759528Y-88903333D01*
X179759528Y-88791297D01*
X179730531Y-88683078D01*
X179730529Y-88683075D01*
X179730529Y-88683073D01*
X179682834Y-88600465D01*
X179674513Y-88586052D01*
X179595291Y-88506830D01*
X179591827Y-88504830D01*
X179498268Y-88450813D01*
X179498270Y-88450813D01*
X179456279Y-88439562D01*
X179390046Y-88421815D01*
X179278010Y-88421815D01*
X179211776Y-88439562D01*
X179169786Y-88450813D01*
X179072767Y-88506828D01*
X178993541Y-88586054D01*
X178937526Y-88683073D01*
X178932450Y-88702018D01*
X178913356Y-88773281D01*
X178908528Y-88791298D01*
X178908528Y-88849302D01*
X178889621Y-88907493D01*
X178840121Y-88943457D01*
X178809528Y-88948302D01*
X178532510Y-88948302D01*
X178432874Y-88964083D01*
X178432867Y-88964085D01*
X178312782Y-89025272D01*
X178217470Y-89120584D01*
X178156283Y-89240669D01*
X178156281Y-89240676D01*
X178140500Y-89340312D01*
X177421499Y-89340312D01*
X177421499Y-89327102D01*
X177414972Y-89277515D01*
X177414972Y-89277513D01*
X177364225Y-89168688D01*
X177364224Y-89168687D01*
X177364224Y-89168686D01*
X177279316Y-89083778D01*
X177279314Y-89083777D01*
X177279313Y-89083776D01*
X177170489Y-89033031D01*
X177170488Y-89033030D01*
X177142139Y-89029298D01*
X177120901Y-89026502D01*
X177120900Y-89026502D01*
X176896479Y-89026502D01*
X176838288Y-89007595D01*
X176826475Y-88997506D01*
X176584304Y-88755335D01*
X176558682Y-88710955D01*
X176545503Y-88661767D01*
X176489485Y-88564741D01*
X176410263Y-88485519D01*
X176410260Y-88485517D01*
X176313240Y-88429502D01*
X176313242Y-88429502D01*
X176255046Y-88413909D01*
X176205018Y-88400504D01*
X176092982Y-88400504D01*
X176042954Y-88413909D01*
X175984758Y-88429502D01*
X175887739Y-88485517D01*
X175808509Y-88564747D01*
X175804566Y-88569887D01*
X175802667Y-88568430D01*
X175764913Y-88602397D01*
X175704061Y-88608767D01*
X175654682Y-88581944D01*
X175628316Y-88555578D01*
X175628314Y-88555577D01*
X175628313Y-88555576D01*
X175519489Y-88504831D01*
X175519488Y-88504830D01*
X175499601Y-88502212D01*
X175469901Y-88498302D01*
X175469899Y-88498302D01*
X175050103Y-88498302D01*
X175050092Y-88498303D01*
X175000515Y-88504829D01*
X174916060Y-88544211D01*
X174855331Y-88551667D01*
X174824721Y-88540222D01*
X174798387Y-88525018D01*
X174798383Y-88525016D01*
X174682792Y-88494043D01*
X174682790Y-88494043D01*
X174563118Y-88494043D01*
X174563115Y-88494043D01*
X174447524Y-88525016D01*
X174447520Y-88525018D01*
X174343888Y-88584850D01*
X174343882Y-88584855D01*
X174287843Y-88640893D01*
X174233326Y-88668669D01*
X174172894Y-88659097D01*
X174147840Y-88640894D01*
X174112220Y-88605274D01*
X174112217Y-88605272D01*
X173992132Y-88544085D01*
X173992127Y-88544083D01*
X173992126Y-88544083D01*
X173958913Y-88538822D01*
X173892490Y-88528302D01*
X173892488Y-88528302D01*
X173642268Y-88528302D01*
X173634670Y-88525833D01*
X173626781Y-88527083D01*
X173606125Y-88516558D01*
X173584077Y-88509395D01*
X173572264Y-88499306D01*
X173485496Y-88412538D01*
X173457719Y-88358021D01*
X173456500Y-88342534D01*
X173456500Y-88308791D01*
X173465776Y-88266951D01*
X173475972Y-88245087D01*
X173482500Y-88195501D01*
X173482499Y-87775700D01*
X173480949Y-87763928D01*
X173475972Y-87726113D01*
X173465775Y-87704244D01*
X173456500Y-87662406D01*
X173456500Y-87318191D01*
X173465776Y-87276351D01*
X173475972Y-87254487D01*
X173482500Y-87204901D01*
X173482499Y-86785100D01*
X173475972Y-86735513D01*
X173475972Y-86735511D01*
X173425225Y-86626686D01*
X173425224Y-86626685D01*
X173425224Y-86626684D01*
X173340316Y-86541776D01*
X173340314Y-86541775D01*
X173340313Y-86541774D01*
X173231489Y-86491029D01*
X173231488Y-86491028D01*
X173206694Y-86487764D01*
X173181901Y-86484500D01*
X173181900Y-86484500D01*
X173175268Y-86484500D01*
X173117077Y-86465593D01*
X173105264Y-86455504D01*
X172505287Y-85855527D01*
X172505286Y-85855525D01*
X172420665Y-85770904D01*
X172420660Y-85770901D01*
X172317029Y-85711069D01*
X172317022Y-85711066D01*
X172274341Y-85699630D01*
X172274340Y-85699630D01*
X172201433Y-85680094D01*
X172201431Y-85680094D01*
X172102755Y-85680094D01*
X171983083Y-85680094D01*
X171867489Y-85711067D01*
X171867488Y-85711067D01*
X171867486Y-85711068D01*
X171857708Y-85716714D01*
X171857707Y-85716713D01*
X171763853Y-85770900D01*
X171763852Y-85770901D01*
X171763849Y-85770903D01*
X171763849Y-85770904D01*
X171754647Y-85780105D01*
X171700133Y-85807881D01*
X171684646Y-85809100D01*
X171442994Y-85809100D01*
X171422018Y-85806852D01*
X171411189Y-85804504D01*
X171379287Y-85789628D01*
X171329701Y-85783100D01*
X171312461Y-85783100D01*
X171302092Y-85780852D01*
X171284379Y-85770529D01*
X171264877Y-85764193D01*
X171253064Y-85754104D01*
X170863896Y-85364936D01*
X170836119Y-85310419D01*
X170834900Y-85294932D01*
X170834900Y-84732299D01*
X170853807Y-84674108D01*
X170903307Y-84638144D01*
X170933895Y-84633299D01*
X171032218Y-84633299D01*
X171058427Y-84638509D01*
X171058812Y-84637074D01*
X171065078Y-84638753D01*
X171065080Y-84638754D01*
X171164524Y-84665400D01*
X171267476Y-84665400D01*
X171826818Y-84665400D01*
X171853147Y-84670639D01*
X171853527Y-84669223D01*
X171859793Y-84670902D01*
X171859795Y-84670903D01*
X171968014Y-84699900D01*
X171968016Y-84699900D01*
X172080048Y-84699900D01*
X172080050Y-84699900D01*
X172188269Y-84670903D01*
X172188271Y-84670901D01*
X172188273Y-84670901D01*
X172217096Y-84654259D01*
X172285295Y-84614885D01*
X172364517Y-84535663D01*
X172411857Y-84453666D01*
X172457325Y-84412728D01*
X172513076Y-84405388D01*
X172568068Y-84414098D01*
X172600910Y-84419300D01*
X172600912Y-84419300D01*
X172851132Y-84419300D01*
X172909323Y-84438207D01*
X172921136Y-84448296D01*
X173374707Y-84901867D01*
X173374709Y-84901870D01*
X173459330Y-84986491D01*
X173562969Y-85046327D01*
X173587394Y-85052871D01*
X173587394Y-85052872D01*
X173587397Y-85052872D01*
X173678564Y-85077301D01*
X173804299Y-85077301D01*
X173804315Y-85077300D01*
X176042285Y-85077300D01*
X176042301Y-85077301D01*
X176048364Y-85077301D01*
X176168036Y-85077301D01*
X176259202Y-85052872D01*
X176283631Y-85046327D01*
X176387270Y-84986491D01*
X176471891Y-84901870D01*
X176471892Y-84901867D01*
X177571067Y-83802692D01*
X177571070Y-83802691D01*
X177655691Y-83718070D01*
X177715527Y-83614431D01*
X177727869Y-83568370D01*
X177746501Y-83498836D01*
X177746501Y-83379164D01*
X177746501Y-83373102D01*
X177746500Y-83373084D01*
X177746500Y-82052069D01*
X177748968Y-82044471D01*
X177747719Y-82036582D01*
X177758243Y-82015926D01*
X177765407Y-81993878D01*
X177775485Y-81982077D01*
X177909266Y-81848295D01*
X177963781Y-81820520D01*
X177979268Y-81819301D01*
X178295897Y-81819301D01*
X178295900Y-81819301D01*
X178335041Y-81814148D01*
X178347961Y-81813302D01*
X178762806Y-81813302D01*
X178804645Y-81822578D01*
G37*
%TD.AperFunction*%
%TA.AperFunction,Conductor*%
G36*
X199343052Y-73329407D02*
G01*
X199379016Y-73378907D01*
X199379016Y-73440093D01*
X199354866Y-73479501D01*
X199344023Y-73490345D01*
X199344020Y-73490348D01*
X199229058Y-73662402D01*
X199149869Y-73853581D01*
X199109500Y-74056532D01*
X199109500Y-74263467D01*
X199149869Y-74466418D01*
X199229058Y-74657597D01*
X199337953Y-74820571D01*
X199344023Y-74829655D01*
X199490345Y-74975977D01*
X199662402Y-75090941D01*
X199853580Y-75170130D01*
X200056535Y-75210500D01*
X200056536Y-75210500D01*
X200263464Y-75210500D01*
X200263465Y-75210500D01*
X200466420Y-75170130D01*
X200657598Y-75090941D01*
X200829655Y-74975977D01*
X200975977Y-74829655D01*
X201090941Y-74657598D01*
X201170130Y-74466420D01*
X201210500Y-74263465D01*
X201210500Y-74056535D01*
X201170130Y-73853580D01*
X201090941Y-73662402D01*
X200975977Y-73490345D01*
X200965133Y-73479501D01*
X200937358Y-73424987D01*
X200946929Y-73364555D01*
X200990194Y-73321290D01*
X201035139Y-73310500D01*
X202700909Y-73310500D01*
X202759100Y-73329407D01*
X202795064Y-73378907D01*
X202795064Y-73440093D01*
X202792373Y-73447386D01*
X202756508Y-73533970D01*
X202751116Y-73561076D01*
X203503012Y-73561076D01*
X203485795Y-73571016D01*
X203429940Y-73626871D01*
X203390444Y-73695280D01*
X203370000Y-73771580D01*
X203370000Y-73850572D01*
X203390444Y-73926872D01*
X203429940Y-73995281D01*
X203485795Y-74051136D01*
X203503012Y-74061076D01*
X202751116Y-74061076D01*
X202756508Y-74088181D01*
X202828120Y-74261068D01*
X202828124Y-74261077D01*
X202932087Y-74416665D01*
X202932090Y-74416669D01*
X203064406Y-74548985D01*
X203064410Y-74548988D01*
X203219998Y-74652951D01*
X203220010Y-74652957D01*
X203392894Y-74724567D01*
X203576430Y-74761075D01*
X203576434Y-74761076D01*
X203969999Y-74761076D01*
X203970000Y-74761075D01*
X203970000Y-74111076D01*
X204470000Y-74111076D01*
X204470000Y-74721460D01*
X204451093Y-74779651D01*
X204420501Y-74807196D01*
X204397336Y-74820570D01*
X204397335Y-74820571D01*
X204299495Y-74918411D01*
X204230312Y-75038240D01*
X204194500Y-75171893D01*
X204194500Y-75310259D01*
X204230312Y-75443912D01*
X204299495Y-75563741D01*
X204397335Y-75661581D01*
X204517164Y-75730764D01*
X204650817Y-75766576D01*
X204650819Y-75766576D01*
X204789181Y-75766576D01*
X204789183Y-75766576D01*
X204922836Y-75730764D01*
X205042665Y-75661581D01*
X205140505Y-75563741D01*
X205209688Y-75443912D01*
X205245500Y-75310259D01*
X205245500Y-75171893D01*
X205209688Y-75038240D01*
X205140505Y-74918411D01*
X205080846Y-74858752D01*
X205053071Y-74804238D01*
X205062642Y-74743806D01*
X205105907Y-74700541D01*
X205112967Y-74697287D01*
X205219989Y-74652957D01*
X205220001Y-74652951D01*
X205375589Y-74548988D01*
X205375593Y-74548985D01*
X205507909Y-74416669D01*
X205507912Y-74416665D01*
X205611875Y-74261077D01*
X205611879Y-74261068D01*
X205683491Y-74088181D01*
X205688884Y-74061076D01*
X204936988Y-74061076D01*
X204954205Y-74051136D01*
X205010060Y-73995281D01*
X205049556Y-73926872D01*
X205070000Y-73850572D01*
X205070000Y-73771580D01*
X205049556Y-73695280D01*
X205010060Y-73626871D01*
X204954205Y-73571016D01*
X204936988Y-73561076D01*
X205688884Y-73561076D01*
X205683491Y-73533970D01*
X205647627Y-73447386D01*
X205642826Y-73386389D01*
X205674795Y-73334220D01*
X205731323Y-73310805D01*
X205739091Y-73310500D01*
X207030909Y-73310500D01*
X207089100Y-73329407D01*
X207125064Y-73378907D01*
X207125064Y-73440093D01*
X207122373Y-73447386D01*
X207086508Y-73533970D01*
X207081116Y-73561076D01*
X207833012Y-73561076D01*
X207815795Y-73571016D01*
X207759940Y-73626871D01*
X207720444Y-73695280D01*
X207700000Y-73771580D01*
X207700000Y-73850572D01*
X207720444Y-73926872D01*
X207759940Y-73995281D01*
X207815795Y-74051136D01*
X207833012Y-74061076D01*
X207081116Y-74061076D01*
X207086508Y-74088181D01*
X207158120Y-74261068D01*
X207158124Y-74261077D01*
X207262087Y-74416665D01*
X207262090Y-74416669D01*
X207394406Y-74548985D01*
X207394410Y-74548988D01*
X207549998Y-74652951D01*
X207550010Y-74652957D01*
X207722894Y-74724567D01*
X207906430Y-74761075D01*
X207906434Y-74761076D01*
X208149999Y-74761076D01*
X208150000Y-74761075D01*
X208150000Y-74111076D01*
X208650000Y-74111076D01*
X208650000Y-74761075D01*
X208650001Y-74761076D01*
X208893566Y-74761076D01*
X208893569Y-74761075D01*
X209077104Y-74724567D01*
X209077106Y-74724567D01*
X209249989Y-74652957D01*
X209250001Y-74652951D01*
X209405589Y-74548988D01*
X209405593Y-74548985D01*
X209537909Y-74416669D01*
X209537912Y-74416665D01*
X209641875Y-74261077D01*
X209641879Y-74261068D01*
X209713491Y-74088181D01*
X209718884Y-74061076D01*
X208966988Y-74061076D01*
X208984205Y-74051136D01*
X209040060Y-73995281D01*
X209079556Y-73926872D01*
X209100000Y-73850572D01*
X209100000Y-73771580D01*
X209079556Y-73695280D01*
X209040060Y-73626871D01*
X208984205Y-73571016D01*
X208966988Y-73561076D01*
X209732526Y-73561076D01*
X209740757Y-73554321D01*
X209746768Y-73553966D01*
X209751841Y-73550719D01*
X209776842Y-73552192D01*
X209801836Y-73550719D01*
X209806907Y-73553965D01*
X209812921Y-73554320D01*
X209853368Y-73583706D01*
X209901031Y-73641784D01*
X209903631Y-73644951D01*
X209914412Y-73661086D01*
X209973472Y-73771580D01*
X209976329Y-73776924D01*
X209983756Y-73794855D01*
X210021883Y-73920548D01*
X210025669Y-73939581D01*
X210039023Y-74075156D01*
X210039500Y-74084860D01*
X210039500Y-94555139D01*
X210039023Y-94564843D01*
X210025669Y-94700418D01*
X210021883Y-94719451D01*
X209983756Y-94845144D01*
X209976329Y-94863075D01*
X209914413Y-94978911D01*
X209903631Y-94995048D01*
X209857030Y-95051831D01*
X209805498Y-95084818D01*
X209744419Y-95081216D01*
X209728981Y-95070000D01*
X208966988Y-95070000D01*
X208984205Y-95060060D01*
X209040060Y-95004205D01*
X209079556Y-94935796D01*
X209100000Y-94859496D01*
X209100000Y-94780504D01*
X209079556Y-94704204D01*
X209040060Y-94635795D01*
X208984205Y-94579940D01*
X208966988Y-94570000D01*
X209718884Y-94570000D01*
X209713491Y-94542894D01*
X209641879Y-94370007D01*
X209641875Y-94369998D01*
X209537912Y-94214410D01*
X209537909Y-94214406D01*
X209405593Y-94082090D01*
X209405589Y-94082087D01*
X209250001Y-93978124D01*
X209249989Y-93978118D01*
X209077105Y-93906508D01*
X208893569Y-93870000D01*
X208650001Y-93870000D01*
X208650000Y-93870001D01*
X208650000Y-94520000D01*
X208150000Y-94520000D01*
X208150000Y-93870001D01*
X208149999Y-93870000D01*
X207906430Y-93870000D01*
X207722895Y-93906508D01*
X207722893Y-93906508D01*
X207550010Y-93978118D01*
X207549998Y-93978124D01*
X207394410Y-94082087D01*
X207394406Y-94082090D01*
X207262090Y-94214406D01*
X207262087Y-94214410D01*
X207158124Y-94369998D01*
X207158120Y-94370007D01*
X207086508Y-94542894D01*
X207081116Y-94570000D01*
X207833012Y-94570000D01*
X207815795Y-94579940D01*
X207759940Y-94635795D01*
X207720444Y-94704204D01*
X207700000Y-94780504D01*
X207700000Y-94859496D01*
X207720444Y-94935796D01*
X207759940Y-95004205D01*
X207815795Y-95060060D01*
X207833012Y-95070000D01*
X207081116Y-95070000D01*
X207086508Y-95097105D01*
X207126069Y-95192614D01*
X207130870Y-95253611D01*
X207098900Y-95305780D01*
X207042372Y-95329195D01*
X207034605Y-95329500D01*
X205735395Y-95329500D01*
X205677204Y-95310593D01*
X205641240Y-95261093D01*
X205641240Y-95199907D01*
X205643931Y-95192614D01*
X205683491Y-95097105D01*
X205688884Y-95070000D01*
X204936988Y-95070000D01*
X204954205Y-95060060D01*
X205010060Y-95004205D01*
X205049556Y-94935796D01*
X205070000Y-94859496D01*
X205070000Y-94780504D01*
X205049556Y-94704204D01*
X205010060Y-94635795D01*
X204954205Y-94579940D01*
X204936988Y-94570000D01*
X205688884Y-94570000D01*
X205683491Y-94542894D01*
X205611879Y-94370007D01*
X205611875Y-94369998D01*
X205507912Y-94214410D01*
X205507909Y-94214406D01*
X205375593Y-94082090D01*
X205375589Y-94082087D01*
X205220001Y-93978124D01*
X205219992Y-93978120D01*
X205112966Y-93933788D01*
X205066440Y-93894051D01*
X205052157Y-93834556D01*
X205075572Y-93778028D01*
X205080836Y-93772333D01*
X205140505Y-93712665D01*
X205209688Y-93592836D01*
X205245500Y-93459183D01*
X205245500Y-93320817D01*
X205209688Y-93187164D01*
X205140505Y-93067335D01*
X205042665Y-92969495D01*
X204922836Y-92900312D01*
X204789183Y-92864500D01*
X204650817Y-92864500D01*
X204517164Y-92900312D01*
X204397335Y-92969495D01*
X204299495Y-93067335D01*
X204230312Y-93187164D01*
X204194500Y-93320817D01*
X204194500Y-93459183D01*
X204230312Y-93592836D01*
X204299495Y-93712665D01*
X204397335Y-93810505D01*
X204420500Y-93823879D01*
X204461441Y-93869347D01*
X204470000Y-93909615D01*
X204470000Y-94520000D01*
X203970000Y-94520000D01*
X203970000Y-93870001D01*
X203969999Y-93870000D01*
X203576430Y-93870000D01*
X203392895Y-93906508D01*
X203392893Y-93906508D01*
X203220010Y-93978118D01*
X203219998Y-93978124D01*
X203064410Y-94082087D01*
X203064406Y-94082090D01*
X202932090Y-94214406D01*
X202932087Y-94214410D01*
X202828124Y-94369998D01*
X202828120Y-94370007D01*
X202756508Y-94542894D01*
X202751116Y-94570000D01*
X203503012Y-94570000D01*
X203485795Y-94579940D01*
X203429940Y-94635795D01*
X203390444Y-94704204D01*
X203370000Y-94780504D01*
X203370000Y-94859496D01*
X203390444Y-94935796D01*
X203429940Y-95004205D01*
X203485795Y-95060060D01*
X203503012Y-95070000D01*
X202751116Y-95070000D01*
X202756508Y-95097105D01*
X202796069Y-95192614D01*
X202800870Y-95253611D01*
X202768900Y-95305780D01*
X202712372Y-95329195D01*
X202704605Y-95329500D01*
X201035139Y-95329500D01*
X200976948Y-95310593D01*
X200940984Y-95261093D01*
X200940984Y-95199907D01*
X200965133Y-95160498D01*
X200975977Y-95149655D01*
X201090941Y-94977598D01*
X201170130Y-94786420D01*
X201210500Y-94583465D01*
X201210500Y-94376535D01*
X201170130Y-94173580D01*
X201090941Y-93982402D01*
X200975977Y-93810345D01*
X200829655Y-93664023D01*
X200808378Y-93649806D01*
X200657597Y-93549058D01*
X200466418Y-93469869D01*
X200263467Y-93429500D01*
X200263465Y-93429500D01*
X200056535Y-93429500D01*
X200056532Y-93429500D01*
X199853581Y-93469869D01*
X199662402Y-93549058D01*
X199490348Y-93664020D01*
X199344020Y-93810348D01*
X199229058Y-93982402D01*
X199149869Y-94173581D01*
X199109500Y-94376532D01*
X199109500Y-94583467D01*
X199149869Y-94786418D01*
X199229058Y-94977597D01*
X199308910Y-95097105D01*
X199344023Y-95149655D01*
X199354866Y-95160498D01*
X199382642Y-95215013D01*
X199373071Y-95275445D01*
X199329806Y-95318710D01*
X199284861Y-95329500D01*
X198495139Y-95329500D01*
X198436948Y-95310593D01*
X198400984Y-95261093D01*
X198400984Y-95199907D01*
X198425133Y-95160498D01*
X198435977Y-95149655D01*
X198550941Y-94977598D01*
X198630130Y-94786420D01*
X198670500Y-94583465D01*
X198670500Y-94376535D01*
X198630130Y-94173580D01*
X198550941Y-93982402D01*
X198435977Y-93810345D01*
X198289655Y-93664023D01*
X198268378Y-93649806D01*
X198117597Y-93549058D01*
X197926418Y-93469869D01*
X197723467Y-93429500D01*
X197723465Y-93429500D01*
X197516535Y-93429500D01*
X197516532Y-93429500D01*
X197313581Y-93469869D01*
X197122402Y-93549058D01*
X196950348Y-93664020D01*
X196804020Y-93810348D01*
X196689058Y-93982402D01*
X196609869Y-94173581D01*
X196600238Y-94222003D01*
X196570341Y-94275387D01*
X196514776Y-94301003D01*
X196454766Y-94289066D01*
X196413234Y-94244136D01*
X196405359Y-94218176D01*
X196396759Y-94163878D01*
X196331095Y-93961784D01*
X196234623Y-93772446D01*
X196234619Y-93772440D01*
X196195270Y-93718282D01*
X196195269Y-93718282D01*
X195562962Y-94350590D01*
X195545925Y-94287007D01*
X195480099Y-94172993D01*
X195387007Y-94079901D01*
X195272993Y-94014075D01*
X195209407Y-93997037D01*
X195841716Y-93364729D01*
X195841716Y-93364728D01*
X195787559Y-93325380D01*
X195787553Y-93325376D01*
X195598215Y-93228904D01*
X195396121Y-93163240D01*
X195186250Y-93130000D01*
X194973750Y-93130000D01*
X194763878Y-93163240D01*
X194561784Y-93228904D01*
X194372446Y-93325376D01*
X194372442Y-93325378D01*
X194318282Y-93364728D01*
X194950591Y-93997037D01*
X194887007Y-94014075D01*
X194772993Y-94079901D01*
X194679901Y-94172993D01*
X194614075Y-94287007D01*
X194597037Y-94350591D01*
X193964728Y-93718282D01*
X193925378Y-93772442D01*
X193925376Y-93772446D01*
X193828904Y-93961784D01*
X193763241Y-94163877D01*
X193754640Y-94218177D01*
X193726862Y-94272694D01*
X193672345Y-94300470D01*
X193611913Y-94290898D01*
X193568649Y-94247633D01*
X193559762Y-94222006D01*
X193550130Y-94173580D01*
X193470941Y-93982402D01*
X193355977Y-93810345D01*
X193209655Y-93664023D01*
X193188378Y-93649806D01*
X193037597Y-93549058D01*
X192963937Y-93518547D01*
X192846420Y-93469870D01*
X192846418Y-93469869D01*
X192643467Y-93429500D01*
X192643465Y-93429500D01*
X192436535Y-93429500D01*
X192436532Y-93429500D01*
X192233580Y-93469870D01*
X192233578Y-93469870D01*
X192097596Y-93526196D01*
X192036600Y-93530997D01*
X191989707Y-93504736D01*
X190786696Y-92301725D01*
X190758919Y-92247208D01*
X190757700Y-92231721D01*
X190757700Y-87411708D01*
X191218700Y-87411708D01*
X191218700Y-87543492D01*
X191230235Y-87586540D01*
X191252809Y-87670790D01*
X191318696Y-87784909D01*
X191318700Y-87784914D01*
X191775899Y-88242114D01*
X191869084Y-88335299D01*
X191941151Y-88376907D01*
X191943805Y-88378439D01*
X191977992Y-88398177D01*
X191998494Y-88413909D01*
X192427884Y-88843298D01*
X192427889Y-88843302D01*
X192542010Y-88909190D01*
X192542008Y-88909190D01*
X192542012Y-88909191D01*
X192542014Y-88909192D01*
X192669307Y-88943300D01*
X192669309Y-88943300D01*
X192801090Y-88943300D01*
X192801092Y-88943300D01*
X192928385Y-88909192D01*
X192928387Y-88909190D01*
X192928389Y-88909190D01*
X193042509Y-88843302D01*
X193042509Y-88843301D01*
X193042514Y-88843299D01*
X193135699Y-88750114D01*
X193135702Y-88750109D01*
X193201590Y-88635989D01*
X193201590Y-88635987D01*
X193201592Y-88635985D01*
X193235700Y-88508692D01*
X193235700Y-88376907D01*
X193201592Y-88249614D01*
X193201590Y-88249611D01*
X193201590Y-88249609D01*
X193135702Y-88135489D01*
X193135700Y-88135487D01*
X193135699Y-88135485D01*
X192534514Y-87534300D01*
X192534511Y-87534298D01*
X192534509Y-87534296D01*
X192425607Y-87471421D01*
X192405104Y-87455689D01*
X192026514Y-87077100D01*
X192026509Y-87077096D01*
X191912389Y-87011209D01*
X191912391Y-87011209D01*
X191862999Y-86997975D01*
X191785092Y-86977100D01*
X191653308Y-86977100D01*
X191575400Y-86997975D01*
X191526009Y-87011209D01*
X191411890Y-87077096D01*
X191318696Y-87170290D01*
X191252809Y-87284409D01*
X191243553Y-87318954D01*
X191218700Y-87411708D01*
X190757700Y-87411708D01*
X190757700Y-82678741D01*
X190776607Y-82620550D01*
X190826107Y-82584586D01*
X190882324Y-82583115D01*
X190930967Y-82596149D01*
X191033041Y-82623500D01*
X191033043Y-82623501D01*
X191033044Y-82623501D01*
X191186154Y-82623501D01*
X191186156Y-82623501D01*
X191334051Y-82583872D01*
X191334055Y-82583869D01*
X191334057Y-82583869D01*
X191340049Y-82581388D01*
X191340538Y-82582569D01*
X191393686Y-82571267D01*
X191449584Y-82596149D01*
X191480182Y-82649134D01*
X191481500Y-82656805D01*
X191483327Y-82670686D01*
X191483327Y-82670688D01*
X191534074Y-82779513D01*
X191534075Y-82779514D01*
X191534076Y-82779516D01*
X191618984Y-82864424D01*
X191700981Y-82902660D01*
X191745727Y-82944387D01*
X191757402Y-83004448D01*
X191731544Y-83059901D01*
X191729145Y-83062385D01*
X191707535Y-83083995D01*
X191707533Y-83083998D01*
X191657532Y-83191224D01*
X191657532Y-83191225D01*
X191651100Y-83240085D01*
X191651100Y-83688714D01*
X191657532Y-83737574D01*
X191657532Y-83737575D01*
X191707533Y-83844801D01*
X191707534Y-83844802D01*
X191707535Y-83844804D01*
X191791196Y-83928465D01*
X191791197Y-83928465D01*
X191791198Y-83928466D01*
X191808996Y-83936765D01*
X191852895Y-83976990D01*
X191875699Y-84016487D01*
X191881140Y-84025911D01*
X192026704Y-84171475D01*
X192054481Y-84225992D01*
X192055700Y-84241479D01*
X192055700Y-84257018D01*
X192075072Y-84329314D01*
X192084698Y-84365241D01*
X192132651Y-84448296D01*
X192140715Y-84462263D01*
X192219937Y-84541485D01*
X192219939Y-84541486D01*
X192316959Y-84597501D01*
X192316957Y-84597501D01*
X192316961Y-84597502D01*
X192316963Y-84597503D01*
X192425182Y-84626500D01*
X192425184Y-84626500D01*
X192537216Y-84626500D01*
X192537218Y-84626500D01*
X192645437Y-84597503D01*
X192645439Y-84597501D01*
X192645441Y-84597501D01*
X192674264Y-84580859D01*
X192742463Y-84541485D01*
X192821685Y-84462263D01*
X192877703Y-84365237D01*
X192906700Y-84257018D01*
X192906700Y-84144982D01*
X192897199Y-84109523D01*
X192900400Y-84048422D01*
X192938905Y-84000872D01*
X192992825Y-83984900D01*
X193315914Y-83984900D01*
X193315916Y-83984900D01*
X193364773Y-83978468D01*
X193472004Y-83928465D01*
X193555665Y-83844804D01*
X193566271Y-83822060D01*
X193583205Y-83803899D01*
X193597804Y-83783807D01*
X193603741Y-83781877D01*
X193607999Y-83777312D01*
X193655995Y-83764900D01*
X193750300Y-83764900D01*
X193808491Y-83783807D01*
X193844455Y-83833307D01*
X193849300Y-83863900D01*
X193849300Y-85331364D01*
X193849299Y-85331382D01*
X193849299Y-85337444D01*
X193849299Y-85490556D01*
X193861164Y-85534838D01*
X193881716Y-85611538D01*
X193888928Y-85638453D01*
X193888929Y-85638454D01*
X193965482Y-85771047D01*
X193965484Y-85771050D01*
X194073750Y-85879316D01*
X194073752Y-85879317D01*
X194816551Y-86622116D01*
X194830193Y-86629992D01*
X194949146Y-86698670D01*
X194949147Y-86698670D01*
X194949150Y-86698672D01*
X194969642Y-86704163D01*
X195014023Y-86729785D01*
X195269495Y-86985257D01*
X195269497Y-86985260D01*
X195365940Y-87081703D01*
X195426557Y-87116700D01*
X195484060Y-87149900D01*
X195615805Y-87185201D01*
X195615807Y-87185201D01*
X195758259Y-87185201D01*
X195758275Y-87185200D01*
X196624594Y-87185200D01*
X196624596Y-87185200D01*
X196677319Y-87171072D01*
X196702941Y-87167700D01*
X196809721Y-87167700D01*
X196867912Y-87186607D01*
X196903876Y-87236107D01*
X196903876Y-87297293D01*
X196879725Y-87336704D01*
X196371889Y-87844540D01*
X196371888Y-87844539D01*
X196315939Y-87900489D01*
X196276380Y-87969006D01*
X196273814Y-87978582D01*
X196269864Y-87993324D01*
X196236540Y-88044638D01*
X196179419Y-88066564D01*
X196174238Y-88066700D01*
X195935640Y-88066700D01*
X195901573Y-88071663D01*
X195867504Y-88076627D01*
X195755047Y-88131605D01*
X195754118Y-88129705D01*
X195707315Y-88144700D01*
X195562776Y-88144700D01*
X195504585Y-88125793D01*
X195492772Y-88115704D01*
X195491865Y-88114797D01*
X195491865Y-88114796D01*
X195408204Y-88031135D01*
X195408202Y-88031134D01*
X195408201Y-88031133D01*
X195300975Y-87981132D01*
X195268401Y-87976844D01*
X195252116Y-87974700D01*
X194803484Y-87974700D01*
X194787198Y-87976844D01*
X194754625Y-87981132D01*
X194754624Y-87981132D01*
X194647398Y-88031133D01*
X194563733Y-88114798D01*
X194513732Y-88222024D01*
X194513732Y-88222025D01*
X194510696Y-88245087D01*
X194507300Y-88270884D01*
X194507300Y-88619516D01*
X194510061Y-88640486D01*
X194513732Y-88668374D01*
X194513732Y-88668375D01*
X194563733Y-88775601D01*
X194563734Y-88775602D01*
X194563735Y-88775604D01*
X194647396Y-88859265D01*
X194647397Y-88859265D01*
X194647398Y-88859266D01*
X194754624Y-88909267D01*
X194754625Y-88909267D01*
X194754627Y-88909268D01*
X194803484Y-88915700D01*
X194803485Y-88915700D01*
X195252114Y-88915700D01*
X195252116Y-88915700D01*
X195300973Y-88909268D01*
X195408204Y-88859265D01*
X195471359Y-88796109D01*
X195525873Y-88768333D01*
X195586305Y-88777904D01*
X195629570Y-88821168D01*
X195630302Y-88822633D01*
X195679702Y-88923683D01*
X195762417Y-89006398D01*
X195816185Y-89032683D01*
X195867504Y-89057772D01*
X195867505Y-89057772D01*
X195867507Y-89057773D01*
X195935640Y-89067700D01*
X195935643Y-89067700D01*
X197177157Y-89067700D01*
X197177160Y-89067700D01*
X197245293Y-89057773D01*
X197350383Y-89006398D01*
X197396498Y-88960282D01*
X197451013Y-88932507D01*
X197511445Y-88942078D01*
X197554710Y-88985343D01*
X197565500Y-89030288D01*
X197565500Y-90056344D01*
X197546593Y-90114535D01*
X197536506Y-90126345D01*
X197525514Y-90137336D01*
X197469498Y-90234358D01*
X197469497Y-90234363D01*
X197440500Y-90342582D01*
X197440500Y-90454618D01*
X197466072Y-90550055D01*
X197469498Y-90562841D01*
X197520558Y-90651277D01*
X197525515Y-90659863D01*
X197604737Y-90739085D01*
X197604739Y-90739086D01*
X197701759Y-90795101D01*
X197701757Y-90795101D01*
X197701761Y-90795102D01*
X197701763Y-90795103D01*
X197809982Y-90824100D01*
X197809984Y-90824100D01*
X197922016Y-90824100D01*
X197922018Y-90824100D01*
X198030237Y-90795103D01*
X198030239Y-90795101D01*
X198030241Y-90795101D01*
X198081684Y-90765400D01*
X198127263Y-90739085D01*
X198206485Y-90659863D01*
X198262503Y-90562837D01*
X198291500Y-90454618D01*
X198291500Y-90342582D01*
X198262503Y-90234363D01*
X198262501Y-90234360D01*
X198262501Y-90234358D01*
X198206485Y-90137336D01*
X198195494Y-90126345D01*
X198167718Y-90071828D01*
X198166500Y-90056344D01*
X198166500Y-88962855D01*
X198185407Y-88904664D01*
X198195490Y-88892857D01*
X198257285Y-88831063D01*
X198304024Y-88750109D01*
X198313301Y-88734041D01*
X198313301Y-88734039D01*
X198313303Y-88734037D01*
X198342300Y-88625818D01*
X198342300Y-88513782D01*
X198313303Y-88405563D01*
X198313301Y-88405560D01*
X198313301Y-88405558D01*
X198261482Y-88315807D01*
X198257285Y-88308537D01*
X198242987Y-88294239D01*
X198215212Y-88239725D01*
X198224783Y-88179293D01*
X198268048Y-88136028D01*
X198318770Y-88125407D01*
X198328857Y-88125996D01*
X198363205Y-88135200D01*
X198486307Y-88135200D01*
X198489198Y-88135369D01*
X198515127Y-88145501D01*
X198541612Y-88154107D01*
X198545377Y-88157323D01*
X198546186Y-88157639D01*
X198546716Y-88158466D01*
X198553425Y-88164196D01*
X198677741Y-88288512D01*
X198705518Y-88343029D01*
X198695947Y-88403461D01*
X198677743Y-88428516D01*
X198655448Y-88450812D01*
X198638574Y-88467686D01*
X198587829Y-88576510D01*
X198587828Y-88576511D01*
X198581300Y-88626100D01*
X198581300Y-88985895D01*
X198581301Y-88985907D01*
X198587827Y-89035486D01*
X198587827Y-89035488D01*
X198638574Y-89144313D01*
X198638575Y-89144314D01*
X198638576Y-89144316D01*
X198723484Y-89229224D01*
X198832313Y-89279972D01*
X198881899Y-89286500D01*
X199301700Y-89286499D01*
X199351287Y-89279972D01*
X199351288Y-89279972D01*
X199412337Y-89251504D01*
X199460116Y-89229224D01*
X199545024Y-89144316D01*
X199595772Y-89035487D01*
X199602300Y-88985901D01*
X199602299Y-88626100D01*
X199595772Y-88576513D01*
X199595772Y-88576511D01*
X199545025Y-88467686D01*
X199545024Y-88467685D01*
X199545024Y-88467684D01*
X199460116Y-88382776D01*
X199460114Y-88382775D01*
X199460113Y-88382774D01*
X199449459Y-88377806D01*
X199404712Y-88336076D01*
X199392300Y-88288082D01*
X199392300Y-88238039D01*
X199392300Y-88238038D01*
X199383378Y-88204740D01*
X199383378Y-88204739D01*
X199383378Y-88204738D01*
X199371822Y-88161612D01*
X199371820Y-88161608D01*
X199332263Y-88093093D01*
X199332261Y-88093091D01*
X199332260Y-88093089D01*
X199326803Y-88087632D01*
X199299028Y-88033118D01*
X199307869Y-87974150D01*
X199308096Y-87973684D01*
X199308098Y-87973683D01*
X199359473Y-87868593D01*
X199369400Y-87800460D01*
X199369400Y-87452768D01*
X199388307Y-87394577D01*
X199398397Y-87382764D01*
X199483869Y-87297293D01*
X199668432Y-87112730D01*
X199772567Y-87008596D01*
X199827083Y-86980819D01*
X199842570Y-86979600D01*
X200369499Y-86979600D01*
X200418997Y-86992862D01*
X200510860Y-87045899D01*
X200642604Y-87081200D01*
X200642605Y-87081200D01*
X200778993Y-87081200D01*
X200778995Y-87081200D01*
X200831718Y-87067072D01*
X200857340Y-87063700D01*
X201022500Y-87063700D01*
X201080691Y-87082607D01*
X201116655Y-87132107D01*
X201121500Y-87162700D01*
X201121500Y-87601260D01*
X201123642Y-87615959D01*
X201131427Y-87669395D01*
X201173524Y-87755505D01*
X201182802Y-87774483D01*
X201265517Y-87857198D01*
X201309210Y-87878558D01*
X201370604Y-87908572D01*
X201370605Y-87908572D01*
X201370607Y-87908573D01*
X201438740Y-87918500D01*
X201438743Y-87918500D01*
X201805256Y-87918500D01*
X201805260Y-87918500D01*
X201806711Y-87918288D01*
X201807148Y-87918363D01*
X201808832Y-87918241D01*
X201808862Y-87918656D01*
X201867020Y-87928597D01*
X201909752Y-87972387D01*
X201920000Y-88016251D01*
X201920000Y-90930430D01*
X201901093Y-90988621D01*
X201891004Y-91000433D01*
X201515496Y-91375941D01*
X201447302Y-91494055D01*
X201429703Y-91559737D01*
X201416902Y-91607513D01*
X201412000Y-91625806D01*
X201412000Y-91762194D01*
X201426127Y-91814916D01*
X201429500Y-91840539D01*
X201429500Y-92420292D01*
X201437485Y-92450093D01*
X201463609Y-92547590D01*
X201529496Y-92661709D01*
X201529498Y-92661711D01*
X201529500Y-92661714D01*
X201622686Y-92754900D01*
X201622688Y-92754901D01*
X201622690Y-92754903D01*
X201736810Y-92820790D01*
X201736808Y-92820790D01*
X201736812Y-92820791D01*
X201736814Y-92820792D01*
X201864108Y-92854900D01*
X201864110Y-92854900D01*
X201995890Y-92854900D01*
X201995892Y-92854900D01*
X202123186Y-92820792D01*
X202123188Y-92820790D01*
X202123190Y-92820790D01*
X202237309Y-92754903D01*
X202237309Y-92754902D01*
X202237314Y-92754900D01*
X202330500Y-92661714D01*
X202336271Y-92651719D01*
X202396390Y-92547590D01*
X202396390Y-92547588D01*
X202396392Y-92547586D01*
X202430500Y-92420292D01*
X202430500Y-91967069D01*
X202449407Y-91908878D01*
X202459497Y-91897065D01*
X202617163Y-91739399D01*
X202852503Y-91504060D01*
X202875138Y-91464855D01*
X202876452Y-91462580D01*
X202911936Y-91401119D01*
X202920699Y-91385941D01*
X202956000Y-91254196D01*
X202956000Y-90185982D01*
X204019100Y-90185982D01*
X204019100Y-90298018D01*
X204027801Y-90330489D01*
X204048098Y-90406241D01*
X204097351Y-90491548D01*
X204104115Y-90503263D01*
X204183337Y-90582485D01*
X204242962Y-90616909D01*
X204283903Y-90662377D01*
X204292462Y-90702645D01*
X204292462Y-91001344D01*
X204273555Y-91059535D01*
X204263468Y-91071345D01*
X204252476Y-91082336D01*
X204196460Y-91179358D01*
X204196459Y-91179363D01*
X204167462Y-91287582D01*
X204167462Y-91399618D01*
X204188289Y-91477346D01*
X204196460Y-91507841D01*
X204241088Y-91585137D01*
X204252477Y-91604863D01*
X204331699Y-91684085D01*
X204336296Y-91686739D01*
X204428721Y-91740101D01*
X204428719Y-91740101D01*
X204428723Y-91740102D01*
X204428725Y-91740103D01*
X204536944Y-91769100D01*
X204536946Y-91769100D01*
X204648978Y-91769100D01*
X204648980Y-91769100D01*
X204757199Y-91740103D01*
X204757201Y-91740101D01*
X204757203Y-91740101D01*
X204786026Y-91723459D01*
X204854225Y-91684085D01*
X204933447Y-91604863D01*
X204989465Y-91507837D01*
X205018462Y-91399618D01*
X205018462Y-91287582D01*
X204989465Y-91179363D01*
X204989463Y-91179360D01*
X204989463Y-91179358D01*
X204933447Y-91082336D01*
X204922456Y-91071345D01*
X204894680Y-91016828D01*
X204893462Y-91001344D01*
X204893462Y-90350799D01*
X204890740Y-90340643D01*
X204888019Y-90330487D01*
X204879319Y-90298016D01*
X204873473Y-90276197D01*
X204870100Y-90250576D01*
X204870100Y-90185983D01*
X204870100Y-90185982D01*
X204841103Y-90077763D01*
X204841101Y-90077760D01*
X204841101Y-90077758D01*
X204785086Y-89980739D01*
X204785085Y-89980737D01*
X204705863Y-89901515D01*
X204705813Y-89901486D01*
X204608840Y-89845498D01*
X204608842Y-89845498D01*
X204566851Y-89834247D01*
X204500618Y-89816500D01*
X204388582Y-89816500D01*
X204322348Y-89834247D01*
X204280358Y-89845498D01*
X204183339Y-89901513D01*
X204104113Y-89980739D01*
X204048098Y-90077758D01*
X204035080Y-90126345D01*
X204019100Y-90185982D01*
X202956000Y-90185982D01*
X202956000Y-87568816D01*
X202942682Y-87519113D01*
X202920700Y-87437072D01*
X202907715Y-87414582D01*
X202879555Y-87365807D01*
X202879554Y-87365806D01*
X202852504Y-87318954D01*
X202852503Y-87318952D01*
X202756060Y-87222509D01*
X202756057Y-87222507D01*
X201729915Y-86196365D01*
X201695728Y-86176627D01*
X201606554Y-86125142D01*
X201605842Y-86124790D01*
X201557375Y-86096808D01*
X201514942Y-86085438D01*
X201430080Y-86062700D01*
X201430078Y-86062700D01*
X200980812Y-86062700D01*
X200931312Y-86049437D01*
X200927261Y-86047098D01*
X200927260Y-86047097D01*
X200919029Y-86042345D01*
X200919028Y-86042343D01*
X200809144Y-85978902D01*
X200809146Y-85978902D01*
X200758026Y-85965204D01*
X200677396Y-85943600D01*
X199518804Y-85943600D01*
X199500261Y-85948568D01*
X199465822Y-85957796D01*
X199404721Y-85954593D01*
X199374352Y-85930000D01*
X202751116Y-85930000D01*
X203503012Y-85930000D01*
X203485795Y-85939940D01*
X203429940Y-85995795D01*
X203390444Y-86064204D01*
X203370000Y-86140504D01*
X203370000Y-86219496D01*
X203390444Y-86295796D01*
X203429940Y-86364205D01*
X203485795Y-86420060D01*
X203503012Y-86430000D01*
X202751116Y-86430000D01*
X202756508Y-86457105D01*
X202828120Y-86629992D01*
X202828124Y-86630001D01*
X202932087Y-86785589D01*
X202932090Y-86785593D01*
X203064406Y-86917909D01*
X203064410Y-86917912D01*
X203219998Y-87021875D01*
X203220010Y-87021881D01*
X203392894Y-87093491D01*
X203576430Y-87129999D01*
X203576434Y-87130000D01*
X203969999Y-87130000D01*
X203970000Y-87129999D01*
X203970000Y-86480000D01*
X204470000Y-86480000D01*
X204470000Y-87090384D01*
X204451093Y-87148575D01*
X204420501Y-87176120D01*
X204397336Y-87189494D01*
X204397335Y-87189495D01*
X204299495Y-87287335D01*
X204230312Y-87407164D01*
X204194500Y-87540817D01*
X204194500Y-87679183D01*
X204230312Y-87812836D01*
X204299495Y-87932665D01*
X204397335Y-88030505D01*
X204517164Y-88099688D01*
X204650817Y-88135500D01*
X204650819Y-88135500D01*
X204789181Y-88135500D01*
X204789183Y-88135500D01*
X204922836Y-88099688D01*
X205042665Y-88030505D01*
X205140505Y-87932665D01*
X205209688Y-87812836D01*
X205245500Y-87679183D01*
X205245500Y-87540817D01*
X205209688Y-87407164D01*
X205140505Y-87287335D01*
X205080846Y-87227676D01*
X205053071Y-87173162D01*
X205062642Y-87112730D01*
X205105907Y-87069465D01*
X205112967Y-87066211D01*
X205219989Y-87021881D01*
X205220001Y-87021875D01*
X205375589Y-86917912D01*
X205375593Y-86917909D01*
X205507909Y-86785593D01*
X205507912Y-86785589D01*
X205611875Y-86630001D01*
X205611879Y-86629992D01*
X205683491Y-86457105D01*
X205688884Y-86430000D01*
X204936988Y-86430000D01*
X204954205Y-86420060D01*
X205010060Y-86364205D01*
X205049556Y-86295796D01*
X205070000Y-86219496D01*
X205070000Y-86140504D01*
X205049556Y-86064204D01*
X205010060Y-85995795D01*
X204954205Y-85939940D01*
X204936988Y-85930000D01*
X205688884Y-85930000D01*
X207081116Y-85930000D01*
X207833012Y-85930000D01*
X207815795Y-85939940D01*
X207759940Y-85995795D01*
X207720444Y-86064204D01*
X207700000Y-86140504D01*
X207700000Y-86219496D01*
X207720444Y-86295796D01*
X207759940Y-86364205D01*
X207815795Y-86420060D01*
X207833012Y-86430000D01*
X207081116Y-86430000D01*
X207086508Y-86457105D01*
X207158120Y-86629992D01*
X207158124Y-86630001D01*
X207262087Y-86785589D01*
X207262090Y-86785593D01*
X207394406Y-86917909D01*
X207394410Y-86917912D01*
X207549998Y-87021875D01*
X207550010Y-87021881D01*
X207722894Y-87093491D01*
X207906430Y-87129999D01*
X207906434Y-87130000D01*
X208149999Y-87130000D01*
X208150000Y-87129999D01*
X208150000Y-86480000D01*
X208650000Y-86480000D01*
X208650000Y-87129999D01*
X208650001Y-87130000D01*
X208893566Y-87130000D01*
X208893569Y-87129999D01*
X209077104Y-87093491D01*
X209077106Y-87093491D01*
X209249989Y-87021881D01*
X209250001Y-87021875D01*
X209405589Y-86917912D01*
X209405593Y-86917909D01*
X209537909Y-86785593D01*
X209537912Y-86785589D01*
X209641875Y-86630001D01*
X209641879Y-86629992D01*
X209713491Y-86457105D01*
X209718884Y-86430000D01*
X208966988Y-86430000D01*
X208984205Y-86420060D01*
X209040060Y-86364205D01*
X209079556Y-86295796D01*
X209100000Y-86219496D01*
X209100000Y-86140504D01*
X209079556Y-86064204D01*
X209040060Y-85995795D01*
X208984205Y-85939940D01*
X208966988Y-85930000D01*
X209718884Y-85930000D01*
X209713491Y-85902894D01*
X209641879Y-85730007D01*
X209641875Y-85729998D01*
X209537912Y-85574410D01*
X209537909Y-85574406D01*
X209405593Y-85442090D01*
X209405589Y-85442087D01*
X209250001Y-85338124D01*
X209249989Y-85338118D01*
X209077105Y-85266508D01*
X208893569Y-85230000D01*
X208650001Y-85230000D01*
X208650000Y-85230001D01*
X208650000Y-85880000D01*
X208150000Y-85880000D01*
X208150000Y-85230001D01*
X208149999Y-85230000D01*
X207906430Y-85230000D01*
X207722895Y-85266508D01*
X207722893Y-85266508D01*
X207550010Y-85338118D01*
X207549998Y-85338124D01*
X207394410Y-85442087D01*
X207394406Y-85442090D01*
X207262090Y-85574406D01*
X207262087Y-85574410D01*
X207158124Y-85729998D01*
X207158120Y-85730007D01*
X207086508Y-85902894D01*
X207081116Y-85930000D01*
X205688884Y-85930000D01*
X205683491Y-85902894D01*
X205611879Y-85730007D01*
X205611875Y-85729998D01*
X205507912Y-85574410D01*
X205507909Y-85574406D01*
X205375593Y-85442090D01*
X205375589Y-85442087D01*
X205220001Y-85338124D01*
X205219989Y-85338118D01*
X205047105Y-85266508D01*
X204863569Y-85230000D01*
X204470001Y-85230000D01*
X204470000Y-85230001D01*
X204470000Y-85880000D01*
X203970000Y-85880000D01*
X203970000Y-85230001D01*
X203969999Y-85230000D01*
X203576430Y-85230000D01*
X203392895Y-85266508D01*
X203392893Y-85266508D01*
X203220010Y-85338118D01*
X203219998Y-85338124D01*
X203064410Y-85442087D01*
X203064406Y-85442090D01*
X202932090Y-85574406D01*
X202932087Y-85574410D01*
X202828124Y-85729998D01*
X202828120Y-85730007D01*
X202756508Y-85902894D01*
X202751116Y-85930000D01*
X199374352Y-85930000D01*
X199357171Y-85916087D01*
X199341200Y-85862169D01*
X199341200Y-84192805D01*
X199341199Y-84192803D01*
X199328384Y-84144979D01*
X199320721Y-84116379D01*
X199316763Y-84109524D01*
X199281160Y-84047857D01*
X199225211Y-83991907D01*
X199225211Y-83991908D01*
X198966300Y-83732997D01*
X198941845Y-83685001D01*
X198940362Y-83685405D01*
X198938407Y-83678220D01*
X198922813Y-83642904D01*
X198894915Y-83579721D01*
X198818779Y-83503585D01*
X198720280Y-83460093D01*
X198720277Y-83460092D01*
X198720276Y-83460092D01*
X198696208Y-83457300D01*
X197760199Y-83457300D01*
X197760196Y-83457301D01*
X197736118Y-83460093D01*
X197637622Y-83503584D01*
X197637621Y-83503585D01*
X197561485Y-83579721D01*
X197528956Y-83653393D01*
X197517992Y-83678223D01*
X197515200Y-83702288D01*
X197515200Y-83963300D01*
X197515201Y-83963303D01*
X197517993Y-83987381D01*
X197542689Y-84043311D01*
X197543217Y-84048491D01*
X197546280Y-84052707D01*
X197546280Y-84078515D01*
X197548898Y-84104181D01*
X197546280Y-84108683D01*
X197546280Y-84113893D01*
X197531110Y-84134772D01*
X197518142Y-84157075D01*
X197513377Y-84159178D01*
X197510316Y-84163393D01*
X197485774Y-84171366D01*
X197462171Y-84181789D01*
X197452125Y-84182300D01*
X197329275Y-84182300D01*
X197271084Y-84163393D01*
X197235120Y-84113893D01*
X197235120Y-84052707D01*
X197238710Y-84043312D01*
X197263407Y-83987380D01*
X197266200Y-83963305D01*
X197266199Y-83702296D01*
X197263407Y-83678220D01*
X197219915Y-83579721D01*
X197143779Y-83503585D01*
X197045280Y-83460093D01*
X197045277Y-83460092D01*
X197045276Y-83460092D01*
X197021208Y-83457300D01*
X196085199Y-83457300D01*
X196085196Y-83457301D01*
X196061118Y-83460093D01*
X195962622Y-83503584D01*
X195962621Y-83503585D01*
X195886485Y-83579721D01*
X195853956Y-83653393D01*
X195842992Y-83678223D01*
X195840200Y-83702288D01*
X195840200Y-83963300D01*
X195840200Y-83963302D01*
X195840201Y-83963304D01*
X195842993Y-83987380D01*
X195842993Y-83987381D01*
X195843973Y-83990982D01*
X195843806Y-83994397D01*
X195843851Y-83994778D01*
X195843788Y-83994785D01*
X195841002Y-84052096D01*
X195802678Y-84099791D01*
X195743638Y-84115851D01*
X195686434Y-84094141D01*
X195678449Y-84086980D01*
X195662204Y-84070735D01*
X195662202Y-84070734D01*
X195662201Y-84070733D01*
X195554975Y-84020732D01*
X195522401Y-84016444D01*
X195506116Y-84014300D01*
X195111300Y-84014300D01*
X195053109Y-83995393D01*
X195017145Y-83945893D01*
X195012300Y-83915300D01*
X195012300Y-81970800D01*
X195031207Y-81912609D01*
X195080707Y-81876645D01*
X195111300Y-81871800D01*
X195530614Y-81871800D01*
X195530616Y-81871800D01*
X195579473Y-81865368D01*
X195686704Y-81815365D01*
X195749859Y-81752209D01*
X195804373Y-81724433D01*
X195864805Y-81734004D01*
X195908070Y-81777268D01*
X195908802Y-81778733D01*
X195958202Y-81879783D01*
X196040917Y-81962498D01*
X196083086Y-81983113D01*
X196146004Y-82013872D01*
X196146005Y-82013872D01*
X196146007Y-82013873D01*
X196214140Y-82023800D01*
X196214143Y-82023800D01*
X197455657Y-82023800D01*
X197455660Y-82023800D01*
X197523793Y-82013873D01*
X197628883Y-81962498D01*
X197711598Y-81879783D01*
X197762973Y-81774693D01*
X197772900Y-81706560D01*
X197772900Y-81340040D01*
X197762973Y-81271907D01*
X197760572Y-81266996D01*
X197726598Y-81197500D01*
X197711598Y-81166817D01*
X197628883Y-81084102D01*
X197627073Y-81083217D01*
X197523795Y-81032727D01*
X197513139Y-81031174D01*
X197495991Y-81028676D01*
X197441137Y-81001577D01*
X197412685Y-80947409D01*
X197421507Y-80886863D01*
X197440260Y-80860710D01*
X197603450Y-80697520D01*
X197657965Y-80669745D01*
X197718397Y-80679316D01*
X197761662Y-80722581D01*
X197771418Y-80753252D01*
X197781827Y-80824695D01*
X197830255Y-80923755D01*
X197833202Y-80929783D01*
X197915917Y-81012498D01*
X197958387Y-81033260D01*
X198021004Y-81063872D01*
X198021005Y-81063872D01*
X198021007Y-81063873D01*
X198089140Y-81073800D01*
X198467633Y-81073800D01*
X198517133Y-81087063D01*
X198573659Y-81119699D01*
X198705404Y-81155000D01*
X198825621Y-81155000D01*
X198833218Y-81157468D01*
X198841108Y-81156219D01*
X198861763Y-81166743D01*
X198883812Y-81173907D01*
X198895625Y-81183996D01*
X198956241Y-81244612D01*
X198984018Y-81299129D01*
X198974447Y-81359561D01*
X198956243Y-81384616D01*
X198933763Y-81407097D01*
X198917074Y-81423786D01*
X198866329Y-81532610D01*
X198866328Y-81532611D01*
X198859800Y-81582200D01*
X198859800Y-81941995D01*
X198859801Y-81942007D01*
X198866327Y-81991586D01*
X198866327Y-81991588D01*
X198917074Y-82100413D01*
X198917075Y-82100414D01*
X198917076Y-82100416D01*
X199001984Y-82185324D01*
X199110813Y-82236072D01*
X199160399Y-82242600D01*
X199580200Y-82242599D01*
X199629787Y-82236072D01*
X199629788Y-82236072D01*
X199704836Y-82201076D01*
X202751116Y-82201076D01*
X203503012Y-82201076D01*
X203485795Y-82211016D01*
X203429940Y-82266871D01*
X203390444Y-82335280D01*
X203370000Y-82411580D01*
X203370000Y-82490572D01*
X203390444Y-82566872D01*
X203429940Y-82635281D01*
X203485795Y-82691136D01*
X203503012Y-82701076D01*
X202751116Y-82701076D01*
X202756508Y-82728181D01*
X202828120Y-82901068D01*
X202828124Y-82901077D01*
X202932087Y-83056665D01*
X202932090Y-83056669D01*
X203064406Y-83188985D01*
X203064410Y-83188988D01*
X203219998Y-83292951D01*
X203220010Y-83292957D01*
X203392894Y-83364567D01*
X203576430Y-83401075D01*
X203576434Y-83401076D01*
X203969999Y-83401076D01*
X203970000Y-83401075D01*
X203970000Y-82751076D01*
X204470000Y-82751076D01*
X204470000Y-83401075D01*
X204470001Y-83401076D01*
X204863566Y-83401076D01*
X204863569Y-83401075D01*
X205047104Y-83364567D01*
X205047106Y-83364567D01*
X205219989Y-83292957D01*
X205220001Y-83292951D01*
X205375589Y-83188988D01*
X205375593Y-83188985D01*
X205507909Y-83056669D01*
X205507912Y-83056665D01*
X205611875Y-82901077D01*
X205611879Y-82901068D01*
X205683491Y-82728181D01*
X205688884Y-82701076D01*
X204936988Y-82701076D01*
X204954205Y-82691136D01*
X205010060Y-82635281D01*
X205049556Y-82566872D01*
X205070000Y-82490572D01*
X205070000Y-82411580D01*
X205049556Y-82335280D01*
X205010060Y-82266871D01*
X204954205Y-82211016D01*
X204936988Y-82201076D01*
X205688884Y-82201076D01*
X207081116Y-82201076D01*
X207833012Y-82201076D01*
X207815795Y-82211016D01*
X207759940Y-82266871D01*
X207720444Y-82335280D01*
X207700000Y-82411580D01*
X207700000Y-82490572D01*
X207720444Y-82566872D01*
X207759940Y-82635281D01*
X207815795Y-82691136D01*
X207833012Y-82701076D01*
X207081116Y-82701076D01*
X207086508Y-82728181D01*
X207158120Y-82901068D01*
X207158124Y-82901077D01*
X207262087Y-83056665D01*
X207262090Y-83056669D01*
X207394406Y-83188985D01*
X207394410Y-83188988D01*
X207549998Y-83292951D01*
X207550010Y-83292957D01*
X207722894Y-83364567D01*
X207906430Y-83401075D01*
X207906434Y-83401076D01*
X208149999Y-83401076D01*
X208150000Y-83401075D01*
X208150000Y-82751076D01*
X208650000Y-82751076D01*
X208650000Y-83401075D01*
X208650001Y-83401076D01*
X208893566Y-83401076D01*
X208893569Y-83401075D01*
X209077104Y-83364567D01*
X209077106Y-83364567D01*
X209249989Y-83292957D01*
X209250001Y-83292951D01*
X209405589Y-83188988D01*
X209405593Y-83188985D01*
X209537909Y-83056669D01*
X209537912Y-83056665D01*
X209641875Y-82901077D01*
X209641879Y-82901068D01*
X209713491Y-82728181D01*
X209718884Y-82701076D01*
X208966988Y-82701076D01*
X208984205Y-82691136D01*
X209040060Y-82635281D01*
X209079556Y-82566872D01*
X209100000Y-82490572D01*
X209100000Y-82411580D01*
X209079556Y-82335280D01*
X209040060Y-82266871D01*
X208984205Y-82211016D01*
X208966988Y-82201076D01*
X209718884Y-82201076D01*
X209713491Y-82173970D01*
X209641879Y-82001083D01*
X209641875Y-82001074D01*
X209537912Y-81845486D01*
X209537909Y-81845482D01*
X209405593Y-81713166D01*
X209405589Y-81713163D01*
X209250001Y-81609200D01*
X209249989Y-81609194D01*
X209077105Y-81537584D01*
X208893569Y-81501076D01*
X208650001Y-81501076D01*
X208650000Y-81501077D01*
X208650000Y-82151076D01*
X208150000Y-82151076D01*
X208150000Y-81501077D01*
X208149999Y-81501076D01*
X207906430Y-81501076D01*
X207722895Y-81537584D01*
X207722893Y-81537584D01*
X207550010Y-81609194D01*
X207549998Y-81609200D01*
X207394410Y-81713163D01*
X207394406Y-81713166D01*
X207262090Y-81845482D01*
X207262087Y-81845486D01*
X207158124Y-82001074D01*
X207158120Y-82001083D01*
X207086508Y-82173970D01*
X207081116Y-82201076D01*
X205688884Y-82201076D01*
X205683491Y-82173970D01*
X205611879Y-82001083D01*
X205611875Y-82001074D01*
X205507912Y-81845486D01*
X205507909Y-81845482D01*
X205375593Y-81713166D01*
X205375589Y-81713163D01*
X205220001Y-81609200D01*
X205219992Y-81609196D01*
X205112966Y-81564864D01*
X205066440Y-81525127D01*
X205052157Y-81465632D01*
X205075572Y-81409104D01*
X205080836Y-81403409D01*
X205140505Y-81343741D01*
X205209688Y-81223912D01*
X205245500Y-81090259D01*
X205245500Y-80951893D01*
X205209688Y-80818240D01*
X205140505Y-80698411D01*
X205042665Y-80600571D01*
X204922836Y-80531388D01*
X204789183Y-80495576D01*
X204650817Y-80495576D01*
X204517164Y-80531388D01*
X204397335Y-80600571D01*
X204299495Y-80698411D01*
X204230312Y-80818240D01*
X204194500Y-80951893D01*
X204194500Y-81090259D01*
X204230312Y-81223912D01*
X204299495Y-81343741D01*
X204397335Y-81441581D01*
X204420500Y-81454955D01*
X204461441Y-81500423D01*
X204470000Y-81540691D01*
X204470000Y-82151076D01*
X203970000Y-82151076D01*
X203970000Y-81501077D01*
X203969999Y-81501076D01*
X203576430Y-81501076D01*
X203392895Y-81537584D01*
X203392893Y-81537584D01*
X203220010Y-81609194D01*
X203219998Y-81609200D01*
X203064410Y-81713163D01*
X203064406Y-81713166D01*
X202932090Y-81845482D01*
X202932087Y-81845486D01*
X202828124Y-82001074D01*
X202828120Y-82001083D01*
X202756508Y-82173970D01*
X202751116Y-82201076D01*
X199704836Y-82201076D01*
X199730919Y-82188913D01*
X199738616Y-82185324D01*
X199823524Y-82100416D01*
X199874272Y-81991587D01*
X199880800Y-81942001D01*
X199880799Y-81582200D01*
X199874272Y-81532613D01*
X199874272Y-81532611D01*
X199823525Y-81423786D01*
X199823524Y-81423785D01*
X199823524Y-81423784D01*
X199738616Y-81338876D01*
X199738614Y-81338875D01*
X199738610Y-81338871D01*
X199733215Y-81335093D01*
X199696395Y-81286226D01*
X199695330Y-81225050D01*
X199730428Y-81174932D01*
X199788281Y-81155015D01*
X199790003Y-81155000D01*
X200920430Y-81155000D01*
X200978621Y-81173907D01*
X200990434Y-81183996D01*
X201048895Y-81242457D01*
X201048897Y-81242460D01*
X201145340Y-81338903D01*
X201172074Y-81354338D01*
X201263455Y-81407097D01*
X201263453Y-81407097D01*
X201263457Y-81407098D01*
X201263459Y-81407099D01*
X201395204Y-81442400D01*
X201395205Y-81442400D01*
X201395206Y-81442400D01*
X201947394Y-81442400D01*
X201947396Y-81442400D01*
X202079141Y-81407099D01*
X202079143Y-81407097D01*
X202079145Y-81407097D01*
X202118076Y-81384620D01*
X202197260Y-81338903D01*
X202293703Y-81242460D01*
X202359230Y-81128964D01*
X202361897Y-81124345D01*
X202361897Y-81124343D01*
X202361899Y-81124341D01*
X202391566Y-81013620D01*
X202424889Y-80962309D01*
X202439933Y-80952254D01*
X202450236Y-80946656D01*
X202475524Y-80939881D01*
X202593643Y-80871685D01*
X202690086Y-80775242D01*
X202744176Y-80681555D01*
X202758280Y-80657127D01*
X202758280Y-80657125D01*
X202758282Y-80657123D01*
X202793583Y-80525378D01*
X202793583Y-80388986D01*
X202758282Y-80257241D01*
X202758280Y-80257238D01*
X202758280Y-80257236D01*
X202692156Y-80142707D01*
X202690086Y-80139122D01*
X202593643Y-80042679D01*
X202593640Y-80042677D01*
X202522900Y-80001835D01*
X202481959Y-79956366D01*
X202473400Y-79916099D01*
X202473400Y-77835273D01*
X204241500Y-77835273D01*
X204241500Y-77940727D01*
X204264990Y-78028392D01*
X204268794Y-78042589D01*
X204268794Y-78042590D01*
X204324764Y-78139532D01*
X204323509Y-78140256D01*
X204341466Y-78190968D01*
X204341500Y-78193557D01*
X204341500Y-78572442D01*
X204324075Y-78626070D01*
X204324764Y-78626468D01*
X204322893Y-78629707D01*
X204322593Y-78630633D01*
X204321563Y-78632011D01*
X204268794Y-78723409D01*
X204268794Y-78723410D01*
X204268793Y-78723412D01*
X204268793Y-78723413D01*
X204241500Y-78825273D01*
X204241500Y-78930727D01*
X204268793Y-79032587D01*
X204268794Y-79032589D01*
X204268794Y-79032590D01*
X204289921Y-79069182D01*
X204321520Y-79123913D01*
X204396087Y-79198480D01*
X204487413Y-79251207D01*
X204589273Y-79278500D01*
X204589275Y-79278500D01*
X204694725Y-79278500D01*
X204694727Y-79278500D01*
X204796587Y-79251207D01*
X204887913Y-79198480D01*
X204962480Y-79123913D01*
X205015207Y-79032587D01*
X205042500Y-78930727D01*
X205042500Y-78825273D01*
X205015207Y-78723413D01*
X205012754Y-78719165D01*
X204959236Y-78626468D01*
X204960488Y-78625744D01*
X204942534Y-78575021D01*
X204942500Y-78572442D01*
X204942500Y-78193557D01*
X204959924Y-78139929D01*
X204959236Y-78139532D01*
X204961105Y-78136293D01*
X204961407Y-78135366D01*
X204962438Y-78133985D01*
X204963296Y-78132500D01*
X205015207Y-78042587D01*
X205042500Y-77940727D01*
X205042500Y-77835273D01*
X205015207Y-77733413D01*
X204962480Y-77642087D01*
X204887913Y-77567520D01*
X204796587Y-77514793D01*
X204694727Y-77487500D01*
X204589273Y-77487500D01*
X204487413Y-77514793D01*
X204487412Y-77514793D01*
X204487410Y-77514794D01*
X204487409Y-77514794D01*
X204396089Y-77567518D01*
X204321518Y-77642089D01*
X204268794Y-77733409D01*
X204268794Y-77733410D01*
X204268793Y-77733412D01*
X204268793Y-77733413D01*
X204241500Y-77835273D01*
X202473400Y-77835273D01*
X202473400Y-76131371D01*
X202486664Y-76081871D01*
X202548790Y-75974266D01*
X202548790Y-75974264D01*
X202548792Y-75974262D01*
X202582900Y-75846968D01*
X202582900Y-75715184D01*
X202548792Y-75587890D01*
X202548790Y-75587887D01*
X202548790Y-75587885D01*
X202482903Y-75473766D01*
X202482901Y-75473764D01*
X202482900Y-75473762D01*
X202389714Y-75380576D01*
X202389711Y-75380574D01*
X202389709Y-75380572D01*
X202275589Y-75314685D01*
X202269592Y-75312201D01*
X202270434Y-75310166D01*
X202236218Y-75290404D01*
X202181222Y-75235408D01*
X202181220Y-75235405D01*
X202034114Y-75088300D01*
X202034109Y-75088296D01*
X201919989Y-75022409D01*
X201919991Y-75022409D01*
X201870599Y-75009175D01*
X201792692Y-74988300D01*
X201610108Y-74988300D01*
X201532200Y-75009175D01*
X201482809Y-75022409D01*
X201368690Y-75088296D01*
X201275496Y-75181490D01*
X201209609Y-75295609D01*
X201175500Y-75422909D01*
X201175500Y-75549005D01*
X201156593Y-75607196D01*
X201107093Y-75643160D01*
X201102129Y-75644630D01*
X201024291Y-75665487D01*
X201024289Y-75665487D01*
X201024285Y-75665489D01*
X200927267Y-75721503D01*
X200848041Y-75800729D01*
X200792026Y-75897748D01*
X200763028Y-76005973D01*
X200763028Y-76118009D01*
X200764190Y-76122346D01*
X200760982Y-76183448D01*
X200738570Y-76217960D01*
X200730535Y-76225995D01*
X200730533Y-76225998D01*
X200680532Y-76333224D01*
X200680532Y-76333225D01*
X200676244Y-76365798D01*
X200674100Y-76382084D01*
X200674100Y-76830716D01*
X200677746Y-76858407D01*
X200680532Y-76879574D01*
X200680532Y-76879575D01*
X200730533Y-76986801D01*
X200730534Y-76986802D01*
X200730535Y-76986804D01*
X200814196Y-77070465D01*
X200814197Y-77070465D01*
X200814198Y-77070466D01*
X200921424Y-77120467D01*
X200921425Y-77120467D01*
X200921427Y-77120468D01*
X200970284Y-77126900D01*
X200970285Y-77126900D01*
X201318914Y-77126900D01*
X201318916Y-77126900D01*
X201367773Y-77120468D01*
X201475004Y-77070465D01*
X201522398Y-77023070D01*
X201576913Y-76995295D01*
X201637345Y-77004866D01*
X201680610Y-77048131D01*
X201691400Y-77093076D01*
X201691400Y-79840182D01*
X201672493Y-79898373D01*
X201622993Y-79934337D01*
X201592400Y-79939182D01*
X201287622Y-79939182D01*
X201223491Y-79956366D01*
X201155872Y-79974484D01*
X201037758Y-80042678D01*
X200990432Y-80090004D01*
X200935915Y-80117781D01*
X200920429Y-80119000D01*
X199717390Y-80119000D01*
X199659199Y-80100093D01*
X199623235Y-80050593D01*
X199619237Y-80007076D01*
X199619700Y-80003559D01*
X199619700Y-77148905D01*
X199619699Y-77148903D01*
X199615898Y-77134719D01*
X199599221Y-77072479D01*
X199598058Y-77070465D01*
X199559660Y-77003957D01*
X199503711Y-76948007D01*
X199503711Y-76948008D01*
X199244800Y-76689097D01*
X199220345Y-76641101D01*
X199218862Y-76641505D01*
X199216907Y-76634320D01*
X199177607Y-76545315D01*
X199173415Y-76535821D01*
X199097279Y-76459685D01*
X198998780Y-76416193D01*
X198998777Y-76416192D01*
X198998776Y-76416192D01*
X198974708Y-76413400D01*
X198038699Y-76413400D01*
X198038696Y-76413401D01*
X198014618Y-76416193D01*
X197916122Y-76459684D01*
X197839985Y-76535821D01*
X197796492Y-76634323D01*
X197793700Y-76658388D01*
X197793700Y-76919400D01*
X197793701Y-76919403D01*
X197796493Y-76943481D01*
X197821189Y-76999411D01*
X197821717Y-77004591D01*
X197824780Y-77008807D01*
X197824780Y-77034615D01*
X197827398Y-77060281D01*
X197824780Y-77064783D01*
X197824780Y-77069993D01*
X197809610Y-77090872D01*
X197796642Y-77113175D01*
X197791877Y-77115278D01*
X197788816Y-77119493D01*
X197764274Y-77127466D01*
X197740671Y-77137889D01*
X197730625Y-77138400D01*
X197607775Y-77138400D01*
X197549584Y-77119493D01*
X197513620Y-77069993D01*
X197513620Y-77008807D01*
X197517210Y-76999412D01*
X197541907Y-76943480D01*
X197544700Y-76919405D01*
X197544699Y-76658396D01*
X197541907Y-76634320D01*
X197498415Y-76535821D01*
X197422279Y-76459685D01*
X197323780Y-76416193D01*
X197323777Y-76416192D01*
X197323776Y-76416192D01*
X197299708Y-76413400D01*
X196363699Y-76413400D01*
X196363696Y-76413401D01*
X196339618Y-76416193D01*
X196241122Y-76459684D01*
X196164985Y-76535821D01*
X196121492Y-76634323D01*
X196118700Y-76658388D01*
X196118700Y-76919400D01*
X196118700Y-76919402D01*
X196118701Y-76919404D01*
X196121493Y-76943480D01*
X196121493Y-76943481D01*
X196122473Y-76947082D01*
X196122306Y-76950497D01*
X196122351Y-76950878D01*
X196122288Y-76950885D01*
X196119502Y-77008196D01*
X196081178Y-77055891D01*
X196022138Y-77071951D01*
X195964934Y-77050241D01*
X195956949Y-77043080D01*
X195940704Y-77026835D01*
X195940702Y-77026834D01*
X195940701Y-77026833D01*
X195833475Y-76976832D01*
X195800901Y-76972544D01*
X195784616Y-76970400D01*
X195335984Y-76970400D01*
X195319698Y-76972544D01*
X195287125Y-76976832D01*
X195287124Y-76976832D01*
X195179898Y-77026833D01*
X195096233Y-77110498D01*
X195046232Y-77217724D01*
X195046232Y-77217725D01*
X195046232Y-77217727D01*
X195039800Y-77266584D01*
X195039800Y-77615216D01*
X195042809Y-77638074D01*
X195046232Y-77664074D01*
X195046232Y-77664075D01*
X195096233Y-77771301D01*
X195096234Y-77771302D01*
X195096235Y-77771304D01*
X195179896Y-77854965D01*
X195179897Y-77854965D01*
X195179898Y-77854966D01*
X195287124Y-77904967D01*
X195287125Y-77904967D01*
X195287127Y-77904968D01*
X195335984Y-77911400D01*
X195335985Y-77911400D01*
X195784614Y-77911400D01*
X195784616Y-77911400D01*
X195833473Y-77904968D01*
X195940704Y-77854965D01*
X195955446Y-77840222D01*
X196009960Y-77812445D01*
X196070392Y-77822015D01*
X196113658Y-77865279D01*
X196123231Y-77925711D01*
X196121620Y-77933217D01*
X196118700Y-77958388D01*
X196118700Y-78219400D01*
X196118701Y-78219403D01*
X196121493Y-78243481D01*
X196156216Y-78322120D01*
X196164985Y-78341979D01*
X196235200Y-78412194D01*
X196239927Y-78421473D01*
X196248041Y-78427998D01*
X196253506Y-78448122D01*
X196262976Y-78466709D01*
X196261346Y-78476995D01*
X196264076Y-78487045D01*
X196257352Y-78502214D01*
X196253405Y-78527141D01*
X196242342Y-78544239D01*
X196238985Y-78548412D01*
X196191215Y-78596183D01*
X196167415Y-78637405D01*
X196162639Y-78643344D01*
X196143107Y-78656122D01*
X196125760Y-78671742D01*
X196116089Y-78673797D01*
X196111437Y-78676841D01*
X196103582Y-78676455D01*
X196085492Y-78680301D01*
X195630680Y-78680301D01*
X195572489Y-78661394D01*
X195560676Y-78651305D01*
X194563296Y-77653925D01*
X194535519Y-77599408D01*
X194534300Y-77583921D01*
X194534300Y-75659500D01*
X194553207Y-75601309D01*
X194602707Y-75565345D01*
X194633300Y-75560500D01*
X196559563Y-75560500D01*
X196559563Y-75560499D01*
X196635989Y-75540021D01*
X196704511Y-75500460D01*
X196732485Y-75472485D01*
X196760461Y-75444511D01*
X196994471Y-75210499D01*
X197069708Y-75135261D01*
X197124223Y-75107485D01*
X197177591Y-75113801D01*
X197313580Y-75170130D01*
X197516535Y-75210500D01*
X197516536Y-75210500D01*
X197723464Y-75210500D01*
X197723465Y-75210500D01*
X197926420Y-75170130D01*
X198117598Y-75090941D01*
X198289655Y-74975977D01*
X198435977Y-74829655D01*
X198550941Y-74657598D01*
X198630130Y-74466420D01*
X198670500Y-74263465D01*
X198670500Y-74056535D01*
X198630130Y-73853580D01*
X198550941Y-73662402D01*
X198435977Y-73490345D01*
X198425133Y-73479501D01*
X198397358Y-73424987D01*
X198406929Y-73364555D01*
X198450194Y-73321290D01*
X198495139Y-73310500D01*
X199284861Y-73310500D01*
X199343052Y-73329407D01*
G37*
%TD.AperFunction*%
%TA.AperFunction,Conductor*%
G36*
X173713487Y-80279786D02*
G01*
X173738701Y-80284459D01*
X173742407Y-80288365D01*
X173747569Y-80289896D01*
X173763168Y-80310241D01*
X173780819Y-80328841D01*
X173781521Y-80334179D01*
X173784798Y-80338452D01*
X173785459Y-80364078D01*
X173788807Y-80389502D01*
X173787091Y-80397085D01*
X173786174Y-80400508D01*
X173771500Y-80455273D01*
X173771500Y-80560727D01*
X173798793Y-80662587D01*
X173798794Y-80662589D01*
X173798794Y-80662590D01*
X173848515Y-80748709D01*
X173851520Y-80753913D01*
X173926087Y-80828480D01*
X174017413Y-80881207D01*
X174119273Y-80908500D01*
X174119275Y-80908500D01*
X174224725Y-80908500D01*
X174224727Y-80908500D01*
X174326587Y-80881207D01*
X174417913Y-80828480D01*
X174458090Y-80788302D01*
X174512604Y-80760526D01*
X174573036Y-80770097D01*
X174606633Y-80798038D01*
X174609248Y-80801446D01*
X174609249Y-80801447D01*
X174609251Y-80801450D01*
X174688473Y-80880672D01*
X174710697Y-80893503D01*
X174785495Y-80936688D01*
X174785493Y-80936688D01*
X174785497Y-80936689D01*
X174785499Y-80936690D01*
X174893718Y-80965687D01*
X174893720Y-80965687D01*
X175005752Y-80965687D01*
X175005754Y-80965687D01*
X175113973Y-80936690D01*
X175113975Y-80936688D01*
X175113977Y-80936688D01*
X175147982Y-80917055D01*
X175210999Y-80880672D01*
X175290221Y-80801450D01*
X175290222Y-80801447D01*
X175292003Y-80799667D01*
X175346519Y-80771889D01*
X175406952Y-80781460D01*
X175432007Y-80799663D01*
X175484135Y-80851791D01*
X175505987Y-80864407D01*
X175581157Y-80907807D01*
X175581155Y-80907807D01*
X175581159Y-80907808D01*
X175581161Y-80907809D01*
X175689380Y-80936806D01*
X175689382Y-80936806D01*
X175801414Y-80936806D01*
X175801416Y-80936806D01*
X175909635Y-80907809D01*
X176006661Y-80851791D01*
X176006662Y-80851789D01*
X176010155Y-80849773D01*
X176070004Y-80837051D01*
X176109153Y-80849771D01*
X176184898Y-80893503D01*
X176293117Y-80922500D01*
X176293119Y-80922500D01*
X176405151Y-80922500D01*
X176405153Y-80922500D01*
X176513372Y-80893503D01*
X176513374Y-80893501D01*
X176513376Y-80893501D01*
X176562292Y-80865259D01*
X176610398Y-80837485D01*
X176689620Y-80758263D01*
X176689621Y-80758260D01*
X176693252Y-80754630D01*
X176747768Y-80726852D01*
X176808201Y-80736423D01*
X176841798Y-80764365D01*
X176844518Y-80767910D01*
X176844520Y-80767913D01*
X176919087Y-80842480D01*
X177010413Y-80895207D01*
X177112273Y-80922500D01*
X177112275Y-80922500D01*
X177217726Y-80922500D01*
X177217727Y-80922500D01*
X177239876Y-80916565D01*
X177267953Y-80918036D01*
X177296092Y-80918036D01*
X177298278Y-80919624D01*
X177300975Y-80919766D01*
X177322823Y-80937457D01*
X177345592Y-80954000D01*
X177346427Y-80956570D01*
X177348526Y-80958270D01*
X177364499Y-81012191D01*
X177364499Y-81066536D01*
X177345592Y-81124727D01*
X177335502Y-81136540D01*
X177012931Y-81459109D01*
X177012932Y-81459110D01*
X177012930Y-81459112D01*
X177012929Y-81459111D01*
X176928308Y-81543733D01*
X176868474Y-81647368D01*
X176868473Y-81647369D01*
X176862280Y-81670478D01*
X176862281Y-81670479D01*
X176837499Y-81762967D01*
X176837499Y-81890613D01*
X176837500Y-81890626D01*
X176837500Y-83209732D01*
X176818593Y-83267923D01*
X176808504Y-83279736D01*
X175948936Y-84139304D01*
X175894419Y-84167081D01*
X175878932Y-84168300D01*
X173967668Y-84168300D01*
X173909477Y-84149393D01*
X173897664Y-84139304D01*
X173538896Y-83780536D01*
X173511119Y-83726019D01*
X173509900Y-83710532D01*
X173509900Y-83460310D01*
X173500518Y-83401076D01*
X173494119Y-83360674D01*
X173494116Y-83360669D01*
X173494116Y-83360667D01*
X173432929Y-83240582D01*
X173432928Y-83240580D01*
X173337620Y-83145272D01*
X173259185Y-83105307D01*
X173215922Y-83062044D01*
X173206351Y-83001612D01*
X173234129Y-82947095D01*
X173262288Y-82927377D01*
X173317516Y-82901624D01*
X173402424Y-82816716D01*
X173453172Y-82707887D01*
X173459700Y-82658301D01*
X173459699Y-82238500D01*
X173458104Y-82226386D01*
X173453172Y-82188913D01*
X173442975Y-82167044D01*
X173433700Y-82125206D01*
X173433700Y-81755591D01*
X173442976Y-81713751D01*
X173443249Y-81713166D01*
X173453172Y-81691887D01*
X173459700Y-81642301D01*
X173459699Y-81222500D01*
X173456828Y-81200692D01*
X173453172Y-81172913D01*
X173453172Y-81172911D01*
X173402425Y-81064086D01*
X173402424Y-81064085D01*
X173402424Y-81064084D01*
X173317516Y-80979176D01*
X173317514Y-80979175D01*
X173317513Y-80979174D01*
X173219658Y-80933544D01*
X173208688Y-80928428D01*
X173173191Y-80923755D01*
X173159101Y-80921900D01*
X173159100Y-80921900D01*
X173149059Y-80921900D01*
X173134147Y-80917055D01*
X173118466Y-80917055D01*
X173105780Y-80907838D01*
X173090868Y-80902993D01*
X173081651Y-80890307D01*
X173068966Y-80881091D01*
X173064120Y-80866178D01*
X173054904Y-80853493D01*
X173050059Y-80822900D01*
X173050059Y-80773557D01*
X173067482Y-80719932D01*
X173066793Y-80719535D01*
X173068665Y-80716291D01*
X173068966Y-80715366D01*
X173069993Y-80713990D01*
X173070035Y-80713916D01*
X173070039Y-80713913D01*
X173081876Y-80693408D01*
X173097603Y-80672912D01*
X173465021Y-80305496D01*
X173470989Y-80302455D01*
X173474786Y-80296935D01*
X173495842Y-80289791D01*
X173519537Y-80277719D01*
X173532470Y-80276533D01*
X173533749Y-80276500D01*
X173654316Y-80276500D01*
X173683711Y-80272630D01*
X173688910Y-80272496D01*
X173713487Y-80279786D01*
G37*
%TD.AperFunction*%
%TA.AperFunction,Conductor*%
G36*
X168178318Y-80864407D02*
G01*
X168190131Y-80874496D01*
X169487504Y-82171869D01*
X169515281Y-82226386D01*
X169516500Y-82241873D01*
X169516500Y-82505895D01*
X169516501Y-82505907D01*
X169523027Y-82555486D01*
X169523027Y-82555488D01*
X169573774Y-82664313D01*
X169573775Y-82664314D01*
X169573776Y-82664316D01*
X169658684Y-82749224D01*
X169767513Y-82799972D01*
X169817099Y-82806500D01*
X169826894Y-82806499D01*
X169841807Y-82811344D01*
X169857493Y-82811344D01*
X169870176Y-82820559D01*
X169885085Y-82825402D01*
X169894303Y-82838088D01*
X169906993Y-82847308D01*
X169911837Y-82862218D01*
X169921052Y-82874899D01*
X169925900Y-82905499D01*
X169925900Y-82986904D01*
X169906993Y-83045095D01*
X169857493Y-83081059D01*
X169799064Y-83081059D01*
X169798930Y-83081559D01*
X169797064Y-83081059D01*
X169796307Y-83081059D01*
X169794300Y-83080318D01*
X169792408Y-83079811D01*
X169690802Y-83052586D01*
X169690800Y-83052586D01*
X169643172Y-83052586D01*
X169584981Y-83033679D01*
X169573169Y-83023590D01*
X169225921Y-82676343D01*
X169225918Y-82676340D01*
X169220259Y-82673073D01*
X169192082Y-82656805D01*
X169157395Y-82636778D01*
X169080971Y-82616300D01*
X169080969Y-82616300D01*
X166809883Y-82616300D01*
X166751692Y-82597393D01*
X166715728Y-82547893D01*
X166715728Y-82486707D01*
X166724147Y-82467799D01*
X166766503Y-82394437D01*
X166795500Y-82286218D01*
X166795500Y-82174182D01*
X166766503Y-82065963D01*
X166766501Y-82065960D01*
X166766501Y-82065958D01*
X166716814Y-81979900D01*
X166710485Y-81968937D01*
X166631263Y-81889715D01*
X166629857Y-81888903D01*
X166534240Y-81833698D01*
X166534242Y-81833698D01*
X166465824Y-81815366D01*
X166426018Y-81804700D01*
X166313982Y-81804700D01*
X166219239Y-81830085D01*
X166158139Y-81826883D01*
X166110589Y-81788378D01*
X166094754Y-81729277D01*
X166110418Y-81683784D01*
X166110164Y-81683666D01*
X166111293Y-81681244D01*
X166112523Y-81677673D01*
X166113819Y-81675820D01*
X166113824Y-81675816D01*
X166164572Y-81566987D01*
X166171100Y-81517401D01*
X166171099Y-81097600D01*
X166170599Y-81093805D01*
X166166372Y-81061685D01*
X166164572Y-81048013D01*
X166135812Y-80986339D01*
X166128356Y-80925611D01*
X166158019Y-80872097D01*
X166213471Y-80846238D01*
X166225537Y-80845500D01*
X168120127Y-80845500D01*
X168178318Y-80864407D01*
G37*
%TD.AperFunction*%
%TA.AperFunction,Conductor*%
G36*
X138383052Y-73329407D02*
G01*
X138419016Y-73378907D01*
X138419016Y-73440093D01*
X138394866Y-73479501D01*
X138384023Y-73490345D01*
X138384020Y-73490348D01*
X138269058Y-73662402D01*
X138189869Y-73853581D01*
X138149500Y-74056532D01*
X138149500Y-74263467D01*
X138189869Y-74466418D01*
X138269058Y-74657597D01*
X138377953Y-74820571D01*
X138384023Y-74829655D01*
X138530345Y-74975977D01*
X138702402Y-75090941D01*
X138893580Y-75170130D01*
X139096535Y-75210500D01*
X139096536Y-75210500D01*
X139303464Y-75210500D01*
X139303465Y-75210500D01*
X139506420Y-75170130D01*
X139697598Y-75090941D01*
X139869655Y-74975977D01*
X140015977Y-74829655D01*
X140130941Y-74657598D01*
X140210130Y-74466420D01*
X140250500Y-74263465D01*
X140250500Y-74056535D01*
X140210130Y-73853580D01*
X140130941Y-73662402D01*
X140015977Y-73490345D01*
X140005133Y-73479501D01*
X139977358Y-73424987D01*
X139986929Y-73364555D01*
X140030194Y-73321290D01*
X140075139Y-73310500D01*
X140864861Y-73310500D01*
X140923052Y-73329407D01*
X140959016Y-73378907D01*
X140959016Y-73440093D01*
X140934866Y-73479501D01*
X140924023Y-73490345D01*
X140924020Y-73490348D01*
X140809058Y-73662402D01*
X140729869Y-73853581D01*
X140689500Y-74056532D01*
X140689500Y-74263467D01*
X140729869Y-74466418D01*
X140809058Y-74657597D01*
X140917953Y-74820571D01*
X140924023Y-74829655D01*
X141070345Y-74975977D01*
X141242402Y-75090941D01*
X141433580Y-75170130D01*
X141636535Y-75210500D01*
X141636536Y-75210500D01*
X141843464Y-75210500D01*
X141843465Y-75210500D01*
X142046420Y-75170130D01*
X142237598Y-75090941D01*
X142409655Y-74975977D01*
X142555977Y-74829655D01*
X142670941Y-74657598D01*
X142750130Y-74466420D01*
X142790500Y-74263465D01*
X142790500Y-74056535D01*
X142750130Y-73853580D01*
X142670941Y-73662402D01*
X142555977Y-73490345D01*
X142545133Y-73479501D01*
X142517358Y-73424987D01*
X142526929Y-73364555D01*
X142570194Y-73321290D01*
X142615139Y-73310500D01*
X145944861Y-73310500D01*
X146003052Y-73329407D01*
X146039016Y-73378907D01*
X146039016Y-73440093D01*
X146014866Y-73479501D01*
X146004023Y-73490345D01*
X146004020Y-73490348D01*
X145889058Y-73662402D01*
X145809869Y-73853581D01*
X145769500Y-74056532D01*
X145769500Y-74263467D01*
X145809869Y-74466418D01*
X145889058Y-74657597D01*
X145997953Y-74820571D01*
X146004023Y-74829655D01*
X146150345Y-74975977D01*
X146322402Y-75090941D01*
X146513580Y-75170130D01*
X146716535Y-75210500D01*
X146716536Y-75210500D01*
X146923464Y-75210500D01*
X146923465Y-75210500D01*
X147126420Y-75170130D01*
X147317598Y-75090941D01*
X147489655Y-74975977D01*
X147635977Y-74829655D01*
X147750941Y-74657598D01*
X147830130Y-74466420D01*
X147870500Y-74263465D01*
X147870500Y-74056535D01*
X147830130Y-73853580D01*
X147750941Y-73662402D01*
X147635977Y-73490345D01*
X147625133Y-73479501D01*
X147597358Y-73424987D01*
X147606929Y-73364555D01*
X147650194Y-73321290D01*
X147695139Y-73310500D01*
X148484861Y-73310500D01*
X148543052Y-73329407D01*
X148579016Y-73378907D01*
X148579016Y-73440093D01*
X148554866Y-73479501D01*
X148544023Y-73490345D01*
X148544020Y-73490348D01*
X148429058Y-73662402D01*
X148349869Y-73853581D01*
X148309500Y-74056532D01*
X148309500Y-74263467D01*
X148349869Y-74466418D01*
X148429058Y-74657597D01*
X148537953Y-74820571D01*
X148544023Y-74829655D01*
X148690345Y-74975977D01*
X148862402Y-75090941D01*
X149053580Y-75170130D01*
X149256535Y-75210500D01*
X149256536Y-75210500D01*
X149463464Y-75210500D01*
X149463465Y-75210500D01*
X149666420Y-75170130D01*
X149802405Y-75113802D01*
X149863399Y-75109002D01*
X149910292Y-75135263D01*
X154080540Y-79305511D01*
X154080539Y-79305511D01*
X154136489Y-79361460D01*
X154205007Y-79401019D01*
X154205011Y-79401021D01*
X154281435Y-79421499D01*
X154281437Y-79421500D01*
X154281438Y-79421500D01*
X154360562Y-79421500D01*
X162100152Y-79421500D01*
X162158343Y-79440407D01*
X162194307Y-79489907D01*
X162194307Y-79551093D01*
X162170156Y-79590504D01*
X161998489Y-79762171D01*
X161998488Y-79762170D01*
X161942539Y-79818120D01*
X161902980Y-79886638D01*
X161902978Y-79886642D01*
X161882500Y-79963066D01*
X161882500Y-81472039D01*
X161902977Y-81548460D01*
X161902979Y-81548465D01*
X161933836Y-81601911D01*
X161942538Y-81616983D01*
X161942540Y-81616986D01*
X162361889Y-82036335D01*
X162772850Y-82447296D01*
X162800627Y-82501813D01*
X162791056Y-82562245D01*
X162747791Y-82605510D01*
X162702846Y-82616300D01*
X145582279Y-82616300D01*
X145524088Y-82597393D01*
X145512275Y-82587304D01*
X137635263Y-74710292D01*
X137607486Y-74655775D01*
X137613802Y-74602405D01*
X137670130Y-74466420D01*
X137710500Y-74263465D01*
X137710500Y-74056535D01*
X137670130Y-73853580D01*
X137590941Y-73662402D01*
X137475977Y-73490345D01*
X137465133Y-73479501D01*
X137437358Y-73424987D01*
X137446929Y-73364555D01*
X137490194Y-73321290D01*
X137535139Y-73310500D01*
X138324861Y-73310500D01*
X138383052Y-73329407D01*
G37*
%TD.AperFunction*%
%TA.AperFunction,Conductor*%
G36*
X162737444Y-80845500D02*
G01*
X164195663Y-80845500D01*
X164253854Y-80864407D01*
X164289818Y-80913907D01*
X164289818Y-80975093D01*
X164285387Y-80986339D01*
X164256628Y-81048010D01*
X164256628Y-81048011D01*
X164255316Y-81057976D01*
X164250600Y-81093805D01*
X164250100Y-81097600D01*
X164250100Y-81517396D01*
X164250101Y-81517407D01*
X164256627Y-81566986D01*
X164301707Y-81663659D01*
X164309164Y-81724389D01*
X164279501Y-81777903D01*
X164224048Y-81803761D01*
X164211983Y-81804499D01*
X164132583Y-81804499D01*
X164024364Y-81833496D01*
X164024362Y-81833496D01*
X164024362Y-81833497D01*
X163990300Y-81853162D01*
X163930451Y-81865881D01*
X163898964Y-81857149D01*
X163849178Y-81833934D01*
X163849176Y-81833933D01*
X163849173Y-81833932D01*
X163800316Y-81827500D01*
X163351684Y-81827500D01*
X163335398Y-81829644D01*
X163302825Y-81833932D01*
X163302824Y-81833932D01*
X163195598Y-81883933D01*
X163188501Y-81888903D01*
X163187318Y-81887213D01*
X163142977Y-81909794D01*
X163082547Y-81900208D01*
X163057509Y-81882013D01*
X162512496Y-81337000D01*
X162484719Y-81282483D01*
X162483500Y-81266996D01*
X162483500Y-80906475D01*
X162502407Y-80848284D01*
X162551907Y-80812320D01*
X162608120Y-80810848D01*
X162737444Y-80845500D01*
G37*
%TD.AperFunction*%
%TA.AperFunction,Conductor*%
G36*
X170234742Y-79669568D02*
G01*
X170242632Y-79668319D01*
X170263287Y-79678843D01*
X170285336Y-79686007D01*
X170297142Y-79696090D01*
X170308137Y-79707085D01*
X170320206Y-79714053D01*
X170405159Y-79763101D01*
X170405157Y-79763101D01*
X170405161Y-79763102D01*
X170405163Y-79763103D01*
X170513382Y-79792100D01*
X170513384Y-79792100D01*
X170625417Y-79792100D01*
X170625418Y-79792100D01*
X170669277Y-79780348D01*
X170730378Y-79783549D01*
X170777928Y-79822054D01*
X170793900Y-79875974D01*
X170793900Y-81052538D01*
X170814377Y-81128959D01*
X170814379Y-81128964D01*
X170840258Y-81173788D01*
X170853938Y-81197482D01*
X170853940Y-81197485D01*
X171098855Y-81442400D01*
X171342230Y-81685775D01*
X171370007Y-81740292D01*
X171360436Y-81800724D01*
X171317171Y-81843989D01*
X171272226Y-81854779D01*
X170856153Y-81854779D01*
X170797962Y-81835872D01*
X170786149Y-81825783D01*
X169844534Y-80884168D01*
X168900868Y-79940503D01*
X168873092Y-79885987D01*
X168882663Y-79825555D01*
X168925928Y-79782290D01*
X168970873Y-79771500D01*
X169468076Y-79771500D01*
X169468076Y-79771499D01*
X169544502Y-79751021D01*
X169613024Y-79711460D01*
X169628389Y-79696094D01*
X169682904Y-79668319D01*
X169698391Y-79667100D01*
X170227145Y-79667100D01*
X170234742Y-79669568D01*
G37*
%TD.AperFunction*%
%TA.AperFunction,Conductor*%
G36*
X193892491Y-75579407D02*
G01*
X193928455Y-75628907D01*
X193933300Y-75659500D01*
X193933300Y-77788964D01*
X193953778Y-77865388D01*
X193983094Y-77916163D01*
X193983095Y-77916166D01*
X193993336Y-77933905D01*
X193993337Y-77933907D01*
X193993340Y-77933911D01*
X194602258Y-78542829D01*
X195207626Y-79148197D01*
X195235403Y-79202714D01*
X195225832Y-79263146D01*
X195207626Y-79288205D01*
X195121108Y-79374723D01*
X195121106Y-79374725D01*
X194073752Y-80422079D01*
X194073750Y-80422081D01*
X194073749Y-80422080D01*
X193965483Y-80530347D01*
X193891637Y-80658251D01*
X193891626Y-80658273D01*
X193889915Y-80661237D01*
X193888928Y-80662946D01*
X193888423Y-80664829D01*
X193885265Y-80671295D01*
X193866011Y-80691205D01*
X193848036Y-80712249D01*
X193844944Y-80712991D01*
X193842732Y-80715279D01*
X193815453Y-80720069D01*
X193788541Y-80726529D01*
X193785602Y-80725311D01*
X193782469Y-80725862D01*
X193757585Y-80713704D01*
X193732014Y-80703111D01*
X193727653Y-80699081D01*
X193727494Y-80699003D01*
X193727421Y-80698866D01*
X193726310Y-80697839D01*
X193483496Y-80455025D01*
X193455719Y-80400508D01*
X193454500Y-80385021D01*
X193454500Y-80156185D01*
X193454287Y-80154565D01*
X193448068Y-80107327D01*
X193440049Y-80090131D01*
X193398066Y-80000098D01*
X193398065Y-80000097D01*
X193398065Y-80000096D01*
X193314404Y-79916435D01*
X193314402Y-79916434D01*
X193314401Y-79916433D01*
X193207175Y-79866432D01*
X193174601Y-79862144D01*
X193158316Y-79860000D01*
X193158315Y-79860000D01*
X192929479Y-79860000D01*
X192871288Y-79841093D01*
X192859475Y-79831004D01*
X192574971Y-79546500D01*
X192290011Y-79261540D01*
X192276863Y-79253949D01*
X192276860Y-79253947D01*
X192276860Y-79253946D01*
X192221489Y-79221979D01*
X192221485Y-79221977D01*
X192145064Y-79201500D01*
X192145062Y-79201500D01*
X191781238Y-79201500D01*
X191781235Y-79201500D01*
X191704814Y-79221977D01*
X191704810Y-79221979D01*
X191649439Y-79253946D01*
X191649440Y-79253947D01*
X191636288Y-79261540D01*
X191342324Y-79555504D01*
X191287808Y-79583281D01*
X191272321Y-79584500D01*
X191256782Y-79584500D01*
X191190548Y-79602247D01*
X191148558Y-79613498D01*
X191051539Y-79669513D01*
X190972313Y-79748739D01*
X190916298Y-79845758D01*
X190905137Y-79887413D01*
X190887300Y-79953982D01*
X190887300Y-80066018D01*
X190908623Y-80145598D01*
X190916298Y-80174241D01*
X190964219Y-80257241D01*
X190972315Y-80271263D01*
X191051537Y-80350485D01*
X191061086Y-80355998D01*
X191148559Y-80406501D01*
X191148557Y-80406501D01*
X191148561Y-80406502D01*
X191148563Y-80406503D01*
X191256782Y-80435500D01*
X191256784Y-80435500D01*
X191368816Y-80435500D01*
X191368818Y-80435500D01*
X191477037Y-80406503D01*
X191477039Y-80406501D01*
X191477041Y-80406501D01*
X191521703Y-80380715D01*
X191574063Y-80350485D01*
X191653285Y-80271263D01*
X191705666Y-80180537D01*
X191709301Y-80174241D01*
X191709301Y-80174239D01*
X191709303Y-80174237D01*
X191738300Y-80066018D01*
X191738300Y-80050479D01*
X191740768Y-80042881D01*
X191739519Y-80034992D01*
X191750043Y-80014336D01*
X191757207Y-79992288D01*
X191767296Y-79980475D01*
X191893146Y-79854625D01*
X191947663Y-79826848D01*
X192008095Y-79836419D01*
X192033154Y-79854625D01*
X192484504Y-80305975D01*
X192512281Y-80360492D01*
X192513500Y-80375979D01*
X192513500Y-80604816D01*
X192513888Y-80607763D01*
X192519932Y-80653674D01*
X192519932Y-80653675D01*
X192569933Y-80760901D01*
X192569934Y-80760902D01*
X192569935Y-80760904D01*
X192653596Y-80844565D01*
X192653597Y-80844565D01*
X192653599Y-80844567D01*
X192660691Y-80849533D01*
X192659908Y-80850650D01*
X192666514Y-80852900D01*
X192678532Y-80869942D01*
X192693788Y-80884168D01*
X192695775Y-80894391D01*
X192701777Y-80902902D01*
X192701483Y-80923755D01*
X192705463Y-80944230D01*
X192701061Y-80953668D01*
X192700915Y-80964081D01*
X192688490Y-80980627D01*
X192679605Y-80999683D01*
X192664258Y-81013070D01*
X192659691Y-81016290D01*
X192659596Y-81016335D01*
X192659518Y-81016412D01*
X192652581Y-81021305D01*
X192631071Y-81027960D01*
X192611011Y-81038181D01*
X192595524Y-81039400D01*
X192337727Y-81039400D01*
X192295888Y-81030124D01*
X192246789Y-81007228D01*
X192221994Y-81003964D01*
X192197201Y-81000700D01*
X192197199Y-81000700D01*
X191777403Y-81000700D01*
X191777392Y-81000701D01*
X191727813Y-81007227D01*
X191727811Y-81007227D01*
X191618986Y-81057974D01*
X191618982Y-81057977D01*
X191593741Y-81083217D01*
X191549365Y-81108837D01*
X191519480Y-81116845D01*
X191519475Y-81116847D01*
X191430320Y-81168321D01*
X191314306Y-81284334D01*
X191259789Y-81312111D01*
X191199357Y-81302539D01*
X191174299Y-81284334D01*
X190891719Y-81001754D01*
X190891718Y-81001752D01*
X190783452Y-80893486D01*
X190650853Y-80816930D01*
X190649200Y-80816487D01*
X190647888Y-80816135D01*
X190640791Y-80814233D01*
X190589480Y-80780904D01*
X190567559Y-80723780D01*
X190580687Y-80669110D01*
X190617103Y-80606037D01*
X190646100Y-80497818D01*
X190646100Y-80385782D01*
X190617103Y-80277563D01*
X190617101Y-80277560D01*
X190617101Y-80277558D01*
X190561085Y-80180536D01*
X190550094Y-80169545D01*
X190522318Y-80115028D01*
X190521100Y-80099544D01*
X190521100Y-78829279D01*
X190540007Y-78771088D01*
X190550096Y-78759275D01*
X192146875Y-77162496D01*
X192201392Y-77134719D01*
X192216879Y-77133500D01*
X192232416Y-77133500D01*
X192232418Y-77133500D01*
X192340637Y-77104503D01*
X192340639Y-77104501D01*
X192340641Y-77104501D01*
X192396111Y-77072475D01*
X192437663Y-77048485D01*
X192516885Y-76969263D01*
X192559291Y-76895814D01*
X192572901Y-76872241D01*
X192572901Y-76872239D01*
X192572903Y-76872237D01*
X192601900Y-76764018D01*
X192601900Y-76651982D01*
X192572903Y-76543763D01*
X192572901Y-76543760D01*
X192572901Y-76543758D01*
X192524360Y-76459684D01*
X192516885Y-76446737D01*
X192437663Y-76367515D01*
X192385333Y-76337302D01*
X192340640Y-76311498D01*
X192340642Y-76311498D01*
X192292273Y-76298538D01*
X192232418Y-76282500D01*
X192120382Y-76282500D01*
X192060527Y-76298538D01*
X192012158Y-76311498D01*
X191915139Y-76367513D01*
X191835913Y-76446739D01*
X191779898Y-76543758D01*
X191764573Y-76600955D01*
X191755633Y-76634320D01*
X191750900Y-76651983D01*
X191750900Y-76667521D01*
X191731993Y-76725712D01*
X191721904Y-76737525D01*
X190036089Y-78423340D01*
X190036088Y-78423339D01*
X189980139Y-78479289D01*
X189940580Y-78547807D01*
X189940578Y-78547811D01*
X189920100Y-78624235D01*
X189920100Y-80099544D01*
X189901193Y-80157735D01*
X189891106Y-80169545D01*
X189880114Y-80180536D01*
X189824098Y-80277558D01*
X189811467Y-80324698D01*
X189795100Y-80385782D01*
X189795100Y-80497818D01*
X189823770Y-80604816D01*
X189824098Y-80606039D01*
X189837240Y-80628801D01*
X189849962Y-80688649D01*
X189825076Y-80744545D01*
X189772089Y-80775138D01*
X189751504Y-80777302D01*
X180802642Y-80777302D01*
X180744451Y-80758395D01*
X180708487Y-80708895D01*
X180703642Y-80678302D01*
X180703642Y-80606410D01*
X180703641Y-80606408D01*
X180703214Y-80604816D01*
X180672668Y-80490817D01*
X180612831Y-80387178D01*
X180528210Y-80302557D01*
X180528207Y-80302555D01*
X180424570Y-80242719D01*
X180308979Y-80211746D01*
X180308977Y-80211746D01*
X180189305Y-80211746D01*
X180113669Y-80232013D01*
X180073706Y-80242721D01*
X179970072Y-80302555D01*
X179806932Y-80465695D01*
X179806926Y-80465699D01*
X179722308Y-80550318D01*
X179662474Y-80653953D01*
X179662473Y-80653955D01*
X179661322Y-80658251D01*
X179659465Y-80665182D01*
X179631499Y-80769552D01*
X179631499Y-80814578D01*
X179629775Y-80823696D01*
X179619319Y-80842787D01*
X179612592Y-80863493D01*
X179604932Y-80869057D01*
X179600386Y-80877360D01*
X179580706Y-80886659D01*
X179563092Y-80899457D01*
X179548851Y-80901712D01*
X179545066Y-80903501D01*
X179541643Y-80902853D01*
X179532499Y-80904302D01*
X179409194Y-80904302D01*
X179367355Y-80895026D01*
X179345493Y-80884831D01*
X179345490Y-80884830D01*
X179308297Y-80879934D01*
X179295901Y-80878302D01*
X179295900Y-80878302D01*
X178951731Y-80878302D01*
X178893540Y-80859395D01*
X178857576Y-80809895D01*
X178857576Y-80748709D01*
X178865992Y-80729806D01*
X178894503Y-80680425D01*
X178923500Y-80572206D01*
X178923500Y-80460170D01*
X178894503Y-80351951D01*
X178894501Y-80351948D01*
X178894501Y-80351946D01*
X178838764Y-80255407D01*
X178825500Y-80205907D01*
X178825500Y-79588914D01*
X178844407Y-79530723D01*
X178893907Y-79494759D01*
X178937424Y-79490761D01*
X178937509Y-79490772D01*
X178937513Y-79490774D01*
X178987099Y-79497302D01*
X179406900Y-79497301D01*
X179456487Y-79490774D01*
X179456488Y-79490774D01*
X179526254Y-79458241D01*
X179565316Y-79440026D01*
X179650224Y-79355118D01*
X179674454Y-79303155D01*
X179716181Y-79258408D01*
X179776242Y-79246733D01*
X179831695Y-79272590D01*
X179849914Y-79295494D01*
X179855698Y-79305511D01*
X179870922Y-79331880D01*
X179968560Y-79429518D01*
X179992875Y-79443556D01*
X180057715Y-79480992D01*
X180057713Y-79480992D01*
X180057717Y-79480993D01*
X180057719Y-79480994D01*
X180157164Y-79507640D01*
X180157166Y-79507640D01*
X180578785Y-79507640D01*
X180578785Y-79510408D01*
X180627508Y-79519420D01*
X180669641Y-79563788D01*
X180679300Y-79606440D01*
X180679300Y-79687716D01*
X180685732Y-79736576D01*
X180685732Y-79736577D01*
X180735733Y-79843803D01*
X180735734Y-79843804D01*
X180735735Y-79843806D01*
X180819396Y-79927467D01*
X180819397Y-79927467D01*
X180819398Y-79927468D01*
X180926624Y-79977469D01*
X180926625Y-79977469D01*
X180926627Y-79977470D01*
X180975484Y-79983902D01*
X180975485Y-79983902D01*
X181424114Y-79983902D01*
X181424116Y-79983902D01*
X181472973Y-79977470D01*
X181580204Y-79927467D01*
X181663865Y-79843806D01*
X181713868Y-79736575D01*
X181720300Y-79687718D01*
X181720300Y-79550290D01*
X181722768Y-79542692D01*
X181721519Y-79534804D01*
X181732042Y-79514148D01*
X181739207Y-79492099D01*
X181749285Y-79480298D01*
X181786142Y-79443441D01*
X181806638Y-79427715D01*
X181825580Y-79416780D01*
X182173178Y-79069182D01*
X182184112Y-79050240D01*
X182199849Y-79029733D01*
X182205783Y-79023800D01*
X182212889Y-79016694D01*
X182267407Y-78988918D01*
X182282890Y-78987700D01*
X182351816Y-78987700D01*
X182351818Y-78987700D01*
X182460037Y-78958703D01*
X182460039Y-78958701D01*
X182460041Y-78958701D01*
X182493440Y-78939418D01*
X182557063Y-78902685D01*
X182636285Y-78823463D01*
X182692303Y-78726437D01*
X182721300Y-78618218D01*
X182721300Y-78506182D01*
X182692303Y-78397963D01*
X182692301Y-78397960D01*
X182692301Y-78397958D01*
X182636286Y-78300939D01*
X182636285Y-78300937D01*
X182557063Y-78221715D01*
X182557060Y-78221713D01*
X182460040Y-78165698D01*
X182460042Y-78165698D01*
X182415984Y-78153893D01*
X182351818Y-78136700D01*
X182239782Y-78136700D01*
X182131563Y-78165697D01*
X182131561Y-78165697D01*
X182125295Y-78167377D01*
X182124915Y-78165960D01*
X182098586Y-78171200D01*
X182062950Y-78171200D01*
X181963506Y-78197846D01*
X181926165Y-78219405D01*
X181874343Y-78249324D01*
X181858227Y-78265440D01*
X181803710Y-78293217D01*
X181743278Y-78283644D01*
X181700014Y-78240378D01*
X181698501Y-78237274D01*
X181663866Y-78163000D01*
X181663865Y-78162999D01*
X181663865Y-78162998D01*
X181580204Y-78079337D01*
X181580202Y-78079336D01*
X181580201Y-78079335D01*
X181472975Y-78029334D01*
X181440401Y-78025046D01*
X181424116Y-78022902D01*
X180975484Y-78022902D01*
X180959198Y-78025046D01*
X180926625Y-78029334D01*
X180926624Y-78029334D01*
X180819398Y-78079335D01*
X180812301Y-78084305D01*
X180810101Y-78081163D01*
X180770811Y-78101183D01*
X180755324Y-78102402D01*
X180354874Y-78102402D01*
X180251922Y-78102402D01*
X180152477Y-78129048D01*
X180152476Y-78129048D01*
X180152183Y-78129127D01*
X180126561Y-78132500D01*
X179973904Y-78132500D01*
X179973892Y-78132501D01*
X179924313Y-78139027D01*
X179924311Y-78139027D01*
X179815486Y-78189774D01*
X179730574Y-78274686D01*
X179679829Y-78383510D01*
X179679828Y-78383511D01*
X179673300Y-78433100D01*
X179673300Y-78488532D01*
X179654393Y-78546723D01*
X179604893Y-78582687D01*
X179543707Y-78582687D01*
X179532462Y-78578257D01*
X179456487Y-78542830D01*
X179456488Y-78542830D01*
X179439958Y-78540654D01*
X179406901Y-78536302D01*
X179406899Y-78536302D01*
X178987103Y-78536302D01*
X178987092Y-78536303D01*
X178937513Y-78542829D01*
X178937511Y-78542829D01*
X178828686Y-78593576D01*
X178828683Y-78593578D01*
X178761955Y-78660306D01*
X178754838Y-78663931D01*
X178750143Y-78670395D01*
X178728091Y-78677559D01*
X178707438Y-78688083D01*
X178691952Y-78689302D01*
X178686048Y-78689302D01*
X178627857Y-78670395D01*
X178616045Y-78660306D01*
X178549316Y-78593578D01*
X178549313Y-78593576D01*
X178451160Y-78547807D01*
X178440488Y-78542830D01*
X178423958Y-78540654D01*
X178390901Y-78536302D01*
X178390899Y-78536302D01*
X177971103Y-78536302D01*
X177971092Y-78536303D01*
X177921513Y-78542829D01*
X177904203Y-78550901D01*
X177898008Y-78551661D01*
X177892958Y-78555331D01*
X177868120Y-78555331D01*
X177843473Y-78558357D01*
X177838014Y-78555331D01*
X177831772Y-78555331D01*
X177811679Y-78540732D01*
X177789960Y-78528693D01*
X177787322Y-78523036D01*
X177782272Y-78519367D01*
X177774596Y-78495743D01*
X177764103Y-78473239D01*
X177763365Y-78461176D01*
X177763365Y-78438490D01*
X177763366Y-78438477D01*
X177763366Y-78310831D01*
X177737720Y-78215121D01*
X177737719Y-78215120D01*
X177734978Y-78204888D01*
X177732392Y-78195236D01*
X177687566Y-78117595D01*
X177686459Y-78115442D01*
X177684660Y-78104358D01*
X177675499Y-78070166D01*
X177675499Y-78046905D01*
X177675498Y-78046894D01*
X177668972Y-77997315D01*
X177668972Y-77997313D01*
X177618225Y-77888488D01*
X177618224Y-77888487D01*
X177618224Y-77888486D01*
X177533316Y-77803578D01*
X177533314Y-77803577D01*
X177533313Y-77803576D01*
X177424489Y-77752831D01*
X177424488Y-77752830D01*
X177398395Y-77749395D01*
X177374901Y-77746302D01*
X177374900Y-77746302D01*
X176989986Y-77746302D01*
X176931795Y-77727395D01*
X176895831Y-77677895D01*
X176894367Y-77672953D01*
X176885021Y-77638074D01*
X176845460Y-77569552D01*
X176843426Y-77567518D01*
X176789511Y-77513602D01*
X176789511Y-77513603D01*
X176680636Y-77404728D01*
X176652859Y-77350211D01*
X176662430Y-77289779D01*
X176687993Y-77258067D01*
X176694197Y-77252996D01*
X176740463Y-77226285D01*
X176801180Y-77165566D01*
X176805021Y-77162428D01*
X176807687Y-77161390D01*
X176818164Y-77153351D01*
X176865089Y-77126260D01*
X176921038Y-77070311D01*
X178401853Y-75589496D01*
X178456370Y-75561719D01*
X178471857Y-75560500D01*
X193834300Y-75560500D01*
X193892491Y-75579407D01*
G37*
%TD.AperFunction*%
%TA.AperFunction,Conductor*%
G36*
X174168114Y-76957209D02*
G01*
X174179927Y-76967298D01*
X175186504Y-77973875D01*
X175214281Y-78028392D01*
X175215500Y-78043879D01*
X175215500Y-78059418D01*
X175236208Y-78136700D01*
X175244498Y-78167641D01*
X175291659Y-78249324D01*
X175300515Y-78264663D01*
X175379737Y-78343885D01*
X175379739Y-78343886D01*
X175448197Y-78383411D01*
X175489138Y-78428881D01*
X175495534Y-78489731D01*
X175468701Y-78539150D01*
X175427514Y-78580337D01*
X175371495Y-78677363D01*
X175370385Y-78680045D01*
X175369035Y-78681624D01*
X175368252Y-78682982D01*
X175368000Y-78682836D01*
X175330646Y-78726569D01*
X175271150Y-78740849D01*
X175214624Y-78717432D01*
X175208932Y-78712171D01*
X175118098Y-78621337D01*
X175043418Y-78578221D01*
X175043417Y-78578220D01*
X175043414Y-78578219D01*
X174960126Y-78555902D01*
X174960124Y-78555902D01*
X174175756Y-78555902D01*
X174117565Y-78536995D01*
X174081601Y-78487495D01*
X174081601Y-78426309D01*
X174086031Y-78415063D01*
X174087370Y-78412192D01*
X174112972Y-78357289D01*
X174119500Y-78307703D01*
X174119499Y-77947902D01*
X174112972Y-77898315D01*
X174112972Y-77898313D01*
X174062225Y-77789488D01*
X174062224Y-77789487D01*
X174062224Y-77789486D01*
X173977316Y-77704578D01*
X173977314Y-77704577D01*
X173977313Y-77704576D01*
X173868489Y-77653831D01*
X173868488Y-77653830D01*
X173851958Y-77651654D01*
X173818901Y-77647302D01*
X173818899Y-77647302D01*
X173399103Y-77647302D01*
X173399092Y-77647303D01*
X173349513Y-77653829D01*
X173349511Y-77653829D01*
X173240686Y-77704576D01*
X173155774Y-77789488D01*
X173105029Y-77898312D01*
X173105028Y-77898313D01*
X173105028Y-77898315D01*
X173099445Y-77940727D01*
X173098500Y-77947902D01*
X173098500Y-78307697D01*
X173098501Y-78307709D01*
X173105027Y-78357288D01*
X173105027Y-78357290D01*
X173155774Y-78466115D01*
X173155775Y-78466116D01*
X173155776Y-78466118D01*
X173240684Y-78551026D01*
X173240685Y-78551026D01*
X173246809Y-78557150D01*
X173245625Y-78558333D01*
X173276311Y-78599048D01*
X173277383Y-78660224D01*
X173268444Y-78680786D01*
X173246286Y-78719163D01*
X173235190Y-78760575D01*
X173217289Y-78827384D01*
X173217289Y-78939420D01*
X173222456Y-78958703D01*
X173246286Y-79047640D01*
X173282883Y-79111027D01*
X173287013Y-79130458D01*
X173295408Y-79148462D01*
X173293225Y-79159687D01*
X173295604Y-79170876D01*
X173287523Y-79189024D01*
X173283733Y-79208524D01*
X173275368Y-79216324D01*
X173270717Y-79226771D01*
X173238985Y-79250252D01*
X173157006Y-79288479D01*
X173096276Y-79295935D01*
X173042763Y-79266272D01*
X173016905Y-79210819D01*
X173018813Y-79183602D01*
X173017653Y-79183450D01*
X173018500Y-79177017D01*
X173018500Y-79064983D01*
X173018500Y-79064982D01*
X172989503Y-78956763D01*
X172989501Y-78956760D01*
X172989501Y-78956758D01*
X172933486Y-78859739D01*
X172933485Y-78859737D01*
X172854263Y-78780515D01*
X172854260Y-78780513D01*
X172757240Y-78724498D01*
X172757242Y-78724498D01*
X172711191Y-78712159D01*
X172649018Y-78695500D01*
X172536982Y-78695500D01*
X172497747Y-78706013D01*
X172428761Y-78724497D01*
X172345201Y-78772741D01*
X172285352Y-78785462D01*
X172229457Y-78760575D01*
X172200075Y-78712629D01*
X172191176Y-78679417D01*
X172191174Y-78679414D01*
X172191174Y-78679412D01*
X172151615Y-78610895D01*
X172095666Y-78554945D01*
X172095666Y-78554946D01*
X171441860Y-77901140D01*
X171436962Y-77898312D01*
X171420586Y-77888857D01*
X171420586Y-77888856D01*
X171373339Y-77861579D01*
X171373334Y-77861577D01*
X171296913Y-77841100D01*
X171296911Y-77841100D01*
X169651401Y-77841100D01*
X169593210Y-77822193D01*
X169557246Y-77772693D01*
X169555774Y-77716477D01*
X169581062Y-77622101D01*
X169581062Y-77490317D01*
X169546954Y-77363023D01*
X169546952Y-77363020D01*
X169546952Y-77363018D01*
X169481065Y-77248899D01*
X169481063Y-77248897D01*
X169481062Y-77248895D01*
X169387876Y-77155709D01*
X169387873Y-77155707D01*
X169387871Y-77155705D01*
X169331290Y-77123038D01*
X169290349Y-77077569D01*
X169283953Y-77016718D01*
X169314546Y-76963730D01*
X169370442Y-76938844D01*
X169380790Y-76938302D01*
X174109923Y-76938302D01*
X174168114Y-76957209D01*
G37*
%TD.AperFunction*%
%TA.AperFunction,Conductor*%
G36*
X158703052Y-73329407D02*
G01*
X158739016Y-73378907D01*
X158739016Y-73440093D01*
X158714866Y-73479501D01*
X158704023Y-73490345D01*
X158704020Y-73490348D01*
X158589058Y-73662402D01*
X158509869Y-73853581D01*
X158469500Y-74056532D01*
X158469500Y-74263467D01*
X158509869Y-74466418D01*
X158589058Y-74657597D01*
X158697953Y-74820571D01*
X158704023Y-74829655D01*
X158850345Y-74975977D01*
X159022402Y-75090941D01*
X159213580Y-75170130D01*
X159416535Y-75210500D01*
X159416536Y-75210500D01*
X159623464Y-75210500D01*
X159623465Y-75210500D01*
X159826420Y-75170130D01*
X160017598Y-75090941D01*
X160189655Y-74975977D01*
X160335977Y-74829655D01*
X160450941Y-74657598D01*
X160530130Y-74466420D01*
X160570500Y-74263465D01*
X160570500Y-74056535D01*
X160530130Y-73853580D01*
X160450941Y-73662402D01*
X160335977Y-73490345D01*
X160325133Y-73479501D01*
X160297358Y-73424987D01*
X160306929Y-73364555D01*
X160350194Y-73321290D01*
X160395139Y-73310500D01*
X161184861Y-73310500D01*
X161243052Y-73329407D01*
X161279016Y-73378907D01*
X161279016Y-73440093D01*
X161254866Y-73479501D01*
X161244023Y-73490345D01*
X161244020Y-73490348D01*
X161129058Y-73662402D01*
X161049869Y-73853581D01*
X161009500Y-74056532D01*
X161009500Y-74263467D01*
X161049869Y-74466418D01*
X161129058Y-74657597D01*
X161237953Y-74820571D01*
X161244023Y-74829655D01*
X161390345Y-74975977D01*
X161562402Y-75090941D01*
X161753580Y-75170130D01*
X161956535Y-75210500D01*
X161956536Y-75210500D01*
X162163464Y-75210500D01*
X162163465Y-75210500D01*
X162366420Y-75170130D01*
X162557598Y-75090941D01*
X162729655Y-74975977D01*
X162875977Y-74829655D01*
X162990941Y-74657598D01*
X163070130Y-74466420D01*
X163110500Y-74263465D01*
X163110500Y-74056535D01*
X163070130Y-73853580D01*
X162990941Y-73662402D01*
X162875977Y-73490345D01*
X162865133Y-73479501D01*
X162837358Y-73424987D01*
X162846929Y-73364555D01*
X162890194Y-73321290D01*
X162935139Y-73310500D01*
X163724861Y-73310500D01*
X163783052Y-73329407D01*
X163819016Y-73378907D01*
X163819016Y-73440093D01*
X163794866Y-73479501D01*
X163784023Y-73490345D01*
X163784020Y-73490348D01*
X163669058Y-73662402D01*
X163589869Y-73853581D01*
X163549500Y-74056532D01*
X163549500Y-74263467D01*
X163589869Y-74466418D01*
X163669058Y-74657597D01*
X163777953Y-74820571D01*
X163784023Y-74829655D01*
X163930345Y-74975977D01*
X164102402Y-75090941D01*
X164293580Y-75170130D01*
X164496535Y-75210500D01*
X164496536Y-75210500D01*
X164703464Y-75210500D01*
X164703465Y-75210500D01*
X164906420Y-75170130D01*
X165042405Y-75113802D01*
X165103399Y-75109002D01*
X165150292Y-75135263D01*
X166738540Y-76723511D01*
X166738539Y-76723511D01*
X166794489Y-76779460D01*
X166863007Y-76819019D01*
X166863011Y-76819021D01*
X166939435Y-76839499D01*
X166939437Y-76839500D01*
X166939438Y-76839500D01*
X167974078Y-76839500D01*
X168032269Y-76858407D01*
X168068233Y-76907907D01*
X168069705Y-76964122D01*
X168060249Y-76999412D01*
X168053900Y-77023108D01*
X168053900Y-77154892D01*
X168083828Y-77266585D01*
X168088009Y-77282189D01*
X168106341Y-77313939D01*
X168119606Y-77363441D01*
X168119606Y-77888858D01*
X168123923Y-77904968D01*
X168135411Y-77947844D01*
X168132208Y-78008945D01*
X168093703Y-78056495D01*
X168039784Y-78072466D01*
X161358445Y-78072466D01*
X161300254Y-78053559D01*
X161288441Y-78043470D01*
X157955263Y-74710292D01*
X157927486Y-74655775D01*
X157933802Y-74602405D01*
X157990130Y-74466420D01*
X158030500Y-74263465D01*
X158030500Y-74056535D01*
X157990130Y-73853580D01*
X157910941Y-73662402D01*
X157795977Y-73490345D01*
X157785133Y-73479501D01*
X157757358Y-73424987D01*
X157766929Y-73364555D01*
X157810194Y-73321290D01*
X157855139Y-73310500D01*
X158644861Y-73310500D01*
X158703052Y-73329407D01*
G37*
%TD.AperFunction*%
%TA.AperFunction,Conductor*%
G36*
X168863052Y-73329407D02*
G01*
X168899016Y-73378907D01*
X168899016Y-73440093D01*
X168874866Y-73479501D01*
X168864023Y-73490345D01*
X168864020Y-73490348D01*
X168749058Y-73662402D01*
X168669869Y-73853581D01*
X168629500Y-74056532D01*
X168629500Y-74263467D01*
X168669869Y-74466418D01*
X168749058Y-74657597D01*
X168857953Y-74820571D01*
X168864023Y-74829655D01*
X169010345Y-74975977D01*
X169182402Y-75090941D01*
X169373580Y-75170130D01*
X169576535Y-75210500D01*
X169576536Y-75210500D01*
X169783464Y-75210500D01*
X169783465Y-75210500D01*
X169986420Y-75170130D01*
X170122405Y-75113802D01*
X170183399Y-75109002D01*
X170230292Y-75135263D01*
X171263327Y-76168298D01*
X171291104Y-76222815D01*
X171281533Y-76283247D01*
X171238268Y-76326512D01*
X171193323Y-76337302D01*
X169046497Y-76337302D01*
X168988306Y-76318395D01*
X168976499Y-76308311D01*
X168966728Y-76298540D01*
X168940240Y-76283247D01*
X168898209Y-76258980D01*
X168898205Y-76258978D01*
X168821781Y-76238500D01*
X168821779Y-76238500D01*
X167144479Y-76238500D01*
X167086288Y-76219593D01*
X167074475Y-76209504D01*
X165575263Y-74710292D01*
X165547486Y-74655775D01*
X165553802Y-74602405D01*
X165610130Y-74466420D01*
X165650500Y-74263465D01*
X165650500Y-74056535D01*
X165610130Y-73853580D01*
X165530941Y-73662402D01*
X165415977Y-73490345D01*
X165405133Y-73479501D01*
X165377358Y-73424987D01*
X165386929Y-73364555D01*
X165430194Y-73321290D01*
X165475139Y-73310500D01*
X168804861Y-73310500D01*
X168863052Y-73329407D01*
G37*
%TD.AperFunction*%
%TD*%
M02*
