%TF.GenerationSoftware,KiCad,Pcbnew,10.0.1*%
%TF.CreationDate,2026-04-23T11:40:39-07:00*%
%TF.ProjectId,p4gpio,70346770-696f-42e6-9b69-6361645f7063,rev?*%
%TF.SameCoordinates,Original*%
%TF.FileFunction,Copper,L3,Inr*%
%TF.FilePolarity,Positive*%
%FSLAX46Y46*%
G04 Gerber Fmt 4.6, Leading zero omitted, Abs format (unit mm)*
G04 Created by KiCad (PCBNEW 10.0.1) date 2026-04-23 11:40:39*
%MOMM*%
%LPD*%
G01*
G04 APERTURE LIST*
%TA.AperFunction,ComponentPad*%
%ADD10O,2.100000X1.000000*%
%TD*%
%TA.AperFunction,ComponentPad*%
%ADD11O,1.600000X1.000000*%
%TD*%
%TA.AperFunction,ComponentPad*%
%ADD12C,1.700000*%
%TD*%
%TA.AperFunction,ViaPad*%
%ADD13C,0.450000*%
%TD*%
%TA.AperFunction,ViaPad*%
%ADD14C,0.400000*%
%TD*%
%TA.AperFunction,Conductor*%
%ADD15C,0.200000*%
%TD*%
%TA.AperFunction,Conductor*%
%ADD16C,0.762000*%
%TD*%
%TA.AperFunction,Conductor*%
%ADD17C,0.600000*%
%TD*%
%TA.AperFunction,Conductor*%
%ADD18C,0.381000*%
%TD*%
%TA.AperFunction,Conductor*%
%ADD19C,0.635000*%
%TD*%
%TA.AperFunction,Conductor*%
%ADD20C,0.254000*%
%TD*%
G04 APERTURE END LIST*
D10*
%TO.N,GND*%
%TO.C,J2*%
X204220000Y-82560000D03*
D11*
X208400000Y-82560000D03*
D10*
X204220000Y-73920000D03*
D11*
X208400000Y-73920000D03*
%TD*%
D12*
%TO.N,+3.3V*%
%TO.C,J10*%
X200160000Y-94480000D03*
%TO.N,/BOOT*%
X197620000Y-94480000D03*
%TO.N,GND*%
X195080000Y-94480000D03*
%TO.N,/RESET*%
X192540000Y-94480000D03*
%TD*%
%TO.N,+3.3V*%
%TO.C,J9*%
X200160000Y-74160000D03*
%TO.N,/BOOT*%
X197620000Y-74160000D03*
%TO.N,GND*%
X195080000Y-74160000D03*
%TO.N,/RESET*%
X192540000Y-74160000D03*
%TD*%
D10*
%TO.N,GND*%
%TO.C,J1*%
X204220000Y-94240000D03*
D11*
X208400000Y-94240000D03*
D10*
X204220000Y-85600000D03*
D11*
X208400000Y-85600000D03*
%TD*%
D12*
%TO.N,/B2_7*%
%TO.C,J7*%
X164600000Y-94480000D03*
%TO.N,/B2_6*%
X162060000Y-94480000D03*
%TO.N,/B2_5*%
X159520000Y-94480000D03*
%TO.N,/B2_4*%
X156980000Y-94480000D03*
%TO.N,/B2_3*%
X154440000Y-94480000D03*
%TO.N,/B2_2*%
X151900000Y-94480000D03*
%TO.N,/B2_1*%
X149360000Y-94480000D03*
%TO.N,/B2_0*%
X146820000Y-94480000D03*
%TD*%
%TO.N,/T1_7*%
%TO.C,J5*%
X141740000Y-74160000D03*
%TO.N,/T1_6*%
X139200000Y-74160000D03*
%TO.N,/T1_5*%
X136660000Y-74160000D03*
%TO.N,/T1_4*%
X134120000Y-74160000D03*
%TO.N,/T1_3*%
X131580000Y-74160000D03*
%TO.N,/T1_2*%
X129040000Y-74160000D03*
%TO.N,/T1_1*%
X126500000Y-74160000D03*
%TO.N,/T1_0*%
X123960000Y-74160000D03*
%TD*%
%TO.N,/T2_7*%
%TO.C,J4*%
X164600000Y-74160000D03*
%TO.N,/T2_6*%
X162060000Y-74160000D03*
%TO.N,/T2_5*%
X159520000Y-74160000D03*
%TO.N,/T2_4*%
X156980000Y-74160000D03*
%TO.N,/T2_3*%
X154440000Y-74160000D03*
%TO.N,/T2_2*%
X151900000Y-74160000D03*
%TO.N,/T2_1*%
X149360000Y-74160000D03*
%TO.N,/T2_0*%
X146820000Y-74160000D03*
%TD*%
%TO.N,/B1_7*%
%TO.C,J8*%
X141740000Y-94480000D03*
%TO.N,/B1_6*%
X139200000Y-94480000D03*
%TO.N,/B1_5*%
X136660000Y-94480000D03*
%TO.N,/B1_4*%
X134120000Y-94480000D03*
%TO.N,/B1_3*%
X131580000Y-94480000D03*
%TO.N,/B1_2*%
X129040000Y-94480000D03*
%TO.N,/B1_1*%
X126500000Y-94480000D03*
%TO.N,/B1_0*%
X123960000Y-94480000D03*
%TD*%
%TO.N,/B3_7*%
%TO.C,J6*%
X187460000Y-94480000D03*
%TO.N,/B3_6*%
X184920000Y-94480000D03*
%TO.N,/B3_5*%
X182380000Y-94480000D03*
%TO.N,/B3_4*%
X179840000Y-94480000D03*
%TO.N,/B3_3*%
X177300000Y-94480000D03*
%TO.N,/B3_2*%
X174760000Y-94480000D03*
%TO.N,/B3_1*%
X172220000Y-94480000D03*
%TO.N,/B3_0*%
X169680000Y-94480000D03*
%TD*%
%TO.N,/T3_7*%
%TO.C,J3*%
X187460000Y-74160000D03*
%TO.N,/T3_6*%
X184920000Y-74160000D03*
%TO.N,/T3_5*%
X182380000Y-74160000D03*
%TO.N,/T3_4*%
X179840000Y-74160000D03*
%TO.N,/T3_3*%
X177300000Y-74160000D03*
%TO.N,/T3_2*%
X174760000Y-74160000D03*
%TO.N,/T3_1*%
X172220000Y-74160000D03*
%TO.N,/T3_0*%
X169680000Y-74160000D03*
%TD*%
D13*
%TO.N,/RESET*%
X180510000Y-92350000D03*
X190220600Y-80441800D03*
X155702000Y-88646000D03*
X192176400Y-76708000D03*
D14*
X170801000Y-89543774D03*
D13*
X190321027Y-82322573D03*
%TO.N,GND*%
X192786000Y-78740000D03*
X206502000Y-86360000D03*
X192786000Y-79248000D03*
X202082400Y-83083400D03*
X146710400Y-87376000D03*
X161544000Y-81534000D03*
X180340000Y-87833200D03*
X176834800Y-86004400D03*
X197104000Y-83058000D03*
X206502000Y-92202000D03*
X174193200Y-86055200D03*
X180340000Y-87172800D03*
X206502000Y-93472000D03*
X206502000Y-87884000D03*
X166751000Y-86410802D03*
X178003200Y-86004400D03*
X168960800Y-87079952D03*
X180289200Y-82854800D03*
X174853600Y-83210400D03*
X206502000Y-74676000D03*
X168357209Y-81329367D03*
X202107800Y-82118200D03*
X168148000Y-75692000D03*
X166370000Y-89712802D03*
X166370000Y-85521802D03*
X201955400Y-73964800D03*
X171196000Y-77470000D03*
X202285600Y-74777600D03*
X179984400Y-83312000D03*
X199136000Y-90678000D03*
X175514000Y-86004400D03*
X167513000Y-88950802D03*
X164973000Y-90093802D03*
X166116000Y-84505802D03*
X206502000Y-78740000D03*
X165608000Y-84505802D03*
X201879200Y-94335600D03*
X173583600Y-86055200D03*
X189484000Y-79502000D03*
X166751000Y-85902802D03*
X179476400Y-80518000D03*
X127965200Y-81610200D03*
X163830000Y-85344000D03*
X174853600Y-81788000D03*
X201142600Y-85521800D03*
X168148000Y-88950802D03*
X165989000Y-90093802D03*
X172974000Y-86004400D03*
X197612000Y-83058000D03*
X126238000Y-82753200D03*
X177495200Y-86004400D03*
X180340000Y-85191600D03*
X180340000Y-84531200D03*
X206502000Y-83312000D03*
X174853600Y-86004400D03*
X148412200Y-86004400D03*
X163828562Y-86893638D03*
X162814000Y-81280000D03*
X163865868Y-84770117D03*
X174129841Y-80512491D03*
X189484000Y-78740000D03*
X193294000Y-76454000D03*
X194056000Y-92202000D03*
X163957000Y-89966802D03*
X191008000Y-79248000D03*
X168723343Y-88769458D03*
X174853600Y-86664800D03*
X169675675Y-87079952D03*
X201803000Y-85521800D03*
X146735800Y-84709000D03*
X192024000Y-92202000D03*
X163957000Y-88950802D03*
X181102000Y-93218000D03*
X174853600Y-82448400D03*
X163957000Y-88442802D03*
X192532000Y-85852000D03*
X163957000Y-87934802D03*
X166370000Y-88696802D03*
X168402000Y-86410802D03*
X174853600Y-87325200D03*
X177495200Y-85471000D03*
X206502000Y-76200000D03*
X132816600Y-87985600D03*
X169113200Y-88379952D03*
X180340000Y-83870800D03*
X166878000Y-88950802D03*
X206502000Y-80010000D03*
X153720800Y-82067400D03*
X129540000Y-82778600D03*
X163957000Y-89458802D03*
X163830000Y-85852000D03*
X166370000Y-85013802D03*
X130860800Y-86537800D03*
X206502000Y-90678000D03*
X191008000Y-80772000D03*
X193040000Y-92202000D03*
X196596000Y-75946000D03*
X206502000Y-89154000D03*
X206502000Y-77724000D03*
X134848600Y-86537800D03*
X176174400Y-86004400D03*
X197358000Y-75692000D03*
X165481000Y-90093802D03*
X201345800Y-77419200D03*
X167259000Y-86410802D03*
X180340000Y-86512400D03*
X200152000Y-85598000D03*
X169621200Y-88379952D03*
X189484000Y-80264000D03*
X195834000Y-87630000D03*
X169926000Y-75692000D03*
X163814200Y-86360000D03*
X175463200Y-83312000D03*
X201904600Y-93548200D03*
X164465000Y-90093802D03*
X199644000Y-90678000D03*
X206502000Y-73660000D03*
X201422000Y-79552800D03*
X180340000Y-85852000D03*
X206502000Y-81788000D03*
X163830000Y-77470000D03*
X157581600Y-82092800D03*
X170214864Y-79911401D03*
X179324000Y-83312000D03*
X180822600Y-76428600D03*
X174865224Y-81212842D03*
X167767000Y-86410802D03*
X177495200Y-87020400D03*
X145186400Y-85953600D03*
X171958000Y-77724000D03*
X160528000Y-76708000D03*
X177495200Y-86512400D03*
X160274000Y-81534000D03*
X162306000Y-77470000D03*
X174828200Y-85394800D03*
X206502000Y-84582000D03*
X177495200Y-87680800D03*
X174853600Y-87985600D03*
X177495200Y-88341200D03*
X164363400Y-84480400D03*
X164973000Y-84447400D03*
X176123600Y-83312000D03*
X163957000Y-87426802D03*
X179324000Y-76428600D03*
X166370000Y-89204802D03*
X155727400Y-81026000D03*
%TO.N,+3.3V*%
X192227200Y-87934800D03*
X191109600Y-82042000D03*
X192735200Y-88442800D03*
X191719200Y-87477600D03*
X141833600Y-80721200D03*
X172042919Y-86134595D03*
X174622954Y-88948544D03*
X171982398Y-88239002D03*
X162814000Y-80264000D03*
X180249141Y-80666247D03*
X176149000Y-88826004D03*
X177308865Y-78916224D03*
D14*
X172749559Y-80468000D03*
D13*
X172135802Y-83302800D03*
%TO.N,/BOOT*%
X197866000Y-90398600D03*
X134543800Y-80772000D03*
X176479200Y-76885800D03*
X197916800Y-88569800D03*
X196531700Y-78857446D03*
X175768000Y-78841600D03*
%TO.N,Net-(U4-EN)*%
X192481200Y-84201000D03*
%TO.N,VBUS*%
X195173600Y-86156800D03*
X197612000Y-85852000D03*
X195478400Y-80314800D03*
X195478400Y-85699600D03*
X195657373Y-79731773D03*
%TO.N,Net-(U4-FB)*%
X191312800Y-80010000D03*
%TO.N,/Minimal P4 V3/VDD_HP*%
X169080562Y-77556209D03*
X166370000Y-82230200D03*
X180975000Y-89662000D03*
X172024032Y-84274400D03*
X168620106Y-77822966D03*
X179334028Y-88847315D03*
X172593000Y-79121000D03*
X182295800Y-78562200D03*
X168554400Y-77089000D03*
%TO.N,/FS_D-*%
X204317600Y-77978000D03*
X204216000Y-78994000D03*
%TO.N,/FS_VBUS*%
X202082400Y-75844400D03*
X201879200Y-80924400D03*
X201676000Y-75488800D03*
X202275583Y-80457182D03*
%TO.N,Net-(J2-CC2)*%
X201188528Y-76061990D03*
%TO.N,/B2_0*%
X173405800Y-91821000D03*
D14*
%TO.N,/B2_1*%
X174711400Y-90576400D03*
D13*
%TO.N,/B2_2*%
X174701200Y-91775000D03*
%TO.N,/B2_3*%
X175236726Y-91504417D03*
%TO.N,/B2_4*%
X175836400Y-91595887D03*
%TO.N,/B2_5*%
X176575734Y-91741606D03*
%TO.N,/B2_6*%
X177266600Y-91846400D03*
%TO.N,/B2_7*%
X177901600Y-91948000D03*
%TO.N,/Minimal P4 V3/FLASH_CS*%
X182200971Y-90980773D03*
X183303640Y-91575162D03*
%TO.N,/Minimal P4 V3/VDD_FLASH*%
X182651400Y-88214202D03*
%TO.N,/HS_D-*%
X204592962Y-90763600D03*
X204444600Y-89662000D03*
%TO.N,Net-(U2-VDD_HP_1)*%
X180569395Y-79068065D03*
%TO.N,/Minimal P4 V3/VDDO_PSRAM*%
X175745398Y-80511306D03*
X178498000Y-80516188D03*
X173642789Y-78883402D03*
D14*
%TO.N,/T3_1*%
X177165000Y-80522000D03*
D13*
%TO.N,/T3_0*%
X176349135Y-80497000D03*
%TO.N,/T2_7*%
X175641000Y-78003400D03*
%TO.N,/GPIO36*%
X174777400Y-80568800D03*
%TO.N,/Minimal P4 V3/FB_DCDC*%
X170569400Y-79366600D03*
X164188601Y-82229999D03*
D14*
%TO.N,/T2_4*%
X171924180Y-80618127D03*
%TO.N,/T2_3*%
X172034200Y-81178400D03*
%TO.N,/T2_1*%
X172036398Y-81737200D03*
%TO.N,/T1_5*%
X169638075Y-83453086D03*
%TO.N,/T1_4*%
X169757086Y-84008834D03*
%TO.N,/T1_3*%
X169106875Y-84314673D03*
%TO.N,/T1_2*%
X168634497Y-84747002D03*
%TO.N,/T1_1*%
X168097200Y-84912200D03*
%TO.N,/T1_0*%
X167614600Y-84480400D03*
D13*
%TO.N,/NEOPIXEL*%
X144322800Y-84480400D03*
X166940737Y-85333590D03*
%TO.N,/SDA*%
X129133600Y-84810600D03*
X170230800Y-86410800D03*
%TO.N,/SCL*%
X129159000Y-85826600D03*
X172008800Y-87147400D03*
%TO.N,/HS_VBUS*%
X200710800Y-86563200D03*
X201930000Y-92354400D03*
X201472800Y-86563200D03*
X201930000Y-91694000D03*
%TD*%
%TO.N,/RESET*%
D15*
X158439600Y-91383600D02*
X168705443Y-91383600D01*
X176600000Y-89590000D02*
X176560000Y-89550000D01*
X177750000Y-89590000D02*
X176600000Y-89590000D01*
X155702000Y-88646000D02*
X158439600Y-91383600D01*
X168705443Y-91383600D02*
X170545269Y-89543774D01*
X176560000Y-89550000D02*
X170807226Y-89550000D01*
X170545269Y-89543774D02*
X170801000Y-89543774D01*
X180510000Y-92350000D02*
X177750000Y-89590000D01*
X170807226Y-89550000D02*
X170801000Y-89543774D01*
%TO.N,+3.3V*%
D16*
X192278000Y-82042000D02*
X191109600Y-82042000D01*
D17*
X192176400Y-87934800D02*
X191719200Y-87477600D01*
D15*
X176149000Y-88826004D02*
X174745494Y-88826004D01*
D18*
X142290800Y-80264000D02*
X141833600Y-80721200D01*
X172691940Y-88948544D02*
X171982398Y-88239002D01*
D16*
X194122800Y-88442800D02*
X200160000Y-94480000D01*
D17*
X192227200Y-87934800D02*
X192176400Y-87934800D01*
X191719200Y-82651600D02*
X191109600Y-82042000D01*
D15*
X174745494Y-88826004D02*
X174622954Y-88948544D01*
D16*
X192735200Y-88442800D02*
X194122800Y-88442800D01*
D17*
X192735200Y-88442800D02*
X192227200Y-87934800D01*
D18*
X174622954Y-88948544D02*
X172691940Y-88948544D01*
D17*
X191719200Y-87477600D02*
X191719200Y-82651600D01*
D18*
X162814000Y-80264000D02*
X142290800Y-80264000D01*
D16*
X200160000Y-74160000D02*
X192278000Y-82042000D01*
%TO.N,/BOOT*%
D15*
X175768000Y-78841600D02*
X176580800Y-78028800D01*
X141960600Y-78638400D02*
X164668200Y-78638400D01*
X139827000Y-80772000D02*
X141960600Y-78638400D01*
X176580800Y-78028800D02*
X176580800Y-76987400D01*
X176479200Y-76735073D02*
X176479200Y-76885800D01*
X134543800Y-80772000D02*
X139827000Y-80772000D01*
X164668200Y-78638400D02*
X166954200Y-76352400D01*
X176580800Y-76987400D02*
X176479200Y-76885800D01*
X166954200Y-76352400D02*
X176096527Y-76352400D01*
X176096527Y-76352400D02*
X176479200Y-76735073D01*
%TO.N,VBUS*%
D19*
X195173600Y-86156800D02*
X195173600Y-86004400D01*
X195630800Y-85547200D02*
X195630800Y-80467200D01*
X195173600Y-86004400D02*
X195630800Y-85547200D01*
X195630800Y-80467200D02*
X195478400Y-80314800D01*
%TO.N,/Minimal P4 V3/VDD_HP*%
D16*
X171415634Y-79022933D02*
X169948910Y-77556209D01*
X170614497Y-81419800D02*
X170614497Y-80663784D01*
X171415634Y-79862647D02*
X171415634Y-79022933D01*
X173482000Y-82742351D02*
X173257849Y-82518200D01*
D18*
X182295800Y-78562200D02*
X182114426Y-78562200D01*
X177682138Y-84074000D02*
X176911000Y-84074000D01*
D16*
X170614497Y-80663784D02*
X171415634Y-79862647D01*
X173482000Y-84074000D02*
X173482000Y-82742351D01*
D18*
X173482000Y-84074000D02*
X173482000Y-80010000D01*
D15*
X166370000Y-82230200D02*
X166435800Y-82230200D01*
D16*
X171712897Y-82518200D02*
X170614497Y-81419800D01*
D18*
X181864000Y-79892138D02*
X177682138Y-84074000D01*
D16*
X173257849Y-82518200D02*
X171712897Y-82518200D01*
D18*
X182114426Y-78562200D02*
X181864000Y-78812626D01*
X172024032Y-84274400D02*
X172287932Y-84010500D01*
X176911000Y-84074000D02*
X179334028Y-86497028D01*
D15*
X168620106Y-80045894D02*
X168620106Y-77822966D01*
D18*
X172287932Y-84010500D02*
X173418500Y-84010500D01*
D16*
X173482000Y-84074000D02*
X176911000Y-84074000D01*
X169948910Y-77556209D02*
X169080562Y-77556209D01*
D18*
X173482000Y-80010000D02*
X172593000Y-79121000D01*
X181864000Y-78812626D02*
X181864000Y-79892138D01*
D15*
X166435800Y-82230200D02*
X168620106Y-80045894D01*
D17*
X168620106Y-77822966D02*
X168620106Y-77154706D01*
D18*
X173418500Y-84010500D02*
X173482000Y-84074000D01*
X179334028Y-86497028D02*
X179334028Y-88847315D01*
D17*
X168620106Y-77154706D02*
X168554400Y-77089000D01*
%TO.N,/B2_5*%
D15*
X173623263Y-91296000D02*
X173930800Y-91603537D01*
X173930800Y-91603537D02*
X173930800Y-92038463D01*
X159520000Y-94480000D02*
X161750000Y-92250000D01*
X175948600Y-92250000D02*
X176456994Y-91741606D01*
X161750000Y-92250000D02*
X172234337Y-92250000D01*
X172234337Y-92250000D02*
X173188337Y-91296000D01*
X173930800Y-92038463D02*
X174142337Y-92250000D01*
X173188337Y-91296000D02*
X173623263Y-91296000D01*
X174142337Y-92250000D02*
X175948600Y-92250000D01*
X176456994Y-91741606D02*
X176575734Y-91741606D01*
%TO.N,/B2_6*%
X176513000Y-92600000D02*
X177266600Y-91846400D01*
X162060000Y-94480000D02*
X163940000Y-92600000D01*
X163940000Y-92600000D02*
X176513000Y-92600000D01*
%TO.N,/B2_7*%
X166060000Y-93020000D02*
X176829600Y-93020000D01*
X176829600Y-93020000D02*
X177901600Y-91948000D01*
X164600000Y-94480000D02*
X166060000Y-93020000D01*
%TO.N,/Minimal P4 V3/VDDO_PSRAM*%
X178104800Y-81229200D02*
X178104800Y-80909388D01*
D20*
X175745398Y-80622398D02*
X175745398Y-80511306D01*
X178104800Y-81229200D02*
X176352200Y-81229200D01*
D15*
X178104800Y-80909388D02*
X178498000Y-80516188D01*
D20*
X176352200Y-81229200D02*
X175745398Y-80622398D01*
%TO.N,/T1_1*%
D15*
X126500000Y-74160000D02*
X135129800Y-82789800D01*
X166711400Y-82789800D02*
X168184497Y-84262897D01*
X168184497Y-84262897D02*
X168184497Y-84824903D01*
X135129800Y-82789800D02*
X166711400Y-82789800D01*
X168184497Y-84824903D02*
X168097200Y-84912200D01*
%TO.N,/T1_0*%
X166274000Y-83139800D02*
X132939800Y-83139800D01*
X167614600Y-84480400D02*
X166274000Y-83139800D01*
X132939800Y-83139800D02*
X123960000Y-74160000D01*
%TO.N,/NEOPIXEL*%
X166940737Y-85333590D02*
X166940737Y-84543137D01*
X166940737Y-84543137D02*
X165887400Y-83489800D01*
X145313400Y-83489800D02*
X144322800Y-84480400D01*
X165887400Y-83489800D02*
X145313400Y-83489800D01*
%TO.N,/SDA*%
X170383200Y-88366600D02*
X168180998Y-90568802D01*
X129260600Y-84683600D02*
X129133600Y-84810600D01*
X163492202Y-90568802D02*
X159588200Y-86664800D01*
X159588200Y-86664800D02*
X137312400Y-86664800D01*
X135331200Y-84683600D02*
X129260600Y-84683600D01*
X170230800Y-86410800D02*
X170383200Y-86563200D01*
X170383200Y-86563200D02*
X170383200Y-88366600D01*
X137312400Y-86664800D02*
X135331200Y-84683600D01*
X168180998Y-90568802D02*
X163492202Y-90568802D01*
%TO.N,/SCL*%
X172008800Y-87350600D02*
X168325800Y-91033600D01*
X132054600Y-85826600D02*
X129159000Y-85826600D01*
X150774400Y-87909400D02*
X134137400Y-87909400D01*
X168325800Y-91033600D02*
X162788600Y-91033600D01*
X151561800Y-87122000D02*
X150774400Y-87909400D01*
X162788600Y-91033600D02*
X158877000Y-87122000D01*
X134137400Y-87909400D02*
X132054600Y-85826600D01*
X158877000Y-87122000D02*
X151561800Y-87122000D01*
X172008800Y-87147400D02*
X172008800Y-87350600D01*
%TD*%
M02*
