%TF.GenerationSoftware,KiCad,Pcbnew,10.0.1*%
%TF.CreationDate,2026-05-07T16:17:07-07:00*%
%TF.ProjectId,p4gpio,70346770-696f-42e6-9b69-6361645f7063,rev?*%
%TF.SameCoordinates,Original*%
%TF.FileFunction,Soldermask,Top*%
%TF.FilePolarity,Negative*%
%FSLAX46Y46*%
G04 Gerber Fmt 4.6, Leading zero omitted, Abs format (unit mm)*
G04 Created by KiCad (PCBNEW 10.0.1) date 2026-05-07 16:17:07*
%MOMM*%
%LPD*%
G01*
G04 APERTURE LIST*
G04 Aperture macros list*
%AMRoundRect*
0 Rectangle with rounded corners*
0 $1 Rounding radius*
0 $2 $3 $4 $5 $6 $7 $8 $9 X,Y pos of 4 corners*
0 Add a 4 corners polygon primitive as box body*
4,1,4,$2,$3,$4,$5,$6,$7,$8,$9,$2,$3,0*
0 Add four circle primitives for the rounded corners*
1,1,$1+$1,$2,$3*
1,1,$1+$1,$4,$5*
1,1,$1+$1,$6,$7*
1,1,$1+$1,$8,$9*
0 Add four rect primitives between the rounded corners*
20,1,$1+$1,$2,$3,$4,$5,0*
20,1,$1+$1,$4,$5,$6,$7,0*
20,1,$1+$1,$6,$7,$8,$9,0*
20,1,$1+$1,$8,$9,$2,$3,0*%
G04 Aperture macros list end*
%ADD10C,0.010000*%
%ADD11RoundRect,0.250000X0.750000X-0.275000X0.750000X0.275000X-0.750000X0.275000X-0.750000X-0.275000X0*%
%ADD12RoundRect,0.135000X0.185000X-0.135000X0.185000X0.135000X-0.185000X0.135000X-0.185000X-0.135000X0*%
%ADD13RoundRect,0.140000X-0.140000X-0.170000X0.140000X-0.170000X0.140000X0.170000X-0.140000X0.170000X0*%
%ADD14RoundRect,0.140000X-0.170000X0.140000X-0.170000X-0.140000X0.170000X-0.140000X0.170000X0.140000X0*%
%ADD15RoundRect,0.150000X0.150000X-0.512500X0.150000X0.512500X-0.150000X0.512500X-0.150000X-0.512500X0*%
%ADD16RoundRect,0.140000X0.170000X-0.140000X0.170000X0.140000X-0.170000X0.140000X-0.170000X-0.140000X0*%
%ADD17RoundRect,0.150000X0.150000X0.200000X-0.150000X0.200000X-0.150000X-0.200000X0.150000X-0.200000X0*%
%ADD18C,0.600000*%
%ADD19RoundRect,0.150000X0.420000X-0.150000X0.420000X0.150000X-0.420000X0.150000X-0.420000X-0.150000X0*%
%ADD20RoundRect,0.075000X0.495000X-0.075000X0.495000X0.075000X-0.495000X0.075000X-0.495000X-0.075000X0*%
%ADD21O,2.000000X0.900000*%
%ADD22O,1.700000X0.900000*%
%ADD23O,0.200000X0.650000*%
%ADD24O,0.650000X0.200000*%
%ADD25R,2.100000X2.100000*%
%ADD26RoundRect,0.225000X-0.250000X0.225000X-0.250000X-0.225000X0.250000X-0.225000X0.250000X0.225000X0*%
%ADD27C,1.700000*%
%ADD28RoundRect,0.243750X0.243750X0.456250X-0.243750X0.456250X-0.243750X-0.456250X0.243750X-0.456250X0*%
%ADD29RoundRect,0.225000X0.225000X0.250000X-0.225000X0.250000X-0.225000X-0.250000X0.225000X-0.250000X0*%
%ADD30RoundRect,0.150000X0.512500X0.150000X-0.512500X0.150000X-0.512500X-0.150000X0.512500X-0.150000X0*%
%ADD31RoundRect,0.135000X-0.135000X-0.185000X0.135000X-0.185000X0.135000X0.185000X-0.135000X0.185000X0*%
%ADD32RoundRect,0.250000X-0.850000X0.375000X-0.850000X-0.375000X0.850000X-0.375000X0.850000X0.375000X0*%
%ADD33RoundRect,0.050000X-0.150000X-0.300000X0.150000X-0.300000X0.150000X0.300000X-0.150000X0.300000X0*%
%ADD34RoundRect,0.125000X0.125000X-0.250000X0.125000X0.250000X-0.125000X0.250000X-0.125000X-0.250000X0*%
%ADD35R,4.300000X3.400000*%
%ADD36RoundRect,0.250000X-0.750000X0.275000X-0.750000X-0.275000X0.750000X-0.275000X0.750000X0.275000X0*%
%ADD37RoundRect,0.135000X0.135000X0.185000X-0.135000X0.185000X-0.135000X-0.185000X0.135000X-0.185000X0*%
%ADD38RoundRect,0.090000X-0.660000X-0.360000X0.660000X-0.360000X0.660000X0.360000X-0.660000X0.360000X0*%
%ADD39RoundRect,0.200000X0.200000X-0.250000X0.200000X0.250000X-0.200000X0.250000X-0.200000X-0.250000X0*%
%ADD40RoundRect,0.150000X-0.625000X0.150000X-0.625000X-0.150000X0.625000X-0.150000X0.625000X0.150000X0*%
%ADD41RoundRect,0.250000X-0.650000X0.350000X-0.650000X-0.350000X0.650000X-0.350000X0.650000X0.350000X0*%
%ADD42RoundRect,0.250000X-0.375000X-0.850000X0.375000X-0.850000X0.375000X0.850000X-0.375000X0.850000X0*%
%ADD43RoundRect,0.225000X0.250000X-0.225000X0.250000X0.225000X-0.250000X0.225000X-0.250000X-0.225000X0*%
%ADD44RoundRect,0.140000X0.140000X0.170000X-0.140000X0.170000X-0.140000X-0.170000X0.140000X-0.170000X0*%
G04 APERTURE END LIST*
D10*
%TO.C,G\u002A\u002A\u002A*%
X124909964Y-78260671D02*
X124935908Y-78261888D01*
X124960524Y-78263995D01*
X124984968Y-78267081D01*
X125010399Y-78271237D01*
X125027568Y-78274469D01*
X125052917Y-78279713D01*
X125077099Y-78285324D01*
X125100831Y-78291532D01*
X125124829Y-78298564D01*
X125149812Y-78306650D01*
X125176495Y-78316018D01*
X125205596Y-78326898D01*
X125237833Y-78339518D01*
X125262220Y-78349336D01*
X125294600Y-78362638D01*
X125327473Y-78376447D01*
X125361115Y-78390894D01*
X125395804Y-78406108D01*
X125431817Y-78422220D01*
X125469431Y-78439359D01*
X125508924Y-78457655D01*
X125550572Y-78477239D01*
X125594653Y-78498240D01*
X125641444Y-78520789D01*
X125691222Y-78545015D01*
X125744264Y-78571048D01*
X125800848Y-78599019D01*
X125861250Y-78629057D01*
X125900859Y-78648836D01*
X125956890Y-78676804D01*
X126008959Y-78702679D01*
X126057388Y-78726609D01*
X126102502Y-78748743D01*
X126144624Y-78769230D01*
X126184079Y-78788219D01*
X126221190Y-78805857D01*
X126256281Y-78822295D01*
X126289676Y-78837680D01*
X126321699Y-78852162D01*
X126352673Y-78865889D01*
X126382924Y-78879010D01*
X126412774Y-78891674D01*
X126442548Y-78904029D01*
X126472569Y-78916225D01*
X126503161Y-78928409D01*
X126534649Y-78940731D01*
X126546429Y-78945292D01*
X126562879Y-78951661D01*
X126578157Y-78957605D01*
X126591584Y-78962860D01*
X126602485Y-78967159D01*
X126610180Y-78970237D01*
X126613879Y-78971774D01*
X126620853Y-78974901D01*
X126602774Y-78996546D01*
X126574273Y-79028227D01*
X126541492Y-79060293D01*
X126504928Y-79092367D01*
X126465080Y-79124072D01*
X126422444Y-79155030D01*
X126377517Y-79184864D01*
X126330798Y-79213196D01*
X126282784Y-79239649D01*
X126281543Y-79240298D01*
X126218862Y-79271077D01*
X126152275Y-79300109D01*
X126082459Y-79327197D01*
X126010091Y-79352141D01*
X125935848Y-79374745D01*
X125860408Y-79394810D01*
X125784446Y-79412139D01*
X125708642Y-79426534D01*
X125633671Y-79437796D01*
X125587276Y-79443183D01*
X125573522Y-79444264D01*
X125556242Y-79445113D01*
X125536336Y-79445729D01*
X125514704Y-79446113D01*
X125492247Y-79446265D01*
X125469865Y-79446184D01*
X125448458Y-79445870D01*
X125428927Y-79445324D01*
X125412172Y-79444545D01*
X125399093Y-79443533D01*
X125396171Y-79443203D01*
X125348044Y-79435501D01*
X125303678Y-79424842D01*
X125263093Y-79411233D01*
X125226313Y-79394681D01*
X125193356Y-79375193D01*
X125180757Y-79366208D01*
X125152885Y-79342511D01*
X125129107Y-79316397D01*
X125109183Y-79287536D01*
X125092872Y-79255599D01*
X125084675Y-79234696D01*
X125078356Y-79215387D01*
X125073838Y-79197831D01*
X125070878Y-79180495D01*
X125069230Y-79161848D01*
X125068652Y-79140361D01*
X125068648Y-79133993D01*
X125068785Y-79094976D01*
X125052990Y-79093357D01*
X125037195Y-79091739D01*
X125020136Y-79103346D01*
X125003076Y-79114953D01*
X125002371Y-79137934D01*
X125003442Y-79170144D01*
X125008367Y-79203831D01*
X125016845Y-79237988D01*
X125028579Y-79271608D01*
X125043270Y-79303685D01*
X125060057Y-79332362D01*
X125084593Y-79365174D01*
X125112706Y-79394739D01*
X125144384Y-79421049D01*
X125179612Y-79444097D01*
X125218375Y-79463876D01*
X125260660Y-79480378D01*
X125306451Y-79493597D01*
X125355735Y-79503526D01*
X125408498Y-79510156D01*
X125414565Y-79510688D01*
X125433751Y-79511840D01*
X125456666Y-79512463D01*
X125482233Y-79512581D01*
X125509374Y-79512221D01*
X125537013Y-79511410D01*
X125564072Y-79510173D01*
X125589474Y-79508535D01*
X125612142Y-79506524D01*
X125619096Y-79505753D01*
X125696158Y-79495072D01*
X125774300Y-79481152D01*
X125852759Y-79464207D01*
X125930772Y-79444449D01*
X126007579Y-79422091D01*
X126082418Y-79397345D01*
X126154526Y-79370424D01*
X126223142Y-79341541D01*
X126247919Y-79330200D01*
X126307809Y-79300574D01*
X126365290Y-79269005D01*
X126420044Y-79235723D01*
X126471755Y-79200960D01*
X126520108Y-79164948D01*
X126564785Y-79127919D01*
X126605471Y-79090103D01*
X126641849Y-79051732D01*
X126663567Y-79025939D01*
X126673729Y-79013558D01*
X126681381Y-79005007D01*
X126686708Y-79000097D01*
X126689893Y-78998640D01*
X126690130Y-78998685D01*
X126700125Y-79001180D01*
X126714146Y-79004010D01*
X126731403Y-79007061D01*
X126751105Y-79010218D01*
X126772462Y-79013369D01*
X126794683Y-79016397D01*
X126816976Y-79019189D01*
X126838552Y-79021631D01*
X126858620Y-79023608D01*
X126868162Y-79024412D01*
X126888911Y-79025603D01*
X126911892Y-79026070D01*
X126937409Y-79025795D01*
X126965766Y-79024758D01*
X126997269Y-79022943D01*
X127032223Y-79020329D01*
X127070931Y-79016900D01*
X127113700Y-79012636D01*
X127160833Y-79007519D01*
X127175381Y-79005871D01*
X127242535Y-78997770D01*
X127314132Y-78988316D01*
X127389983Y-78977544D01*
X127469897Y-78965488D01*
X127553683Y-78952184D01*
X127641150Y-78937665D01*
X127732108Y-78921966D01*
X127826366Y-78905122D01*
X127923733Y-78887169D01*
X128024019Y-78868140D01*
X128127032Y-78848070D01*
X128232583Y-78826994D01*
X128340480Y-78804947D01*
X128450533Y-78781964D01*
X128562552Y-78758079D01*
X128676345Y-78733326D01*
X128695752Y-78729057D01*
X128717375Y-78724327D01*
X128737993Y-78719882D01*
X128757024Y-78715845D01*
X128773884Y-78712335D01*
X128787989Y-78709474D01*
X128798756Y-78707382D01*
X128805602Y-78706180D01*
X128807029Y-78705985D01*
X128825803Y-78706042D01*
X128845667Y-78709879D01*
X128865374Y-78717039D01*
X128883679Y-78727066D01*
X128899335Y-78739503D01*
X128899824Y-78739981D01*
X128907201Y-78748457D01*
X128916269Y-78760886D01*
X128926770Y-78776794D01*
X128938444Y-78795706D01*
X128951031Y-78817148D01*
X128964271Y-78840647D01*
X128977904Y-78865728D01*
X128991672Y-78891918D01*
X129005313Y-78918741D01*
X129018569Y-78945724D01*
X129031180Y-78972393D01*
X129042885Y-78998274D01*
X129048872Y-79012066D01*
X129067715Y-79059339D01*
X129082717Y-79103860D01*
X129093873Y-79145604D01*
X129101179Y-79184551D01*
X129104634Y-79220677D01*
X129104233Y-79253960D01*
X129099974Y-79284377D01*
X129092322Y-79310672D01*
X129085752Y-79324566D01*
X129076451Y-79339592D01*
X129065618Y-79354059D01*
X129054450Y-79366274D01*
X129050347Y-79369990D01*
X129039794Y-79378157D01*
X129028399Y-79385368D01*
X129015787Y-79391698D01*
X129001585Y-79397222D01*
X128985421Y-79402016D01*
X128966921Y-79406156D01*
X128945713Y-79409716D01*
X128921422Y-79412773D01*
X128893677Y-79415402D01*
X128862103Y-79417678D01*
X128826328Y-79419677D01*
X128798562Y-79420954D01*
X128785005Y-79421488D01*
X128767294Y-79422115D01*
X128746114Y-79422815D01*
X128722147Y-79423568D01*
X128696077Y-79424351D01*
X128668588Y-79425145D01*
X128640362Y-79425928D01*
X128612084Y-79426681D01*
X128597781Y-79427048D01*
X128525119Y-79428965D01*
X128456884Y-79430928D01*
X128392666Y-79432958D01*
X128332052Y-79435074D01*
X128274633Y-79437297D01*
X128219997Y-79439647D01*
X128167733Y-79442145D01*
X128117431Y-79444810D01*
X128068679Y-79447662D01*
X128021067Y-79450722D01*
X127974183Y-79454011D01*
X127927617Y-79457547D01*
X127880957Y-79461352D01*
X127856343Y-79463459D01*
X127751834Y-79473275D01*
X127651371Y-79484258D01*
X127554273Y-79496549D01*
X127459860Y-79510288D01*
X127367453Y-79525615D01*
X127276372Y-79542670D01*
X127185936Y-79561595D01*
X127095466Y-79582528D01*
X127004282Y-79605610D01*
X126911703Y-79630982D01*
X126817051Y-79658784D01*
X126719645Y-79689157D01*
X126645610Y-79713297D01*
X126606763Y-79726256D01*
X126570812Y-79738438D01*
X126537365Y-79750026D01*
X126506030Y-79761202D01*
X126476414Y-79772148D01*
X126448126Y-79783047D01*
X126420774Y-79794082D01*
X126393965Y-79805435D01*
X126367308Y-79817288D01*
X126340411Y-79829825D01*
X126312881Y-79843227D01*
X126284327Y-79857677D01*
X126254356Y-79873359D01*
X126222576Y-79890453D01*
X126188596Y-79909143D01*
X126152024Y-79929612D01*
X126112466Y-79952041D01*
X126069532Y-79976613D01*
X126025124Y-80002188D01*
X125990706Y-80022024D01*
X125960007Y-80039652D01*
X125932575Y-80055319D01*
X125907962Y-80069273D01*
X125885718Y-80081763D01*
X125865393Y-80093036D01*
X125846536Y-80103341D01*
X125828699Y-80112925D01*
X125811431Y-80122036D01*
X125794282Y-80130923D01*
X125776804Y-80139833D01*
X125761448Y-80147562D01*
X125716659Y-80169451D01*
X125674976Y-80188625D01*
X125635682Y-80205330D01*
X125598058Y-80219815D01*
X125561386Y-80232327D01*
X125524950Y-80243116D01*
X125488029Y-80252428D01*
X125449908Y-80260511D01*
X125417355Y-80266379D01*
X125376708Y-80272812D01*
X125339278Y-80277868D01*
X125303678Y-80281658D01*
X125268520Y-80284296D01*
X125232420Y-80285892D01*
X125193989Y-80286558D01*
X125167571Y-80286549D01*
X125149339Y-80286412D01*
X125132166Y-80286235D01*
X125116802Y-80286030D01*
X125103998Y-80285807D01*
X125094502Y-80285578D01*
X125089067Y-80285355D01*
X125088952Y-80285347D01*
X125026521Y-80279165D01*
X124964937Y-80269809D01*
X124904790Y-80257429D01*
X124846664Y-80242176D01*
X124791147Y-80224200D01*
X124738826Y-80203653D01*
X124699286Y-80185275D01*
X124640428Y-80153116D01*
X124583084Y-80116402D01*
X124527306Y-80075188D01*
X124473147Y-80029530D01*
X124420659Y-79979486D01*
X124369894Y-79925110D01*
X124320904Y-79866460D01*
X124273742Y-79803592D01*
X124228460Y-79736561D01*
X124185110Y-79665424D01*
X124143744Y-79590237D01*
X124140777Y-79584540D01*
X124115401Y-79533103D01*
X124091734Y-79479793D01*
X124069532Y-79423969D01*
X124048547Y-79364994D01*
X124028534Y-79302227D01*
X124017218Y-79263634D01*
X124012030Y-79245402D01*
X123843524Y-79177430D01*
X123816454Y-79166476D01*
X123790729Y-79156000D01*
X123766697Y-79146146D01*
X123744704Y-79137062D01*
X123725099Y-79128891D01*
X123708227Y-79121780D01*
X123694438Y-79115874D01*
X123684076Y-79111318D01*
X123677491Y-79108259D01*
X123675028Y-79106841D01*
X123675019Y-79106809D01*
X123676785Y-79104837D01*
X123681907Y-79099890D01*
X123690124Y-79092208D01*
X123701175Y-79082029D01*
X123714796Y-79069589D01*
X123730727Y-79055128D01*
X123748705Y-79038882D01*
X123768469Y-79021090D01*
X123789757Y-79001990D01*
X123812306Y-78981819D01*
X123829838Y-78966177D01*
X123984657Y-78828194D01*
X123994516Y-78800958D01*
X124013946Y-78752907D01*
X124036744Y-78707031D01*
X124063190Y-78662913D01*
X124093562Y-78620136D01*
X124128139Y-78578283D01*
X124167201Y-78536936D01*
X124178439Y-78525915D01*
X124224598Y-78484650D01*
X124274375Y-78446469D01*
X124327589Y-78411464D01*
X124384059Y-78379724D01*
X124443603Y-78351341D01*
X124506039Y-78326404D01*
X124571185Y-78305005D01*
X124638860Y-78287235D01*
X124670457Y-78280372D01*
X124700901Y-78274450D01*
X124728139Y-78269807D01*
X124753586Y-78266288D01*
X124778656Y-78263735D01*
X124804764Y-78261992D01*
X124833325Y-78260901D01*
X124849467Y-78260543D01*
X124881536Y-78260253D01*
X124909964Y-78260671D01*
G36*
X124909964Y-78260671D02*
G01*
X124935908Y-78261888D01*
X124960524Y-78263995D01*
X124984968Y-78267081D01*
X125010399Y-78271237D01*
X125027568Y-78274469D01*
X125052917Y-78279713D01*
X125077099Y-78285324D01*
X125100831Y-78291532D01*
X125124829Y-78298564D01*
X125149812Y-78306650D01*
X125176495Y-78316018D01*
X125205596Y-78326898D01*
X125237833Y-78339518D01*
X125262220Y-78349336D01*
X125294600Y-78362638D01*
X125327473Y-78376447D01*
X125361115Y-78390894D01*
X125395804Y-78406108D01*
X125431817Y-78422220D01*
X125469431Y-78439359D01*
X125508924Y-78457655D01*
X125550572Y-78477239D01*
X125594653Y-78498240D01*
X125641444Y-78520789D01*
X125691222Y-78545015D01*
X125744264Y-78571048D01*
X125800848Y-78599019D01*
X125861250Y-78629057D01*
X125900859Y-78648836D01*
X125956890Y-78676804D01*
X126008959Y-78702679D01*
X126057388Y-78726609D01*
X126102502Y-78748743D01*
X126144624Y-78769230D01*
X126184079Y-78788219D01*
X126221190Y-78805857D01*
X126256281Y-78822295D01*
X126289676Y-78837680D01*
X126321699Y-78852162D01*
X126352673Y-78865889D01*
X126382924Y-78879010D01*
X126412774Y-78891674D01*
X126442548Y-78904029D01*
X126472569Y-78916225D01*
X126503161Y-78928409D01*
X126534649Y-78940731D01*
X126546429Y-78945292D01*
X126562879Y-78951661D01*
X126578157Y-78957605D01*
X126591584Y-78962860D01*
X126602485Y-78967159D01*
X126610180Y-78970237D01*
X126613879Y-78971774D01*
X126620853Y-78974901D01*
X126602774Y-78996546D01*
X126574273Y-79028227D01*
X126541492Y-79060293D01*
X126504928Y-79092367D01*
X126465080Y-79124072D01*
X126422444Y-79155030D01*
X126377517Y-79184864D01*
X126330798Y-79213196D01*
X126282784Y-79239649D01*
X126281543Y-79240298D01*
X126218862Y-79271077D01*
X126152275Y-79300109D01*
X126082459Y-79327197D01*
X126010091Y-79352141D01*
X125935848Y-79374745D01*
X125860408Y-79394810D01*
X125784446Y-79412139D01*
X125708642Y-79426534D01*
X125633671Y-79437796D01*
X125587276Y-79443183D01*
X125573522Y-79444264D01*
X125556242Y-79445113D01*
X125536336Y-79445729D01*
X125514704Y-79446113D01*
X125492247Y-79446265D01*
X125469865Y-79446184D01*
X125448458Y-79445870D01*
X125428927Y-79445324D01*
X125412172Y-79444545D01*
X125399093Y-79443533D01*
X125396171Y-79443203D01*
X125348044Y-79435501D01*
X125303678Y-79424842D01*
X125263093Y-79411233D01*
X125226313Y-79394681D01*
X125193356Y-79375193D01*
X125180757Y-79366208D01*
X125152885Y-79342511D01*
X125129107Y-79316397D01*
X125109183Y-79287536D01*
X125092872Y-79255599D01*
X125084675Y-79234696D01*
X125078356Y-79215387D01*
X125073838Y-79197831D01*
X125070878Y-79180495D01*
X125069230Y-79161848D01*
X125068652Y-79140361D01*
X125068648Y-79133993D01*
X125068785Y-79094976D01*
X125052990Y-79093357D01*
X125037195Y-79091739D01*
X125020136Y-79103346D01*
X125003076Y-79114953D01*
X125002371Y-79137934D01*
X125003442Y-79170144D01*
X125008367Y-79203831D01*
X125016845Y-79237988D01*
X125028579Y-79271608D01*
X125043270Y-79303685D01*
X125060057Y-79332362D01*
X125084593Y-79365174D01*
X125112706Y-79394739D01*
X125144384Y-79421049D01*
X125179612Y-79444097D01*
X125218375Y-79463876D01*
X125260660Y-79480378D01*
X125306451Y-79493597D01*
X125355735Y-79503526D01*
X125408498Y-79510156D01*
X125414565Y-79510688D01*
X125433751Y-79511840D01*
X125456666Y-79512463D01*
X125482233Y-79512581D01*
X125509374Y-79512221D01*
X125537013Y-79511410D01*
X125564072Y-79510173D01*
X125589474Y-79508535D01*
X125612142Y-79506524D01*
X125619096Y-79505753D01*
X125696158Y-79495072D01*
X125774300Y-79481152D01*
X125852759Y-79464207D01*
X125930772Y-79444449D01*
X126007579Y-79422091D01*
X126082418Y-79397345D01*
X126154526Y-79370424D01*
X126223142Y-79341541D01*
X126247919Y-79330200D01*
X126307809Y-79300574D01*
X126365290Y-79269005D01*
X126420044Y-79235723D01*
X126471755Y-79200960D01*
X126520108Y-79164948D01*
X126564785Y-79127919D01*
X126605471Y-79090103D01*
X126641849Y-79051732D01*
X126663567Y-79025939D01*
X126673729Y-79013558D01*
X126681381Y-79005007D01*
X126686708Y-79000097D01*
X126689893Y-78998640D01*
X126690130Y-78998685D01*
X126700125Y-79001180D01*
X126714146Y-79004010D01*
X126731403Y-79007061D01*
X126751105Y-79010218D01*
X126772462Y-79013369D01*
X126794683Y-79016397D01*
X126816976Y-79019189D01*
X126838552Y-79021631D01*
X126858620Y-79023608D01*
X126868162Y-79024412D01*
X126888911Y-79025603D01*
X126911892Y-79026070D01*
X126937409Y-79025795D01*
X126965766Y-79024758D01*
X126997269Y-79022943D01*
X127032223Y-79020329D01*
X127070931Y-79016900D01*
X127113700Y-79012636D01*
X127160833Y-79007519D01*
X127175381Y-79005871D01*
X127242535Y-78997770D01*
X127314132Y-78988316D01*
X127389983Y-78977544D01*
X127469897Y-78965488D01*
X127553683Y-78952184D01*
X127641150Y-78937665D01*
X127732108Y-78921966D01*
X127826366Y-78905122D01*
X127923733Y-78887169D01*
X128024019Y-78868140D01*
X128127032Y-78848070D01*
X128232583Y-78826994D01*
X128340480Y-78804947D01*
X128450533Y-78781964D01*
X128562552Y-78758079D01*
X128676345Y-78733326D01*
X128695752Y-78729057D01*
X128717375Y-78724327D01*
X128737993Y-78719882D01*
X128757024Y-78715845D01*
X128773884Y-78712335D01*
X128787989Y-78709474D01*
X128798756Y-78707382D01*
X128805602Y-78706180D01*
X128807029Y-78705985D01*
X128825803Y-78706042D01*
X128845667Y-78709879D01*
X128865374Y-78717039D01*
X128883679Y-78727066D01*
X128899335Y-78739503D01*
X128899824Y-78739981D01*
X128907201Y-78748457D01*
X128916269Y-78760886D01*
X128926770Y-78776794D01*
X128938444Y-78795706D01*
X128951031Y-78817148D01*
X128964271Y-78840647D01*
X128977904Y-78865728D01*
X128991672Y-78891918D01*
X129005313Y-78918741D01*
X129018569Y-78945724D01*
X129031180Y-78972393D01*
X129042885Y-78998274D01*
X129048872Y-79012066D01*
X129067715Y-79059339D01*
X129082717Y-79103860D01*
X129093873Y-79145604D01*
X129101179Y-79184551D01*
X129104634Y-79220677D01*
X129104233Y-79253960D01*
X129099974Y-79284377D01*
X129092322Y-79310672D01*
X129085752Y-79324566D01*
X129076451Y-79339592D01*
X129065618Y-79354059D01*
X129054450Y-79366274D01*
X129050347Y-79369990D01*
X129039794Y-79378157D01*
X129028399Y-79385368D01*
X129015787Y-79391698D01*
X129001585Y-79397222D01*
X128985421Y-79402016D01*
X128966921Y-79406156D01*
X128945713Y-79409716D01*
X128921422Y-79412773D01*
X128893677Y-79415402D01*
X128862103Y-79417678D01*
X128826328Y-79419677D01*
X128798562Y-79420954D01*
X128785005Y-79421488D01*
X128767294Y-79422115D01*
X128746114Y-79422815D01*
X128722147Y-79423568D01*
X128696077Y-79424351D01*
X128668588Y-79425145D01*
X128640362Y-79425928D01*
X128612084Y-79426681D01*
X128597781Y-79427048D01*
X128525119Y-79428965D01*
X128456884Y-79430928D01*
X128392666Y-79432958D01*
X128332052Y-79435074D01*
X128274633Y-79437297D01*
X128219997Y-79439647D01*
X128167733Y-79442145D01*
X128117431Y-79444810D01*
X128068679Y-79447662D01*
X128021067Y-79450722D01*
X127974183Y-79454011D01*
X127927617Y-79457547D01*
X127880957Y-79461352D01*
X127856343Y-79463459D01*
X127751834Y-79473275D01*
X127651371Y-79484258D01*
X127554273Y-79496549D01*
X127459860Y-79510288D01*
X127367453Y-79525615D01*
X127276372Y-79542670D01*
X127185936Y-79561595D01*
X127095466Y-79582528D01*
X127004282Y-79605610D01*
X126911703Y-79630982D01*
X126817051Y-79658784D01*
X126719645Y-79689157D01*
X126645610Y-79713297D01*
X126606763Y-79726256D01*
X126570812Y-79738438D01*
X126537365Y-79750026D01*
X126506030Y-79761202D01*
X126476414Y-79772148D01*
X126448126Y-79783047D01*
X126420774Y-79794082D01*
X126393965Y-79805435D01*
X126367308Y-79817288D01*
X126340411Y-79829825D01*
X126312881Y-79843227D01*
X126284327Y-79857677D01*
X126254356Y-79873359D01*
X126222576Y-79890453D01*
X126188596Y-79909143D01*
X126152024Y-79929612D01*
X126112466Y-79952041D01*
X126069532Y-79976613D01*
X126025124Y-80002188D01*
X125990706Y-80022024D01*
X125960007Y-80039652D01*
X125932575Y-80055319D01*
X125907962Y-80069273D01*
X125885718Y-80081763D01*
X125865393Y-80093036D01*
X125846536Y-80103341D01*
X125828699Y-80112925D01*
X125811431Y-80122036D01*
X125794282Y-80130923D01*
X125776804Y-80139833D01*
X125761448Y-80147562D01*
X125716659Y-80169451D01*
X125674976Y-80188625D01*
X125635682Y-80205330D01*
X125598058Y-80219815D01*
X125561386Y-80232327D01*
X125524950Y-80243116D01*
X125488029Y-80252428D01*
X125449908Y-80260511D01*
X125417355Y-80266379D01*
X125376708Y-80272812D01*
X125339278Y-80277868D01*
X125303678Y-80281658D01*
X125268520Y-80284296D01*
X125232420Y-80285892D01*
X125193989Y-80286558D01*
X125167571Y-80286549D01*
X125149339Y-80286412D01*
X125132166Y-80286235D01*
X125116802Y-80286030D01*
X125103998Y-80285807D01*
X125094502Y-80285578D01*
X125089067Y-80285355D01*
X125088952Y-80285347D01*
X125026521Y-80279165D01*
X124964937Y-80269809D01*
X124904790Y-80257429D01*
X124846664Y-80242176D01*
X124791147Y-80224200D01*
X124738826Y-80203653D01*
X124699286Y-80185275D01*
X124640428Y-80153116D01*
X124583084Y-80116402D01*
X124527306Y-80075188D01*
X124473147Y-80029530D01*
X124420659Y-79979486D01*
X124369894Y-79925110D01*
X124320904Y-79866460D01*
X124273742Y-79803592D01*
X124228460Y-79736561D01*
X124185110Y-79665424D01*
X124143744Y-79590237D01*
X124140777Y-79584540D01*
X124115401Y-79533103D01*
X124091734Y-79479793D01*
X124069532Y-79423969D01*
X124048547Y-79364994D01*
X124028534Y-79302227D01*
X124017218Y-79263634D01*
X124012030Y-79245402D01*
X123843524Y-79177430D01*
X123816454Y-79166476D01*
X123790729Y-79156000D01*
X123766697Y-79146146D01*
X123744704Y-79137062D01*
X123725099Y-79128891D01*
X123708227Y-79121780D01*
X123694438Y-79115874D01*
X123684076Y-79111318D01*
X123677491Y-79108259D01*
X123675028Y-79106841D01*
X123675019Y-79106809D01*
X123676785Y-79104837D01*
X123681907Y-79099890D01*
X123690124Y-79092208D01*
X123701175Y-79082029D01*
X123714796Y-79069589D01*
X123730727Y-79055128D01*
X123748705Y-79038882D01*
X123768469Y-79021090D01*
X123789757Y-79001990D01*
X123812306Y-78981819D01*
X123829838Y-78966177D01*
X123984657Y-78828194D01*
X123994516Y-78800958D01*
X124013946Y-78752907D01*
X124036744Y-78707031D01*
X124063190Y-78662913D01*
X124093562Y-78620136D01*
X124128139Y-78578283D01*
X124167201Y-78536936D01*
X124178439Y-78525915D01*
X124224598Y-78484650D01*
X124274375Y-78446469D01*
X124327589Y-78411464D01*
X124384059Y-78379724D01*
X124443603Y-78351341D01*
X124506039Y-78326404D01*
X124571185Y-78305005D01*
X124638860Y-78287235D01*
X124670457Y-78280372D01*
X124700901Y-78274450D01*
X124728139Y-78269807D01*
X124753586Y-78266288D01*
X124778656Y-78263735D01*
X124804764Y-78261992D01*
X124833325Y-78260901D01*
X124849467Y-78260543D01*
X124881536Y-78260253D01*
X124909964Y-78260671D01*
G37*
%TD*%
D11*
%TO.C,RESET1*%
X155710000Y-86545000D03*
X155710000Y-82095000D03*
%TD*%
D12*
%TO.C,R210*%
X177317400Y-78210600D03*
X177317400Y-77190600D03*
%TD*%
D13*
%TO.C,C4*%
X164645400Y-89281002D03*
X165605400Y-89281002D03*
%TD*%
D14*
%TO.C,C1*%
X163709400Y-80268700D03*
X163709400Y-81228700D03*
%TD*%
D15*
%TO.C,U4*%
X192191600Y-83128700D03*
X193141600Y-83128700D03*
X194091600Y-83128700D03*
X194091600Y-80853700D03*
X192191600Y-80853700D03*
%TD*%
D16*
%TO.C,C15*%
X172665400Y-78490202D03*
X172665400Y-77530202D03*
%TD*%
D17*
%TO.C,D3*%
X199209200Y-79654400D03*
X200609200Y-79654400D03*
%TD*%
D18*
%TO.C,J2*%
X204720000Y-81021076D03*
X204720000Y-75241076D03*
D19*
X203650000Y-81331076D03*
X203650000Y-80531076D03*
D20*
X203650000Y-79381076D03*
X203650000Y-78381076D03*
X203650000Y-77881076D03*
X203650000Y-76881076D03*
D19*
X203650000Y-75731076D03*
X203650000Y-74931076D03*
X203650000Y-74931076D03*
X203650000Y-75731076D03*
D20*
X203650000Y-76381076D03*
X203650000Y-77381076D03*
X203650000Y-78881076D03*
X203650000Y-79881076D03*
D19*
X203650000Y-80531076D03*
X203650000Y-81331076D03*
D21*
X204220000Y-82451076D03*
D22*
X208400000Y-82451076D03*
D21*
X204220000Y-73811076D03*
D22*
X208400000Y-73811076D03*
%TD*%
D23*
%TO.C,U2*%
X171811400Y-89547002D03*
X172161400Y-89547002D03*
X172511400Y-89547002D03*
X172861400Y-89547002D03*
X173211400Y-89547002D03*
X173561400Y-89547002D03*
X173911400Y-89547002D03*
X174261400Y-89547002D03*
X174611400Y-89547002D03*
X174961400Y-89547002D03*
X175311400Y-89547002D03*
X175661400Y-89547002D03*
X176011400Y-89547002D03*
X176361400Y-89547002D03*
X176711400Y-89547002D03*
X177061400Y-89547002D03*
X177411400Y-89547002D03*
X177761400Y-89547002D03*
X178111400Y-89547002D03*
X178461400Y-89547002D03*
X178811400Y-89547002D03*
X179161400Y-89547002D03*
X179511400Y-89547002D03*
X179861400Y-89547002D03*
X180211400Y-89547002D03*
X180561400Y-89547002D03*
D24*
X181061400Y-89047002D03*
X181061400Y-88697002D03*
X181061400Y-88347002D03*
X181061400Y-87997002D03*
X181061400Y-87647002D03*
X181061400Y-87297002D03*
X181061400Y-86947002D03*
X181061400Y-86597002D03*
X181061400Y-86247002D03*
X181061400Y-85897002D03*
X181061400Y-85547002D03*
X181061400Y-85197002D03*
X181061400Y-84847002D03*
X181061400Y-84497002D03*
X181061400Y-84147002D03*
X181061400Y-83797002D03*
X181061400Y-83447002D03*
X181061400Y-83097002D03*
X181061400Y-82747002D03*
X181061400Y-82397002D03*
X181061400Y-82047002D03*
X181061400Y-81697002D03*
X181061400Y-81347002D03*
X181061400Y-80997002D03*
X181061400Y-80647002D03*
X181061400Y-80297002D03*
D23*
X180561400Y-79797002D03*
X180211400Y-79797002D03*
X179861400Y-79797002D03*
X179511400Y-79797002D03*
X179161400Y-79797002D03*
X178811400Y-79797002D03*
X178461400Y-79797002D03*
X178111400Y-79797002D03*
X177761400Y-79797002D03*
X177411400Y-79797002D03*
X177061400Y-79797002D03*
X176711400Y-79797002D03*
X176361400Y-79797002D03*
X176011400Y-79797002D03*
X175661400Y-79797002D03*
X175311400Y-79797002D03*
X174961400Y-79797002D03*
X174611400Y-79797002D03*
X174261400Y-79797002D03*
X173911400Y-79797002D03*
X173561400Y-79797002D03*
X173211400Y-79797002D03*
X172861400Y-79797002D03*
X172511400Y-79797002D03*
X172161400Y-79797002D03*
X171811400Y-79797002D03*
D24*
X171311400Y-80297002D03*
X171311400Y-80647002D03*
X171311400Y-80997002D03*
X171311400Y-81347002D03*
X171311400Y-81697002D03*
X171311400Y-82047002D03*
X171311400Y-82397002D03*
X171311400Y-82747002D03*
X171311400Y-83097002D03*
X171311400Y-83447002D03*
X171311400Y-83797002D03*
X171311400Y-84147002D03*
X171311400Y-84497002D03*
X171311400Y-84847002D03*
X171311400Y-85197002D03*
X171311400Y-85547002D03*
X171311400Y-85897002D03*
X171311400Y-86247002D03*
X171311400Y-86597002D03*
X171311400Y-86947002D03*
X171311400Y-87297002D03*
X171311400Y-87647002D03*
X171311400Y-87997002D03*
X171311400Y-88347002D03*
X171311400Y-88697002D03*
X171311400Y-89047002D03*
D25*
X173486400Y-87372002D03*
X176186400Y-87372002D03*
X178886400Y-87372002D03*
X173486400Y-84672002D03*
X176186400Y-84672002D03*
X178886400Y-84672002D03*
X173486400Y-81972002D03*
X176186400Y-81972002D03*
X178886400Y-81972002D03*
%TD*%
D13*
%TO.C,C5*%
X164597200Y-85166202D03*
X165557200Y-85166202D03*
%TD*%
D26*
%TO.C,C3*%
X169246600Y-78970700D03*
X169246600Y-80520700D03*
%TD*%
D27*
%TO.C,J10*%
X200160000Y-94480000D03*
X197620000Y-94480000D03*
X195080000Y-94480000D03*
X192540000Y-94480000D03*
%TD*%
D28*
%TO.C,D8*%
X200945100Y-84080000D03*
X199070100Y-84080000D03*
%TD*%
D29*
%TO.C,C10*%
X193634400Y-79013900D03*
X192084400Y-79013900D03*
%TD*%
D30*
%TO.C,U1*%
X167507500Y-82230000D03*
X167507500Y-81280000D03*
X167507500Y-80330000D03*
X165232500Y-80330000D03*
X165232500Y-82230000D03*
%TD*%
D12*
%TO.C,R13*%
X197612000Y-85092000D03*
X197612000Y-84072000D03*
%TD*%
D31*
%TO.C,R12*%
X199438800Y-87368000D03*
X200458800Y-87368000D03*
%TD*%
D27*
%TO.C,J9*%
X200160000Y-74160000D03*
X197620000Y-74160000D03*
X195080000Y-74160000D03*
X192540000Y-74160000D03*
%TD*%
D31*
%TO.C,R11*%
X199438800Y-91490800D03*
X200458800Y-91490800D03*
%TD*%
D32*
%TO.C,L2*%
X193947200Y-85096700D03*
X193947200Y-87246700D03*
%TD*%
D18*
%TO.C,J1*%
X204720000Y-93390000D03*
X204720000Y-87610000D03*
D19*
X203650000Y-93700000D03*
X203650000Y-92900000D03*
D20*
X203650000Y-91750000D03*
X203650000Y-90750000D03*
X203650000Y-90250000D03*
X203650000Y-89250000D03*
D19*
X203650000Y-88100000D03*
X203650000Y-87300000D03*
X203650000Y-87300000D03*
X203650000Y-88100000D03*
D20*
X203650000Y-88750000D03*
X203650000Y-89750000D03*
X203650000Y-91250000D03*
X203650000Y-92250000D03*
D19*
X203650000Y-92900000D03*
X203650000Y-93700000D03*
D21*
X204220000Y-94820000D03*
D22*
X208400000Y-94820000D03*
D21*
X204220000Y-86180000D03*
D22*
X208400000Y-86180000D03*
%TD*%
D33*
%TO.C,D7*%
X200679200Y-88536400D03*
X201379200Y-88536400D03*
%TD*%
D34*
%TO.C,U3*%
X183786200Y-91211402D03*
X185056200Y-91211402D03*
X186326200Y-91211402D03*
X187596200Y-91211402D03*
X187596200Y-85811402D03*
X186326200Y-85811402D03*
X185056200Y-85811402D03*
X183786200Y-85811402D03*
D35*
X185691200Y-88511402D03*
%TD*%
D36*
%TO.C,BOOT1*%
X132850000Y-82095000D03*
X132850000Y-86545000D03*
%TD*%
D37*
%TO.C,R3*%
X168252200Y-88198002D03*
X167232200Y-88198002D03*
%TD*%
D31*
%TO.C,R5*%
X199235600Y-80924400D03*
X200255600Y-80924400D03*
%TD*%
D38*
%TO.C,D1*%
X141830000Y-82670000D03*
X141830000Y-85970000D03*
X146730000Y-85970000D03*
X146730000Y-82670000D03*
%TD*%
D37*
%TO.C,R4*%
X168252200Y-87198002D03*
X167232200Y-87198002D03*
%TD*%
D33*
%TO.C,D6*%
X200679200Y-90322400D03*
X201379200Y-90322400D03*
%TD*%
D39*
%TO.C,Y1*%
X165689200Y-87914802D03*
X165689200Y-86514802D03*
X164589200Y-86514802D03*
X164589200Y-87914802D03*
%TD*%
D14*
%TO.C,C38*%
X139850000Y-83840000D03*
X139850000Y-84800000D03*
%TD*%
D40*
%TO.C,J11*%
X127964800Y-82820000D03*
X127964800Y-83820000D03*
X127964800Y-84820000D03*
X127964800Y-85820000D03*
D41*
X124089800Y-81520000D03*
X124089800Y-87120000D03*
%TD*%
D17*
%TO.C,D2*%
X199198000Y-77774800D03*
X200598000Y-77774800D03*
%TD*%
D16*
%TO.C,C17*%
X174244000Y-78409802D03*
X174244000Y-77449802D03*
%TD*%
D42*
%TO.C,L1*%
X165225200Y-78159900D03*
X167375200Y-78159900D03*
%TD*%
D43*
%TO.C,C37*%
X191712000Y-86540300D03*
X191712000Y-84990300D03*
%TD*%
D44*
%TO.C,C39*%
X176502000Y-76225400D03*
X175542000Y-76225400D03*
%TD*%
D27*
%TO.C,J7*%
X164600000Y-94480000D03*
X162060000Y-94480000D03*
X159520000Y-94480000D03*
X156980000Y-94480000D03*
X154440000Y-94480000D03*
X151900000Y-94480000D03*
X149360000Y-94480000D03*
X146820000Y-94480000D03*
%TD*%
%TO.C,J5*%
X141740000Y-74160000D03*
X139200000Y-74160000D03*
X136660000Y-74160000D03*
X134120000Y-74160000D03*
X131580000Y-74160000D03*
X129040000Y-74160000D03*
X126500000Y-74160000D03*
X123960000Y-74160000D03*
%TD*%
%TO.C,J4*%
X164600000Y-74160000D03*
X162060000Y-74160000D03*
X159520000Y-74160000D03*
X156980000Y-74160000D03*
X154440000Y-74160000D03*
X151900000Y-74160000D03*
X149360000Y-74160000D03*
X146820000Y-74160000D03*
%TD*%
%TO.C,J8*%
X141740000Y-94480000D03*
X139200000Y-94480000D03*
X136660000Y-94480000D03*
X134120000Y-94480000D03*
X131580000Y-94480000D03*
X129040000Y-94480000D03*
X126500000Y-94480000D03*
X123960000Y-94480000D03*
%TD*%
%TO.C,J6*%
X187460000Y-94480000D03*
X184920000Y-94480000D03*
X182380000Y-94480000D03*
X179840000Y-94480000D03*
X177300000Y-94480000D03*
X174760000Y-94480000D03*
X172220000Y-94480000D03*
X169680000Y-94480000D03*
%TD*%
%TO.C,J3*%
X187460000Y-74160000D03*
X184920000Y-74160000D03*
X182380000Y-74160000D03*
X179840000Y-74160000D03*
X177300000Y-74160000D03*
X174760000Y-74160000D03*
X172220000Y-74160000D03*
X169680000Y-74160000D03*
%TD*%
M02*
