%TF.GenerationSoftware,KiCad,Pcbnew,10.0.1*%
%TF.CreationDate,2026-04-23T11:40:39-07:00*%
%TF.ProjectId,p4gpio,70346770-696f-42e6-9b69-6361645f7063,rev?*%
%TF.SameCoordinates,Original*%
%TF.FileFunction,Soldermask,Top*%
%TF.FilePolarity,Negative*%
%FSLAX46Y46*%
G04 Gerber Fmt 4.6, Leading zero omitted, Abs format (unit mm)*
G04 Created by KiCad (PCBNEW 10.0.1) date 2026-04-23 11:40:39*
%MOMM*%
%LPD*%
G01*
G04 APERTURE LIST*
G04 Aperture macros list*
%AMRoundRect*
0 Rectangle with rounded corners*
0 $1 Rounding radius*
0 $2 $3 $4 $5 $6 $7 $8 $9 X,Y pos of 4 corners*
0 Add a 4 corners polygon primitive as box body*
4,1,4,$2,$3,$4,$5,$6,$7,$8,$9,$2,$3,0*
0 Add four circle primitives for the rounded corners*
1,1,$1+$1,$2,$3*
1,1,$1+$1,$4,$5*
1,1,$1+$1,$6,$7*
1,1,$1+$1,$8,$9*
0 Add four rect primitives between the rounded corners*
20,1,$1+$1,$2,$3,$4,$5,0*
20,1,$1+$1,$4,$5,$6,$7,0*
20,1,$1+$1,$6,$7,$8,$9,0*
20,1,$1+$1,$8,$9,$2,$3,0*%
G04 Aperture macros list end*
%ADD10C,0.010000*%
%ADD11RoundRect,0.250000X0.750000X-0.275000X0.750000X0.275000X-0.750000X0.275000X-0.750000X-0.275000X0*%
%ADD12RoundRect,0.135000X0.185000X-0.135000X0.185000X0.135000X-0.185000X0.135000X-0.185000X-0.135000X0*%
%ADD13RoundRect,0.140000X-0.140000X-0.170000X0.140000X-0.170000X0.140000X0.170000X-0.140000X0.170000X0*%
%ADD14RoundRect,0.140000X-0.170000X0.140000X-0.170000X-0.140000X0.170000X-0.140000X0.170000X0.140000X0*%
%ADD15RoundRect,0.150000X0.150000X-0.512500X0.150000X0.512500X-0.150000X0.512500X-0.150000X-0.512500X0*%
%ADD16RoundRect,0.140000X0.170000X-0.140000X0.170000X0.140000X-0.170000X0.140000X-0.170000X-0.140000X0*%
%ADD17RoundRect,0.150000X0.150000X0.200000X-0.150000X0.200000X-0.150000X-0.200000X0.150000X-0.200000X0*%
%ADD18RoundRect,0.150000X0.575000X-0.150000X0.575000X0.150000X-0.575000X0.150000X-0.575000X-0.150000X0*%
%ADD19RoundRect,0.075000X0.650000X-0.075000X0.650000X0.075000X-0.650000X0.075000X-0.650000X-0.075000X0*%
%ADD20O,2.100000X1.000000*%
%ADD21O,1.600000X1.000000*%
%ADD22O,0.200000X0.650000*%
%ADD23O,0.650000X0.200000*%
%ADD24R,2.100000X2.100000*%
%ADD25RoundRect,0.225000X-0.250000X0.225000X-0.250000X-0.225000X0.250000X-0.225000X0.250000X0.225000X0*%
%ADD26C,1.700000*%
%ADD27RoundRect,0.243750X0.243750X0.456250X-0.243750X0.456250X-0.243750X-0.456250X0.243750X-0.456250X0*%
%ADD28RoundRect,0.225000X0.225000X0.250000X-0.225000X0.250000X-0.225000X-0.250000X0.225000X-0.250000X0*%
%ADD29RoundRect,0.150000X0.512500X0.150000X-0.512500X0.150000X-0.512500X-0.150000X0.512500X-0.150000X0*%
%ADD30RoundRect,0.135000X-0.135000X-0.185000X0.135000X-0.185000X0.135000X0.185000X-0.135000X0.185000X0*%
%ADD31RoundRect,0.250000X-0.850000X0.375000X-0.850000X-0.375000X0.850000X-0.375000X0.850000X0.375000X0*%
%ADD32RoundRect,0.050000X-0.150000X-0.300000X0.150000X-0.300000X0.150000X0.300000X-0.150000X0.300000X0*%
%ADD33RoundRect,0.125000X0.125000X-0.250000X0.125000X0.250000X-0.125000X0.250000X-0.125000X-0.250000X0*%
%ADD34R,4.300000X3.400000*%
%ADD35RoundRect,0.250000X-0.750000X0.275000X-0.750000X-0.275000X0.750000X-0.275000X0.750000X0.275000X0*%
%ADD36RoundRect,0.135000X0.135000X0.185000X-0.135000X0.185000X-0.135000X-0.185000X0.135000X-0.185000X0*%
%ADD37RoundRect,0.090000X-0.660000X-0.360000X0.660000X-0.360000X0.660000X0.360000X-0.660000X0.360000X0*%
%ADD38RoundRect,0.200000X0.200000X-0.250000X0.200000X0.250000X-0.200000X0.250000X-0.200000X-0.250000X0*%
%ADD39RoundRect,0.150000X-0.625000X0.150000X-0.625000X-0.150000X0.625000X-0.150000X0.625000X0.150000X0*%
%ADD40RoundRect,0.250000X-0.650000X0.350000X-0.650000X-0.350000X0.650000X-0.350000X0.650000X0.350000X0*%
%ADD41RoundRect,0.250000X-0.375000X-0.850000X0.375000X-0.850000X0.375000X0.850000X-0.375000X0.850000X0*%
%ADD42RoundRect,0.225000X0.250000X-0.225000X0.250000X0.225000X-0.250000X0.225000X-0.250000X-0.225000X0*%
%ADD43RoundRect,0.140000X0.140000X0.170000X-0.140000X0.170000X-0.140000X-0.170000X0.140000X-0.170000X0*%
G04 APERTURE END LIST*
D10*
%TO.C,G\u002A\u002A\u002A*%
X143734982Y-80494235D02*
X143747954Y-80494844D01*
X143760262Y-80495897D01*
X143772484Y-80497440D01*
X143785199Y-80499518D01*
X143793784Y-80501134D01*
X143806458Y-80503756D01*
X143818549Y-80506562D01*
X143830415Y-80509666D01*
X143842414Y-80513182D01*
X143854906Y-80517225D01*
X143868247Y-80521909D01*
X143882798Y-80527349D01*
X143898916Y-80533659D01*
X143911110Y-80538568D01*
X143927300Y-80545219D01*
X143943736Y-80552123D01*
X143960557Y-80559347D01*
X143977902Y-80566954D01*
X143995908Y-80575010D01*
X144014715Y-80583579D01*
X144034462Y-80592727D01*
X144055286Y-80602519D01*
X144077326Y-80613020D01*
X144100722Y-80624294D01*
X144125611Y-80636407D01*
X144152132Y-80649424D01*
X144180424Y-80663409D01*
X144210625Y-80678428D01*
X144230429Y-80688318D01*
X144258445Y-80702302D01*
X144284479Y-80715239D01*
X144308694Y-80727204D01*
X144331251Y-80738271D01*
X144352312Y-80748515D01*
X144372039Y-80758009D01*
X144390595Y-80766828D01*
X144408140Y-80775047D01*
X144424838Y-80782740D01*
X144440849Y-80789981D01*
X144456336Y-80796844D01*
X144471462Y-80803405D01*
X144486387Y-80809737D01*
X144501274Y-80815914D01*
X144516284Y-80822012D01*
X144531580Y-80828104D01*
X144547324Y-80834265D01*
X144553214Y-80836546D01*
X144561439Y-80839730D01*
X144569078Y-80842702D01*
X144575792Y-80845330D01*
X144581242Y-80847479D01*
X144585090Y-80849018D01*
X144586939Y-80849787D01*
X144590426Y-80851350D01*
X144581387Y-80862173D01*
X144567136Y-80878013D01*
X144550746Y-80894046D01*
X144532464Y-80910083D01*
X144512540Y-80925936D01*
X144491222Y-80941415D01*
X144468758Y-80956332D01*
X144445399Y-80970498D01*
X144421392Y-80983724D01*
X144420771Y-80984049D01*
X144389431Y-80999438D01*
X144356137Y-81013954D01*
X144321229Y-81027498D01*
X144285045Y-81039970D01*
X144247924Y-81051272D01*
X144210204Y-81061305D01*
X144172223Y-81069969D01*
X144134321Y-81077167D01*
X144096835Y-81082798D01*
X144073638Y-81085491D01*
X144066761Y-81086032D01*
X144058121Y-81086456D01*
X144048168Y-81086764D01*
X144037352Y-81086956D01*
X144026123Y-81087032D01*
X144014932Y-81086992D01*
X144004229Y-81086835D01*
X143994463Y-81086562D01*
X143986086Y-81086172D01*
X143979546Y-81085666D01*
X143978085Y-81085501D01*
X143954022Y-81081650D01*
X143931839Y-81076321D01*
X143911546Y-81069516D01*
X143893156Y-81061240D01*
X143876678Y-81051496D01*
X143870378Y-81047004D01*
X143856442Y-81035155D01*
X143844553Y-81022098D01*
X143834591Y-81007668D01*
X143826436Y-80991699D01*
X143822337Y-80981248D01*
X143819178Y-80971593D01*
X143816919Y-80962815D01*
X143815439Y-80954147D01*
X143814615Y-80944824D01*
X143814326Y-80934080D01*
X143814324Y-80930896D01*
X143814392Y-80911388D01*
X143806495Y-80910578D01*
X143798597Y-80909769D01*
X143790068Y-80915573D01*
X143781538Y-80921376D01*
X143781185Y-80932867D01*
X143781721Y-80948972D01*
X143784183Y-80965815D01*
X143788422Y-80982894D01*
X143794289Y-80999704D01*
X143801635Y-81015742D01*
X143810028Y-81030081D01*
X143822296Y-81046487D01*
X143836353Y-81061269D01*
X143852192Y-81074424D01*
X143869806Y-81085948D01*
X143889187Y-81095838D01*
X143910330Y-81104089D01*
X143933225Y-81110698D01*
X143957867Y-81115663D01*
X143984249Y-81118978D01*
X143987282Y-81119244D01*
X143996875Y-81119820D01*
X144008333Y-81120131D01*
X144021116Y-81120190D01*
X144034687Y-81120010D01*
X144048506Y-81119605D01*
X144062036Y-81118986D01*
X144074737Y-81118167D01*
X144086071Y-81117162D01*
X144089548Y-81116776D01*
X144128079Y-81111436D01*
X144167150Y-81104476D01*
X144206379Y-81096003D01*
X144245386Y-81086124D01*
X144283789Y-81074945D01*
X144321209Y-81062572D01*
X144357263Y-81049112D01*
X144391571Y-81034670D01*
X144403959Y-81029000D01*
X144433904Y-81014187D01*
X144462645Y-80998402D01*
X144490022Y-80981761D01*
X144515877Y-80964380D01*
X144540054Y-80946374D01*
X144562392Y-80927859D01*
X144582735Y-80908951D01*
X144600924Y-80889766D01*
X144611783Y-80876869D01*
X144616864Y-80870679D01*
X144620690Y-80866403D01*
X144623354Y-80863948D01*
X144624946Y-80863220D01*
X144625065Y-80863242D01*
X144630062Y-80864490D01*
X144637073Y-80865905D01*
X144645701Y-80867430D01*
X144655552Y-80869009D01*
X144666231Y-80870584D01*
X144677341Y-80872098D01*
X144688488Y-80873494D01*
X144699276Y-80874715D01*
X144709310Y-80875704D01*
X144714081Y-80876106D01*
X144724455Y-80876701D01*
X144735946Y-80876935D01*
X144748704Y-80876797D01*
X144762883Y-80876279D01*
X144778634Y-80875371D01*
X144796111Y-80874064D01*
X144815465Y-80872350D01*
X144836850Y-80870218D01*
X144860416Y-80867659D01*
X144867690Y-80866835D01*
X144901267Y-80862785D01*
X144937066Y-80858058D01*
X144974991Y-80852672D01*
X145014948Y-80846644D01*
X145056841Y-80839992D01*
X145100575Y-80832732D01*
X145146054Y-80824883D01*
X145193183Y-80816461D01*
X145241866Y-80807484D01*
X145292009Y-80797970D01*
X145343516Y-80787935D01*
X145396291Y-80777397D01*
X145450240Y-80766373D01*
X145505266Y-80754882D01*
X145561276Y-80742939D01*
X145618172Y-80730563D01*
X145627876Y-80728428D01*
X145638687Y-80726063D01*
X145648996Y-80723841D01*
X145658512Y-80721822D01*
X145666942Y-80720067D01*
X145673994Y-80718637D01*
X145679378Y-80717591D01*
X145682801Y-80716990D01*
X145683514Y-80716892D01*
X145692901Y-80716921D01*
X145702833Y-80718839D01*
X145712687Y-80722419D01*
X145721839Y-80727433D01*
X145729667Y-80733651D01*
X145729912Y-80733890D01*
X145733600Y-80738128D01*
X145738134Y-80744343D01*
X145743385Y-80752297D01*
X145749222Y-80761753D01*
X145755515Y-80772474D01*
X145762135Y-80784223D01*
X145768952Y-80796764D01*
X145775836Y-80809859D01*
X145782656Y-80823270D01*
X145789284Y-80836762D01*
X145795590Y-80850096D01*
X145801442Y-80863037D01*
X145804436Y-80869933D01*
X145813857Y-80893569D01*
X145821358Y-80915830D01*
X145826936Y-80936702D01*
X145830589Y-80956175D01*
X145832317Y-80974238D01*
X145832116Y-80990880D01*
X145829987Y-81006088D01*
X145826161Y-81019236D01*
X145822876Y-81026183D01*
X145818225Y-81033696D01*
X145812809Y-81040929D01*
X145807225Y-81047037D01*
X145805173Y-81048895D01*
X145799897Y-81052978D01*
X145794199Y-81056584D01*
X145787893Y-81059749D01*
X145780792Y-81062511D01*
X145772710Y-81064908D01*
X145763460Y-81066978D01*
X145752856Y-81068758D01*
X145740711Y-81070286D01*
X145726838Y-81071601D01*
X145711051Y-81072739D01*
X145693164Y-81073738D01*
X145679281Y-81074377D01*
X145672502Y-81074644D01*
X145663647Y-81074957D01*
X145653057Y-81075307D01*
X145641073Y-81075684D01*
X145628038Y-81076075D01*
X145614294Y-81076472D01*
X145600181Y-81076864D01*
X145586042Y-81077240D01*
X145578890Y-81077424D01*
X145542559Y-81078382D01*
X145508442Y-81079364D01*
X145476333Y-81080379D01*
X145446026Y-81081437D01*
X145417316Y-81082548D01*
X145389998Y-81083723D01*
X145363866Y-81084972D01*
X145338715Y-81086305D01*
X145314339Y-81087731D01*
X145290533Y-81089261D01*
X145267091Y-81090905D01*
X145243808Y-81092673D01*
X145220478Y-81094576D01*
X145208171Y-81095629D01*
X145155917Y-81100537D01*
X145105685Y-81106029D01*
X145057136Y-81112174D01*
X145009930Y-81119044D01*
X144963726Y-81126707D01*
X144918186Y-81135235D01*
X144872968Y-81144697D01*
X144827733Y-81155164D01*
X144782141Y-81166705D01*
X144735851Y-81179391D01*
X144688525Y-81193292D01*
X144639822Y-81208478D01*
X144602805Y-81220548D01*
X144583381Y-81227028D01*
X144565406Y-81233119D01*
X144548682Y-81238913D01*
X144533015Y-81244501D01*
X144518207Y-81249974D01*
X144504063Y-81255423D01*
X144490387Y-81260941D01*
X144476982Y-81266617D01*
X144463654Y-81272544D01*
X144450205Y-81278812D01*
X144436440Y-81285513D01*
X144422163Y-81292738D01*
X144407178Y-81300579D01*
X144391288Y-81309126D01*
X144374298Y-81318471D01*
X144356012Y-81328706D01*
X144336233Y-81339920D01*
X144314766Y-81352206D01*
X144292562Y-81364994D01*
X144275353Y-81374912D01*
X144260003Y-81383726D01*
X144246287Y-81391559D01*
X144233981Y-81398536D01*
X144222859Y-81404781D01*
X144212696Y-81410418D01*
X144203268Y-81415570D01*
X144194349Y-81420362D01*
X144185715Y-81424918D01*
X144177141Y-81429361D01*
X144168402Y-81433816D01*
X144160724Y-81437681D01*
X144138329Y-81448625D01*
X144117488Y-81458212D01*
X144097841Y-81466565D01*
X144079029Y-81473807D01*
X144060693Y-81480063D01*
X144042475Y-81485458D01*
X144024014Y-81490114D01*
X144004954Y-81494155D01*
X143988677Y-81497089D01*
X143968354Y-81500306D01*
X143949639Y-81502834D01*
X143931839Y-81504729D01*
X143914260Y-81506048D01*
X143896210Y-81506846D01*
X143876994Y-81507179D01*
X143863785Y-81507174D01*
X143854669Y-81507106D01*
X143846083Y-81507017D01*
X143838401Y-81506915D01*
X143831999Y-81506803D01*
X143827251Y-81506689D01*
X143824533Y-81506577D01*
X143824476Y-81506573D01*
X143793260Y-81503482D01*
X143762468Y-81498804D01*
X143732395Y-81492614D01*
X143703332Y-81484988D01*
X143675573Y-81476000D01*
X143649413Y-81465726D01*
X143629643Y-81456537D01*
X143600214Y-81440458D01*
X143571542Y-81422101D01*
X143543653Y-81401494D01*
X143516573Y-81378665D01*
X143490329Y-81353643D01*
X143464947Y-81326455D01*
X143440452Y-81297130D01*
X143416871Y-81265696D01*
X143394230Y-81232180D01*
X143372555Y-81196612D01*
X143351872Y-81159018D01*
X143350388Y-81156170D01*
X143337700Y-81130451D01*
X143325867Y-81103796D01*
X143314766Y-81075884D01*
X143304273Y-81046397D01*
X143294267Y-81015013D01*
X143288609Y-80995717D01*
X143286015Y-80986601D01*
X143201762Y-80952615D01*
X143188227Y-80947138D01*
X143175364Y-80941900D01*
X143163348Y-80936973D01*
X143152352Y-80932431D01*
X143142549Y-80928345D01*
X143134113Y-80924790D01*
X143127219Y-80921837D01*
X143122038Y-80919559D01*
X143118745Y-80918029D01*
X143117514Y-80917320D01*
X143117509Y-80917304D01*
X143118392Y-80916318D01*
X143120953Y-80913845D01*
X143125062Y-80910004D01*
X143130587Y-80904914D01*
X143137398Y-80898694D01*
X143145363Y-80891464D01*
X143154352Y-80883341D01*
X143164234Y-80874445D01*
X143174878Y-80864895D01*
X143186153Y-80854809D01*
X143194919Y-80846988D01*
X143272328Y-80777997D01*
X143277258Y-80764379D01*
X143286973Y-80740353D01*
X143298372Y-80717415D01*
X143311595Y-80695356D01*
X143326781Y-80673968D01*
X143344069Y-80653041D01*
X143363600Y-80632368D01*
X143369219Y-80626857D01*
X143392299Y-80606225D01*
X143417187Y-80587134D01*
X143443794Y-80569632D01*
X143472029Y-80553762D01*
X143501801Y-80539570D01*
X143533019Y-80527102D01*
X143565592Y-80516402D01*
X143599430Y-80507517D01*
X143615228Y-80504086D01*
X143630450Y-80501125D01*
X143644069Y-80498803D01*
X143656793Y-80497044D01*
X143669328Y-80495767D01*
X143682382Y-80494896D01*
X143696662Y-80494350D01*
X143704733Y-80494171D01*
X143720768Y-80494026D01*
X143734982Y-80494235D01*
G36*
X143734982Y-80494235D02*
G01*
X143747954Y-80494844D01*
X143760262Y-80495897D01*
X143772484Y-80497440D01*
X143785199Y-80499518D01*
X143793784Y-80501134D01*
X143806458Y-80503756D01*
X143818549Y-80506562D01*
X143830415Y-80509666D01*
X143842414Y-80513182D01*
X143854906Y-80517225D01*
X143868247Y-80521909D01*
X143882798Y-80527349D01*
X143898916Y-80533659D01*
X143911110Y-80538568D01*
X143927300Y-80545219D01*
X143943736Y-80552123D01*
X143960557Y-80559347D01*
X143977902Y-80566954D01*
X143995908Y-80575010D01*
X144014715Y-80583579D01*
X144034462Y-80592727D01*
X144055286Y-80602519D01*
X144077326Y-80613020D01*
X144100722Y-80624294D01*
X144125611Y-80636407D01*
X144152132Y-80649424D01*
X144180424Y-80663409D01*
X144210625Y-80678428D01*
X144230429Y-80688318D01*
X144258445Y-80702302D01*
X144284479Y-80715239D01*
X144308694Y-80727204D01*
X144331251Y-80738271D01*
X144352312Y-80748515D01*
X144372039Y-80758009D01*
X144390595Y-80766828D01*
X144408140Y-80775047D01*
X144424838Y-80782740D01*
X144440849Y-80789981D01*
X144456336Y-80796844D01*
X144471462Y-80803405D01*
X144486387Y-80809737D01*
X144501274Y-80815914D01*
X144516284Y-80822012D01*
X144531580Y-80828104D01*
X144547324Y-80834265D01*
X144553214Y-80836546D01*
X144561439Y-80839730D01*
X144569078Y-80842702D01*
X144575792Y-80845330D01*
X144581242Y-80847479D01*
X144585090Y-80849018D01*
X144586939Y-80849787D01*
X144590426Y-80851350D01*
X144581387Y-80862173D01*
X144567136Y-80878013D01*
X144550746Y-80894046D01*
X144532464Y-80910083D01*
X144512540Y-80925936D01*
X144491222Y-80941415D01*
X144468758Y-80956332D01*
X144445399Y-80970498D01*
X144421392Y-80983724D01*
X144420771Y-80984049D01*
X144389431Y-80999438D01*
X144356137Y-81013954D01*
X144321229Y-81027498D01*
X144285045Y-81039970D01*
X144247924Y-81051272D01*
X144210204Y-81061305D01*
X144172223Y-81069969D01*
X144134321Y-81077167D01*
X144096835Y-81082798D01*
X144073638Y-81085491D01*
X144066761Y-81086032D01*
X144058121Y-81086456D01*
X144048168Y-81086764D01*
X144037352Y-81086956D01*
X144026123Y-81087032D01*
X144014932Y-81086992D01*
X144004229Y-81086835D01*
X143994463Y-81086562D01*
X143986086Y-81086172D01*
X143979546Y-81085666D01*
X143978085Y-81085501D01*
X143954022Y-81081650D01*
X143931839Y-81076321D01*
X143911546Y-81069516D01*
X143893156Y-81061240D01*
X143876678Y-81051496D01*
X143870378Y-81047004D01*
X143856442Y-81035155D01*
X143844553Y-81022098D01*
X143834591Y-81007668D01*
X143826436Y-80991699D01*
X143822337Y-80981248D01*
X143819178Y-80971593D01*
X143816919Y-80962815D01*
X143815439Y-80954147D01*
X143814615Y-80944824D01*
X143814326Y-80934080D01*
X143814324Y-80930896D01*
X143814392Y-80911388D01*
X143806495Y-80910578D01*
X143798597Y-80909769D01*
X143790068Y-80915573D01*
X143781538Y-80921376D01*
X143781185Y-80932867D01*
X143781721Y-80948972D01*
X143784183Y-80965815D01*
X143788422Y-80982894D01*
X143794289Y-80999704D01*
X143801635Y-81015742D01*
X143810028Y-81030081D01*
X143822296Y-81046487D01*
X143836353Y-81061269D01*
X143852192Y-81074424D01*
X143869806Y-81085948D01*
X143889187Y-81095838D01*
X143910330Y-81104089D01*
X143933225Y-81110698D01*
X143957867Y-81115663D01*
X143984249Y-81118978D01*
X143987282Y-81119244D01*
X143996875Y-81119820D01*
X144008333Y-81120131D01*
X144021116Y-81120190D01*
X144034687Y-81120010D01*
X144048506Y-81119605D01*
X144062036Y-81118986D01*
X144074737Y-81118167D01*
X144086071Y-81117162D01*
X144089548Y-81116776D01*
X144128079Y-81111436D01*
X144167150Y-81104476D01*
X144206379Y-81096003D01*
X144245386Y-81086124D01*
X144283789Y-81074945D01*
X144321209Y-81062572D01*
X144357263Y-81049112D01*
X144391571Y-81034670D01*
X144403959Y-81029000D01*
X144433904Y-81014187D01*
X144462645Y-80998402D01*
X144490022Y-80981761D01*
X144515877Y-80964380D01*
X144540054Y-80946374D01*
X144562392Y-80927859D01*
X144582735Y-80908951D01*
X144600924Y-80889766D01*
X144611783Y-80876869D01*
X144616864Y-80870679D01*
X144620690Y-80866403D01*
X144623354Y-80863948D01*
X144624946Y-80863220D01*
X144625065Y-80863242D01*
X144630062Y-80864490D01*
X144637073Y-80865905D01*
X144645701Y-80867430D01*
X144655552Y-80869009D01*
X144666231Y-80870584D01*
X144677341Y-80872098D01*
X144688488Y-80873494D01*
X144699276Y-80874715D01*
X144709310Y-80875704D01*
X144714081Y-80876106D01*
X144724455Y-80876701D01*
X144735946Y-80876935D01*
X144748704Y-80876797D01*
X144762883Y-80876279D01*
X144778634Y-80875371D01*
X144796111Y-80874064D01*
X144815465Y-80872350D01*
X144836850Y-80870218D01*
X144860416Y-80867659D01*
X144867690Y-80866835D01*
X144901267Y-80862785D01*
X144937066Y-80858058D01*
X144974991Y-80852672D01*
X145014948Y-80846644D01*
X145056841Y-80839992D01*
X145100575Y-80832732D01*
X145146054Y-80824883D01*
X145193183Y-80816461D01*
X145241866Y-80807484D01*
X145292009Y-80797970D01*
X145343516Y-80787935D01*
X145396291Y-80777397D01*
X145450240Y-80766373D01*
X145505266Y-80754882D01*
X145561276Y-80742939D01*
X145618172Y-80730563D01*
X145627876Y-80728428D01*
X145638687Y-80726063D01*
X145648996Y-80723841D01*
X145658512Y-80721822D01*
X145666942Y-80720067D01*
X145673994Y-80718637D01*
X145679378Y-80717591D01*
X145682801Y-80716990D01*
X145683514Y-80716892D01*
X145692901Y-80716921D01*
X145702833Y-80718839D01*
X145712687Y-80722419D01*
X145721839Y-80727433D01*
X145729667Y-80733651D01*
X145729912Y-80733890D01*
X145733600Y-80738128D01*
X145738134Y-80744343D01*
X145743385Y-80752297D01*
X145749222Y-80761753D01*
X145755515Y-80772474D01*
X145762135Y-80784223D01*
X145768952Y-80796764D01*
X145775836Y-80809859D01*
X145782656Y-80823270D01*
X145789284Y-80836762D01*
X145795590Y-80850096D01*
X145801442Y-80863037D01*
X145804436Y-80869933D01*
X145813857Y-80893569D01*
X145821358Y-80915830D01*
X145826936Y-80936702D01*
X145830589Y-80956175D01*
X145832317Y-80974238D01*
X145832116Y-80990880D01*
X145829987Y-81006088D01*
X145826161Y-81019236D01*
X145822876Y-81026183D01*
X145818225Y-81033696D01*
X145812809Y-81040929D01*
X145807225Y-81047037D01*
X145805173Y-81048895D01*
X145799897Y-81052978D01*
X145794199Y-81056584D01*
X145787893Y-81059749D01*
X145780792Y-81062511D01*
X145772710Y-81064908D01*
X145763460Y-81066978D01*
X145752856Y-81068758D01*
X145740711Y-81070286D01*
X145726838Y-81071601D01*
X145711051Y-81072739D01*
X145693164Y-81073738D01*
X145679281Y-81074377D01*
X145672502Y-81074644D01*
X145663647Y-81074957D01*
X145653057Y-81075307D01*
X145641073Y-81075684D01*
X145628038Y-81076075D01*
X145614294Y-81076472D01*
X145600181Y-81076864D01*
X145586042Y-81077240D01*
X145578890Y-81077424D01*
X145542559Y-81078382D01*
X145508442Y-81079364D01*
X145476333Y-81080379D01*
X145446026Y-81081437D01*
X145417316Y-81082548D01*
X145389998Y-81083723D01*
X145363866Y-81084972D01*
X145338715Y-81086305D01*
X145314339Y-81087731D01*
X145290533Y-81089261D01*
X145267091Y-81090905D01*
X145243808Y-81092673D01*
X145220478Y-81094576D01*
X145208171Y-81095629D01*
X145155917Y-81100537D01*
X145105685Y-81106029D01*
X145057136Y-81112174D01*
X145009930Y-81119044D01*
X144963726Y-81126707D01*
X144918186Y-81135235D01*
X144872968Y-81144697D01*
X144827733Y-81155164D01*
X144782141Y-81166705D01*
X144735851Y-81179391D01*
X144688525Y-81193292D01*
X144639822Y-81208478D01*
X144602805Y-81220548D01*
X144583381Y-81227028D01*
X144565406Y-81233119D01*
X144548682Y-81238913D01*
X144533015Y-81244501D01*
X144518207Y-81249974D01*
X144504063Y-81255423D01*
X144490387Y-81260941D01*
X144476982Y-81266617D01*
X144463654Y-81272544D01*
X144450205Y-81278812D01*
X144436440Y-81285513D01*
X144422163Y-81292738D01*
X144407178Y-81300579D01*
X144391288Y-81309126D01*
X144374298Y-81318471D01*
X144356012Y-81328706D01*
X144336233Y-81339920D01*
X144314766Y-81352206D01*
X144292562Y-81364994D01*
X144275353Y-81374912D01*
X144260003Y-81383726D01*
X144246287Y-81391559D01*
X144233981Y-81398536D01*
X144222859Y-81404781D01*
X144212696Y-81410418D01*
X144203268Y-81415570D01*
X144194349Y-81420362D01*
X144185715Y-81424918D01*
X144177141Y-81429361D01*
X144168402Y-81433816D01*
X144160724Y-81437681D01*
X144138329Y-81448625D01*
X144117488Y-81458212D01*
X144097841Y-81466565D01*
X144079029Y-81473807D01*
X144060693Y-81480063D01*
X144042475Y-81485458D01*
X144024014Y-81490114D01*
X144004954Y-81494155D01*
X143988677Y-81497089D01*
X143968354Y-81500306D01*
X143949639Y-81502834D01*
X143931839Y-81504729D01*
X143914260Y-81506048D01*
X143896210Y-81506846D01*
X143876994Y-81507179D01*
X143863785Y-81507174D01*
X143854669Y-81507106D01*
X143846083Y-81507017D01*
X143838401Y-81506915D01*
X143831999Y-81506803D01*
X143827251Y-81506689D01*
X143824533Y-81506577D01*
X143824476Y-81506573D01*
X143793260Y-81503482D01*
X143762468Y-81498804D01*
X143732395Y-81492614D01*
X143703332Y-81484988D01*
X143675573Y-81476000D01*
X143649413Y-81465726D01*
X143629643Y-81456537D01*
X143600214Y-81440458D01*
X143571542Y-81422101D01*
X143543653Y-81401494D01*
X143516573Y-81378665D01*
X143490329Y-81353643D01*
X143464947Y-81326455D01*
X143440452Y-81297130D01*
X143416871Y-81265696D01*
X143394230Y-81232180D01*
X143372555Y-81196612D01*
X143351872Y-81159018D01*
X143350388Y-81156170D01*
X143337700Y-81130451D01*
X143325867Y-81103796D01*
X143314766Y-81075884D01*
X143304273Y-81046397D01*
X143294267Y-81015013D01*
X143288609Y-80995717D01*
X143286015Y-80986601D01*
X143201762Y-80952615D01*
X143188227Y-80947138D01*
X143175364Y-80941900D01*
X143163348Y-80936973D01*
X143152352Y-80932431D01*
X143142549Y-80928345D01*
X143134113Y-80924790D01*
X143127219Y-80921837D01*
X143122038Y-80919559D01*
X143118745Y-80918029D01*
X143117514Y-80917320D01*
X143117509Y-80917304D01*
X143118392Y-80916318D01*
X143120953Y-80913845D01*
X143125062Y-80910004D01*
X143130587Y-80904914D01*
X143137398Y-80898694D01*
X143145363Y-80891464D01*
X143154352Y-80883341D01*
X143164234Y-80874445D01*
X143174878Y-80864895D01*
X143186153Y-80854809D01*
X143194919Y-80846988D01*
X143272328Y-80777997D01*
X143277258Y-80764379D01*
X143286973Y-80740353D01*
X143298372Y-80717415D01*
X143311595Y-80695356D01*
X143326781Y-80673968D01*
X143344069Y-80653041D01*
X143363600Y-80632368D01*
X143369219Y-80626857D01*
X143392299Y-80606225D01*
X143417187Y-80587134D01*
X143443794Y-80569632D01*
X143472029Y-80553762D01*
X143501801Y-80539570D01*
X143533019Y-80527102D01*
X143565592Y-80516402D01*
X143599430Y-80507517D01*
X143615228Y-80504086D01*
X143630450Y-80501125D01*
X143644069Y-80498803D01*
X143656793Y-80497044D01*
X143669328Y-80495767D01*
X143682382Y-80494896D01*
X143696662Y-80494350D01*
X143704733Y-80494171D01*
X143720768Y-80494026D01*
X143734982Y-80494235D01*
G37*
%TD*%
D11*
%TO.C,RESET1*%
X155710000Y-86545000D03*
X155710000Y-82095000D03*
%TD*%
D12*
%TO.C,R210*%
X177317400Y-78210600D03*
X177317400Y-77190600D03*
%TD*%
D13*
%TO.C,C4*%
X164645400Y-89281002D03*
X165605400Y-89281002D03*
%TD*%
D14*
%TO.C,C1*%
X163709400Y-80268700D03*
X163709400Y-81228700D03*
%TD*%
D15*
%TO.C,U4*%
X192191600Y-83128700D03*
X193141600Y-83128700D03*
X194091600Y-83128700D03*
X194091600Y-80853700D03*
X192191600Y-80853700D03*
%TD*%
D16*
%TO.C,C15*%
X172665400Y-78490202D03*
X172665400Y-77530202D03*
%TD*%
D17*
%TO.C,D3*%
X199209200Y-79654400D03*
X200609200Y-79654400D03*
%TD*%
D18*
%TO.C,J2*%
X203305000Y-81490000D03*
X203305000Y-80690000D03*
D19*
X203305000Y-79490000D03*
X203305000Y-78490000D03*
X203305000Y-77990000D03*
X203305000Y-76990000D03*
D18*
X203305000Y-75790000D03*
X203305000Y-74990000D03*
X203305000Y-74990000D03*
X203305000Y-75790000D03*
D19*
X203305000Y-76490000D03*
X203305000Y-77490000D03*
X203305000Y-78990000D03*
X203305000Y-79990000D03*
D18*
X203305000Y-80690000D03*
X203305000Y-81490000D03*
D20*
X204220000Y-82560000D03*
D21*
X208400000Y-82560000D03*
D20*
X204220000Y-73920000D03*
D21*
X208400000Y-73920000D03*
%TD*%
D22*
%TO.C,U2*%
X171811400Y-89547002D03*
X172161400Y-89547002D03*
X172511400Y-89547002D03*
X172861400Y-89547002D03*
X173211400Y-89547002D03*
X173561400Y-89547002D03*
X173911400Y-89547002D03*
X174261400Y-89547002D03*
X174611400Y-89547002D03*
X174961400Y-89547002D03*
X175311400Y-89547002D03*
X175661400Y-89547002D03*
X176011400Y-89547002D03*
X176361400Y-89547002D03*
X176711400Y-89547002D03*
X177061400Y-89547002D03*
X177411400Y-89547002D03*
X177761400Y-89547002D03*
X178111400Y-89547002D03*
X178461400Y-89547002D03*
X178811400Y-89547002D03*
X179161400Y-89547002D03*
X179511400Y-89547002D03*
X179861400Y-89547002D03*
X180211400Y-89547002D03*
X180561400Y-89547002D03*
D23*
X181061400Y-89047002D03*
X181061400Y-88697002D03*
X181061400Y-88347002D03*
X181061400Y-87997002D03*
X181061400Y-87647002D03*
X181061400Y-87297002D03*
X181061400Y-86947002D03*
X181061400Y-86597002D03*
X181061400Y-86247002D03*
X181061400Y-85897002D03*
X181061400Y-85547002D03*
X181061400Y-85197002D03*
X181061400Y-84847002D03*
X181061400Y-84497002D03*
X181061400Y-84147002D03*
X181061400Y-83797002D03*
X181061400Y-83447002D03*
X181061400Y-83097002D03*
X181061400Y-82747002D03*
X181061400Y-82397002D03*
X181061400Y-82047002D03*
X181061400Y-81697002D03*
X181061400Y-81347002D03*
X181061400Y-80997002D03*
X181061400Y-80647002D03*
X181061400Y-80297002D03*
D22*
X180561400Y-79797002D03*
X180211400Y-79797002D03*
X179861400Y-79797002D03*
X179511400Y-79797002D03*
X179161400Y-79797002D03*
X178811400Y-79797002D03*
X178461400Y-79797002D03*
X178111400Y-79797002D03*
X177761400Y-79797002D03*
X177411400Y-79797002D03*
X177061400Y-79797002D03*
X176711400Y-79797002D03*
X176361400Y-79797002D03*
X176011400Y-79797002D03*
X175661400Y-79797002D03*
X175311400Y-79797002D03*
X174961400Y-79797002D03*
X174611400Y-79797002D03*
X174261400Y-79797002D03*
X173911400Y-79797002D03*
X173561400Y-79797002D03*
X173211400Y-79797002D03*
X172861400Y-79797002D03*
X172511400Y-79797002D03*
X172161400Y-79797002D03*
X171811400Y-79797002D03*
D23*
X171311400Y-80297002D03*
X171311400Y-80647002D03*
X171311400Y-80997002D03*
X171311400Y-81347002D03*
X171311400Y-81697002D03*
X171311400Y-82047002D03*
X171311400Y-82397002D03*
X171311400Y-82747002D03*
X171311400Y-83097002D03*
X171311400Y-83447002D03*
X171311400Y-83797002D03*
X171311400Y-84147002D03*
X171311400Y-84497002D03*
X171311400Y-84847002D03*
X171311400Y-85197002D03*
X171311400Y-85547002D03*
X171311400Y-85897002D03*
X171311400Y-86247002D03*
X171311400Y-86597002D03*
X171311400Y-86947002D03*
X171311400Y-87297002D03*
X171311400Y-87647002D03*
X171311400Y-87997002D03*
X171311400Y-88347002D03*
X171311400Y-88697002D03*
X171311400Y-89047002D03*
D24*
X173486400Y-87372002D03*
X176186400Y-87372002D03*
X178886400Y-87372002D03*
X173486400Y-84672002D03*
X176186400Y-84672002D03*
X178886400Y-84672002D03*
X173486400Y-81972002D03*
X176186400Y-81972002D03*
X178886400Y-81972002D03*
%TD*%
D13*
%TO.C,C5*%
X164597200Y-85166202D03*
X165557200Y-85166202D03*
%TD*%
D25*
%TO.C,C3*%
X169246600Y-78970700D03*
X169246600Y-80520700D03*
%TD*%
D26*
%TO.C,J10*%
X200160000Y-94480000D03*
X197620000Y-94480000D03*
X195080000Y-94480000D03*
X192540000Y-94480000D03*
%TD*%
D27*
%TO.C,D8*%
X200945100Y-84080000D03*
X199070100Y-84080000D03*
%TD*%
D28*
%TO.C,C10*%
X193634400Y-79013900D03*
X192084400Y-79013900D03*
%TD*%
D29*
%TO.C,U1*%
X167507500Y-82230000D03*
X167507500Y-81280000D03*
X167507500Y-80330000D03*
X165232500Y-80330000D03*
X165232500Y-82230000D03*
%TD*%
D12*
%TO.C,R13*%
X197612000Y-85092000D03*
X197612000Y-84072000D03*
%TD*%
D30*
%TO.C,R12*%
X199438800Y-87368000D03*
X200458800Y-87368000D03*
%TD*%
D26*
%TO.C,J9*%
X200160000Y-74160000D03*
X197620000Y-74160000D03*
X195080000Y-74160000D03*
X192540000Y-74160000D03*
%TD*%
D30*
%TO.C,R11*%
X199438800Y-91490800D03*
X200458800Y-91490800D03*
%TD*%
D31*
%TO.C,L2*%
X193947200Y-85096700D03*
X193947200Y-87246700D03*
%TD*%
D18*
%TO.C,J1*%
X203305000Y-93170000D03*
X203305000Y-92370000D03*
D19*
X203305000Y-91170000D03*
X203305000Y-90170000D03*
X203305000Y-89670000D03*
X203305000Y-88670000D03*
D18*
X203305000Y-87470000D03*
X203305000Y-86670000D03*
X203305000Y-86670000D03*
X203305000Y-87470000D03*
D19*
X203305000Y-88170000D03*
X203305000Y-89170000D03*
X203305000Y-90670000D03*
X203305000Y-91670000D03*
D18*
X203305000Y-92370000D03*
X203305000Y-93170000D03*
D20*
X204220000Y-94240000D03*
D21*
X208400000Y-94240000D03*
D20*
X204220000Y-85600000D03*
D21*
X208400000Y-85600000D03*
%TD*%
D32*
%TO.C,D7*%
X200679200Y-88536400D03*
X201379200Y-88536400D03*
%TD*%
D33*
%TO.C,U3*%
X183786200Y-91211402D03*
X185056200Y-91211402D03*
X186326200Y-91211402D03*
X187596200Y-91211402D03*
X187596200Y-85811402D03*
X186326200Y-85811402D03*
X185056200Y-85811402D03*
X183786200Y-85811402D03*
D34*
X185691200Y-88511402D03*
%TD*%
D35*
%TO.C,BOOT1*%
X132850000Y-82095000D03*
X132850000Y-86545000D03*
%TD*%
D36*
%TO.C,R3*%
X168252200Y-88198002D03*
X167232200Y-88198002D03*
%TD*%
D30*
%TO.C,R5*%
X199235600Y-80924400D03*
X200255600Y-80924400D03*
%TD*%
D37*
%TO.C,D1*%
X141830000Y-82670000D03*
X141830000Y-85970000D03*
X146730000Y-85970000D03*
X146730000Y-82670000D03*
%TD*%
D36*
%TO.C,R4*%
X168252200Y-87198002D03*
X167232200Y-87198002D03*
%TD*%
D32*
%TO.C,D6*%
X200679200Y-90322400D03*
X201379200Y-90322400D03*
%TD*%
D38*
%TO.C,Y1*%
X165689200Y-87914802D03*
X165689200Y-86514802D03*
X164589200Y-86514802D03*
X164589200Y-87914802D03*
%TD*%
D14*
%TO.C,C38*%
X139850000Y-83840000D03*
X139850000Y-84800000D03*
%TD*%
D39*
%TO.C,J11*%
X127964800Y-82820000D03*
X127964800Y-83820000D03*
X127964800Y-84820000D03*
X127964800Y-85820000D03*
D40*
X124089800Y-81520000D03*
X124089800Y-87120000D03*
%TD*%
D17*
%TO.C,D2*%
X199198000Y-77774800D03*
X200598000Y-77774800D03*
%TD*%
D16*
%TO.C,C17*%
X174244000Y-78409802D03*
X174244000Y-77449802D03*
%TD*%
D41*
%TO.C,L1*%
X165225200Y-78159900D03*
X167375200Y-78159900D03*
%TD*%
D42*
%TO.C,C37*%
X191712000Y-86540300D03*
X191712000Y-84990300D03*
%TD*%
D43*
%TO.C,C39*%
X176502000Y-76225400D03*
X175542000Y-76225400D03*
%TD*%
D26*
%TO.C,J7*%
X164600000Y-94480000D03*
X162060000Y-94480000D03*
X159520000Y-94480000D03*
X156980000Y-94480000D03*
X154440000Y-94480000D03*
X151900000Y-94480000D03*
X149360000Y-94480000D03*
X146820000Y-94480000D03*
%TD*%
%TO.C,J5*%
X141740000Y-74160000D03*
X139200000Y-74160000D03*
X136660000Y-74160000D03*
X134120000Y-74160000D03*
X131580000Y-74160000D03*
X129040000Y-74160000D03*
X126500000Y-74160000D03*
X123960000Y-74160000D03*
%TD*%
%TO.C,J4*%
X164600000Y-74160000D03*
X162060000Y-74160000D03*
X159520000Y-74160000D03*
X156980000Y-74160000D03*
X154440000Y-74160000D03*
X151900000Y-74160000D03*
X149360000Y-74160000D03*
X146820000Y-74160000D03*
%TD*%
%TO.C,J8*%
X141740000Y-94480000D03*
X139200000Y-94480000D03*
X136660000Y-94480000D03*
X134120000Y-94480000D03*
X131580000Y-94480000D03*
X129040000Y-94480000D03*
X126500000Y-94480000D03*
X123960000Y-94480000D03*
%TD*%
%TO.C,J6*%
X187460000Y-94480000D03*
X184920000Y-94480000D03*
X182380000Y-94480000D03*
X179840000Y-94480000D03*
X177300000Y-94480000D03*
X174760000Y-94480000D03*
X172220000Y-94480000D03*
X169680000Y-94480000D03*
%TD*%
%TO.C,J3*%
X187460000Y-74160000D03*
X184920000Y-74160000D03*
X182380000Y-74160000D03*
X179840000Y-74160000D03*
X177300000Y-74160000D03*
X174760000Y-74160000D03*
X172220000Y-74160000D03*
X169680000Y-74160000D03*
%TD*%
M02*
